<svg xmlns="http://www.w3.org/2000/svg" xmlns:xlink="http://www.w3.org/1999/xlink" width="56" height="56" viewBox="0 0 56 56">
    <defs>
        <path id="b" d="M20 40c7.784 0 14.53-4.447 17.834-10.939A19.916 19.916 0 0 0 40 20C40 8.954 31.046 0 20 0S0 8.954 0 20s8.954 20 20 20z"/>
        <filter id="a" width="160%" height="160%" x="-30%" y="-30%" filterUnits="objectBoundingBox">
            <feOffset in="SourceAlpha" result="shadowOffsetOuter1"/>
            <feGaussianBlur in="shadowOffsetOuter1" result="shadowBlurOuter1" stdDeviation="4"/>
            <feColorMatrix in="shadowBlurOuter1" values="0 0 0 0 0 0 0 0 0 0 0 0 0 0 0 0 0 0 0.233808877 0"/>
        </filter>
        <path id="c" d="M4.905 13.986L13.39 5.5l3.264 3.263-8.479 8.478-4.902 1.639 1.632-4.895zM18.612 5.5c.36.359.36.946 0 1.305l-.653.652-.653.653-3.263-3.263.87-.87.435-.436a.925.925 0 0 1 1.305 0l1.96 1.959z"/>
    </defs>
    <g fill="none" fill-rule="evenodd">
        <g transform="translate(8 8)">
            <use fill="#000" filter="url(#a)" xlink:href="#b"/>
            <use fill="#FFF" xlink:href="#b"/>
        </g>
        <g transform="translate(17.09 17.09)">
            <mask id="d" fill="#fff">
                <use xlink:href="#c"/>
            </mask>
            <g fill="#006192" mask="url(#d)">
                <path d="M0 0h21.333v21.333H0z"/>
            </g>
        </g>
    </g>
</svg>
