<?xml version="1.0" encoding="utf-8"?>
<!-- Generator: Adobe Illustrator 22.0.1, SVG Export Plug-In . SVG Version: 6.00 Build 0)  -->
<svg version="1.1" id="圖層_1" xmlns="http://www.w3.org/2000/svg" xmlns:xlink="http://www.w3.org/1999/xlink" x="0px" y="0px"
	 viewBox="0 0 20 19" style="enable-background:new 0 0 20 19;" xml:space="preserve">
<style type="text/css">
	.st0{fill:#767676;}
</style>
<title>Atom / Product Icon / [Assets] / Icons / Home Copy 2</title>
<desc>Created with Sketch.</desc>
<path id="path-1_1_" class="st0" d="M17.5,9.3v8.6c0,0.2-0.2,0.4-0.4,0.4h-5c-0.2,0-0.4-0.2-0.4-0.4v-5.4H8.3v5.4
	c0,0.2-0.2,0.4-0.4,0.4h-5c-0.2,0-0.4-0.2-0.4-0.4V9.3l-1.4,1.4c-0.2,0.2-0.4,0.2-0.6,0c-0.2-0.2-0.2-0.4,0-0.6L9.7,1
	c0.2-0.2,0.4-0.2,0.6,0l9.2,9.2c0.2,0.2,0.2,0.4,0,0.6c-0.1,0.1-0.2,0.1-0.3,0.1s-0.2,0-0.3-0.1L17.5,9.3z M3.3,8.5v9h4.2v-5.4
	c0-0.2,0.2-0.4,0.4-0.4h4.2c0.2,0,0.4,0.2,0.4,0.4v5.4h4.2v-9L10,1.8L3.3,8.5z"/>
</svg>
