<?xml version="1.0" encoding="utf-8"?>
<!-- Generator: Adobe Illustrator 22.0.1, SVG Export Plug-In . SVG Version: 6.00 Build 0)  -->
<svg version="1.1" id="圖層_1" xmlns="http://www.w3.org/2000/svg" xmlns:xlink="http://www.w3.org/1999/xlink" x="0px" y="0px"
	 viewBox="0 0 24 24" style="enable-background:new 0 0 24 24;" xml:space="preserve">
<style type="text/css">
	.st0{fill:#006192;}
</style>
<g>
	<path id="path-1_1_" class="st0" d="M18.6,15.9l-1.7,1.7l-0.5-0.5c-0.3-0.3-0.7-0.3-0.9,0c-0.3,0.3-0.3,0.7,0,0.9l0.9,0.9
		c0.1,0.1,0.3,0.2,0.5,0.2s0.3-0.1,0.5-0.2l2.2-2.2c0.3-0.3,0.3-0.7,0-0.9C19.3,15.7,18.9,15.7,18.6,15.9 M17.5,21.4
		c-2.1,0-3.9-1.8-3.9-3.9c0-2.2,1.7-3.9,3.9-3.9s3.9,1.8,3.9,3.9C21.4,19.7,19.6,21.4,17.5,21.4 M17.5,12c-3,0-5.5,2.5-5.5,5.5
		s2.5,5.5,5.5,5.5c3,0,5.5-2.5,5.5-5.5S20.5,12,17.5,12 M3.6,5.4V4.6h16.8v0.8L12,9.1L3.6,5.4z M20.4,7.1V11c0.6,0.3,1.1,0.6,1.6,1
		V4c0-0.5-0.4-1-1-1H3C2.5,3,2,3.5,2,4v4.3v2V18c0,0.6,0.5,1,1,1h7.6c-0.1-0.5-0.2-1-0.2-1.5c0,0,0-0.1,0-0.1H3.6v-7.1v-2V7.1
		l8.1,3.6c0.1,0,0.2,0.1,0.3,0.1c0.1,0,0.2,0,0.3-0.1L20.4,7.1z"/>
</g>
</svg>
