<svg xmlns="http://www.w3.org/2000/svg" width="90" height="90" viewBox="0 0 90 90">
    <g fill="#6DC1E8" fill-rule="evenodd">
        <path d="M57.717 43.338h-1.521a2.12 2.12 0 0 1 3.003-.043c.842.82.86 2.167.043 3.01a2.12 2.12 0 0 1-3.046 0h1.515c.818 0 1.48-.664 1.48-1.483 0-.82-.662-1.484-1.48-1.484h.006zm-4.837 2.968a5.08 5.08 0 0 0 6.343 3.39 5.098 5.098 0 0 0 3.383-6.358 5.081 5.081 0 0 0-9.726 0h-6.188c.818-6.106 6.419-10.392 12.51-9.573 6.092.82 10.367 6.434 9.55 12.54-.818 6.107-6.419 10.393-12.51 9.574a11.142 11.142 0 0 1-9.55-9.573h6.188zm-9.178 0c.818 7.757 7.753 13.38 15.492 12.561 7.738-.82 13.348-7.772 12.53-15.53-.817-7.756-7.753-13.38-15.49-12.56-6.61.7-11.833 5.935-12.532 12.56h-6.05c.818-11.114 10.47-19.46 21.558-18.641 11.088.82 19.414 10.494 18.596 21.61C76.99 57.42 67.337 65.767 56.25 64.948c-9.95-.736-17.863-8.667-18.597-18.642h6.05zm14.01-30.697c16.096-.021 29.161 13.042 29.182 29.176.02 16.135-13.01 29.232-29.105 29.253-15.536.02-28.356-12.18-29.144-27.732h6.047c.817 12.758 11.798 22.436 24.525 21.617 12.727-.82 22.381-11.827 21.564-24.585C79.963 30.58 68.983 20.9 56.256 21.72c-11.587.746-20.82 10.001-21.564 21.617h-6.047c.793-15.52 13.565-27.704 29.068-27.73zM14.726 51.073h-9.58L8.037 46.4h9.576l-2.888 4.674zm0-12.41l2.892 4.675H8.042l-2.897-4.674h9.58zm10.921 4.675H21.1l-4.292-6.94a1.48 1.48 0 0 0-1.259-.702H2.49a1.482 1.482 0 0 0-1.258 2.266l4.273 6.906-4.273 6.907a1.486 1.486 0 0 0 1.258 2.266h13.06a1.48 1.48 0 0 0 1.259-.702l4.35-7.033h4.488c.818 17.754 15.838 31.482 33.548 30.662 17.711-.82 31.406-15.876 30.588-33.63-.817-17.754-15.837-31.482-33.548-30.663-16.566.767-29.823 14.056-30.588 30.663zM15.802 2.968h11.842V0H15.802zM27.644 13.355h11.842v-2.968H27.644zM9.881 2.968h2.961V0h-2.96z"/>
        <path d="M6.921 31.161h11.842v-2.967H6.921zM1 31.161h2.96v-2.967H1zM12.842 63.806h8.881V60.84h-8.881zM6.921 63.806h2.96V60.84h-2.96zM30.605 77.161h2.96v-2.967h-2.96zM6.921 89.021h11.842v-2.956H6.921zM1 89.021h2.96v-2.956H1z"/>
    </g>
</svg>
