<?xml version="1.0" encoding="utf-8"?>
<!-- Generator: Adobe Illustrator 22.0.1, SVG Export Plug-In . SVG Version: 6.00 Build 0)  -->
<svg version="1.1" id="圖層_1" xmlns="http://www.w3.org/2000/svg" xmlns:xlink="http://www.w3.org/1999/xlink" x="0px" y="0px"
	 viewBox="0 0 24 24" style="enable-background:new 0 0 24 24;" xml:space="preserve">
<style type="text/css">
	.st0{fill:#DC3149;}
</style>
<g>
	<path id="path-1_1_" class="st0" d="M13.1,17c0,0.5-0.4,1-1,1h-0.2c-0.6,0-1-0.5-1-1v-0.2c0-0.5,0.4-1,1-1h0.2c0.6,0,1,0.4,1,1V17z
		 M13,13.3c0,0.4-0.3,0.7-0.7,0.7h-0.6c-0.4,0-0.7-0.3-0.7-0.7V6.7C11,6.3,11.3,6,11.7,6h0.6C12.7,6,13,6.3,13,6.7V13.3z M23,12
		c0-6.1-4.9-11-11-11C5.9,1,1,5.9,1,12c0,0.4,0,0.8,0.1,1.1c0.4,3.7,2.6,6.9,5.7,8.5c0.3,0.2,0.6,0.3,1,0.5c1,0.4,2,0.7,3.2,0.8
		c0.4,0,0.7,0.1,1.1,0.1c0.4,0,0.8,0,1.1-0.1c1.1-0.1,2.2-0.4,3.2-0.8c0.3-0.1,0.6-0.3,1-0.5c3.1-1.7,5.3-4.9,5.7-8.5
		C23,12.8,23,12.4,23,12L23,12z"/>
</g>
</svg>
