<svg xmlns="http://www.w3.org/2000/svg" xmlns:xlink="http://www.w3.org/1999/xlink" width="24" height="24" viewBox="0 0 24 24">
	<style type="text/css">
		.st0{fill:#007AB3;}
		.st1{fill:none;}
	</style>
	<g>
		<path class="st0" d="M15,9.2H7.8l2.7-2.7c0.3-0.3,0.3-0.8,0-1.1s-0.8-0.3-1.1,0l-4,4c-0.3,0.3-0.3,0.8,0,1.1l4,4
			c0.1,0.1,0.3,0.2,0.5,0.2c0.2,0,0.4-0.1,0.5-0.2c0.3-0.3,0.3-0.8,0-1.1l-2.6-2.6H15c1.2,0,2.2,1,2.2,2.2v5c0,0.4,0.3,0.8,0.8,0.8
			s0.8-0.3,0.8-0.8v-5C18.8,10.9,17.1,9.2,15,9.2z"/>
		<rect class="st1" width="24" height="24"/>
	</g>
</svg>
