<?xml version="1.0" encoding="utf-8"?>
<!-- Generator: Adobe Illustrator 22.0.1, SVG Export Plug-In . SVG Version: 6.00 Build 0)  -->
<svg width="30px" height="30px"  version="1.1" id="圖層_1" xmlns="http://www.w3.org/2000/svg" xmlns:xlink="http://www.w3.org/1999/xlink" x="0px" y="0px"
	 viewBox="0 0 30 30" style="enable-background:new 0 0 30 30;" xml:space="preserve">
<style type="text/css">
	.st0{fill:#007AB3;}
</style>
<g>
	<path id="path-1_1_" class="st0" d="M10.9,20l1.3-3.9L20,8.2l2.6,2.6l-7.8,7.8L10.9,20z M24.6,7.6c0.4,0.4,0.4,0.9,0,1.3l-0.7,0.7
		h0l-0.7,0.7l-2.6-2.6l0.9-0.9L22,6.3c0.4-0.4,0.9-0.4,1.3,0L24.6,7.6z M21.4,22.9v-8l1.6-1.6v9.6c0,1.1-0.9,2-2,2H8
		c-1.1,0-2-0.9-2-2v-13c0-1.1,0.9-2,2-2h9.5l-1.6,1.6H8c-0.2,0-0.4,0.2-0.4,0.4v13c0,0.2,0.2,0.4,0.4,0.4h13
		C21.2,23.3,21.4,23.1,21.4,22.9z"/>
</g>
</svg>
