<?xml version="1.0" encoding="utf-8"?>
<!-- Generator: Adobe Illustrator 22.0.1, SVG Export Plug-In . SVG Version: 6.00 Build 0)  -->
<svg version="1.1" id="圖層_1" xmlns="http://www.w3.org/2000/svg" xmlns:xlink="http://www.w3.org/1999/xlink" x="0px" y="0px"
	 viewBox="0 0 24 24" style="enable-background:new 0 0 24 24;" xml:space="preserve">
<style type="text/css">
	.st0{fill:#007ab3;}
</style>
<title>AEBCCE26-EBF3-4AC6-8297-FE3D20E84984</title>
<desc>Created with sketchtool.</desc>
<g>
	<path id="path-1_1_" class="st0" d="M3.6,18.4v-7.1v-2V8.1l8.1,3.6c0.1,0,0.2,0.1,0.3,0.1c0.1,0,0.2,0,0.3-0.1l8.1-3.6v10.3H3.6z
		 M20.4,5.6v0.8L12,10.1L3.6,6.4V5.6H20.4z M21,4H3C2.5,4,2,4.5,2,5v4.3v2V19c0,0.6,0.5,1,1,1h18c0.5,0,1-0.4,1-1V5
		C22,4.5,21.5,4,21,4L21,4z"/>
</g>
</svg>
