<?xml version="1.0" encoding="UTF-8"?>
<svg width="60px" height="60px" viewBox="0 0 60 60" version="1.1" xmlns="http://www.w3.org/2000/svg" xmlns:xlink="http://www.w3.org/1999/xlink">
    <!-- Generator: sketchtool 53.2 (72643) - https://sketchapp.com -->
    <title>0089BF60-9AD8-4C12-B826-93313BF1843A</title>
    <desc>Created with sketchtool.</desc>
    <defs>
        <circle id="path-1" cx="30" cy="30" r="30"></circle>
    </defs>
    <g id="Guidline" stroke="none" stroke-width="1" fill="none" fill-rule="evenodd">
        <g id="C28" transform="translate(-160.000000, -357.000000)">
            <g id="客戶/男" transform="translate(160.000000, 357.000000)">
                <g id="Group-6">
                    <g id="Group-4">
                        <g id="Group-6-Copy">
                            <mask id="mask-2" fill="white">
                                <use xlink:href="#path-1"></use>
                            </mask>
                            <use id="Mask" fill="#E5E5EE" xlink:href="#path-1"></use>
                            <g mask="url(#mask-2)">
                                <g transform="translate(9.000000, 9.000000)">
                                    <polygon id="Shape" fill="#FFE4C3" fill-rule="nonzero" points="28.1941739 33.2854994 28.1941739 27.6022218 13.6430119 27.6022218 13.6430119 33.2854994 20.918494 39.7803618"></polygon>
                                    <path d="M39.543578,35.9253838 L29.5404822,33.5617202 C29.3894204,33.5261749 29.2504198,33.4654103 29.1205146,33.3919368 L21.0183451,38.138526 L13.2321397,33.1623816 C13.0304604,33.3530156 12.7805363,33.4946011 12.496208,33.5617202 L2.49311213,35.9253838 C1.03232124,36.2705109 0,37.5795314 0,39.0867318 L0,45.4453703 C0,46.3421446 0.723870531,47.0691355 1.61679578,47.0691355 L40.4196966,47.0691355 C41.3126219,47.0691355 42.0364924,46.3421446 42.0364924,45.4453703 L42.0364924,39.0867318 C42.0366901,37.5795314 41.0043689,36.2705109 39.543578,35.9253838 Z" id="Shape" fill="#EFF2FA" fill-rule="nonzero"></path>
                                    <path d="M13.6430119,27.6022218 L13.6430119,33.598457 C22.8083478,36.9146951 28.1941739,28.6147666 28.1941739,28.6147666 L28.1941739,27.6022218 L13.6430119,27.6022218 Z" id="Shape" fill="#FFCC96" fill-rule="nonzero"></path>
                                    <path d="M10.479415,8.93597108 L11.1839085,24.5008441 C11.2497508,25.9550245 11.9595829,27.3031646 13.1190412,28.1767055 L16.4615791,30.6944649 C17.3011186,31.3269331 18.3223673,31.6686844 19.3716928,31.6686844 L22.6052844,31.6686844 C23.65461,31.6686844 24.6760563,31.3267346 25.5153981,30.6944649 L28.8579361,28.1767055 C30.0173944,27.3033632 30.7272265,25.9550245 30.7930688,24.5008441 L31.4975623,8.93597108 L10.479415,8.93597108 Z" id="Shape" fill="#FFE4C3" fill-rule="nonzero"></path>
                                    <path d="M18.5633938,12.1835015 C21.7969854,12.1835015 26.6473727,11.3717183 27.7977357,8.93597108 L10.479415,8.93597108 L11.1837108,24.5008441 C11.2495531,25.9550245 11.9593851,27.3031646 13.1188434,28.1767055 L16.4613814,30.6944649 C17.3009209,31.3269331 18.3221695,31.6686844 19.3714951,31.6686844 L20.9882909,31.6686844 C19.3714951,31.6686844 16.1379036,28.4211539 16.1379036,24.3616416 C16.1379036,22.3762673 16.1379036,17.0545987 16.1379036,14.6190502 C16.1381013,13.8070682 16.9465981,12.1835015 18.5633938,12.1835015 Z" id="Shape" fill="#FFD8A8" fill-rule="nonzero"></path>
                                    <g id="Group" stroke-width="1" fill="none" fill-rule="evenodd" transform="translate(0.000000, 37.133924)">
                                        <path d="M36.1518066,4.80914106 L41.39013,0.0832038199 C41.8290791,0.641404147 42.0865168,1.34377148 42.0865168,2.09578308 L42.0865168,8.4544215 C42.0865168,9.35119587 41.3626463,10.0781867 40.469721,10.0781867 L34.8110347,10.0781867 L34.8110347,7.82890355 C34.8110347,6.67695759 35.298624,5.57922319 36.1518066,4.80914106 Z" id="Shape" fill="#E4EAF6" fill-rule="nonzero"></path>
                                        <path d="M5.98493229,4.80914106 L0.746608884,0.0832038199 C0.307659805,0.641404147 0.0502221018,1.34377148 0.0502221018,2.09578308 L0.0502221018,8.4544215 C0.0502221018,9.35119587 0.774092629,10.0781867 1.66701788,10.0781867 L7.32570429,10.0781867 L7.32570423,7.82890355 C7.32590195,6.67695759 6.83831257,5.57922319 5.98493229,4.80914106 Z" id="Shape" fill="#E4EAF6" fill-rule="nonzero"></path>
                                    </g>
                                    <polygon id="Shape" fill="#5B5D6E" fill-rule="nonzero" points="23.0236701 47.2208484 18.9815818 47.2208484 19.4869664 39.9140042 22.5182855 39.9140042"></polygon>
                                    <path d="M23.0236701,38.1268099 L18.9815818,38.1268099 L18.9815818,38.5958491 C18.9815818,39.6820661 19.8582936,40.5625571 20.9398483,40.5625571 L21.0652058,40.5625571 C22.1467606,40.5625571 23.0234724,39.6820661 23.0234724,38.5958491 L23.0234724,38.1268099 L23.0236701,38.1268099 Z" id="Shape" fill="#515262" fill-rule="nonzero"></path>
                                    <g id="Group" stroke-width="1" fill="none" fill-rule="evenodd" transform="translate(11.270314, 31.375187)">
                                        <path d="M2.40907909,0.22737082 L9.79805526,6.90611561 C9.79805526,6.90611561 7.72866741,7.95519865 5.17485374,10.0698465 C4.64811484,10.5061205 3.85108614,10.3293869 3.56873511,9.70506034 L0.097280607,2.03481991 L1.19544421,0.380473791 C1.46909534,-0.0313751873 2.04269502,-0.103657265 2.40907909,0.22737082 Z" id="Shape" fill="#E4EAF6" fill-rule="nonzero"></path>
                                        <path d="M17.1872291,0.22737082 L9.79825298,6.90611561 C9.79825298,6.90611561 11.8676408,7.95519865 14.4214545,10.0698465 C14.9481934,10.5061205 15.7452221,10.3293869 16.0275731,9.70506034 L19.4990276,2.03481991 L18.400864,0.380473791 C18.1272129,-0.0313751873 17.5536132,-0.103657265 17.1872291,0.22737082 Z" id="Shape" fill="#E4EAF6" fill-rule="nonzero"></path>
                                    </g>
                                    <path d="M25.9019502,3.68161054 L26.6598293,9.06046942 C30.1192227,9.75529083 30.6178846,15.2078218 30.6896587,16.7652622 C30.7027085,17.0478375 30.7924756,17.3208811 30.9451192,17.5585779 L32.26513,19.6148441 C32.26513,19.6148441 31.8133288,16.215005 33.8819258,13.9317651 C33.8819258,13.931368 34.5921533,0.434080072 25.9019502,3.68161054 Z" id="Shape" fill="#785550" fill-rule="nonzero"></path>
                                    <path d="M32.9590509,19.1658707 L32.0461555,22.8333919 C31.938,23.2678787 31.5490752,23.5726946 31.1032058,23.5726946 C30.613046,23.5726946 30.1996035,23.2061212 30.1387042,22.71782 L29.6718759,18.9666979 C29.5471116,17.9636848 30.3257519,17.0776336 31.3323689,17.0776336 L31.3357302,17.0776336 C32.4242053,17.0776336 33.2232113,18.1052703 32.9590509,19.1658707 Z" id="Shape" fill="#FFE4C3" fill-rule="nonzero"></path>
                                    <path d="M11.1835744,2.09965932 L12.3794141,2.91998146 C6.97342001,6.92865809 7.98379376,13.8041928 7.98379376,13.8041928 C9.60058954,15.4279581 9.60058954,19.4872718 9.60058954,19.4872718 L11.2173853,17.8635066 C11.2173853,17.8635066 10.5933659,13.1729161 13.6426779,11.3686442 C16.4721199,9.69424184 18.9478322,10.5568609 21.4739645,10.5568609 C28.2442597,10.5568609 30.1388588,7.9944216 29.8104379,4.8737819 C29.6405923,3.25895264 27.1822797,-0.104348302 20.91816,0.002486196 C18.3900505,0.0455774343 13.6424802,0.814269526 11.1835744,2.09965932 Z" id="Shape" fill="#694B4B" fill-rule="nonzero"></path>
                                    <path d="M10.7121984,9.90502749 C10.7121984,9.90502749 9.85328184,6.50518837 12.3794141,2.97865703 C6.97342001,6.98733365 7.98379376,13.8628684 7.98379376,13.8628684 C9.60058954,15.4866337 9.60058954,19.5459474 9.60058954,19.5459474 L11.2173853,17.9221822 C11.2173853,17.9221822 10.5933659,13.2315917 13.6426779,11.4273198 C16.4721199,9.75291741 18.9478322,10.6155365 21.4739645,10.6155365 C22.5750939,10.6155365 23.5346524,10.5414672 24.3892191,10.4145764 C19.1748203,10.5901186 16.1013859,6.62373892 10.7121984,9.90502749 Z" id="Shape" fill="#5A4146" fill-rule="nonzero"></path>
                                    <path d="M8.94843679,19.1656722 L9.86133227,22.8331933 C9.96948774,23.26768 10.3584124,23.572496 10.8042819,23.572496 C11.2944417,23.572496 11.7078842,23.2059226 11.7687835,22.7176215 L12.2356117,18.9666979 C12.3603761,17.9636848 11.5817358,17.0776336 10.5751188,17.0776336 L10.5717575,17.0776336 C9.4832824,17.0774351 8.68427646,18.1050717 8.94843679,19.1656722 Z" id="Shape" fill="#FFD8A8" fill-rule="nonzero"></path>
                                    <path d="M30.769935,45.474164 L26.7278467,45.474164 C25.8349215,45.474164 25.1110509,46.2011549 25.1110509,47.0979292 L32.3867308,47.0979292 C32.3865331,46.2013534 31.6626625,45.474164 30.769935,45.474164 Z" id="Shape" fill="#E4EAF6" fill-rule="nonzero"></path>
                                </g>
                            </g>
                        </g>
                    </g>
                    <g id="Group-3" transform="translate(24.000000, 26.250000)">
                        <circle id="Oval-Copy-3" fill="#694B4B" cx="1.2" cy="1.2" r="1.2"></circle>
                        <circle id="Oval-Copy-4" fill="#694B4B" cx="10.95" cy="1.2" r="1.2"></circle>
                        <path d="M5.85,11.026281 C7.8382251,11.026281 9.45,9.80468074 9.45,8.29776039 C9.45,6.79084005 7.8382251,7.88148829 5.85,7.88148829 C3.8617749,7.88148829 2.25,6.79084005 2.25,8.29776039 C2.25,9.80468074 3.8617749,11.026281 5.85,11.026281 Z" id="Oval-Copy-5" fill="#FF8D8D"></path>
                    </g>
                </g>
            </g>
        </g>
    </g>
</svg>