<?xml version="1.0" encoding="utf-8"?>
<!-- Generator: Adobe Illustrator 22.0.1, SVG Export Plug-In . SVG Version: 6.00 Build 0)  -->
<svg version="1.1" id="圖層_1" xmlns="http://www.w3.org/2000/svg" xmlns:xlink="http://www.w3.org/1999/xlink" x="0px" y="0px"
	 viewBox="0 0 24 24" style="enable-background:new 0 0 24 24;" xml:space="preserve">
<style type="text/css">
	.st0{fill:#006192;}
</style>
<g>
	<path id="a_1_" class="st0" d="M12,2.4c5.3,0,9.6,4.3,9.6,9.6c0,5.3-4.3,9.6-9.6,9.6c-5.3,0-9.6-4.3-9.6-9.6h0
		c0-0.4,0.4-0.8,0.8-0.8S4,11.6,4,12c0,0,0,0,0,0c0,4.4,3.6,8,8,8s8-3.6,8-8s-3.6-8-8-8c-2,0-4,0.8-5.5,2.2h2.1C9,6.2,9.4,6.6,9.4,7
		c0,0.4-0.4,0.8-0.8,0.8h-4C4.2,7.8,3.8,7.4,3.8,7l0,0l0-4c0-0.4,0.3-0.8,0.8-0.8c0.4,0,0.8,0.3,0.8,0.8c0,0,0,0,0,0.1l0,2
		C7.2,3.3,9.5,2.4,12,2.4z M11.6,6.5c0.4,0,0.8,0.4,0.8,0.8l0,0v4.7l2.9,1.1c0.4,0.1,0.6,0.6,0.5,1c-0.1,0.4-0.6,0.6-1,0.5
		c0,0,0,0,0,0l-3.4-1.2c-0.3-0.1-0.5-0.4-0.5-0.8V7.3C10.8,6.9,11.2,6.5,11.6,6.5C11.6,6.5,11.6,6.5,11.6,6.5z"/>
</g>
</svg>
