<svg xmlns="http://www.w3.org/2000/svg" xmlns:xlink="http://www.w3.org/1999/xlink" width="35" height="35" viewBox="0 0 35 35">
    <defs>
        <path id="a" d="M5.73 7.292H.52c-.312 0-.52.208-.52.52v11.459c0 .312.208.52.52.52h5.21c.312 0 .52-.208.52-.52V7.812c0-.312-.208-.52-.52-.52zM5.207 18.75H1.042V8.333h4.166V18.75zM15.104 0H9.896c-.313 0-.521.208-.521.52v18.75c0 .313.208.522.52.522h5.21c.312 0 .52-.209.52-.521V.52c0-.313-.208-.521-.52-.521zm-.52 18.75h-4.167V1.042h4.166V18.75zm9.895-9.375h-5.208c-.313 0-.521.208-.521.52v9.376c0 .312.208.52.52.52h5.21c.312 0 .52-.208.52-.52V9.896c0-.313-.208-.521-.52-.521zm-.52 9.375h-4.167v-8.333h4.166v8.333z"/>
    </defs>
    <g fill="none" fill-rule="evenodd">
        <path d="M0 0h35v35H0z"/>
        <use fill="#FFF" fill-rule="nonzero" transform="translate(5 8)" xlink:href="#a"/>
    </g>
</svg>
