<svg xmlns="http://www.w3.org/2000/svg" xmlns:xlink="http://www.w3.org/1999/xlink" width="35" height="35" viewBox="0 0 35 35">
    <defs>
        <path id="a" d="M22.275 1.042h-3.626V.52c0-.313-.208-.521-.518-.521h-2.072c-.311 0-.518.208-.518.52v.522H7.252V.52C7.252.208 7.045 0 6.734 0H4.662c-.31 0-.518.208-.518.52v.522H.518c-.31 0-.518.208-.518.52v17.709c0 .312.207.52.518.52h21.757c.31 0 .518-.208.518-.52V1.562c0-.312-.207-.52-.518-.52zm-5.698 0h1.036v1.041h-1.036V1.042zm-11.397 0h1.036v1.041H5.18V1.042zM4.144 2.083v.521c0 .313.207.521.518.521h2.072c.311 0 .518-.208.518-.52v-.522h8.289v.521c0 .313.207.521.518.521h2.072c.31 0 .518-.208.518-.52v-.522h3.108v1.98H1.036v-1.98h3.108zM1.036 18.75V5.104h20.72V18.75H1.037zM6.734 7.292c.311 0 .518.208.518.52v3.125c0 .313-.207.521-.518.521H3.626c-.31 0-.518-.208-.518-.52V7.812c0-.312.207-.52.518-.52h3.108zm-.518 3.125V8.333H4.144v2.084h2.072zm.518 2.083c.311 0 .518.208.518.52v3.126c0 .312-.207.52-.518.52H3.626c-.31 0-.518-.208-.518-.52V13.02c0-.313.207-.521.518-.521h3.108zm-.518 3.125v-2.083H4.144v2.083h2.072zm6.734-8.333c.311 0 .518.208.518.52v3.125c0 .313-.207.521-.518.521H9.842c-.31 0-.518-.208-.518-.52V7.812c0-.312.208-.52.518-.52h3.108zm-.518 3.125V8.333H10.36v2.084h2.072zm.518 2.083c.311 0 .518.208.518.52v3.126c0 .312-.207.52-.518.52H9.842c-.31 0-.518-.208-.518-.52V13.02c0-.313.208-.521.518-.521h3.108zm-.518 3.125v-2.083H10.36v2.083h2.072zm6.735-8.333c.31 0 .518.208.518.52v3.125c0 .313-.208.521-.518.521h-3.108c-.311 0-.518-.208-.518-.52V7.812c0-.312.207-.52.518-.52h3.108zm-.518 3.125V8.333h-2.072v2.084h2.072zm.518 2.083c.31 0 .518.208.518.52v3.126c0 .312-.208.52-.518.52h-3.108c-.311 0-.518-.208-.518-.52V13.02c0-.313.207-.521.518-.521h3.108zm-.518 3.125v-2.083h-2.072v2.083h2.072z"/>
    </defs>
    <use fill="#FFF" fill-rule="nonzero" transform="translate(6 8)" xlink:href="#a"/>
</svg>
