<svg xmlns="http://www.w3.org/2000/svg" xmlns:xlink="http://www.w3.org/1999/xlink" width="355" height="235" viewBox="0 0 355 235">
    <defs>
        <path id="a" d="M0 0h355v268H0z"/>
        <path id="c" d="M0 119c5.99-.442 14.793-5.234 18.978-11.987 4.185-6.753 7.543-14.874 15.245-17.836 7.208-2.77 15.577 7.853 23.15 6.15 15.495-3.488 17.285-55.064 36.89-55.064 18.615 0 51.019 41.19 76.833 26.1 24.776-14.483 39.386-58.97 59.817-65.251 39.399-12.113 47.628 78.726 75.94 78.726 8.01 0 13.835-21.73 19.92-24.436C346.367 46.689 337.14 102.662 365 119H0"/>
        <path id="e" d="M11.033 2.118L7.914.384s-.668 1.002-1.215 1.649C5.647 3.28.603 4.183.603 5.951c0 .894 1.879 1.696 3.41 1.757a10.505 10.505 0 0 0 3.696-.509c.904-.296 2.967-1.135 3.294-1.686.571-.957.122-2.067.122-2.067.162-.986-.092-1.328-.092-1.328"/>
        <linearGradient id="f" x1="0%" x2="99.997%" y1="50.01%" y2="50.01%">
            <stop offset="0%" stop-color="#61C4E4"/>
            <stop offset="100%" stop-color="#4B609D"/>
        </linearGradient>
        <path id="h" d="M24.587.397a1.167 1.167 0 0 0-.762.717c-.766 2.179-1.411 6.844-2.095 11.783-.688 4.967-2.564 14.518-2.647 15.04C17.531 29.294 2.898 43.009.294 44.343l3.165 5.129c6.435-3.461 20.64-13.11 23.609-17.845 3.17-4.899 12.549-24.706 8.611-27.894C34.36 2.668 26.191-.11 24.587.397"/>
        <path id="j" d="M10.644 2.338L7.398.854S6.81 1.905 6.316 2.593C5.365 3.919.408 5.214.546 6.978c.07.889 2.006 1.543 3.537 1.482 1.534-.059 2.866-.25 3.645-.796.973-.681 2.869-1.365 3.152-1.94.495-.998-.041-2.069-.041-2.069.084-.996-.195-1.317-.195-1.317"/>
        <linearGradient id="k" x1="-.002%" x2="99.996%" y1="49.987%" y2="49.987%">
            <stop offset="0%" stop-color="#61C4E4"/>
            <stop offset="100%" stop-color="#4B609D"/>
        </linearGradient>
        <path id="m" d="M19.46.488c-1.642.181-6.418 1.533-6.418 1.533S11.46 6.209 9.57 7.411c-1.297.826-3.225-.008-3.225-.008s-4.058 4.094-4.666 5.082c-2.351 3.832 1.191 7.7 3.269 11.457 1.204 2.18 11.792 15.676 18.454 36.737 5.631 8.632 23.822 4.597 33.695-6.903l-4.912-13.051 7.848 10.903c.744-.528 2.445-1.358 3.052-1.744C48.273 11.403 34.141-1.124 19.46.488"/>
        <path id="o" d="M26.556 1.526C25.042.763 16.472-.231 15.012.604a1.16 1.16 0 0 0-.595.861c-.289 2.291.063 6.989.436 11.963.373 5 .762 10.171.582 13.583-.031.589-.031 1.14-.002 1.674-1.23 1.653-2.81 3.934-4.476 6.341C7.318 40.284 2.789 46.827.525 48.681L4.7 53.028c5.558-4.736 17.409-17.158 19.321-22.431 2.062-5.444 7.057-26.785 2.535-29.071"/>
    </defs>
    <g fill="none" fill-rule="evenodd" transform="translate(0 -33)">
        <mask id="b" fill="#fff">
            <use xlink:href="#a"/>
        </mask>
        <path fill="#ECECEC" d="M50.736 73.704c-3.01 0-5.299 3.53-8.019 2.903-5.941-1.37-8.384-8.907-14.905-8.907-5.032 0-7.948 6.152-12.593 5.735C7.862 72.775 4.548 63-3.374 63c-7.327 0-10.923 8.368-17.69 9.106-3.986.436-6.902-4.278-11.233-4.278-8.166 0-8.885 3.198-16.406 5.507-2.16.663-3.81 4.806-6.251 4.806-2.866 0-5.412.886-7.046 2.859H63c-2.095-3.946-6.793-7.296-12.264-7.296M370.819 38.352c-1.517 0-2.67 1.765-4.041 1.452-2.995-.686-4.226-4.454-7.513-4.454-2.536 0-4.005 3.076-6.347 2.868-3.708-.33-5.378-5.218-9.37-5.218-3.693 0-5.506 4.184-8.916 4.553-2.01.218-3.479-2.139-5.661-2.139-4.116 0-4.478 1.6-8.27 2.753-1.088.332-1.92 2.404-3.15 2.404-1.445 0-2.727.442-3.551 1.429h63c-1.056-1.973-3.424-3.648-6.181-3.648" mask="url(#b)"/>
        <g mask="url(#b)">
            <g transform="translate(39 149)">
                <mask id="d" fill="#fff">
                    <use xlink:href="#c"/>
                </mask>
                <path fill="#ECECEC" d="M18.978 107.013c4.185-6.753 7.543-14.874 15.245-17.836 7.208-2.77 15.577 7.853 23.15 6.15 15.495-3.488 17.285-55.064 36.89-55.064 18.615 0 51.019 41.19 76.833 26.1 24.776-14.483 39.386-58.97 59.817-65.251 39.399-12.113 47.628 78.726 75.94 78.726 8.01 0 13.835-21.73 19.92-24.436C346.367 46.689 337.14 102.662 365 119H0c5.99-.442 14.793-5.234 18.978-11.987z" mask="url(#d)"/>
            </g>
        </g>
        <g mask="url(#b)">
            <g transform="translate(174.66 258.782)">
                <mask id="g" fill="#fff">
                    <use xlink:href="#e"/>
                </mask>
                <path fill="url(#f)" d="M11.033 2.118L7.914.384s-.668 1.002-1.215 1.649C5.647 3.28.603 4.183.603 5.951c0 .894 1.879 1.696 3.41 1.757a10.505 10.505 0 0 0 3.696-.509c.904-.296 2.967-1.135 3.294-1.686.571-.957.122-2.067.122-2.067.162-.986-.092-1.328-.092-1.328" mask="url(#g)"/>
            </g>
            <path fill="#37A0B3" d="M173.764 160.211c-.299 2.15-7.98 30.603-5.773 57.395 1.9 23.063 13.72 42.152 13.72 42.152.041.166 3.074 1.814 4.6.132 0-4.028-5.47-41.729-5.348-42.151 3.696-12.826 12.248-35.052 13.712-36.206v-19.611c-7.513.493-18.419-.619-20.91-1.711"/>
            <path fill="#F5C7B5" d="M122.64 177.303c-.434-.065-.889-.26-.898.332-.039.378 1.552.892 1.922.808.827-.467.55-.949 1.388-1.275-.769.178-1.62.199-2.412.135"/>
            <path fill="#F5C7B5" d="M125.682 176.906c-.837.326-1.697.748-2.524 1.215-.983.545-3.039 2.008-3.183 2.11-.4.322-1.51.994-1.74 1.327-.147.213-.305.957-.203 1.259.132.401.6.395.6.395.07.544 1.38.115 1.366.251-.052.558.696.8 2.278-.383.095-.07 4.556-2.207 5.925-3.008-.423-.883-2.47-3.181-2.519-3.166"/>
            <path fill="#F5C7B5" d="M147.051 158.57a2.86 2.86 0 0 0-.816.397c-3.862 2.822-16.334 15.748-20.825 18.048 1.038 1.272 1.816 2.401 2.235 3.358 7.31-3.931 24.404-15.772 23.72-19.016-.626-2.972-2.882-3.242-4.314-2.787"/>
            <path fill="#F5C7B5" d="M149.427 133.228c-1.466 4.172-2.546 18.404-4.366 25.118-2.233 8.234 4.31 6.851 5.791 4.576 3.9-5.993 11.753-24.285 8.857-26.629-1.257-1.016-10.016-3.822-10.282-3.065"/>
            <g transform="translate(124.66 131.782)">
                <mask id="i" fill="#fff">
                    <use xlink:href="#h"/>
                </mask>
                <path fill="#BAE0E7" d="M24.587.397a1.167 1.167 0 0 0-.762.717c-.766 2.179-1.411 6.844-2.095 11.783-.688 4.967-2.564 14.518-2.647 15.04C17.531 29.294 2.898 43.009.294 44.343l3.165 5.129c6.435-3.461 20.64-13.11 23.609-17.845 3.17-4.899 12.549-24.706 8.611-27.894C34.36 2.668 26.191-.11 24.587.397" mask="url(#i)"/>
            </g>
            <g transform="translate(198.66 258.782)">
                <mask id="l" fill="#fff">
                    <use xlink:href="#j"/>
                </mask>
                <path fill="url(#k)" d="M10.644 2.338L7.398.854S6.81 1.905 6.316 2.593C5.365 3.919.408 5.214.546 6.978c.07.889 2.006 1.543 3.537 1.482 1.534-.059 2.866-.25 3.645-.796.973-.681 2.869-1.365 3.152-1.94.495-.998-.041-2.069-.041-2.069.084-.996-.195-1.317-.195-1.317" mask="url(#l)"/>
            </g>
            <path fill="#F5C7B5" d="M205.391 259.502s.297.818-.416 1.873c0 0 .715 1.035 1.943 1.591.696.313 2.58-.529 2.58-.529.084-.996.036-2.486.036-2.486l-4.143-.449"/>
            <path fill="#37A0B3" d="M205.66 157.496c-7.453 1.08-15.804 5.082-18.373 4.189-.13 2.172-2.42 30.676.837 57.421 1.702 13.974 17.12 33.474 17.12 41.187.055.162 3.207 1.568 4.596-.227 0-18.986-8.809-42.068-8.809-42.068 1.608-16.75 13.961-42.736 4.628-60.502"/>
            <path fill="#F5C7B5" d="M155.535 112.36c-.278.587-3.619 5.807-5.092 6.335.214.371 3.285 3.869 3.561 6.49 1.457 1.792 6.996-1.177 6.697-5.382-1.154-.622-4.443-5.457-5.166-7.443"/>
            <path fill="#F5C7B5" d="M153.891 111.403c-1.256-2.765-4.14-4.234-6.934-2.966-2.599 1.181-4.712 3.071-3.99 5.739.26.955 4.751 8.411 9.461 7.368 1.99-.441 3.716-5.183 2.77-7.269l-1.307-2.872"/>
            <g transform="translate(147.66 117.782)">
                <mask id="n" fill="#fff">
                    <use xlink:href="#m"/>
                </mask>
                <path fill="#BAE0E7" d="M19.46.488c-1.642.181-6.418 1.533-6.418 1.533S11.46 6.209 9.57 7.411c-1.297.826-3.225-.008-3.225-.008s-4.058 4.094-4.666 5.082c-2.351 3.832 1.191 7.7 3.269 11.457 1.204 2.18 11.792 15.676 18.454 36.737 5.631 8.632 23.822 4.597 33.695-6.903l-4.912-13.051 7.848 10.903c.744-.528 2.445-1.358 3.052-1.744C48.273 11.403 34.141-1.124 19.46.488" mask="url(#n)"/>
            </g>
            <path fill="#37A0B3" d="M160.701 119.803s-1.582 4.188-3.472 5.39c-1.297.826-3.225-.008-3.225-.008s-3.796 3.828-4.588 4.97c2.428 3.816 9.181 5.559 9.181 5.559s4.458-11.818 8.522-17.444c0 0-1.555.056-3.226.562l-3.192.971"/>
            <path fill="#9B9B9B" d="M150.66 101.402c-7.296-2.254-14.435 6.308-12.095 11.9.515 1.235 3.033 3.648 13.302-4.079 2.29 1.329 4.854 5.45 4.854 5.45 1.995-4.579-.48-11.548-6.06-13.271"/>
            <path fill="#F5C7B5" d="M153.785 110.086a2.601 2.601 0 0 0-1.126.735c.533.933 1.607 2.362 2.136 3.069.655-.401 1.201-1.747.992-2.464-.22-.758-1.242-1.562-2.002-1.34M222.646 135.034c.64.63 1.378 1.243 2.143 1.806.9.674 3.074 1.95 3.228 2.04.456.234 1.525.97 1.924 1.044.253.047.996-.113 1.231-.329.31-.285.113-.709.113-.709.47-.285-.458-1.306-.33-1.35.533-.18.446-.963-1.281-1.922-.103-.058-3.879-3.254-5.17-4.174-.632.747-1.89 3.555-1.858 3.594"/>
            <g transform="rotate(-102 146.74 2.582)">
                <mask id="p" fill="#fff">
                    <use xlink:href="#o"/>
                </mask>
                <path fill="#BAE0E7" d="M26.556 1.526C25.042.763 16.472-.231 15.012.604a1.16 1.16 0 0 0-.595.861c-.289 2.291.063 6.989.436 11.963.373 5 .762 10.171.582 13.583-.031.589-.031 1.14-.002 1.674-1.23 1.653-2.81 3.934-4.476 6.341C7.318 40.284 2.789 46.827.525 48.681L4.7 53.028c5.558-4.736 17.409-17.158 19.321-22.431 2.062-5.444 7.057-26.785 2.535-29.071" mask="url(#p)"/>
            </g>
        </g>
        <g mask="url(#b)">
            <path fill="#FFF" d="M242.526 191.452l-95.434 34.982a8.679 8.679 0 0 1-11.135-5.161l-13.424-36.623a8.678 8.678 0 0 1 5.16-11.136l95.435-34.981a8.678 8.678 0 0 1 11.135 5.16l13.424 36.624a8.677 8.677 0 0 1-5.161 11.135"/>
            <path fill="#ECECEC" d="M221.636 160.047l-76.365 27.992a4.679 4.679 0 0 1-5.987-2.775 4.68 4.68 0 0 1 2.775-5.988l76.365-27.992a4.68 4.68 0 0 1 5.987 2.776 4.679 4.679 0 0 1-2.775 5.987M225.636 173.047l-76.365 27.992a4.679 4.679 0 0 1-5.987-2.775 4.679 4.679 0 0 1 2.776-5.988l76.364-27.992a4.682 4.682 0 0 1 5.988 2.775 4.68 4.68 0 0 1-2.776 5.988M206.11 194.048l-51.839 19a4.68 4.68 0 0 1-5.987-2.775 4.679 4.679 0 0 1 2.775-5.987l51.838-19.002a4.681 4.681 0 0 1 5.988 2.775 4.683 4.683 0 0 1-2.775 5.989"/>
        </g>
    </g>
</svg>
