<svg xmlns="http://www.w3.org/2000/svg" xmlns:xlink="http://www.w3.org/1999/xlink" width="75" height="63" viewBox="0 0 75 63">
    <defs>
        <path id="a" d="M.077.103H14.65v22.68H.077z"/>
        <linearGradient id="b" x1="50%" x2="50%" y1="0%" y2="100%">
            <stop offset="0%" stop-color="#00B2DA"/>
            <stop offset="100%" stop-color="#007AB3"/>
        </linearGradient>
        <linearGradient id="d" x1="50%" x2="50%" y1="0%" y2="100%">
            <stop offset="0%" stop-color="#C0F2FD"/>
            <stop offset="100%" stop-color="#47AFE0"/>
        </linearGradient>
    </defs>
    <g fill="none" fill-rule="evenodd">
        <path fill="#C8917A" d="M22.463 53.894s.361 2.659 1.314 2.529c.953-.13 2.933-2.015 2.51-5.623-.42-3.608-.881-6.262-.881-6.262l-3.918 3.512.975 5.844z"/>
        <path fill="#D59A81" d="M19.092 44.648s-.928 3.236-1.16 4.887c-.232 1.651.132 3.764 0 5.118-.132 1.354-.298 2.906.912 3.038 1.21.132 2.436-.264 3.33-2.047.896-1.783 1.128-3.07 1.028-5.085-.1-2.014.067-2.939.829-3.401.762-.462 5.303-3.17 5.303-3.17l-6.264-1.65-3.978 2.31z"/>
        <path fill="#EAAA8E" d="M14.8 42.271s-1.79 2.08-2.287 3.417c-.498 1.338-1.542 4.557-2.486 6.538-.945 1.981-1.541 3.12-.97 4.062.572.94 5.958.082 7.682-6.654 0 0 3.778-3.473 5.105-5.319 0 0 2.916.432 5.8.135 2.883-.297 8.551-7.099 6.795-9.41-1.757-2.311-10.01-.726-13.424.727C17.6 37.219 14.8 42.27 14.8 42.27"/>
        <path fill="#F5D3BA" d="M33.345 35.684s-.597 5.646-4.077 7.38c-3.48 1.733-5.337 2.113-7.988 2.575-2.652.462-5.072.826-7.392 1.981-2.32 1.156-1.856 3.566-.928 4.623.928 1.056 2.155 1.221 4.64.792 2.487-.429 4.011-.23 6.696-.693 2.685-.462 6.662-.1 8.883.66 2.221.76 6.63 4.095 12.066 3.797 5.435-.297 3.546-1.155 6.993-.66 3.448.495 15.48 2.708 15.48 2.708V41.776s-8.716.16-15.778-2.946c-11.278-4.96-17.369-8.941-19.225-9.04-1.856-.1-8.419.957-11.037 1.288-2.62.33-2.851.264-3.978 1.188-1.127.925-4.475 4.458-6.33 6.439-1.857 1.981-1.492 2.311-2.189 4.16-.696 1.85-2.32 5.416-2.75 6.076-.432.66 1.458 2.674 3.413 1.585 1.956-1.09 3.779-3.962 4.773-6.211 1.857-1.45 4.409-2.968 5.934-5.115 1.359.066 5.27.859 7.623-.33 0 0 .464 1.981.961 2.576 0 0 2.387-1.123 4.21-5.762"/>
        <path fill="#EAAA8E" d="M67.718 58.847V41.776s-3.422.062-7.714-.655c0 0-1.345 9.328-1.672 16.036 4.453.783 9.386 1.69 9.386 1.69"/>
        <path fill="#FFF8F4" d="M8.333 44.935s.815.06.716.836c-.1.776-.812 1.981-1.16 2.543-.348.561-.58.66-.746.627a9.294 9.294 0 0 0-.67-.07s1.39-2.823 1.86-3.936"/>
        <path fill="#EAAA8E" d="M20.517 39.53s.15-1.799-.464-3.367c0 0 1.177 1.42 1.094 3.368h-.63zM14.65 45.144s.017-1.37-1.06-2.344c0 0 1.409.687 1.757 1.738l-.696.606zM28.141 40.141s-.249-1.403.646-2.905c0 0-1.408.94-1.475 2.51l.83.395z"/>
        <g transform="translate(59.663 40.026)">
            <mask id="c" fill="#fff">
                <use xlink:href="#a"/>
            </mask>
            <path fill="url(#b)" d="M.43.103s-.795 6.996 0 19.18c0 0 8.254 2.51 14.22 3.5V.858L.43.103z" mask="url(#c)"/>
        </g>
        <path fill="#FFF8F4" d="M65.68 56.897a.292.292 0 1 1-.002-.585.292.292 0 0 1 .002.585m-1.427 0a.292.292 0 1 1 0 0m.713-2.534a2.246 2.246 0 0 0-2.25 2.242 2.246 2.246 0 0 0 2.25 2.242 2.246 2.246 0 0 0 2.25-2.242 2.246 2.246 0 0 0-2.25-2.242"/>
        <path fill="url(#d)" d="M21.488 38.689s-.435-6.786 2.43-12.465c0 0-.346 4.82 0 6.67 0 0-.169-6.142 4.132-11.359 0 0-1.202 4.689-1.07 6.406 0 0 1.062-6.406 6.166-10.368 5.104-3.962 15.91-10.566 22.407-13.538C62.05 1.064 68.48.007 68.48.007l-2.52 3.896S69.21-.19 72.724.007c0 0-.663 6.01-6.033 10.566-5.37 4.557-21.147 19.35-25.854 22.057-4.707 2.707-11.734 2.847-11.734 2.847s4.591.157 10.16-1.031c0 0-4.972 3.813-13.524 3.764 0 0 2.287.792 4.276.891 0 0-4.55 1.09-8.863 1.04l.337-1.452z"/>
        <path fill="#2D69BA" d="M20.02 38.618l.517-.495 1.49-1.392 2.338-2.115c.918-.799 1.944-1.71 3.08-2.687 1.148-.96 2.382-2.013 3.705-3.105l4.21-3.373 4.59-3.492 4.846-3.464c.205-.145.4-.29.613-.434l.618-.419 1.233-.835 2.45-1.659c.808-.554 1.634-1.074 2.437-1.603l2.386-1.555 2.328-1.467 1.128-.712 1.108-.682 4.109-2.524c.638-.388 1.24-.772 1.816-1.134.573-.365 1.124-.7 1.629-1.035.504-.336.975-.65 1.41-.942.435-.293.842-.55 1.19-.811l2.217-1.599.122.157-2.186 1.653c-.343.27-.745.537-1.174.841l-1.394.977c-.498.347-1.042.696-1.609 1.075-.568.376-1.163.774-1.793 1.176L59.385 9.58l-1.09.707-1.11.735-2.29 1.517-2.34 1.603c-.79.546-1.597 1.08-2.393 1.653l-2.41 1.714-1.215.864-.608.432c-.196.14-.397.295-.595.442l-4.74 3.555-4.486 3.578a77636.02 77636.02 0 0 0-4.109 3.448c-1.29 1.115-2.492 2.189-3.61 3.17-1.107.994-2.105 1.923-2.997 2.736l-2.27 2.15-1.433 1.4-.504.506-1.165-1.172z"/>
        <path fill="#2D69BA" d="M21.488 35.477s1.482 4.186-1.236 7.091c-2.718 2.906-6.662 7.067-6.662 7.067l-1.774-2.033s6.497-6.538 7.458-8.354c.962-1.816 2.214-3.771 2.214-3.771"/>
        <path fill="#B78908" d="M6 53.795s-.796.66-.995 1.387c-.199.726-.663 1.096-1.724 1.423C2.884 56.965.83 59.672 0 62.38h.43s2.24-3.17 4.949-4.095c0 0 .14-1.337.62-1.783.48-.445.928-.495 1.376-.974l-1.376-1.733z"/>
        <path fill="#2D69BA" d="M8.055 55.644a.685.685 0 0 1-.966-.008L5.574 54.1a.679.679 0 0 1 .008-.962l6.365-6.263a.685.685 0 0 1 .965.008l1.515 1.535a.679.679 0 0 1-.008.962l-6.364 6.263z"/>
        <path fill="#F5D3BA" d="M17.163 46.443c-1.121.284-2.209.646-3.275 1.177-2.249 1.12-1.882 3.419-1.012 4.521 1.64-1.32 3.37-4.097 4.287-5.698M14.402 44.784a40.72 40.72 0 0 0-2.585 1.66c-1.79 1.285-3.542 3.307-4.422 4.041.654.384 1.544.545 2.45.04 1.61-.897 3.745-3.747 4.557-5.741"/>
        <path fill="#FFF8F4" d="M16.788 47.62c-.346.046-2.154.363-2.867.826-.712.462-1.21 1.205-1.044 2.245.166 1.04.829 1.998 1.542 2.064.712.066 2.75-.033 3.397-.314.646-.28 1.028-.545 1.028-1.238 0-.694-.266-2.609-.531-2.972s-.757-.714-1.525-.61"/>
        <path fill="#2D69BA" d="M46.937 14.87s2.017-4.648 3.662-8.333c-.332.18-.668.363-1.006.55-1.109 2.833-2.256 5.973-2.656 7.783M46.937 20.072s5.857-.511 9.994-.82l.987-.884c-3.51.387-8.6 1.026-10.981 1.704M51.66 5.97c-1.054 2.713-2.106 5.63-2.486 7.346 0 0 1.845-4.251 3.445-7.846-.315.162-.634.328-.959.5M36.707 15.002c-.558 3.137-1.122 6.753-1.157 8.724 0 0 1.13-5.32 2.027-9.314-.295.199-.586.396-.87.59M50.866 24.623l1.141-1c-2.549.25-10.68 1.093-13.89 2.007 0 0 9.316-.813 12.749-1.007M69.488 7.575c-2.987.373-6.225.852-7.983 1.353 0 0 3.781-.33 7.413-.62.2-.244.39-.488.57-.733M60.971 1.933c-.858 2.277-1.638 4.529-1.953 5.955 0 0 1.332-3.07 2.714-6.199-.25.079-.503.16-.76.244M50.666 17.991s4.544-.396 8.454-.701l.912-.818c-3.316.389-7.332.94-9.366 1.52"/>
    </g>
</svg>
