<?xml version="1.0" encoding="utf-8"?>
<!-- Generator: Adobe Illustrator 22.0.1, SVG Export Plug-In . SVG Version: 6.00 Build 0)  -->
<svg version="1.1" id="圖層_1" xmlns="http://www.w3.org/2000/svg" xmlns:xlink="http://www.w3.org/1999/xlink" x="0px" y="0px"
	 viewBox="0 0 24 24" style="enable-background:new 0 0 24 24;" xml:space="preserve">
<style type="text/css">
	.st0{fill:#FFFFFF;}
</style>
<g>
	<path class="st0" d="M19,4h-4c0-0.5-0.5-1-1-1h-4C9.4,3,9,3.4,9,4H5C4.4,4,4,4.4,4,5s0.5,1,1,1h14c0.5,0,1-0.5,1-1S19.5,4,19,4z"/>
	<path class="st0" d="M5,12v7c0,1.6,1.4,3,3,3h8c1.7,0,3-1.4,3-3v-7V7H5V12z M14.8,11c0-0.4,0.3-0.6,0.7-0.6c0.4,0,0.7,0.3,0.7,0.6
		v7c0,0.4-0.3,0.7-0.7,0.7c-0.4,0-0.7-0.3-0.7-0.7V11z M11.3,11c0-0.4,0.3-0.6,0.7-0.6c0.4,0,0.7,0.3,0.7,0.6v7
		c0,0.4-0.3,0.7-0.7,0.7c-0.4,0-0.7-0.3-0.7-0.7V11z M7.8,11c0-0.4,0.3-0.6,0.7-0.6c0.4,0,0.7,0.3,0.7,0.6v7c0,0.4-0.3,0.7-0.7,0.7
		c-0.4,0-0.7-0.3-0.7-0.7V11z"/>
</g>
</svg>
