<svg xmlns="http://www.w3.org/2000/svg" xmlns:xlink="http://www.w3.org/1999/xlink" width="42" height="42" viewBox="0 0 42 42">
    <defs>
        <path id="a" d="M7.86 16.141l1.307-3.923 7.845-7.846 2.616 2.616-7.846 7.845-3.923 1.308zM21.588 3.718c.36.36.36.948 0 1.308l-.653.654h-.001l-.653.653-2.615-2.615.87-.872.437-.436a.929.929 0 0 1 1.308 0l1.307 1.308zm-3.19 15.323v-7.984L20 9.457v9.584c0 1.1-.9 2-2 2H5c-1.1 0-2-.9-2-2v-13c0-1.101.9-2 2-2h9.544l-1.6 1.6H5c-.217 0-.4.183-.4.4v13c0 .217.183.399.4.399h13a.404.404 0 0 0 .4-.4z"/>
    </defs>
    <g fill="none" fill-rule="evenodd">
        <g transform="translate(9 9)">
            <mask id="b" fill="#fff">
                <use xlink:href="#a"/>
            </mask>
            <g fill="#007AB3" mask="url(#b)">
                <path d="M0 0h24v24H0z"/>
            </g>
        </g>
        <path stroke="#007AB3" d="M21 41c7.784 0 14.53-4.447 17.834-10.939A19.916 19.916 0 0 0 41 21C41 9.954 32.046 1 21 1S1 9.954 1 21s8.954 20 20 20z"/>
    </g>
</svg>
