<?xml version="1.0" encoding="utf-8"?>
<!-- Generator: Adobe Illustrator 22.0.1, SVG Export Plug-In . SVG Version: 6.00 Build 0)  -->
<svg version="1.1" id="圖層_1" xmlns="http://www.w3.org/2000/svg" xmlns:xlink="http://www.w3.org/1999/xlink" x="0px" y="0px"
	 viewBox="0 0 40 40" style="enable-background:new 0 0 40 40;" xml:space="preserve">
<style type="text/css">
	.st0{fill:#007AB3;}
	.st1{fill:none;stroke:#007AB3;}
</style>
<g>
	<path id="a_1_" class="st0" d="M26.8,24.3c0.4,0,0.7,0.3,0.7,0.6c0,0.4-0.3,0.7-0.6,0.7c0,0,0,0,0,0h-1.1v1.1
		c0,0.4-0.3,0.7-0.6,0.7c-0.4,0-0.7-0.3-0.7-0.6c0,0,0,0,0,0v-1.1h-1.1c-0.4,0-0.6-0.3-0.6-0.7c0-0.4,0.3-0.6,0.6-0.6h1.1v-1.2
		c0-0.4,0.3-0.7,0.6-0.7c0.4,0,0.7,0.3,0.7,0.6c0,0,0,0,0,0v1.2H26.8z M10.6,28.4h7.6c0.3,0.6,0.7,1.1,1.1,1.6H10c-0.5,0-1-0.5-1-1
		V12c0-0.6,0.5-1,1-1h2v-1c0-0.6,0.4-1,1-1s1,0.4,1,1v1h10v-1c0-0.6,0.4-1,1-1s1,0.4,1,1v1h2c0.5,0,1,0.4,1,1v6.5
		c-0.5-0.3-1-0.6-1.6-0.8V16H10.6V28.4z M13.2,22h2c0.6,0,1,0.4,1,1v2c0,0.5-0.5,1-1,1h-2c-0.6,0-1-0.5-1-1v-2
		C12.2,22.4,12.6,22,13.2,22z M25,29.4c-2.4,0-4.4-2-4.4-4.4c0-2.4,2-4.4,4.4-4.4c2.4,0,4.4,2,4.4,4.4C29.4,27.4,27.4,29.4,25,29.4
		 M25,19c-3.3,0-6,2.7-6,6s2.7,6,6,6s6-2.7,6-6S28.3,19,25,19"/>
	<path class="st1" d="M20,39.5c7.3,0,14.1-4.1,17.4-10.7c1.4-2.7,2.1-5.8,2.1-8.8C39.5,9.2,30.8,0.5,20,0.5S0.5,9.2,0.5,20
		S9.2,39.5,20,39.5z"/>
</g>
</svg>
