<svg xmlns="http://www.w3.org/2000/svg" xmlns:xlink="http://www.w3.org/1999/xlink" width="283" height="392" viewBox="0 0 283 392">
    <defs>
        <path id="a" d="M.392.697l3.084 22.092a3.031 3.031 0 0 0 2.984 2.62l23.006.084a3.03 3.03 0 0 0 3.002-2.598L35.711.826.392.697"/>
        <path id="c" d="M.392.697l3.084 22.092a3.031 3.031 0 0 0 2.984 2.62l23.006.084a3.03 3.03 0 0 0 3.002-2.598L35.711.826.392.697"/>
        <linearGradient id="e" x1="50%" x2="50%" y1="0%" y2="100%">
            <stop offset="0%" stop-color="#F9CCBC"/>
            <stop offset="100%" stop-color="#FAE0D7"/>
        </linearGradient>
        <linearGradient id="f" x1="50%" x2="-139.749%" y1="12.094%" y2="91.438%">
            <stop offset="0%" stop-color="#57748D"/>
            <stop offset="100%" stop-color="#082844"/>
        </linearGradient>
        <linearGradient id="g" x1="50%" x2="50%" y1="0%" y2="100%">
            <stop offset="0%" stop-color="#D69580"/>
            <stop offset="100%" stop-color="#AD5C49"/>
        </linearGradient>
        <path id="h" d="M.27.126h34.594v43.82H.27z"/>
        <linearGradient id="j" x1="-34.913%" y1="100%" y2="94.404%">
            <stop offset="0%" stop-color="#008CA7"/>
            <stop offset="100%" stop-color="#62AFBC"/>
        </linearGradient>
    </defs>
    <g fill="none" fill-rule="evenodd">
        <g transform="translate(0 112)">
            <ellipse cx="67.78" cy="159.712" fill="#005077" opacity=".365" rx="55.169" ry="5.288"/>
            <path fill="#94C9CF" d="M83.618 122.919c-.154.296-.309.593-.461.892.143-.304.288-.605.438-.906l.023.014zm35.81-50.063h.085c-.138.088-.268.185-.403.276.105-.094.213-.184.319-.276zm-37.733 55.128c.746-1.201 1.419-2.447 2.086-3.696l.06-.009-.042-.023c.169-.318.34-.636.51-.953.41.226.82.453 1.228.683.766-.147 1.52-.312 2.26-.498-.85-.38-1.678-.805-2.48-1.263-.105-.06-.21-.128-.315-.19l.135-.246c.128-.23.262-.453.391-.682.142.083.285.174.426.253.864.487 1.757.935 2.674 1.325.28.12.563.234.847.342.957-.287 1.89-.61 2.803-.973a148.987 148.987 0 0 1-3.892-1.91c-.593-.303-1.18-.618-1.767-.933.176-.305.35-.61.527-.915.387.207.773.419 1.164.619.929.474 1.865.934 2.797 1.39.822.401 1.645.805 2.473 1.198.936-.422 1.85-.889 2.74-1.404-2.35-.51-4.65-1.275-6.884-2.144-.392-.152-.784-.31-1.174-.47-.175-.072-.348-.15-.521-.223.17-.294.336-.59.508-.884l.024-.043c.498.21.999.418 1.5.614 2.54.998 5.184 1.845 7.88 2.33.845-.552 1.67-1.15 2.473-1.802-1.422-.117-2.831-.383-4.229-.666-2.355-.478-4.713-.937-7.065-1.425.19-.325.384-.647.575-.972.971.201 1.943.401 2.914.6 1.574.323 3.153.634 4.731.938 1.406.27 2.82.492 4.252.52.316-.285.63-.577.94-.879a80.674 80.674 0 0 1-4.343-.84c-1.701-.374-3.39-.777-5.1-1.107-.88-.169-1.757-.34-2.635-.513l.58-.97c1.03.2 2.06.395 3.088.597 3.121.612 6.194 1.398 9.333 1.895.293-.31.584-.625.871-.952l.137-.157c-.838-.187-1.676-.375-2.514-.565-3.33-.756-6.658-1.536-9.965-2.398.188-.312.374-.625.563-.936 1.526.385 3.056.751 4.58 1.115 2.7.646 5.41 1.25 8.119 1.862.396-.478.786-.962 1.166-1.454a64.446 64.446 0 0 0-3.516-1.04c-1.656-.451-3.302-.957-4.96-1.395-1.405-.37-2.835-.64-4.26-.925.2-.324.397-.648.597-.971 1.635.328 3.268.658 4.866 1.14 2.642.795 5.336 1.409 7.945 2.303.452-.608.895-1.227 1.326-1.854l-.069-.025c-.853-.28-1.73-.478-2.606-.677-1.469-.335-2.91-.775-4.383-1.1-1.723-.38-3.46-.696-5.194-1.025l-.989-.186c.204-.324.409-.65.615-.974 2.422.46 4.852.885 7.245 1.48 1.49.371 2.983.74 4.468 1.126.513.135 1.027.284 1.526.468.42-.635.83-1.278 1.23-1.93-4.145-1.567-8.42-2.774-12.716-3.862.206-.315.407-.632.614-.946.706.181 1.413.363 2.118.552 3.548.951 7.087 2.016 10.53 3.325l.014.006c.28-.473.557-.949.828-1.429-.274-.108-.55-.215-.826-.32-3.795-1.45-7.687-2.641-11.601-3.723.208-.311.414-.623.623-.933 1.082.301 2.163.607 3.239.93 2.61.781 5.209 1.635 7.764 2.6.443.165.883.334 1.322.508a82.35 82.35 0 0 0 .867-1.621c-.706-.26-1.414-.519-2.122-.776-3.237-1.176-6.474-2.352-9.607-3.78.204-.296.405-.593.611-.89a79.05 79.05 0 0 0 3.462 1.472c1.847.733 3.718 1.415 5.59 2.095.851.309 1.704.618 2.553.93.33-.65.652-1.304.968-1.963a98.562 98.562 0 0 0-3.342-1.632 117.878 117.878 0 0 0-7.607-3.204c.211-.297.42-.597.631-.893 2.385.92 4.747 1.9 7.068 2.97a93.425 93.425 0 0 1 3.704 1.796c.172-.37.342-.74.511-1.113a140.91 140.91 0 0 0-4.098-1.905c-2.175-.959-4.388-1.813-6.677-2.45.222-.308.444-.616.667-.922 2.095.607 4.128 1.39 6.128 2.263 1.484.647 2.95 1.341 4.414 2.044.28-.635.556-1.272.826-1.912a63.765 63.765 0 0 0-5.02-1.988 43.37 43.37 0 0 0-5.538-1.525c.232-.317.467-.63.7-.946 1.685.362 3.345.831 4.981 1.389a64.59 64.59 0 0 1 5.29 2.085c.185-.45.37-.9.55-1.352-1.87-.737-3.742-1.466-5.646-2.082a37.35 37.35 0 0 0-4.355-1.143c.235-.314.468-.63.704-.943 1.29.273 2.559.617 3.814 1.02 1.98.637 3.929 1.398 5.876 2.166.236-.6.469-1.2.699-1.799-2.11-.606-4.223-1.188-6.36-1.662a53.703 53.703 0 0 0-3.33-.631c.246-.322.493-.642.74-.96.93.156 1.856.335 2.777.538 2.203.487 4.38 1.088 6.552 1.713.21-.557.417-1.114.622-1.672a188.769 188.769 0 0 0-6.975-1.117c-.77-.11-1.539-.215-2.31-.321.258-.325.524-.643.784-.966.577.08 1.154.16 1.73.242 2.387.342 4.77.712 7.142 1.146.22-.606.437-1.212.652-1.817-2.478-.468-4.969-.853-7.47-.89-.33-.005-.662.002-.993.01l.228-.282c.225-.27.457-.534.687-.8.106.002.21 0 .315.004 2.54.057 5.073.461 7.592.94.179-.507.356-1.014.532-1.52-2.502-.24-5.03-.31-7.54-.437.312-.343.628-.684.95-1.02 2.317.108 4.644.19 6.95.42l.352-1.025c.142-.412.284-.807.423-1.189a43.293 43.293 0 0 0-5.84-.063c.409-.38.824-.751 1.247-1.114a42.683 42.683 0 0 1 3.145.02c.604.028 1.214.069 1.825.125.152-.417.294-.814.42-1.19l-.071-.009a23.844 23.844 0 0 0-3.786-.2c.48-.37.972-.727 1.47-1.074.77.039 1.53.11 2.263.198.144.016.29.036.433.053.177-.687.255-1.285.17-1.787-.12-.022-.252-.024-.379-.033l.202-.12c.172-.097.04-.385-.145-.319-.392.14-.771.303-1.149.468a14 14 0 0 0-1.356.24c-.692.152-1.37.33-1.967.442a9.401 9.401 0 0 0-.075 1.229c-.351.241-.698.49-1.037.75-.023-.59-.022-1.185.037-1.774-.52.103-1.042.214-1.564.331.011.818.115 1.64.272 2.46-.305.26-.606.525-.903.798-.216-1-.373-2.008-.41-3.013l-.148.036c-.381.094-.763.191-1.144.291a33.882 33.882 0 0 0 .298 3.565c.02.136.049.276.07.413-.176.178-.354.353-.528.533-.127.134-.25.271-.376.406-.066-.336-.127-.671-.179-1.002a31.25 31.25 0 0 1-.338-3.625 60.6 60.6 0 0 0-1.256.37c.061.427.17.85.264 1.238.288 1.181.672 2.34 1.075 3.485l-.244.262c-.188.209-.37.421-.557.632-.09-.247-.184-.492-.27-.74-.417-1.199-.817-2.411-1.096-3.652a16.989 16.989 0 0 1-.183-.905c-.486.159-.97.324-1.455.494.51 1.763 1.616 3.356 2.385 4.996.053.111.1.226.15.339-.263.303-.522.61-.78.918-.125-.343-.26-.68-.42-1.005-.793-1.613-1.782-3.172-2.311-4.894-.625.233-1.247.476-1.864.73.903 1.58 1.868 3.122 2.835 4.663.314.503.614 1.016.91 1.532-.248.304-.497.61-.742.917-.977-1.665-1.98-3.31-2.975-4.968a78.113 78.113 0 0 1-1.019-1.726c-.253.11-.506.222-.757.335 1.308 2.407 2.843 4.701 4.164 7.107-.234.298-.467.597-.698.899-1.367-2.579-3.013-5.012-4.414-7.57-.563.266-1.122.542-1.676.827.9 1.436 1.88 2.827 2.82 4.219.79 1.17 1.584 2.34 2.328 3.543l.072.12c-.227.301-.452.604-.678.906a72.93 72.93 0 0 0-.753-1.184c-1.537-2.395-3.198-4.708-4.705-7.122a61.609 61.609 0 0 0-1.367.763l.226.386a44.542 44.542 0 0 0 1.696 2.595c1.328 1.914 2.786 3.773 4.01 5.767l-.685.929c-1.32-2.227-2.954-4.276-4.412-6.4a45.494 45.494 0 0 1-1.165-1.773c-.197-.319-.39-.641-.576-.967-.314.19-.625.385-.934.582.28.555.578 1.103.888 1.643.447.781.918 1.547 1.396 2.301 1.258 1.985 2.607 3.917 3.859 5.907-.226.309-.45.622-.674.932-1.344-2.17-2.817-4.261-4.178-6.42a68.892 68.892 0 0 1-.965-1.573 39.044 39.044 0 0 1-1.222-2.205 45.03 45.03 0 0 0-1.538 1.076 83.81 83.81 0 0 0 2.026 2.647c1.859 2.351 3.774 4.67 5.35 7.205-.224.313-.453.624-.676.938a36.12 36.12 0 0 0-1.335-2.065c-1.204-1.724-2.53-3.373-3.84-5.032a101.42 101.42 0 0 1-2.356-3.072 42.125 42.125 0 0 0-2.527 2.096c1.175 1.278 2.4 2.513 3.56 3.806.16.177.317.355.472.534 1.591 1.831 3.135 3.715 4.792 5.49-.208.295-.417.589-.623.886a78.165 78.165 0 0 1-2.037-2.264c-1.03-1.193-2.035-2.413-3.084-3.59a48.787 48.787 0 0 0-.31-.348c-1.056-1.167-2.158-2.288-3.225-3.442l-.325-.353c-.708.67-1.389 1.366-2.04 2.087 1.481 1.325 3.017 2.595 4.472 3.95l.417.39c1.75 1.631 3.488 3.294 5.108 5.062-.206.3-.412.601-.616.903a60.227 60.227 0 0 0-2.658-2.735c-.757-.731-1.523-1.448-2.295-2.16-1.632-1.5-3.29-2.967-4.949-4.446l-.184-.165c-.737.863-1.43 1.76-2.08 2.691 1.247 1.067 2.579 2.046 3.851 3.035a62.222 62.222 0 0 1 2.167 1.773c1.59 1.36 3.134 2.777 4.7 4.163-.197.3-.397.598-.593.897-1.511-1.332-3-2.694-4.524-4.01a63.933 63.933 0 0 0-2.604-2.142c-1.19-.924-2.423-1.843-3.589-2.833-.385.595-.75 1.203-1.097 1.824.252.267.512.529.78.781 1.758 1.651 3.756 2.99 5.773 4.304 1.55 1.008 3.106 2.009 4.578 3.115-.199.304-.393.61-.59.914-.285-.213-.567-.432-.857-.637-1.149-.811-2.327-1.578-3.5-2.351-1.21-.797-2.412-1.598-3.577-2.461-1.096-.813-2.174-1.692-3.136-2.676a30.518 30.518 0 0 0-1.193 2.626c1.573 1.02 3.298 1.857 4.87 2.754.842.48 1.653 1.01 2.46 1.55.715.478 1.428.963 2.153 1.426.622.397 1.255.775 1.89 1.151l-.575.908a70.753 70.753 0 0 1-2.056-1.27c-.58-.374-1.152-.758-1.726-1.14-.957-.64-1.919-1.273-2.922-1.84-1.468-.827-3.021-1.617-4.471-2.544-.3.837-.566 1.694-.796 2.57 2.414 1.572 5.018 2.846 7.598 4.157a94.51 94.51 0 0 1 3.315 1.76c-.187.3-.376.6-.562.901a96.017 96.017 0 0 0-2.986-1.593c-2.58-1.32-5.19-2.591-7.628-4.137-.1.451-.19.91-.272 1.372 1.688 1.34 3.553 2.487 5.305 3.688.722.494 1.437.981 2.164 1.457.462.303.929.601 1.402.892.234.143.48.29.73.44-.186.31-.375.615-.56.925a59.893 59.893 0 0 0-1.154-.719 27.58 27.58 0 0 1-.589-.367c-1.035-.662-2.029-1.376-3.05-2.065-1.48-.998-3.006-1.979-4.436-3.071a34.051 34.051 0 0 0-.168 1.519c1.212 1.458 2.889 2.603 4.406 3.597.993.65 2.017 1.26 3.034 1.878.369.225.735.455 1.101.686-.177.302-.357.604-.534.907-.222-.14-.445-.282-.67-.42-1.325-.813-2.674-1.592-3.96-2.46-1.205-.814-2.431-1.705-3.474-2.756-.026.578-.04 1.157-.042 1.737 2.203 2.039 4.806 3.66 7.28 5.405-.175.305-.342.615-.514.922-2.265-1.623-4.642-3.125-6.75-4.92.024.983.077 1.969.145 2.958.666.512 1.352.994 2.04 1.46 1.171.794 2.367 1.55 3.55 2.324-.17.313-.335.628-.503.943-1.67-1.086-3.386-2.135-4.992-3.306.038.7.07 1.431.111 2.175l.34.204c1.275.762 2.6 1.43 3.92 2.109-.151.287-.305.571-.453.859-.106.187-.217.373-.321.561l.02.012c-.161.316-.327.63-.491.946l-.037-.023c-.172.324-.336.651-.501.978l.047-.098a58.16 58.16 0 0 1-2.015-1.062c.227 1.086.556 2.114 1.047 3.018h.009c-.554 1.1-1.085 2.21-1.54 3.35-.104.262.236.454.388.21zM52.273 119.523c.322.32.643.64.967.958a75.263 75.263 0 0 1-.994-.931l.027-.027zM1.841 52.856l.034-.11c.06.214.134.423.197.635-.079-.174-.153-.35-.23-.525zm56.208 71.19c-1.255-1.452-2.597-2.824-3.944-4.192l.013-.082-.048.046c-.343-.348-.686-.696-1.027-1.045.455-.446.909-.894 1.368-1.335.113-1.06.198-2.112.253-3.154a38.286 38.286 0 0 1-2.613 2.742c-.12.114-.248.225-.37.338l-.265-.274c-.245-.258-.481-.523-.725-.782.164-.154.336-.304.495-.456a36.983 36.983 0 0 0 2.77-2.972c.267-.32.526-.642.777-.972a47.461 47.461 0 0 0-.145-4.051 199.682 199.682 0 0 1-4.008 4.332c-.626.656-1.266 1.298-1.905 1.94-.323-.35-.65-.698-.972-1.05.422-.425.847-.846 1.261-1.278.98-1.025 1.943-2.068 2.902-3.108.843-.915 1.691-1.83 2.527-2.757a41.818 41.818 0 0 0-.726-4.139c-1.59 2.87-3.49 5.576-5.495 8.152-.353.453-.712.903-1.074 1.35-.162.2-.33.395-.494.593-.311-.34-.63-.674-.94-1.016l-.046-.05c.47-.567.936-1.138 1.389-1.717 2.294-2.927 4.434-6.047 6.128-9.38a40.651 40.651 0 0 0-1.344-3.948c-.717 1.812-1.617 3.55-2.537 5.265-1.55 2.89-3.077 5.792-4.64 8.674-.342-.377-.682-.758-1.025-1.137.644-1.19 1.286-2.382 1.93-3.573a579.036 579.036 0 0 0 3.085-5.815c.907-1.731 1.752-3.492 2.355-5.353a41.65 41.65 0 0 0-.762-1.578 111.295 111.295 0 0 1-2.805 5.347c-1.157 2.075-2.346 4.125-3.45 6.23a951.194 951.194 0 0 1-1.705 3.243c-.343-.381-.683-.763-1.025-1.144.667-1.267 1.327-2.537 1.996-3.801 2.028-3.839 4.259-7.546 6.145-11.454a47.966 47.966 0 0 0-.884-1.517l-.15-.24c-.574 1.02-1.148 2.044-1.724 3.063-2.297 4.056-4.622 8.1-7.044 12.081-.328-.37-.658-.737-.985-1.107a514.721 514.721 0 0 0 3.254-5.547c1.904-3.275 3.757-6.58 5.62-9.878-.459-.708-.93-1.41-1.414-2.102-.96 1.362-1.856 2.77-2.737 4.185-1.238 1.988-2.541 3.939-3.765 5.934-1.036 1.69-1.95 3.453-2.883 5.203-.338-.389-.679-.775-1.016-1.165 1.07-2.007 2.144-4.013 3.4-5.912 2.074-3.139 3.933-6.42 6.12-9.476a82.435 82.435 0 0 0-1.868-2.468l-.058.078c-.7 1.006-1.303 2.076-1.907 3.14-1.015 1.79-2.153 3.5-3.156 5.297-1.174 2.103-2.27 4.248-3.381 6.386l-.633 1.22-1.014-1.19c1.553-2.986 3.065-5.995 4.782-8.89 1.07-1.8 2.138-3.606 3.224-5.395.377-.618.773-1.23 1.209-1.811A92.76 92.76 0 0 0 40.34 78.2c-3.666 4.8-6.919 9.913-10.026 15.099-.325-.394-.654-.784-.977-1.179.513-.852 1.028-1.703 1.552-2.55 2.633-4.263 5.41-8.47 8.464-12.452l.014-.017c-.5-.554-1.005-1.104-1.517-1.649-.248.317-.494.635-.74.953-3.376 4.389-6.456 9.007-9.403 13.696-.32-.395-.64-.789-.958-1.185.818-1.295 1.64-2.586 2.483-3.866 2.044-3.105 4.177-6.164 6.433-9.124.39-.512.784-1.022 1.182-1.527-.577-.598-1.16-1.19-1.75-1.777-.617.822-1.23 1.645-1.842 2.469-2.801 3.767-5.602 7.532-8.686 11.066-.302-.385-.607-.768-.906-1.153a108.3 108.3 0 0 0 3.27-3.944c1.678-2.125 3.3-4.3 4.92-6.48.737-.991 1.473-1.982 2.213-2.97-.709-.688-1.426-1.369-2.152-2.043a130.124 130.124 0 0 0-3.43 3.723 161.543 161.543 0 0 0-7.152 8.679c-.3-.395-.603-.785-.901-1.18a165.489 165.489 0 0 1 6.634-8.067 132.527 132.527 0 0 1 3.786-4.131c-.409-.371-.819-.741-1.233-1.108a191.647 191.647 0 0 0-4.085 4.604c-2.1 2.463-4.078 5.018-5.808 7.76-.31-.413-.617-.826-.925-1.24 1.614-2.497 3.43-4.845 5.35-7.115 1.423-1.684 2.9-3.327 4.387-4.961a167.97 167.97 0 0 0-2.14-1.839 87.697 87.697 0 0 0-4.556 5.777 59.91 59.91 0 0 0-4.164 6.638c-.316-.429-.627-.861-.942-1.29a60.875 60.875 0 0 1 3.766-5.965 88.086 88.086 0 0 1 4.788-6.088c-.508-.422-1.017-.842-1.527-1.258-1.693 2.154-3.377 4.313-4.926 6.559a51.537 51.537 0 0 0-3.2 5.24c-.314-.43-.629-.858-.939-1.292a53.246 53.246 0 0 1 2.828-4.583c1.608-2.338 3.363-4.584 5.125-6.825-.68-.548-1.362-1.09-2.046-1.628-1.617 2.517-3.206 5.052-4.665 7.658a75.784 75.784 0 0 0-2.135 4.105c-.316-.45-.633-.898-.946-1.35a76.996 76.996 0 0 1 1.796-3.416c1.5-2.688 3.14-5.297 4.809-7.89-.637-.496-1.275-.987-1.913-1.476a257.459 257.459 0 0 0-4.205 8.68c-.447.96-.89 1.925-1.33 2.89-.318-.464-.624-.938-.937-1.406.331-.723.663-1.445.998-2.166a254.972 254.972 0 0 1 4.309-8.885 431.105 431.105 0 0 0-2.087-1.573c-1.586 3.055-3.07 6.159-4.109 9.414-.138.432-.258.868-.38 1.303-.09-.137-.185-.271-.274-.41-.26-.4-.508-.81-.76-1.215.043-.137.085-.274.129-.41 1.081-3.3 2.607-6.45 4.223-9.555-.585-.436-1.17-.868-1.753-1.298-1.3 3.177-2.391 6.453-3.55 9.687a67 67 0 0 1-.94-1.647c1.056-2.988 2.084-5.998 3.295-8.92l-1.183-.87c-.476-.347-.93-.69-1.368-1.023a59.695 59.695 0 0 0-2.396 7.612 58.26 58.26 0 0 1-.943-2.073 59.56 59.56 0 0 1 1.272-4.103c.276-.78.57-1.562.885-2.338a61.473 61.473 0 0 0-1.37-1.02l-.04.09a32.894 32.894 0 0 0-1.758 4.87 49.386 49.386 0 0 1-.804-2.348 47.532 47.532 0 0 1 1.394-3.426c-.818-.504-1.56-.841-2.241-.93-.076.148-.13.319-.193.481-.023-.103-.052-.206-.074-.31-.057-.264-.483-.208-.469.064.026.567.084 1.127.148 1.686a19.374 19.374 0 0 0-.229 1.87c-.075.965-.115 1.92-.207 2.746.501.232 1.027.423 1.556.586.173.555.357 1.106.557 1.653a16.81 16.81 0 0 1-2.275-.752A81.657 81.657 0 0 0 .25 56.74c1.06.31 2.163.499 3.282.62.216.502.438 1.001.673 1.496-1.375-.113-2.74-.307-4.053-.659l-.011.208c-.03.537-.056 1.074-.077 1.612 1.312.357 2.637.663 3.973.9.25.043.497.085.746.123.184.029.376.047.562.072.16.301.315.604.479.902.122.22.25.434.374.652-.46-.046-.916-.099-1.365-.162a41.782 41.782 0 0 1-4.813-.994A92.106 92.106 0 0 0 0 63.3c.575.088 1.165.115 1.702.144 1.64.092 3.285.048 4.925-.025.082.14.16.283.242.423.194.329.396.653.594.978-.354.02-.708.046-1.062.06-1.713.071-3.438.115-5.148-.013-.404-.03-.822-.065-1.24-.12.01.698.031 1.399.06 2.099 2.478.03 4.973-.784 7.393-1.14.166-.024.332-.04.497-.06.288.464.581.924.876 1.383-.492.027-.98.072-1.463.151-2.396.398-4.8 1.073-7.233 1.083.052.909.12 1.818.204 2.726 2.397-.556 4.77-1.205 7.142-1.858a58.496 58.496 0 0 1 2.337-.584c.296.445.591.891.89 1.334-2.535.617-5.056 1.276-7.59 1.921-.875.223-1.751.446-2.632.647.04.376.085.75.132 1.125 3.626-.758 7.195-1.855 10.823-2.63.293.424.587.849.884 1.27-3.87.764-7.662 1.954-11.52 2.773.12.842.256 1.682.404 2.518 2.21-.607 4.393-1.34 6.562-2.015 1.825-.569 3.65-1.144 5.496-1.64l.184-.049c.299.417.6.833.902 1.247-.62.166-1.236.345-1.829.515-3.7 1.061-7.343 2.317-11.057 3.332a77.322 77.322 0 0 0 .444 2.088c.196-.046.392-.093.587-.142 1.37-.343 2.717-.763 4.023-1.19 2.996-.976 5.974-2.147 9.033-2.956l.927 1.262c-3.398.844-6.689 2.17-10.01 3.234-.903.29-1.822.57-2.75.82-.49.132-.981.257-1.476.371.12.486.25.97.38 1.451.828-.146 1.653-.32 2.474-.51a80.724 80.724 0 0 0 3.523-.912c3.06-.86 6.088-1.858 9.153-2.706.31.418.626.833.938 1.25-3.334.898-6.617 1.996-9.943 2.92-.798.222-1.603.436-2.413.637a52.31 52.31 0 0 1-3.331.725c.244.82.504 1.633.78 2.439 1.415-.5 2.818-1.044 4.219-1.6 3.772-1.501 7.524-3.087 11.42-4.143.316.419.627.84.943 1.257-1.073.275-2.14.578-3.194.926-2.701.892-5.356 1.971-8.018 3.028a137.355 137.355 0 0 1-4.898 1.864 58.596 58.596 0 0 0 1.703 4.135c2.117-1.03 4.196-2.144 6.325-3.148.29-.137.583-.272.876-.405 2.994-1.355 6.037-2.628 8.984-4.09.3.387.597.778.898 1.165a103.596 103.596 0 0 1-3.73 1.766c-1.95.875-3.92 1.706-5.856 2.61-.19.09-.383.178-.573.27-1.923.917-3.807 1.914-5.72 2.852l-.583.284a51.568 51.568 0 0 0 1.883 3.496c2.3-1.413 4.546-2.916 6.872-4.284l.668-.391c2.8-1.642 5.635-3.255 8.559-4.673.307.388.613.776.922 1.164a82.015 82.015 0 0 0-4.584 2.391c-1.243.7-2.473 1.418-3.696 2.146-2.584 1.539-5.135 3.127-7.7 4.71l-.288.177a46.922 46.922 0 0 0 2.65 3.783c1.871-1.207 3.663-2.56 5.443-3.832a81.06 81.06 0 0 1 3.148-2.13c2.385-1.542 4.825-2.999 7.238-4.499.306.379.612.757.921 1.133-2.32 1.448-4.666 2.854-6.968 4.326a86.844 86.844 0 0 0-3.799 2.558c-1.663 1.19-3.338 2.438-5.078 3.57.614.739 1.255 1.457 1.92 2.156.445-.223.885-.46 1.318-.712 2.827-1.642 5.348-3.724 7.842-5.841 1.916-1.627 3.822-3.266 5.835-4.752.313.38.631.755.947 1.133-.39.289-.782.57-1.163.87-1.501 1.18-2.959 2.415-4.422 3.643-1.506 1.265-3.02 2.522-4.594 3.702-1.483 1.112-3.045 2.174-4.697 3.042a41.626 41.626 0 0 0 2.916 2.601c1.943-1.653 3.706-3.578 5.488-5.279.952-.91 1.958-1.76 2.972-2.6.902-.747 1.811-1.487 2.696-2.252a91.954 91.954 0 0 0 2.235-2.015c.313.37.628.74.944 1.111a96.592 96.592 0 0 1-2.456 2.186c-.71.61-1.434 1.206-2.154 1.804-1.205 1-2.404 2.005-3.532 3.094-1.65 1.59-3.286 3.308-5.057 4.837a40.821 40.821 0 0 0 3.002 2.059c2.987-2.532 5.662-5.434 8.378-8.287a131.127 131.127 0 0 1 3.583-3.64c.315.365.626.732.943 1.095a126.415 126.415 0 0 0-3.24 3.272c-2.727 2.85-5.402 5.762-8.364 8.335.543.31 1.1.61 1.664.9 2.399-1.675 4.618-3.66 6.862-5.476.923-.748 1.838-1.491 2.74-2.251a76.795 76.795 0 0 0 1.706-1.482c.276-.248.564-.512.858-.778.325.365.646.733.971 1.097-.466.402-.928.812-1.385 1.226-.233.212-.47.418-.707.623-1.265 1.092-2.58 2.108-3.874 3.17-1.875 1.54-3.746 3.148-5.722 4.584.626.292 1.259.564 1.893.822 2.364-1.006 4.505-2.746 6.39-4.337 1.233-1.04 2.425-2.137 3.626-3.222.437-.394.88-.781 1.32-1.168.321.352.64.706.961 1.057-.27.236-.54.471-.807.71-1.575 1.411-3.116 2.866-4.746 4.203-1.527 1.254-3.163 2.505-4.933 3.45.737.266 1.477.513 2.225.744 3.505-2.072 6.628-4.833 9.862-7.376.325.349.659.69.987 1.036-2.993 2.319-5.874 4.833-9.027 6.879 1.279.357 2.572.679 3.876.981a57.774 57.774 0 0 0 2.694-2.089c1.488-1.216 2.938-2.48 4.406-3.72.337.345.678.686 1.017 1.03-2.063 1.754-4.097 3.582-6.244 5.22.918.225 1.875.474 2.85.714l.4-.363c1.487-1.365 2.874-2.833 4.274-4.289.31.31.617.623.929.931.2.213.396.433.598.643l.023-.022c.344.336.685.678 1.027 1.017l-.043.04c.35.353.706.698 1.061 1.042l-.106-.099c-.71.752-1.434 1.49-2.171 2.214 1.492.133 2.95.11 4.311-.175l.003-.011c1.2 1.16 2.424 2.294 3.716 3.342.297.24.678-.128.423-.425z"/>
            <path fill="#94C9CF" d="M63.858 116.925c-.012.607-.023 1.214-.03 1.821a87.985 87.985 0 0 1-.02-1.823l.05.002zm17.68-110.32l.135-.07c-.15.255-.283.52-.429.777.096-.237.196-.472.293-.708zM64.82 126.698c.243-2.554.327-5.121.403-7.688l.09-.064-.088-.003.059-1.96c.847.033 1.694.063 2.54.105a76.548 76.548 0 0 0 3.26-2.652 50.57 50.57 0 0 1-5.034-.023c-.219-.012-.444-.035-.664-.05.007-.17.011-.34.02-.509.023-.475.06-.95.085-1.424.297.018.6.048.893.062 1.792.085 3.6.08 5.4-.035.55-.035 1.1-.08 1.647-.137a62.63 62.63 0 0 0 3.757-3.864c-2.614.062-5.23.097-7.844.082-1.205-.006-2.41-.04-3.614-.07.04-.637.075-1.274.116-1.912.796.02 1.59.048 2.385.052 1.887.013 3.773-.01 5.65-.032 1.655-.019 3.313-.037 4.971-.076a55.012 55.012 0 0 0 3.307-4.509c-4.217 1.092-8.56 1.73-12.877 2.145-.758.073-1.52.138-2.281.196-.342.025-.683.042-1.025.064.041-.615.07-1.232.112-1.847l.006-.09c.976-.065 1.953-.138 2.925-.228 4.919-.458 9.882-1.242 14.639-2.657a54.263 54.263 0 0 0 2.555-4.936c-2.399.969-4.894 1.69-7.387 2.372-4.198 1.147-8.389 2.328-12.592 3.456.048-.681.1-1.361.149-2.042 1.735-.468 3.47-.939 5.204-1.408a703.76 703.76 0 0 0 8.418-2.34c2.497-.71 4.965-1.506 7.306-2.628.283-.72.557-1.45.815-2.192a145.187 145.187 0 0 1-7.712 2.184c-3.056.782-6.117 1.508-9.153 2.37-1.56.442-3.119.883-4.68 1.319.051-.683.104-1.365.156-2.047 1.83-.515 3.656-1.04 5.483-1.552 5.55-1.554 11.16-2.789 16.647-4.546.225-.74.442-1.49.644-2.254l.094-.367c-1.51.381-3.017.762-4.527 1.137-6.005 1.493-12.024 2.946-18.074 4.25.054-.66.103-1.318.159-1.975 2.78-.622 5.553-1.28 8.315-1.932 4.896-1.158 9.772-2.391 14.652-3.61.258-1.098.498-2.2.719-3.307-2.19.318-4.366.74-6.534 1.182-3.047.623-6.118 1.147-9.158 1.791-2.575.546-5.109 1.277-7.645 1.976.062-.686.12-1.373.184-2.058 2.911-.804 5.823-1.602 8.8-2.126 4.921-.867 9.78-2.072 14.726-2.753.242-1.355.46-2.717.652-4.085l-.128.017c-1.609.242-3.19.638-4.767 1.029-2.652.655-5.34 1.12-7.987 1.797-3.098.79-6.166 1.694-9.239 2.577-.582.167-1.167.338-1.753.507.07-.694.139-1.388.211-2.082 4.294-1.233 8.573-2.525 12.93-3.513 2.71-.616 5.428-1.236 8.144-1.823.94-.203 1.892-.38 2.849-.49.17-1.37.315-2.746.438-4.128-7.977.844-15.876 2.38-23.71 4.12.079-.677.151-1.355.233-2.032 1.29-.284 2.581-.566 3.874-.834 6.515-1.356 13.106-2.519 19.737-3.207l.028-.003c.074-.995.138-1.99.19-2.99-.533.05-1.064.101-1.596.156-7.315.748-14.58 1.995-21.792 3.437.086-.674.169-1.348.258-2.022 1.996-.394 3.992-.78 5.994-1.136 4.86-.864 9.757-1.602 14.673-2.126.85-.09 1.701-.176 2.553-.253.044-1.111.076-2.223.097-3.336-1.354.155-2.709.316-4.063.478-6.19.736-12.381 1.47-18.608 1.717.093-.647.18-1.294.275-1.94 2.267-.094 4.532-.242 6.792-.444 3.583-.318 7.163-.74 10.744-1.167 1.628-.194 3.257-.39 4.886-.576a185.31 185.31 0 0 0-.016-3.97c-2.243-.018-4.486.014-6.728.083-4.977.154-9.95.515-14.904 1.018.102-.654.199-1.309.304-1.962 4.605-.457 9.221-.796 13.842-.959 2.482-.087 4.964-.13 7.446-.112a223.23 223.23 0 0 0-.067-2.218c-2.728.051-5.456.117-8.175.257-4.296.221-8.568.643-12.79 1.48.112-.68.226-1.359.34-2.04 3.881-.724 7.805-1.115 11.748-1.333 2.926-.16 5.86-.235 8.797-.29a237.712 237.712 0 0 0-.201-3.771c-3.26.165-6.513.439-9.735.875-3.445.468-6.853 1.133-10.199 2.05.12-.702.25-1.402.374-2.104a80.029 80.029 0 0 1 9.186-1.817c3.39-.473 6.815-.763 10.247-.937-.061-.88-.126-1.76-.196-2.64-3.624.332-7.244.68-10.823 1.236-2.688.418-5.351.963-7.975 1.701.127-.7.248-1.401.38-2.1a69.4 69.4 0 0 1 6.999-1.46c3.723-.586 7.491-.942 11.263-1.287a315.435 315.435 0 0 0-.316-3.485c-3.904.738-7.798 1.522-11.64 2.498a98.538 98.538 0 0 0-5.904 1.695c.14-.72.281-1.441.426-2.16 1.633-.506 3.277-.971 4.93-1.393 3.96-1.01 7.973-1.812 11.996-2.571-.109-1.075-.223-2.148-.34-3.217-4.092 1.208-8.153 2.522-12.198 3.883-1.335.45-2.667.905-3.999 1.363.155-.737.328-1.469.49-2.203.998-.343 1.996-.683 2.997-1.02 4.142-1.395 8.301-2.74 12.492-3.972a573.175 573.175 0 0 0-.409-3.477c-4.391 1.266-8.735 2.674-12.816 4.654-.54.262-1.07.546-1.601.828.05-.214.092-.43.144-.643.147-.622.31-1.238.469-1.857.17-.084.34-.17.511-.25 4.163-1.98 8.59-3.392 13.057-4.672a701.28 701.28 0 0 0-.365-2.897c-4.246 1.653-8.395 3.602-12.565 5.446.23-.812.467-1.622.718-2.427 3.84-1.719 7.674-3.485 11.594-4.992l-.253-1.949c-.102-.781-.191-1.539-.273-2.272a78.45 78.45 0 0 0-9.511 4.663c.356-.947.73-1.888 1.123-2.821a78.063 78.063 0 0 1 5.11-2.532 73.876 73.876 0 0 1 3.058-1.288c-.09-.8-.179-1.56-.278-2.27l-.123.043c-2.16.762-4.28 1.668-6.294 2.765.48-.992.988-1.972 1.516-2.94a61.027 61.027 0 0 1 4.57-1.791c-.267-1.259-.624-2.29-1.166-3.036-.212.064-.425.167-.639.256.08-.118.15-.24.23-.358.201-.298-.243-.66-.491-.398a33.04 33.04 0 0 0-1.484 1.695c-.678.449-1.352.962-2.006 1.495-.995.812-1.95 1.652-2.827 2.32.237.702.538 1.39.868 2.054a46.698 46.698 0 0 0-1.077 2.061c-.512-.935-.99-1.9-1.367-2.904-.76.592-1.517 1.196-2.268 1.812.677 1.316 1.508 2.563 2.421 3.763-.284.671-.559 1.347-.819 2.03-1.155-1.442-2.222-2.947-3.091-4.548l-.21.18c-.543.463-1.083.932-1.619 1.408a60.231 60.231 0 0 0 2.788 4.69c.186.281.374.562.567.84.14.205.3.407.445.612-.142.431-.29.86-.424 1.295-.1.32-.188.642-.284.962a45.352 45.352 0 0 1-1.097-1.476c-1.272-1.79-2.415-3.669-3.468-5.596-.583.534-1.162 1.077-1.736 1.626.443.641.96 1.24 1.424 1.79 1.419 1.678 2.974 3.24 4.55 4.767-.06.208-.126.415-.185.625-.136.49-.261.983-.394 1.476-.343-.326-.693-.647-1.033-.978-1.642-1.601-3.267-3.239-4.717-5.022-.342-.42-.693-.858-1.025-1.316-.66.653-1.313 1.316-1.958 1.988 2.246 2.439 5.32 4.117 7.887 6.146.176.138.344.284.514.427-.18.706-.352 1.414-.523 2.123-.478-.453-.97-.889-1.49-1.284-2.583-1.966-5.44-3.685-7.686-6.042-.824.887-1.634 1.788-2.43 2.703 2.735 1.821 5.54 3.534 8.347 5.242a81.182 81.182 0 0 1 2.71 1.735c-.157.698-.316 1.394-.464 2.094-2.924-1.9-5.873-3.748-8.821-5.62-1.017-.646-2.038-1.294-3.04-1.966-.323.385-.641.773-.959 1.162 4.06 2.832 8.395 5.296 12.472 8.112-.139.675-.275 1.351-.408 2.028-4.29-3.063-8.917-5.66-13.247-8.66-.699.892-1.38 1.794-2.049 2.707 2.614 1.592 5.325 3.044 7.966 4.533 2.222 1.253 4.452 2.5 6.625 3.84l.216.134c-.126.673-.248 1.348-.37 2.023-.729-.45-1.466-.886-2.174-1.306-4.418-2.624-8.972-5.016-13.359-7.695a96.613 96.613 0 0 0-1.597 2.35c.224.15.45.296.675.441 1.587 1.017 3.229 1.941 4.84 2.821 3.69 2.016 7.55 3.837 11.139 6.07-.121.688-.242 1.374-.36 2.062-3.933-2.53-8.23-4.515-12.305-6.768a83.676 83.676 0 0 1-3.315-1.921 55.187 55.187 0 0 1-1.711-1.095 101.09 101.09 0 0 0-1.045 1.704 63.542 63.542 0 0 0 2.763 1.938c1.353.9 2.733 1.756 4.114 2.588 3.637 2.19 7.378 4.217 11.01 6.419-.117.686-.226 1.374-.34 2.06-3.926-2.418-7.998-4.603-11.94-6.989a123.741 123.741 0 0 1-2.83-1.761 71.812 71.812 0 0 1-3.756-2.575 85.243 85.243 0 0 0-1.626 3c1.78.917 3.592 1.782 5.414 2.633 4.906 2.29 9.877 4.484 14.472 7.304-.112.69-.231 1.38-.341 2.072a64.797 64.797 0 0 0-3.823-2.256c-3.34-1.808-6.816-3.4-10.275-5.018-2.115-.988-4.223-1.987-6.29-3.052a77.439 77.439 0 0 0-2.408 5.457c2.935 1.112 5.914 2.11 8.834 3.26.4.157.798.316 1.195.48 4.052 1.668 8.072 3.458 12.183 4.981-.097.649-.2 1.295-.294 1.943a134.248 134.248 0 0 1-5.124-2.005c-2.63-1.092-5.24-2.246-7.887-3.298-.261-.104-.523-.208-.785-.31-2.647-1.028-5.337-1.945-7.994-2.943l-.81-.307a69.358 69.358 0 0 0-1.626 5.045c3.469.938 6.978 1.742 10.428 2.749l.988.29c4.15 1.216 8.305 2.492 12.353 4.033-.091.654-.183 1.31-.271 1.965a109.101 109.101 0 0 0-6.508-2.261 229.888 229.888 0 0 0-5.457-1.624c-3.851-1.1-7.72-2.122-11.598-3.163l-.433-.118a62.566 62.566 0 0 0-1.198 6.054c2.878.712 5.824 1.21 8.681 1.774 1.655.327 3.3.702 4.939 1.105 3.67.904 7.312 1.94 10.968 2.908-.08.646-.162 1.291-.241 1.938-3.52-.926-7.027-1.917-10.557-2.804a115.546 115.546 0 0 0-5.945-1.347c-2.673-.523-5.41-1.007-8.095-1.658a58.637 58.637 0 0 0-.307 3.848c.623.23 1.255.439 1.895.629 4.175 1.24 8.49 1.78 12.816 2.26 3.323.37 6.647.72 9.923 1.31-.076.654-.144 1.31-.218 1.963-.633-.112-1.266-.236-1.902-.332-2.513-.376-5.04-.658-7.564-.953-2.598-.304-5.195-.62-7.775-1.067-2.43-.421-4.885-.966-7.237-1.776a55.531 55.531 0 0 0 .183 5.228c3.372.37 6.84.317 10.11.486 1.749.091 3.49.29 5.23.504 1.545.19 3.09.395 4.637.554 1.328.135 2.66.229 3.99.322-.068.646-.134 1.292-.2 1.938a130.433 130.433 0 0 1-4.355-.38c-1.24-.13-2.476-.286-3.713-.437-2.067-.254-4.134-.496-6.216-.595-3.044-.142-6.196-.155-9.29-.472.186 1.599.447 3.203.78 4.811 5.176.577 10.42.516 15.656.534 2.267.008 4.53.047 6.788.143-.061.64-.127 1.282-.185 1.923a166.025 166.025 0 0 0-6.12-.144c-5.243-.035-10.495.038-15.69-.48.201.815.426 1.63.666 2.446 3.813.796 7.758 1.13 11.563 1.644 1.568.211 3.12.418 4.68.595.992.113 1.987.216 2.99.3.493.04 1.011.079 1.537.12-.053.652-.112 1.302-.16 1.954-.817-.085-1.634-.158-2.451-.222a54.171 54.171 0 0 1-1.249-.116c-2.21-.226-4.395-.572-6.603-.854-3.202-.41-6.464-.752-9.66-1.356.295.878.615 1.742.95 2.597 3.138 1.375 6.776 1.86 10.035 2.231 2.133.243 4.28.396 6.427.568.78.063 1.558.138 2.336.21-.044.636-.092 1.27-.133 1.907-.475-.046-.949-.093-1.424-.134-2.802-.234-5.615-.397-8.397-.754-2.607-.335-5.312-.776-7.847-1.629.423.96.868 1.908 1.33 2.848 5.212 1.507 10.733 2.006 16.146 2.816-.036.637-.057 1.275-.088 1.913-4.977-.782-10.037-1.274-14.898-2.462.831 1.573 1.71 3.127 2.619 4.673 1.49.285 2.99.508 4.48.701 2.536.33 5.082.579 7.622.868-.023.645-.037 1.29-.056 1.935-3.58-.394-7.203-.693-10.75-1.278.628 1.102 1.268 2.26 1.934 3.43.24.02.48.037.714.055 2.68.192 5.364.193 8.048.218-.013.587-.033 1.173-.041 1.759-.02.39-.052.783-.068 1.173l.043.002c-.008.644-.021 1.289-.034 1.933l-.078-.005c-.018.664-.02 1.327-.025 1.99l-.002-.195c-1.375.002-2.748-.026-4.12-.078 1.243 1.574 2.604 2.972 4.128 4.035l.013-.009c-.012 2.234.024 4.467.207 6.687.041.509.745.541.794.02z"/>
            <path fill="#FFD98C" d="M88.834 124.95l-39.302-.142c-1.434-.006-2.503 1.331-2.189 2.741l1.433 6.445a2.237 2.237 0 0 0 2.173 1.758l36.39.132a2.239 2.239 0 0 0 2.185-1.742l1.479-6.434c.323-1.407-.735-2.752-2.17-2.758"/>
            <g transform="translate(50.44 135.385)">
                <mask id="b" fill="#fff">
                    <use xlink:href="#a"/>
                </mask>
                <use fill="#F5A623" xlink:href="#a"/>
                <path fill="#FFD98C" d="M.392.697l3.084 22.092a3.031 3.031 0 0 0 2.984 2.62l23.006.084a3.03 3.03 0 0 0 3.002-2.598L35.711.826.392.697" mask="url(#b)"/>
            </g>
        </g>
        <g transform="translate(159 164)">
            <ellipse cx="69.881" cy="159.712" fill="#005077" opacity=".365" rx="28.898" ry="5.288"/>
            <path fill="#94C9CF" d="M83.618 122.919c-.154.296-.309.593-.461.892.143-.304.288-.605.438-.906l.023.014zm35.81-50.063h.085c-.138.088-.268.185-.403.276.105-.094.213-.184.319-.276zm-37.733 55.128c.746-1.201 1.419-2.447 2.086-3.696l.06-.009-.042-.023c.169-.318.34-.636.51-.953.41.226.82.453 1.228.683.766-.147 1.52-.312 2.26-.498-.85-.38-1.678-.805-2.48-1.263-.105-.06-.21-.128-.315-.19l.135-.246c.128-.23.262-.453.391-.682.142.083.285.174.426.253.864.487 1.757.935 2.674 1.325.28.12.563.234.847.342.957-.287 1.89-.61 2.803-.973a148.987 148.987 0 0 1-3.892-1.91c-.593-.303-1.18-.618-1.767-.933.176-.305.35-.61.527-.915.387.207.773.419 1.164.619.929.474 1.865.934 2.797 1.39.822.401 1.645.805 2.473 1.198.936-.422 1.85-.889 2.74-1.404-2.35-.51-4.65-1.275-6.884-2.144-.392-.152-.784-.31-1.174-.47-.175-.072-.348-.15-.521-.223.17-.294.336-.59.508-.884l.024-.043c.498.21.999.418 1.5.614 2.54.998 5.184 1.845 7.88 2.33.845-.552 1.67-1.15 2.473-1.802-1.422-.117-2.831-.383-4.229-.666-2.355-.478-4.713-.937-7.065-1.425.19-.325.384-.647.575-.972.971.201 1.943.401 2.914.6 1.574.323 3.153.634 4.731.938 1.406.27 2.82.492 4.252.52.316-.285.63-.577.94-.879a80.674 80.674 0 0 1-4.343-.84c-1.701-.374-3.39-.777-5.1-1.107-.88-.169-1.757-.34-2.635-.513l.58-.97c1.03.2 2.06.395 3.088.597 3.121.612 6.194 1.398 9.333 1.895.293-.31.584-.625.871-.952l.137-.157c-.838-.187-1.676-.375-2.514-.565-3.33-.756-6.658-1.536-9.965-2.398.188-.312.374-.625.563-.936 1.526.385 3.056.751 4.58 1.115 2.7.646 5.41 1.25 8.119 1.862.396-.478.786-.962 1.166-1.454a64.446 64.446 0 0 0-3.516-1.04c-1.656-.451-3.302-.957-4.96-1.395-1.405-.37-2.835-.64-4.26-.925.2-.324.397-.648.597-.971 1.635.328 3.268.658 4.866 1.14 2.642.795 5.336 1.409 7.945 2.303.452-.608.895-1.227 1.326-1.854l-.069-.025c-.853-.28-1.73-.478-2.606-.677-1.469-.335-2.91-.775-4.383-1.1-1.723-.38-3.46-.696-5.194-1.025l-.989-.186c.204-.324.409-.65.615-.974 2.422.46 4.852.885 7.245 1.48 1.49.371 2.983.74 4.468 1.126.513.135 1.027.284 1.526.468.42-.635.83-1.278 1.23-1.93-4.145-1.567-8.42-2.774-12.716-3.862.206-.315.407-.632.614-.946.706.181 1.413.363 2.118.552 3.548.951 7.087 2.016 10.53 3.325l.014.006c.28-.473.557-.949.828-1.429-.274-.108-.55-.215-.826-.32-3.795-1.45-7.687-2.641-11.601-3.723.208-.311.414-.623.623-.933 1.082.301 2.163.607 3.239.93 2.61.781 5.209 1.635 7.764 2.6.443.165.883.334 1.322.508a82.35 82.35 0 0 0 .867-1.621c-.706-.26-1.414-.519-2.122-.776-3.237-1.176-6.474-2.352-9.607-3.78.204-.296.405-.593.611-.89a79.05 79.05 0 0 0 3.462 1.472c1.847.733 3.718 1.415 5.59 2.095.851.309 1.704.618 2.553.93.33-.65.652-1.304.968-1.963a98.562 98.562 0 0 0-3.342-1.632 117.878 117.878 0 0 0-7.607-3.204c.211-.297.42-.597.631-.893 2.385.92 4.747 1.9 7.068 2.97a93.425 93.425 0 0 1 3.704 1.796c.172-.37.342-.74.511-1.113a140.91 140.91 0 0 0-4.098-1.905c-2.175-.959-4.388-1.813-6.677-2.45.222-.308.444-.616.667-.922 2.095.607 4.128 1.39 6.128 2.263 1.484.647 2.95 1.341 4.414 2.044.28-.635.556-1.272.826-1.912a63.765 63.765 0 0 0-5.02-1.988 43.37 43.37 0 0 0-5.538-1.525c.232-.317.467-.63.7-.946 1.685.362 3.345.831 4.981 1.389a64.59 64.59 0 0 1 5.29 2.085c.185-.45.37-.9.55-1.352-1.87-.737-3.742-1.466-5.646-2.082a37.35 37.35 0 0 0-4.355-1.143c.235-.314.468-.63.704-.943 1.29.273 2.559.617 3.814 1.02 1.98.637 3.929 1.398 5.876 2.166.236-.6.469-1.2.699-1.799-2.11-.606-4.223-1.188-6.36-1.662a53.703 53.703 0 0 0-3.33-.631c.246-.322.493-.642.74-.96.93.156 1.856.335 2.777.538 2.203.487 4.38 1.088 6.552 1.713.21-.557.417-1.114.622-1.672a188.769 188.769 0 0 0-6.975-1.117c-.77-.11-1.539-.215-2.31-.321.258-.325.524-.643.784-.966.577.08 1.154.16 1.73.242 2.387.342 4.77.712 7.142 1.146.22-.606.437-1.212.652-1.817-2.478-.468-4.969-.853-7.47-.89-.33-.005-.662.002-.993.01l.228-.282c.225-.27.457-.534.687-.8.106.002.21 0 .315.004 2.54.057 5.073.461 7.592.94.179-.507.356-1.014.532-1.52-2.502-.24-5.03-.31-7.54-.437.312-.343.628-.684.95-1.02 2.317.108 4.644.19 6.95.42l.352-1.025c.142-.412.284-.807.423-1.189a43.293 43.293 0 0 0-5.84-.063c.409-.38.824-.751 1.247-1.114a42.683 42.683 0 0 1 3.145.02c.604.028 1.214.069 1.825.125.152-.417.294-.814.42-1.19l-.071-.009a23.844 23.844 0 0 0-3.786-.2c.48-.37.972-.727 1.47-1.074.77.039 1.53.11 2.263.198.144.016.29.036.433.053.177-.687.255-1.285.17-1.787-.12-.022-.252-.024-.379-.033l.202-.12c.172-.097.04-.385-.145-.319-.392.14-.771.303-1.149.468a14 14 0 0 0-1.356.24c-.692.152-1.37.33-1.967.442a9.401 9.401 0 0 0-.075 1.229c-.351.241-.698.49-1.037.75-.023-.59-.022-1.185.037-1.774-.52.103-1.042.214-1.564.331.011.818.115 1.64.272 2.46-.305.26-.606.525-.903.798-.216-1-.373-2.008-.41-3.013l-.148.036c-.381.094-.763.191-1.144.291a33.882 33.882 0 0 0 .298 3.565c.02.136.049.276.07.413-.176.178-.354.353-.528.533-.127.134-.25.271-.376.406-.066-.336-.127-.671-.179-1.002a31.25 31.25 0 0 1-.338-3.625 60.6 60.6 0 0 0-1.256.37c.061.427.17.85.264 1.238.288 1.181.672 2.34 1.075 3.485l-.244.262c-.188.209-.37.421-.557.632-.09-.247-.184-.492-.27-.74-.417-1.199-.817-2.411-1.096-3.652a16.989 16.989 0 0 1-.183-.905c-.486.159-.97.324-1.455.494.51 1.763 1.616 3.356 2.385 4.996.053.111.1.226.15.339-.263.303-.522.61-.78.918-.125-.343-.26-.68-.42-1.005-.793-1.613-1.782-3.172-2.311-4.894-.625.233-1.247.476-1.864.73.903 1.58 1.868 3.122 2.835 4.663.314.503.614 1.016.91 1.532-.248.304-.497.61-.742.917-.977-1.665-1.98-3.31-2.975-4.968a78.113 78.113 0 0 1-1.019-1.726c-.253.11-.506.222-.757.335 1.308 2.407 2.843 4.701 4.164 7.107-.234.298-.467.597-.698.899-1.367-2.579-3.013-5.012-4.414-7.57-.563.266-1.122.542-1.676.827.9 1.436 1.88 2.827 2.82 4.219.79 1.17 1.584 2.34 2.328 3.543l.072.12c-.227.301-.452.604-.678.906a72.93 72.93 0 0 0-.753-1.184c-1.537-2.395-3.198-4.708-4.705-7.122a61.609 61.609 0 0 0-1.367.763l.226.386a44.542 44.542 0 0 0 1.696 2.595c1.328 1.914 2.786 3.773 4.01 5.767l-.685.929c-1.32-2.227-2.954-4.276-4.412-6.4a45.494 45.494 0 0 1-1.165-1.773c-.197-.319-.39-.641-.576-.967-.314.19-.625.385-.934.582.28.555.578 1.103.888 1.643.447.781.918 1.547 1.396 2.301 1.258 1.985 2.607 3.917 3.859 5.907-.226.309-.45.622-.674.932-1.344-2.17-2.817-4.261-4.178-6.42a68.892 68.892 0 0 1-.965-1.573 39.044 39.044 0 0 1-1.222-2.205 45.03 45.03 0 0 0-1.538 1.076 83.81 83.81 0 0 0 2.026 2.647c1.859 2.351 3.774 4.67 5.35 7.205-.224.313-.453.624-.676.938a36.12 36.12 0 0 0-1.335-2.065c-1.204-1.724-2.53-3.373-3.84-5.032a101.42 101.42 0 0 1-2.356-3.072 42.125 42.125 0 0 0-2.527 2.096c1.175 1.278 2.4 2.513 3.56 3.806.16.177.317.355.472.534 1.591 1.831 3.135 3.715 4.792 5.49-.208.295-.417.589-.623.886a78.165 78.165 0 0 1-2.037-2.264c-1.03-1.193-2.035-2.413-3.084-3.59a48.787 48.787 0 0 0-.31-.348c-1.056-1.167-2.158-2.288-3.225-3.442l-.325-.353c-.708.67-1.389 1.366-2.04 2.087 1.481 1.325 3.017 2.595 4.472 3.95l.417.39c1.75 1.631 3.488 3.294 5.108 5.062-.206.3-.412.601-.616.903a60.227 60.227 0 0 0-2.658-2.735c-.757-.731-1.523-1.448-2.295-2.16-1.632-1.5-3.29-2.967-4.949-4.446l-.184-.165c-.737.863-1.43 1.76-2.08 2.691 1.247 1.067 2.579 2.046 3.851 3.035a62.222 62.222 0 0 1 2.167 1.773c1.59 1.36 3.134 2.777 4.7 4.163-.197.3-.397.598-.593.897-1.511-1.332-3-2.694-4.524-4.01a63.933 63.933 0 0 0-2.604-2.142c-1.19-.924-2.423-1.843-3.589-2.833-.385.595-.75 1.203-1.097 1.824.252.267.512.529.78.781 1.758 1.651 3.756 2.99 5.773 4.304 1.55 1.008 3.106 2.009 4.578 3.115-.199.304-.393.61-.59.914-.285-.213-.567-.432-.857-.637-1.149-.811-2.327-1.578-3.5-2.351-1.21-.797-2.412-1.598-3.577-2.461-1.096-.813-2.174-1.692-3.136-2.676a30.518 30.518 0 0 0-1.193 2.626c1.573 1.02 3.298 1.857 4.87 2.754.842.48 1.653 1.01 2.46 1.55.715.478 1.428.963 2.153 1.426.622.397 1.255.775 1.89 1.151l-.575.908a70.753 70.753 0 0 1-2.056-1.27c-.58-.374-1.152-.758-1.726-1.14-.957-.64-1.919-1.273-2.922-1.84-1.468-.827-3.021-1.617-4.471-2.544-.3.837-.566 1.694-.796 2.57 2.414 1.572 5.018 2.846 7.598 4.157a94.51 94.51 0 0 1 3.315 1.76c-.187.3-.376.6-.562.901a96.017 96.017 0 0 0-2.986-1.593c-2.58-1.32-5.19-2.591-7.628-4.137-.1.451-.19.91-.272 1.372 1.688 1.34 3.553 2.487 5.305 3.688.722.494 1.437.981 2.164 1.457.462.303.929.601 1.402.892.234.143.48.29.73.44-.186.31-.375.615-.56.925a59.893 59.893 0 0 0-1.154-.719 27.58 27.58 0 0 1-.589-.367c-1.035-.662-2.029-1.376-3.05-2.065-1.48-.998-3.006-1.979-4.436-3.071a34.051 34.051 0 0 0-.168 1.519c1.212 1.458 2.889 2.603 4.406 3.597.993.65 2.017 1.26 3.034 1.878.369.225.735.455 1.101.686-.177.302-.357.604-.534.907-.222-.14-.445-.282-.67-.42-1.325-.813-2.674-1.592-3.96-2.46-1.205-.814-2.431-1.705-3.474-2.756-.026.578-.04 1.157-.042 1.737 2.203 2.039 4.806 3.66 7.28 5.405-.175.305-.342.615-.514.922-2.265-1.623-4.642-3.125-6.75-4.92.024.983.077 1.969.145 2.958.666.512 1.352.994 2.04 1.46 1.171.794 2.367 1.55 3.55 2.324-.17.313-.335.628-.503.943-1.67-1.086-3.386-2.135-4.992-3.306.038.7.07 1.431.111 2.175l.34.204c1.275.762 2.6 1.43 3.92 2.109-.151.287-.305.571-.453.859-.106.187-.217.373-.321.561l.02.012c-.161.316-.327.63-.491.946l-.037-.023c-.172.324-.336.651-.501.978l.047-.098a58.16 58.16 0 0 1-2.015-1.062c.227 1.086.556 2.114 1.047 3.018h.009c-.554 1.1-1.085 2.21-1.54 3.35-.104.262.236.454.388.21zM52.273 119.523c.322.32.643.64.967.958a75.263 75.263 0 0 1-.994-.931l.027-.027zM1.841 52.856l.034-.11c.06.214.134.423.197.635-.079-.174-.153-.35-.23-.525zm56.208 71.19c-1.255-1.452-2.597-2.824-3.944-4.192l.013-.082-.048.046c-.343-.348-.686-.696-1.027-1.045.455-.446.909-.894 1.368-1.335.113-1.06.198-2.112.253-3.154a38.286 38.286 0 0 1-2.613 2.742c-.12.114-.248.225-.37.338l-.265-.274c-.245-.258-.481-.523-.725-.782.164-.154.336-.304.495-.456a36.983 36.983 0 0 0 2.77-2.972c.267-.32.526-.642.777-.972a47.461 47.461 0 0 0-.145-4.051 199.682 199.682 0 0 1-4.008 4.332c-.626.656-1.266 1.298-1.905 1.94-.323-.35-.65-.698-.972-1.05.422-.425.847-.846 1.261-1.278.98-1.025 1.943-2.068 2.902-3.108.843-.915 1.691-1.83 2.527-2.757a41.818 41.818 0 0 0-.726-4.139c-1.59 2.87-3.49 5.576-5.495 8.152-.353.453-.712.903-1.074 1.35-.162.2-.33.395-.494.593-.311-.34-.63-.674-.94-1.016l-.046-.05c.47-.567.936-1.138 1.389-1.717 2.294-2.927 4.434-6.047 6.128-9.38a40.651 40.651 0 0 0-1.344-3.948c-.717 1.812-1.617 3.55-2.537 5.265-1.55 2.89-3.077 5.792-4.64 8.674-.342-.377-.682-.758-1.025-1.137.644-1.19 1.286-2.382 1.93-3.573a579.036 579.036 0 0 0 3.085-5.815c.907-1.731 1.752-3.492 2.355-5.353a41.65 41.65 0 0 0-.762-1.578 111.295 111.295 0 0 1-2.805 5.347c-1.157 2.075-2.346 4.125-3.45 6.23a951.194 951.194 0 0 1-1.705 3.243c-.343-.381-.683-.763-1.025-1.144.667-1.267 1.327-2.537 1.996-3.801 2.028-3.839 4.259-7.546 6.145-11.454a47.966 47.966 0 0 0-.884-1.517l-.15-.24c-.574 1.02-1.148 2.044-1.724 3.063-2.297 4.056-4.622 8.1-7.044 12.081-.328-.37-.658-.737-.985-1.107a514.721 514.721 0 0 0 3.254-5.547c1.904-3.275 3.757-6.58 5.62-9.878-.459-.708-.93-1.41-1.414-2.102-.96 1.362-1.856 2.77-2.737 4.185-1.238 1.988-2.541 3.939-3.765 5.934-1.036 1.69-1.95 3.453-2.883 5.203-.338-.389-.679-.775-1.016-1.165 1.07-2.007 2.144-4.013 3.4-5.912 2.074-3.139 3.933-6.42 6.12-9.476a82.435 82.435 0 0 0-1.868-2.468l-.058.078c-.7 1.006-1.303 2.076-1.907 3.14-1.015 1.79-2.153 3.5-3.156 5.297-1.174 2.103-2.27 4.248-3.381 6.386l-.633 1.22-1.014-1.19c1.553-2.986 3.065-5.995 4.782-8.89 1.07-1.8 2.138-3.606 3.224-5.395.377-.618.773-1.23 1.209-1.811A92.76 92.76 0 0 0 40.34 78.2c-3.666 4.8-6.919 9.913-10.026 15.099-.325-.394-.654-.784-.977-1.179.513-.852 1.028-1.703 1.552-2.55 2.633-4.263 5.41-8.47 8.464-12.452l.014-.017c-.5-.554-1.005-1.104-1.517-1.649-.248.317-.494.635-.74.953-3.376 4.389-6.456 9.007-9.403 13.696-.32-.395-.64-.789-.958-1.185.818-1.295 1.64-2.586 2.483-3.866 2.044-3.105 4.177-6.164 6.433-9.124.39-.512.784-1.022 1.182-1.527-.577-.598-1.16-1.19-1.75-1.777-.617.822-1.23 1.645-1.842 2.469-2.801 3.767-5.602 7.532-8.686 11.066-.302-.385-.607-.768-.906-1.153a108.3 108.3 0 0 0 3.27-3.944c1.678-2.125 3.3-4.3 4.92-6.48.737-.991 1.473-1.982 2.213-2.97-.709-.688-1.426-1.369-2.152-2.043a130.124 130.124 0 0 0-3.43 3.723 161.543 161.543 0 0 0-7.152 8.679c-.3-.395-.603-.785-.901-1.18a165.489 165.489 0 0 1 6.634-8.067 132.527 132.527 0 0 1 3.786-4.131c-.409-.371-.819-.741-1.233-1.108a191.647 191.647 0 0 0-4.085 4.604c-2.1 2.463-4.078 5.018-5.808 7.76-.31-.413-.617-.826-.925-1.24 1.614-2.497 3.43-4.845 5.35-7.115 1.423-1.684 2.9-3.327 4.387-4.961a167.97 167.97 0 0 0-2.14-1.839 87.697 87.697 0 0 0-4.556 5.777 59.91 59.91 0 0 0-4.164 6.638c-.316-.429-.627-.861-.942-1.29a60.875 60.875 0 0 1 3.766-5.965 88.086 88.086 0 0 1 4.788-6.088c-.508-.422-1.017-.842-1.527-1.258-1.693 2.154-3.377 4.313-4.926 6.559a51.537 51.537 0 0 0-3.2 5.24c-.314-.43-.629-.858-.939-1.292a53.246 53.246 0 0 1 2.828-4.583c1.608-2.338 3.363-4.584 5.125-6.825-.68-.548-1.362-1.09-2.046-1.628-1.617 2.517-3.206 5.052-4.665 7.658a75.784 75.784 0 0 0-2.135 4.105c-.316-.45-.633-.898-.946-1.35a76.996 76.996 0 0 1 1.796-3.416c1.5-2.688 3.14-5.297 4.809-7.89-.637-.496-1.275-.987-1.913-1.476a257.459 257.459 0 0 0-4.205 8.68c-.447.96-.89 1.925-1.33 2.89-.318-.464-.624-.938-.937-1.406.331-.723.663-1.445.998-2.166a254.972 254.972 0 0 1 4.309-8.885 431.105 431.105 0 0 0-2.087-1.573c-1.586 3.055-3.07 6.159-4.109 9.414-.138.432-.258.868-.38 1.303-.09-.137-.185-.271-.274-.41-.26-.4-.508-.81-.76-1.215.043-.137.085-.274.129-.41 1.081-3.3 2.607-6.45 4.223-9.555-.585-.436-1.17-.868-1.753-1.298-1.3 3.177-2.391 6.453-3.55 9.687a67 67 0 0 1-.94-1.647c1.056-2.988 2.084-5.998 3.295-8.92l-1.183-.87c-.476-.347-.93-.69-1.368-1.023a59.695 59.695 0 0 0-2.396 7.612 58.26 58.26 0 0 1-.943-2.073 59.56 59.56 0 0 1 1.272-4.103c.276-.78.57-1.562.885-2.338a61.473 61.473 0 0 0-1.37-1.02l-.04.09a32.894 32.894 0 0 0-1.758 4.87 49.386 49.386 0 0 1-.804-2.348 47.532 47.532 0 0 1 1.394-3.426c-.818-.504-1.56-.841-2.241-.93-.076.148-.13.319-.193.481-.023-.103-.052-.206-.074-.31-.057-.264-.483-.208-.469.064.026.567.084 1.127.148 1.686a19.374 19.374 0 0 0-.229 1.87c-.075.965-.115 1.92-.207 2.746.501.232 1.027.423 1.556.586.173.555.357 1.106.557 1.653a16.81 16.81 0 0 1-2.275-.752A81.657 81.657 0 0 0 .25 56.74c1.06.31 2.163.499 3.282.62.216.502.438 1.001.673 1.496-1.375-.113-2.74-.307-4.053-.659l-.011.208c-.03.537-.056 1.074-.077 1.612 1.312.357 2.637.663 3.973.9.25.043.497.085.746.123.184.029.376.047.562.072.16.301.315.604.479.902.122.22.25.434.374.652-.46-.046-.916-.099-1.365-.162a41.782 41.782 0 0 1-4.813-.994A92.106 92.106 0 0 0 0 63.3c.575.088 1.165.115 1.702.144 1.64.092 3.285.048 4.925-.025.082.14.16.283.242.423.194.329.396.653.594.978-.354.02-.708.046-1.062.06-1.713.071-3.438.115-5.148-.013-.404-.03-.822-.065-1.24-.12.01.698.031 1.399.06 2.099 2.478.03 4.973-.784 7.393-1.14.166-.024.332-.04.497-.06.288.464.581.924.876 1.383-.492.027-.98.072-1.463.151-2.396.398-4.8 1.073-7.233 1.083.052.909.12 1.818.204 2.726 2.397-.556 4.77-1.205 7.142-1.858a58.496 58.496 0 0 1 2.337-.584c.296.445.591.891.89 1.334-2.535.617-5.056 1.276-7.59 1.921-.875.223-1.751.446-2.632.647.04.376.085.75.132 1.125 3.626-.758 7.195-1.855 10.823-2.63.293.424.587.849.884 1.27-3.87.764-7.662 1.954-11.52 2.773.12.842.256 1.682.404 2.518 2.21-.607 4.393-1.34 6.562-2.015 1.825-.569 3.65-1.144 5.496-1.64l.184-.049c.299.417.6.833.902 1.247-.62.166-1.236.345-1.829.515-3.7 1.061-7.343 2.317-11.057 3.332a77.322 77.322 0 0 0 .444 2.088c.196-.046.392-.093.587-.142 1.37-.343 2.717-.763 4.023-1.19 2.996-.976 5.974-2.147 9.033-2.956l.927 1.262c-3.398.844-6.689 2.17-10.01 3.234-.903.29-1.822.57-2.75.82-.49.132-.981.257-1.476.371.12.486.25.97.38 1.451.828-.146 1.653-.32 2.474-.51a80.724 80.724 0 0 0 3.523-.912c3.06-.86 6.088-1.858 9.153-2.706.31.418.626.833.938 1.25-3.334.898-6.617 1.996-9.943 2.92-.798.222-1.603.436-2.413.637a52.31 52.31 0 0 1-3.331.725c.244.82.504 1.633.78 2.439 1.415-.5 2.818-1.044 4.219-1.6 3.772-1.501 7.524-3.087 11.42-4.143.316.419.627.84.943 1.257-1.073.275-2.14.578-3.194.926-2.701.892-5.356 1.971-8.018 3.028a137.355 137.355 0 0 1-4.898 1.864 58.596 58.596 0 0 0 1.703 4.135c2.117-1.03 4.196-2.144 6.325-3.148.29-.137.583-.272.876-.405 2.994-1.355 6.037-2.628 8.984-4.09.3.387.597.778.898 1.165a103.596 103.596 0 0 1-3.73 1.766c-1.95.875-3.92 1.706-5.856 2.61-.19.09-.383.178-.573.27-1.923.917-3.807 1.914-5.72 2.852l-.583.284a51.568 51.568 0 0 0 1.883 3.496c2.3-1.413 4.546-2.916 6.872-4.284l.668-.391c2.8-1.642 5.635-3.255 8.559-4.673.307.388.613.776.922 1.164a82.015 82.015 0 0 0-4.584 2.391c-1.243.7-2.473 1.418-3.696 2.146-2.584 1.539-5.135 3.127-7.7 4.71l-.288.177a46.922 46.922 0 0 0 2.65 3.783c1.871-1.207 3.663-2.56 5.443-3.832a81.06 81.06 0 0 1 3.148-2.13c2.385-1.542 4.825-2.999 7.238-4.499.306.379.612.757.921 1.133-2.32 1.448-4.666 2.854-6.968 4.326a86.844 86.844 0 0 0-3.799 2.558c-1.663 1.19-3.338 2.438-5.078 3.57.614.739 1.255 1.457 1.92 2.156.445-.223.885-.46 1.318-.712 2.827-1.642 5.348-3.724 7.842-5.841 1.916-1.627 3.822-3.266 5.835-4.752.313.38.631.755.947 1.133-.39.289-.782.57-1.163.87-1.501 1.18-2.959 2.415-4.422 3.643-1.506 1.265-3.02 2.522-4.594 3.702-1.483 1.112-3.045 2.174-4.697 3.042a41.626 41.626 0 0 0 2.916 2.601c1.943-1.653 3.706-3.578 5.488-5.279.952-.91 1.958-1.76 2.972-2.6.902-.747 1.811-1.487 2.696-2.252a91.954 91.954 0 0 0 2.235-2.015c.313.37.628.74.944 1.111a96.592 96.592 0 0 1-2.456 2.186c-.71.61-1.434 1.206-2.154 1.804-1.205 1-2.404 2.005-3.532 3.094-1.65 1.59-3.286 3.308-5.057 4.837a40.821 40.821 0 0 0 3.002 2.059c2.987-2.532 5.662-5.434 8.378-8.287a131.127 131.127 0 0 1 3.583-3.64c.315.365.626.732.943 1.095a126.415 126.415 0 0 0-3.24 3.272c-2.727 2.85-5.402 5.762-8.364 8.335.543.31 1.1.61 1.664.9 2.399-1.675 4.618-3.66 6.862-5.476.923-.748 1.838-1.491 2.74-2.251a76.795 76.795 0 0 0 1.706-1.482c.276-.248.564-.512.858-.778.325.365.646.733.971 1.097-.466.402-.928.812-1.385 1.226-.233.212-.47.418-.707.623-1.265 1.092-2.58 2.108-3.874 3.17-1.875 1.54-3.746 3.148-5.722 4.584.626.292 1.259.564 1.893.822 2.364-1.006 4.505-2.746 6.39-4.337 1.233-1.04 2.425-2.137 3.626-3.222.437-.394.88-.781 1.32-1.168.321.352.64.706.961 1.057-.27.236-.54.471-.807.71-1.575 1.411-3.116 2.866-4.746 4.203-1.527 1.254-3.163 2.505-4.933 3.45.737.266 1.477.513 2.225.744 3.505-2.072 6.628-4.833 9.862-7.376.325.349.659.69.987 1.036-2.993 2.319-5.874 4.833-9.027 6.879 1.279.357 2.572.679 3.876.981a57.774 57.774 0 0 0 2.694-2.089c1.488-1.216 2.938-2.48 4.406-3.72.337.345.678.686 1.017 1.03-2.063 1.754-4.097 3.582-6.244 5.22.918.225 1.875.474 2.85.714l.4-.363c1.487-1.365 2.874-2.833 4.274-4.289.31.31.617.623.929.931.2.213.396.433.598.643l.023-.022c.344.336.685.678 1.027 1.017l-.043.04c.35.353.706.698 1.061 1.042l-.106-.099c-.71.752-1.434 1.49-2.171 2.214 1.492.133 2.95.11 4.311-.175l.003-.011c1.2 1.16 2.424 2.294 3.716 3.342.297.24.678-.128.423-.425z"/>
            <path fill="#94C9CF" d="M63.858 116.925c-.012.607-.023 1.214-.03 1.821a87.985 87.985 0 0 1-.02-1.823l.05.002zm17.68-110.32l.135-.07c-.15.255-.283.52-.429.777.096-.237.196-.472.293-.708zM64.82 126.698c.243-2.554.327-5.121.403-7.688l.09-.064-.088-.003.059-1.96c.847.033 1.694.063 2.54.105a76.548 76.548 0 0 0 3.26-2.652 50.57 50.57 0 0 1-5.034-.023c-.219-.012-.444-.035-.664-.05.007-.17.011-.34.02-.509.023-.475.06-.95.085-1.424.297.018.6.048.893.062 1.792.085 3.6.08 5.4-.035.55-.035 1.1-.08 1.647-.137a62.63 62.63 0 0 0 3.757-3.864c-2.614.062-5.23.097-7.844.082-1.205-.006-2.41-.04-3.614-.07.04-.637.075-1.274.116-1.912.796.02 1.59.048 2.385.052 1.887.013 3.773-.01 5.65-.032 1.655-.019 3.313-.037 4.971-.076a55.012 55.012 0 0 0 3.307-4.509c-4.217 1.092-8.56 1.73-12.877 2.145-.758.073-1.52.138-2.281.196-.342.025-.683.042-1.025.064.041-.615.07-1.232.112-1.847l.006-.09c.976-.065 1.953-.138 2.925-.228 4.919-.458 9.882-1.242 14.639-2.657a54.263 54.263 0 0 0 2.555-4.936c-2.399.969-4.894 1.69-7.387 2.372-4.198 1.147-8.389 2.328-12.592 3.456.048-.681.1-1.361.149-2.042 1.735-.468 3.47-.939 5.204-1.408a703.76 703.76 0 0 0 8.418-2.34c2.497-.71 4.965-1.506 7.306-2.628.283-.72.557-1.45.815-2.192a145.187 145.187 0 0 1-7.712 2.184c-3.056.782-6.117 1.508-9.153 2.37-1.56.442-3.119.883-4.68 1.319.051-.683.104-1.365.156-2.047 1.83-.515 3.656-1.04 5.483-1.552 5.55-1.554 11.16-2.789 16.647-4.546.225-.74.442-1.49.644-2.254l.094-.367c-1.51.381-3.017.762-4.527 1.137-6.005 1.493-12.024 2.946-18.074 4.25.054-.66.103-1.318.159-1.975 2.78-.622 5.553-1.28 8.315-1.932 4.896-1.158 9.772-2.391 14.652-3.61.258-1.098.498-2.2.719-3.307-2.19.318-4.366.74-6.534 1.182-3.047.623-6.118 1.147-9.158 1.791-2.575.546-5.109 1.277-7.645 1.976.062-.686.12-1.373.184-2.058 2.911-.804 5.823-1.602 8.8-2.126 4.921-.867 9.78-2.072 14.726-2.753.242-1.355.46-2.717.652-4.085l-.128.017c-1.609.242-3.19.638-4.767 1.029-2.652.655-5.34 1.12-7.987 1.797-3.098.79-6.166 1.694-9.239 2.577-.582.167-1.167.338-1.753.507.07-.694.139-1.388.211-2.082 4.294-1.233 8.573-2.525 12.93-3.513 2.71-.616 5.428-1.236 8.144-1.823.94-.203 1.892-.38 2.849-.49.17-1.37.315-2.746.438-4.128-7.977.844-15.876 2.38-23.71 4.12.079-.677.151-1.355.233-2.032 1.29-.284 2.581-.566 3.874-.834 6.515-1.356 13.106-2.519 19.737-3.207l.028-.003c.074-.995.138-1.99.19-2.99-.533.05-1.064.101-1.596.156-7.315.748-14.58 1.995-21.792 3.437.086-.674.169-1.348.258-2.022 1.996-.394 3.992-.78 5.994-1.136 4.86-.864 9.757-1.602 14.673-2.126.85-.09 1.701-.176 2.553-.253.044-1.111.076-2.223.097-3.336-1.354.155-2.709.316-4.063.478-6.19.736-12.381 1.47-18.608 1.717.093-.647.18-1.294.275-1.94 2.267-.094 4.532-.242 6.792-.444 3.583-.318 7.163-.74 10.744-1.167 1.628-.194 3.257-.39 4.886-.576a185.31 185.31 0 0 0-.016-3.97c-2.243-.018-4.486.014-6.728.083-4.977.154-9.95.515-14.904 1.018.102-.654.199-1.309.304-1.962 4.605-.457 9.221-.796 13.842-.959 2.482-.087 4.964-.13 7.446-.112a223.23 223.23 0 0 0-.067-2.218c-2.728.051-5.456.117-8.175.257-4.296.221-8.568.643-12.79 1.48.112-.68.226-1.359.34-2.04 3.881-.724 7.805-1.115 11.748-1.333 2.926-.16 5.86-.235 8.797-.29a237.712 237.712 0 0 0-.201-3.771c-3.26.165-6.513.439-9.735.875-3.445.468-6.853 1.133-10.199 2.05.12-.702.25-1.402.374-2.104a80.029 80.029 0 0 1 9.186-1.817c3.39-.473 6.815-.763 10.247-.937-.061-.88-.126-1.76-.196-2.64-3.624.332-7.244.68-10.823 1.236-2.688.418-5.351.963-7.975 1.701.127-.7.248-1.401.38-2.1a69.4 69.4 0 0 1 6.999-1.46c3.723-.586 7.491-.942 11.263-1.287a315.435 315.435 0 0 0-.316-3.485c-3.904.738-7.798 1.522-11.64 2.498a98.538 98.538 0 0 0-5.904 1.695c.14-.72.281-1.441.426-2.16 1.633-.506 3.277-.971 4.93-1.393 3.96-1.01 7.973-1.812 11.996-2.571-.109-1.075-.223-2.148-.34-3.217-4.092 1.208-8.153 2.522-12.198 3.883-1.335.45-2.667.905-3.999 1.363.155-.737.328-1.469.49-2.203.998-.343 1.996-.683 2.997-1.02 4.142-1.395 8.301-2.74 12.492-3.972a573.175 573.175 0 0 0-.409-3.477c-4.391 1.266-8.735 2.674-12.816 4.654-.54.262-1.07.546-1.601.828.05-.214.092-.43.144-.643.147-.622.31-1.238.469-1.857.17-.084.34-.17.511-.25 4.163-1.98 8.59-3.392 13.057-4.672a701.28 701.28 0 0 0-.365-2.897c-4.246 1.653-8.395 3.602-12.565 5.446.23-.812.467-1.622.718-2.427 3.84-1.719 7.674-3.485 11.594-4.992l-.253-1.949c-.102-.781-.191-1.539-.273-2.272a78.45 78.45 0 0 0-9.511 4.663c.356-.947.73-1.888 1.123-2.821a78.063 78.063 0 0 1 5.11-2.532 73.876 73.876 0 0 1 3.058-1.288c-.09-.8-.179-1.56-.278-2.27l-.123.043c-2.16.762-4.28 1.668-6.294 2.765.48-.992.988-1.972 1.516-2.94a61.027 61.027 0 0 1 4.57-1.791c-.267-1.259-.624-2.29-1.166-3.036-.212.064-.425.167-.639.256.08-.118.15-.24.23-.358.201-.298-.243-.66-.491-.398a33.04 33.04 0 0 0-1.484 1.695c-.678.449-1.352.962-2.006 1.495-.995.812-1.95 1.652-2.827 2.32.237.702.538 1.39.868 2.054a46.698 46.698 0 0 0-1.077 2.061c-.512-.935-.99-1.9-1.367-2.904-.76.592-1.517 1.196-2.268 1.812.677 1.316 1.508 2.563 2.421 3.763-.284.671-.559 1.347-.819 2.03-1.155-1.442-2.222-2.947-3.091-4.548l-.21.18c-.543.463-1.083.932-1.619 1.408a60.231 60.231 0 0 0 2.788 4.69c.186.281.374.562.567.84.14.205.3.407.445.612-.142.431-.29.86-.424 1.295-.1.32-.188.642-.284.962a45.352 45.352 0 0 1-1.097-1.476c-1.272-1.79-2.415-3.669-3.468-5.596-.583.534-1.162 1.077-1.736 1.626.443.641.96 1.24 1.424 1.79 1.419 1.678 2.974 3.24 4.55 4.767-.06.208-.126.415-.185.625-.136.49-.261.983-.394 1.476-.343-.326-.693-.647-1.033-.978-1.642-1.601-3.267-3.239-4.717-5.022-.342-.42-.693-.858-1.025-1.316-.66.653-1.313 1.316-1.958 1.988 2.246 2.439 5.32 4.117 7.887 6.146.176.138.344.284.514.427-.18.706-.352 1.414-.523 2.123-.478-.453-.97-.889-1.49-1.284-2.583-1.966-5.44-3.685-7.686-6.042-.824.887-1.634 1.788-2.43 2.703 2.735 1.821 5.54 3.534 8.347 5.242a81.182 81.182 0 0 1 2.71 1.735c-.157.698-.316 1.394-.464 2.094-2.924-1.9-5.873-3.748-8.821-5.62-1.017-.646-2.038-1.294-3.04-1.966-.323.385-.641.773-.959 1.162 4.06 2.832 8.395 5.296 12.472 8.112-.139.675-.275 1.351-.408 2.028-4.29-3.063-8.917-5.66-13.247-8.66-.699.892-1.38 1.794-2.049 2.707 2.614 1.592 5.325 3.044 7.966 4.533 2.222 1.253 4.452 2.5 6.625 3.84l.216.134c-.126.673-.248 1.348-.37 2.023-.729-.45-1.466-.886-2.174-1.306-4.418-2.624-8.972-5.016-13.359-7.695a96.613 96.613 0 0 0-1.597 2.35c.224.15.45.296.675.441 1.587 1.017 3.229 1.941 4.84 2.821 3.69 2.016 7.55 3.837 11.139 6.07-.121.688-.242 1.374-.36 2.062-3.933-2.53-8.23-4.515-12.305-6.768a83.676 83.676 0 0 1-3.315-1.921 55.187 55.187 0 0 1-1.711-1.095 101.09 101.09 0 0 0-1.045 1.704 63.542 63.542 0 0 0 2.763 1.938c1.353.9 2.733 1.756 4.114 2.588 3.637 2.19 7.378 4.217 11.01 6.419-.117.686-.226 1.374-.34 2.06-3.926-2.418-7.998-4.603-11.94-6.989a123.741 123.741 0 0 1-2.83-1.761 71.812 71.812 0 0 1-3.756-2.575 85.243 85.243 0 0 0-1.626 3c1.78.917 3.592 1.782 5.414 2.633 4.906 2.29 9.877 4.484 14.472 7.304-.112.69-.231 1.38-.341 2.072a64.797 64.797 0 0 0-3.823-2.256c-3.34-1.808-6.816-3.4-10.275-5.018-2.115-.988-4.223-1.987-6.29-3.052a77.439 77.439 0 0 0-2.408 5.457c2.935 1.112 5.914 2.11 8.834 3.26.4.157.798.316 1.195.48 4.052 1.668 8.072 3.458 12.183 4.981-.097.649-.2 1.295-.294 1.943a134.248 134.248 0 0 1-5.124-2.005c-2.63-1.092-5.24-2.246-7.887-3.298-.261-.104-.523-.208-.785-.31-2.647-1.028-5.337-1.945-7.994-2.943l-.81-.307a69.358 69.358 0 0 0-1.626 5.045c3.469.938 6.978 1.742 10.428 2.749l.988.29c4.15 1.216 8.305 2.492 12.353 4.033-.091.654-.183 1.31-.271 1.965a109.101 109.101 0 0 0-6.508-2.261 229.888 229.888 0 0 0-5.457-1.624c-3.851-1.1-7.72-2.122-11.598-3.163l-.433-.118a62.566 62.566 0 0 0-1.198 6.054c2.878.712 5.824 1.21 8.681 1.774 1.655.327 3.3.702 4.939 1.105 3.67.904 7.312 1.94 10.968 2.908-.08.646-.162 1.291-.241 1.938-3.52-.926-7.027-1.917-10.557-2.804a115.546 115.546 0 0 0-5.945-1.347c-2.673-.523-5.41-1.007-8.095-1.658a58.637 58.637 0 0 0-.307 3.848c.623.23 1.255.439 1.895.629 4.175 1.24 8.49 1.78 12.816 2.26 3.323.37 6.647.72 9.923 1.31-.076.654-.144 1.31-.218 1.963-.633-.112-1.266-.236-1.902-.332-2.513-.376-5.04-.658-7.564-.953-2.598-.304-5.195-.62-7.775-1.067-2.43-.421-4.885-.966-7.237-1.776a55.531 55.531 0 0 0 .183 5.228c3.372.37 6.84.317 10.11.486 1.749.091 3.49.29 5.23.504 1.545.19 3.09.395 4.637.554 1.328.135 2.66.229 3.99.322-.068.646-.134 1.292-.2 1.938a130.433 130.433 0 0 1-4.355-.38c-1.24-.13-2.476-.286-3.713-.437-2.067-.254-4.134-.496-6.216-.595-3.044-.142-6.196-.155-9.29-.472.186 1.599.447 3.203.78 4.811 5.176.577 10.42.516 15.656.534 2.267.008 4.53.047 6.788.143-.061.64-.127 1.282-.185 1.923a166.025 166.025 0 0 0-6.12-.144c-5.243-.035-10.495.038-15.69-.48.201.815.426 1.63.666 2.446 3.813.796 7.758 1.13 11.563 1.644 1.568.211 3.12.418 4.68.595.992.113 1.987.216 2.99.3.493.04 1.011.079 1.537.12-.053.652-.112 1.302-.16 1.954-.817-.085-1.634-.158-2.451-.222a54.171 54.171 0 0 1-1.249-.116c-2.21-.226-4.395-.572-6.603-.854-3.202-.41-6.464-.752-9.66-1.356.295.878.615 1.742.95 2.597 3.138 1.375 6.776 1.86 10.035 2.231 2.133.243 4.28.396 6.427.568.78.063 1.558.138 2.336.21-.044.636-.092 1.27-.133 1.907-.475-.046-.949-.093-1.424-.134-2.802-.234-5.615-.397-8.397-.754-2.607-.335-5.312-.776-7.847-1.629.423.96.868 1.908 1.33 2.848 5.212 1.507 10.733 2.006 16.146 2.816-.036.637-.057 1.275-.088 1.913-4.977-.782-10.037-1.274-14.898-2.462.831 1.573 1.71 3.127 2.619 4.673 1.49.285 2.99.508 4.48.701 2.536.33 5.082.579 7.622.868-.023.645-.037 1.29-.056 1.935-3.58-.394-7.203-.693-10.75-1.278.628 1.102 1.268 2.26 1.934 3.43.24.02.48.037.714.055 2.68.192 5.364.193 8.048.218-.013.587-.033 1.173-.041 1.759-.02.39-.052.783-.068 1.173l.043.002c-.008.644-.021 1.289-.034 1.933l-.078-.005c-.018.664-.02 1.327-.025 1.99l-.002-.195c-1.375.002-2.748-.026-4.12-.078 1.243 1.574 2.604 2.972 4.128 4.035l.013-.009c-.012 2.234.024 4.467.207 6.687.041.509.745.541.794.02z"/>
            <path fill="#FFD98C" d="M88.834 124.95l-39.302-.142c-1.434-.006-2.503 1.331-2.189 2.741l1.433 6.445a2.237 2.237 0 0 0 2.173 1.758l36.39.132a2.239 2.239 0 0 0 2.185-1.742l1.479-6.434c.323-1.407-.735-2.752-2.17-2.758"/>
            <g transform="translate(50.44 135.385)">
                <mask id="d" fill="#fff">
                    <use xlink:href="#c"/>
                </mask>
                <use fill="#F5A623" xlink:href="#c"/>
                <path fill="#FFD98C" d="M.392.697l3.084 22.092a3.031 3.031 0 0 0 2.984 2.62l23.006.084a3.03 3.03 0 0 0 3.002-2.598L35.711.826.392.697" mask="url(#d)"/>
            </g>
        </g>
        <path fill="url(#e)" d="M204.802 375.723c0 8.682-38.904 15.719-86.899 15.719-47.994 0-86.903-7.037-86.903-15.72C31 367.043 69.91 360 117.903 360c47.995 0 86.899 7.041 86.899 15.723"/>
        <path fill="#F9D4C6" d="M160 338.51l5.416 29.381 18.655 4.804L194 373s-18.183-7.807-21.768-11.817c-5.434-6.08-3.913-30.183-3.913-30.183L160 338.51z"/>
        <path fill="#161711" d="M165.56 372.646l3.835.308 2.062-2.745 16.22 4.952L198 376s-.775-1.679-1.401-2.21c-1.88-1.584-9.364-4.492-9.364-4.492s.146 2.44-1.031 2.742c-1.18.305-12.387-2.896-15.041-3.964-4.568-1.836-5.62-3.305-5.897-3.046-.739.69.294 7.616.294 7.616"/>
        <path fill="url(#f)" d="M47.149 149.867l-9.427 97.795L27 341.223 41.22 343s17.606-93.957 19.559-102.067c1.953-8.108 21.808-72.957 14.685-90.062-7.123-17.104-28.315-1.004-28.315-1.004" transform="matrix(-1 0 0 1 198 1)"/>
        <path fill="url(#g)" d="M71 72c0 11.597 9.625 21 21.5 21 11.873 0 21.5-9.403 21.5-21 0-11.598-9.627-21-21.5-21C80.624 51 71 60.402 71 72" transform="matrix(-1 0 0 1 198 1)"/>
        <g transform="matrix(-1 0 0 1 143 1)">
            <mask id="i" fill="#fff">
                <use xlink:href="#h"/>
            </mask>
            <path fill="url(#g)" d="M.27 28.572c0 8.49 6.883 15.375 15.377 15.375l3.843-7.305c8.492 0 15.374-6.883 15.374-15.374V15.5C34.864 7.01 27.982.126 19.49.126h-3.843C7.153.126.269 7.009.269 15.5v13.072z" mask="url(#i)"/>
        </g>
        <path fill="url(#g)" d="M90 21.976v-5.722C90 7.83 83.033 1 74.44 1h-3.89a15.683 15.683 0 0 0-9.442 3.147c-.274 3.322-.034 6.845.803 10.412C64.52 25.669 72.118 33.942 80.564 36 86.114 33.668 90 28.268 90 21.976" transform="matrix(-1 0 0 1 198 1)"/>
        <path fill="url(#g)" d="M71 43.999C71 55.044 80.18 64 91.5 64c11.322 0 20.5-8.956 20.5-20.001C112 32.954 102.822 24 91.5 24 80.18 24 71 32.954 71 43.999" transform="matrix(-1 0 0 1 198 1)"/>
        <path fill="#954F3F" d="M130 71.499C130 82.82 120.595 92 109 92c-11.6 0-21-9.18-21-20.501C88 60.179 97.4 51 109 51c11.595 0 21 9.178 21 20.499"/>
        <path fill="#954F3F" d="M106.027 33.067c7.596-5.217 16.43-5.445 19.73-.512 3.297 4.935-.188 13.163-7.786 18.378-7.596 5.216-16.429 5.445-19.726.51-3.3-4.932.186-13.16 7.782-18.376"/>
        <path fill="#F9D4C6" d="M136.708 7a30.708 30.708 0 0 1-.371 4.366c-1.57 9.952-7.631 17.508-14.256 18.441-.205 4.507-1.115 8.558-2.201 12.004-1.236 3.925-5.841 8.072-5.841 8.072-1.124 6.952 22.58 17.154 22.017 16.032-.562-1.12-6.402-9.304-8.313-16.816-1.33-5.234.383-9.55 2.382-12.53 3.703-4.35 9.079-4.286 9.079-4.286.514 0 .98-.223 1.308-.572.317-1.025.488-2.112.488-3.241V15.69c0-3.54-1.686-6.681-4.292-8.69"/>
        <path fill="#FFC40E" d="M141.098 149.172L152 152s-7.103-31.368-9.084-43.627c-1.982-12.258-1.763-16.27-1.103-20.058.66-3.789 2.423-8.247 0-12.482-2.422-4.234-6.202-11.256-7.707-11.811-2.424-.892-5.067-2.006-7.05-4.012-1.09-1.101 14.042 89.162 14.042 89.162"/>
        <path fill="#F9D4C6" d="M109 336.237l1.5 30.739 18.601 4.73L139 372s-17.61-7.206-20.382-11.732c-3.685-6.011 0-26.268 0-26.268L109 336.237z"/>
        <path fill="#161711" d="M109.568 371.584l3.88.3 2.088-2.72 14.852 4.235L143 374s-.023-.986-.522-1.433c-1.867-1.666-11.12-4.458-11.12-4.458s.373 2.87-.821 3.175c-1.194.3-12.612-3.175-15.298-4.232-4.623-1.823-5.689-3.28-5.97-3.023-.748.681.3 7.555.3 7.555"/>
        <path fill="url(#f)" d="M91.584 151.168l-2.686 85.575s3.549 23.208 3.837 30.94c.648 17.423-.096 69.688-.096 69.688L77.191 338S66.304 243.525 64.9 235.338c-1.404-8.189-17.206-74.005-8.077-90.382 9.13-16.377 34.76 6.212 34.76 6.212" transform="matrix(-1 0 0 1 198 1)"/>
        <path fill="url(#j)" d="M53 150.832s5.335-29.473 7.71-44.358c2.37-14.884 8.892-43.165 9.486-46.739.594-3.57 2.668-8.335 2.668-8.335s5.632-4.168 10.675-3.275c5.04.894 9.19 12.207 11.265 23.221C96.88 82.36 81.76 113.025 81.76 115.703c0 2.679 10.674 25.304 10.674 31.853V155S66.044 142.199 53 150.832" transform="matrix(-1 0 0 1 198 1)"/>
        <path fill="url(#j)" d="M82.72 44l-4.413 2.598L72 50.675 73.205 57 85 47.014z" transform="matrix(-1 0 0 1 198 1)"/>
        <path fill="#F9D4C6" d="M88.873 117s9.622 13.072 14.674 12.557c1.581-.162 1.48-.188 4.92-.868 3.442-.677 4.106-.639 6.843-1.015 2.753-.38 3.071-.34 3.071-.34s0 1.583-1.036 1.997c-.93.373-3.255.677-4.032 1.017-.777.339 1.96-.225 6.066.114 4.107.34 8.104 1.206 9.805 1.695 1.078.311 1.221.378 1.221.434 0 .509-.037.98-.537 1.075-.436.08-1.998-.038-1.904.036.353.29 2.798 1.12 3.219 1.227.444.112 1.053.244 1.423.376.758.27.405 1.207-.906 1.583-.018.005-.308.654-.703.792-.204.07-.35.127-.556.189-.232.068-.51.07-.741.125-.884.208-1.77.326-2.624.383-.352.024-3.423-.217-3.423-.018 0 .018 2.415.555 2.37.742-.098.419-.557.935-.984.897-.78-.068-1.96-.15-5.177-.565-3.55-.457-4.292-.831-8.842-.264-3.969.493-3.581 1.33-6.4.225-3.772-1.478-17.497-12.326-20.05-14.021-2.553-1.697 4.303-8.373 4.303-8.373"/>
        <path fill="url(#j)" d="M35.153 57.045L4.307 23.165S.571 14.241.758 9.702C.98 4.318 7.34.28 7.34.28s14.055 12.788 30.698 31.186c16.644 18.398 25.74 26.475 16.644 33.656-9.1 7.18-23.522 16.378-23.522 16.378l-5.547-14.359 9.54-10.096z" transform="matrix(-1 0 0 1 119 50)"/>
    </g>
</svg>
