<?xml version="1.0" encoding="UTF-8"?>
<svg width="162px" height="150px" viewBox="0 0 162 150" version="1.1" xmlns="http://www.w3.org/2000/svg" xmlns:xlink="http://www.w3.org/1999/xlink">
    <!-- Generator: sketchtool 53.2 (72643) - https://sketchapp.com -->
    <title>2E5F4587-878B-4852-B196-98445E5E43CE</title>
    <desc>Created with sketchtool.</desc>
    <defs>
        <polygon id="path-1" points="0.9383 0.89196916 38.2963435 0.89196916 38.2963435 112 0.9383 112"></polygon>
        <polygon id="path-3" points="0.6443 0.4061 51.746 0.4061 51.746 28.7681 0.6443 28.7681"></polygon>
        <linearGradient x1="50%" y1="12.0944554%" x2="-17.900995%" y2="91.4378896%" id="linearGradient-5">
            <stop stop-color="#57748D" offset="0%"></stop>
            <stop stop-color="#082844" offset="100%"></stop>
        </linearGradient>
        <linearGradient x1="50%" y1="0%" x2="50%" y2="100%" id="linearGradient-6">
            <stop stop-color="#549FC3" offset="0%"></stop>
            <stop stop-color="#5278AB" offset="100%"></stop>
        </linearGradient>
        <linearGradient x1="50%" y1="0%" x2="50%" y2="100%" id="linearGradient-7">
            <stop stop-color="#549FC3" offset="0%"></stop>
            <stop stop-color="#5278AB" offset="100%"></stop>
        </linearGradient>
        <polygon id="path-8" points="0.731504035 0.123214286 43.9084271 0.123214286 43.9084271 49.5285133 0.731504035 49.5285133"></polygon>
        <linearGradient x1="50%" y1="0%" x2="50%" y2="100%" id="linearGradient-10">
            <stop stop-color="#AAAAAA" offset="0%"></stop>
            <stop stop-color="#717171" offset="100%"></stop>
        </linearGradient>
        <linearGradient x1="17.3253253%" y1="100%" x2="69.2399856%" y2="94.4043376%" id="linearGradient-11">
            <stop stop-color="#008CA7" offset="0%"></stop>
            <stop stop-color="#62AFBC" offset="100%"></stop>
        </linearGradient>
        <linearGradient x1="3.02102752%" y1="100%" x2="77.662854%" y2="94.4043376%" id="linearGradient-12">
            <stop stop-color="#008CA7" offset="0%"></stop>
            <stop stop-color="#62AFBC" offset="100%"></stop>
        </linearGradient>
        <linearGradient x1="50%" y1="12.0944554%" x2="-48.9354226%" y2="91.4378896%" id="linearGradient-13">
            <stop stop-color="#57748D" offset="0%"></stop>
            <stop stop-color="#082844" offset="100%"></stop>
        </linearGradient>
        <linearGradient x1="50%" y1="37.1328819%" x2="-139.749038%" y2="64.0661801%" id="linearGradient-14">
            <stop stop-color="#57748D" offset="0%"></stop>
            <stop stop-color="#082844" offset="100%"></stop>
        </linearGradient>
        <polygon id="path-15" points="0 0.449866071 37.6246448 0.449866071 37.6246448 21.2663839 0 21.2663839"></polygon>
        <linearGradient x1="18.0896192%" y1="100%" x2="68.7899428%" y2="94.4043376%" id="linearGradient-17">
            <stop stop-color="#008CA7" offset="0%"></stop>
            <stop stop-color="#62AFBC" offset="100%"></stop>
        </linearGradient>
    </defs>
    <g id="Page-1" stroke="none" stroke-width="1" fill="none" fill-rule="evenodd">
        <g id="C24" transform="translate(-890.000000, -470.000000)">
            <g id="ill/contact" transform="translate(890.000000, 470.000000)">
                <g id="Group-2" transform="translate(49.000000, 71.000000) scale(-1, 1) translate(-49.000000, -71.000000) translate(0.000000, 2.000000)">
                    <g id="Group-3" transform="translate(0.000000, 25.908000)">
                        <mask id="mask-2" fill="white">
                            <use xlink:href="#path-1"></use>
                        </mask>
                        <g id="Clip-2"></g>
                        <path d="M30.2683,6.7524 C29.8373,6.7524 29.4193,6.5314 29.1853,6.1344 C28.8323,5.5364 29.0323,4.7674 29.6283,4.4154 C33.6763,2.0294 36.4993,1.0094 36.6183,0.9664 C37.2663,0.7314 37.9883,1.0714 38.2223,1.7254 C38.4563,2.3774 38.1173,3.0964 37.4643,3.3314 C37.4383,3.3404 34.7293,4.3244 30.9043,6.5784 C30.7053,6.6964 30.4853,6.7524 30.2683,6.7524 M18.3053,16.0404 C17.9853,16.0404 17.6663,15.9194 17.4213,15.6764 C16.9283,15.1874 16.9263,14.3934 17.4143,13.9004 C19.2053,12.0964 21.1433,10.3804 23.1773,8.7994 C23.7273,8.3744 24.5143,8.4744 24.9403,9.0204 C25.3653,9.5684 25.2663,10.3564 24.7173,10.7824 C22.7693,12.2964 20.9123,13.9414 19.1973,15.6694 C18.9523,15.9164 18.6273,16.0404 18.3053,16.0404 M9.2653,28.0364 C9.0593,28.0364 8.8503,27.9844 8.6573,27.8774 C8.0503,27.5414 7.8313,26.7764 8.1693,26.1704 C9.4103,23.9384 10.8233,21.7664 12.3713,19.7164 C12.7883,19.1624 13.5733,19.0514 14.1283,19.4704 C14.6823,19.8884 14.7923,20.6754 14.3743,21.2294 C12.8983,23.1864 11.5483,25.2594 10.3643,27.3904 C10.1353,27.8024 9.7063,28.0364 9.2653,28.0364 M3.8653,42.0404 C3.7683,42.0404 3.6713,42.0294 3.5733,42.0054 C2.8993,41.8464 2.4823,41.1694 2.6423,40.4944 C3.2413,37.9784 4.0033,35.5054 4.9113,33.1474 C5.1603,32.4994 5.8873,32.1764 6.5353,32.4254 C7.1823,32.6744 7.5043,33.4014 7.2553,34.0484 C6.3873,36.3024 5.6583,38.6674 5.0853,41.0754 C4.9483,41.6524 4.4333,42.0404 3.8653,42.0404 M2.1943,57.0654 C1.4993,57.0654 0.9383,56.5024 0.9383,55.8094 L0.9383,55.5984 C0.9383,53.0734 1.0713,50.5724 1.3313,48.1634 C1.4053,47.4734 2.0313,46.9684 2.7133,47.0494 C3.4033,47.1244 3.9023,47.7434 3.8273,48.4334 C3.5773,50.7524 3.4503,53.1634 3.4503,55.5984 L3.4503,55.8094 C3.4503,56.5024 2.8873,57.0654 2.1943,57.0654 M3.6603,72.0394 C3.0673,72.0394 2.5393,71.6184 2.4263,71.0134 C1.9513,68.4564 1.5853,65.9134 1.3383,63.4554 C1.2703,62.7654 1.7733,62.1494 2.4633,62.0804 C3.1643,62.0154 3.7693,62.5154 3.8383,63.2054 C4.0773,65.5934 4.4333,68.0654 4.8963,70.5544 C5.0233,71.2364 4.5733,71.8924 3.8913,72.0184 C3.8133,72.0334 3.7363,72.0394 3.6603,72.0394 M7.4553,86.6094 C6.9273,86.6094 6.4363,86.2744 6.2623,85.7474 C5.4533,83.2984 4.7243,80.8434 4.0973,78.4504 C3.9213,77.7794 4.3233,77.0934 4.9933,76.9174 C5.6623,76.7394 6.3513,77.1434 6.5273,77.8134 C7.1403,80.1564 7.8543,82.5604 8.6463,84.9594 C8.8653,85.6174 8.5063,86.3284 7.8483,86.5454 C7.7183,86.5884 7.5843,86.6094 7.4553,86.6094 M12.9683,100.7324 C12.4883,100.7324 12.0313,100.4564 11.8213,99.9904 C10.7703,97.6434 9.7813,95.2884 8.8803,92.9904 C8.6263,92.3444 8.9463,91.6164 9.5903,91.3634 C10.2363,91.1114 10.9653,91.4274 11.2173,92.0744 C12.1043,94.3344 13.0783,96.6514 14.1143,98.9634 C14.3973,99.5964 14.1143,100.3394 13.4813,100.6224 C13.3153,100.6974 13.1393,100.7324 12.9683,100.7324 M18.4863,112.0004 C18.0363,112.0004 17.6003,111.7574 17.3743,111.3334 C16.5723,109.8174 15.8023,108.3214 15.0673,106.8454 C14.7563,106.2254 15.0093,105.4704 15.6293,105.1614 C16.2523,104.8534 17.0053,105.1054 17.3133,105.7244 C18.0413,107.1824 18.8013,108.6604 19.5943,110.1554 C19.9193,110.7694 19.6853,111.5284 19.0733,111.8534 C18.8853,111.9524 18.6843,112.0004 18.4863,112.0004" id="Fill-1" fill="#D0DAFC" mask="url(#mask-2)"></path>
                    </g>
                    <g id="Group-42" transform="translate(46.000000, 0.908000)">
                        <mask id="mask-4" fill="white">
                            <use xlink:href="#path-3"></use>
                        </mask>
                        <g id="Clip-41"></g>
                        <polygon id="Fill-40" fill="#E3F2FD" mask="url(#mask-4)" points="0.6443 2.4121 51.7463 0.4061 19.5783 28.7681"></polygon>
                    </g>
                    <polygon id="Fill-43" fill="#80D8FF" points="52.6248 11.6463 50.6668 24.2583 97.7458 1.3133"></polygon>
                </g>
                <g id="Group-4" transform="translate(84.000000, 0.000000)">
                    <path d="M10.7586207,116.98125 L13.4724828,137.280804 C13.4724828,137.280804 17.0228276,139.711607 19.0185517,137.280804 C19.7958621,132.309375 21.3451034,111.160714 21.3451034,111.160714 L10.7586207,116.98125 Z" id="Fill-4" fill="#F7C0B0"></path>
                    <path d="M39.6762398,62.9464286 L43.2413777,74.2767857 C42.9764467,77.2727679 43.1674122,80.5151786 40.8892743,82.490625 C38.0113433,84.9883929 33.5868605,84.553125 30.3391019,86.5513393 C28.4361708,87.7232143 24.854895,88.6566964 23.785757,90.6120536 C22.9506191,92.1401786 22.8927915,94.4263393 22.787895,96.1633929 C22.3091364,104.116071 22.3992398,118.864286 20.5164812,120.546429 C18.762826,122.112054 12.5268605,122.298214 11.4684812,120.160714 C9.7336536,114.013393 7.4864467,93.271875 8.20727429,88.7370536 C8.58248119,86.371875 9.35037774,87.3200893 10.4665846,85.1986607 C12.0212053,82.246875 14.230757,79.6794643 16.6379984,77.3651786 C20.2609639,73.8803571 24.3774812,70.9058036 28.8261708,68.5540179 C29.9275846,67.9727679 31.0747226,67.4209821 32.3119639,67.2522321 L39.6762398,62.9464286 Z" id="Fill-27" fill="url(#linearGradient-5)"></path>
                    <path d="M26.8965517,119.053125 L28.392,142.607143 C28.392,142.607143 31.6182414,144.853125 33.6543103,141.897321 C35.6903793,138.941518 36.5174483,113.839286 36.5174483,113.839286 L26.8965517,119.053125 Z" id="Fill-6" fill="#F7C0B0"></path>
                    <path d="M20.9979755,133.928571 L23.3635273,140.023661 C23.5544928,140.457589 23.3325962,140.958482 22.8807342,141.115179 L5.60238934,147.084375 C5.60238934,147.084375 4.93804451,145.154464 5.90228589,143.055804 C6.86652727,140.957143 11.892148,139.473214 12.937079,136.366071 C13.4319755,134.641071 15.8190445,136.119643 16.915079,136.2 C18.0111135,136.280357 20.9979755,133.928571 20.9979755,133.928571" id="Fill-8" fill="url(#linearGradient-6)"></path>
                    <path d="M33.7790449,140.136684 C33.7790449,140.136684 35.470838,146.431326 33.5504242,149.020166 C28.9551483,149.957666 25.9131483,149.748737 24.2173207,148.781773 C24.0882173,146.073737 25.1788725,144.848291 26.3488725,143.163469 C26.9674932,139.748291 27.0616311,138.629987 27.0616311,138.629987 C27.0616311,138.629987 31.8236656,136.342487 33.7790449,140.136684" id="Fill-10" fill="url(#linearGradient-7)"></path>
                    <g id="Group-14" transform="translate(33.620690, 0.000000)">
                        <mask id="mask-9" fill="white">
                            <use xlink:href="#path-8"></use>
                        </mask>
                        <g id="Clip-13"></g>
                        <path d="M18.5120897,2.07763393 C23.1638483,5.96558036 22.9137103,13.5566518 27.292469,17.7472768 C29.5221931,19.8807589 32.6139517,20.7981696 35.4851586,21.9445982 C38.3550207,23.0923661 41.3176759,24.7530804 42.5078483,27.5963839 C43.1506759,29.1325446 43.8728483,30.7356696 43.9078138,32.4004018 C43.9441241,34.1254018 42.3558828,35.7901339 42.3921931,37.5151339 C42.4164,38.6495089 42.9987103,41.2155804 42.7606759,42.3258482 C41.9645379,46.0463839 38.797469,47.3387946 35.1610552,48.5053125 C30.2672276,50.0736161 24.8623655,49.7682589 20.0102276,48.0727232 C15.1567448,46.3785268 10.8385034,43.3490625 7.2531931,39.6780804 C5.39464138,37.7736161 3.69881379,35.6602232 2.63908966,33.2213839 C1.58071034,30.7838839 1.20012414,27.9847768 1.98550345,25.4468304 C2.57184828,23.5504018 3.78757241,21.8254018 3.93684828,19.8472768 C4.20715862,16.2633482 0.945951724,13.2499554 0.741537931,9.66200893 C0.507537931,5.58790179 4.4156069,3.72629464 7.31371034,1.82049107 C10.6690552,-0.3853125 15.3235034,-0.586205357 18.5120897,2.07763393" id="Fill-12" fill="url(#linearGradient-10)" mask="url(#mask-9)"></path>
                    </g>
                    <path d="M26.9187742,36.7453246 C25.969326,39.6957711 25.6519466,42.8256818 24.6218087,45.7493425 C23.7503604,48.2243425 22.3880501,50.4957711 21.0351535,52.7471104 C18.7274294,56.5855032 16.4210501,60.4238961 14.1146708,64.2609496 C13.8174639,64.7564854 13.5135329,65.2707711 13.4570501,65.8453246 C13.3185329,67.2649675 14.8449122,68.4154139 16.2784984,68.3886282 C17.7107398,68.3631818 18.9896708,67.5127354 20.0937742,66.6033604 C27.4244294,60.5752354 30.828188,51.1788068 35.6924294,43.0439854 C37.1488777,40.6064854 38.7989811,38.1408604 39.0894639,35.3189854 C39.3530501,32.7730032 40.0604294,25.8355032 33.8553949,26.8948782 C30.680257,27.4359496 27.7391191,34.1926461 26.9187742,36.7453246" id="Fill-15" fill="url(#linearGradient-11)"></path>
                    <path d="M32.07119,28.2498484 C32.07119,28.2498484 32.9143969,31.3502948 32.2635003,33.633777 C31.6126038,35.9172591 28.9404314,41.4592234 33.7186038,46.0543127 C38.4954314,50.649402 37.9185003,61.5833306 37.9185003,61.5833306 C37.9185003,61.5833306 50.83019,65.6507413 58.16219,59.0788663 C60.6555003,50.3507413 60.6555003,41.3360091 60.6555003,41.3360091 C60.6555003,41.3360091 55.9338107,36.4610091 60.728121,26.2918127 C42.0646038,17.3480627 32.07119,28.2498484 32.07119,28.2498484" id="Fill-17" fill="url(#linearGradient-12)"></path>
                    <path d="M41.9583267,18.4928571 C41.9583267,18.4928571 42.0860853,22.640625 41.9341198,23.1522321 C41.830568,23.5044643 40.2678784,24.815625 39.3022922,25.5977679 C38.9042232,25.921875 38.8988439,26.5232143 39.2888439,26.8566964 C40.2880508,27.7125 42.0954991,29.1227679 43.3730853,29.3236607 C45.1011887,29.5982143 49.1921542,29.1924107 51.9329129,25.7852679 C52.2570163,25.3834821 52.1225335,24.7834821 51.6652922,24.5424107 C49.1060853,23.1950893 48.9648784,23.3638393 48.8088784,22.6258929 C48.6367404,21.8142857 46.7687749,13.3928571 46.7687749,13.3928571 L41.9583267,18.4928571 Z" id="Fill-19" fill="#F7C0B0"></path>
                    <path d="M46.7462069,17.4107143 L41.9344138,20.5553571 C41.8725517,21.73125 41.7864828,22.9607143 41.6896552,23.2285714 C46.5216207,22.05 46.7462069,17.4107143 46.7462069,17.4107143" id="Fill-21" fill="#EAB78B"></path>
                    <path d="M66.5166532,79.0636499 C65.0064118,82.0596321 63.4585153,84.3565071 60.7016187,86.2810606 C56.8002739,89.0065071 42.5289636,93.5721321 40.708067,96.3042749 C38.7083084,99.3042749 38.6235842,103.126596 38.376136,106.718561 C38.0224463,111.853382 38.4689291,117.068561 36.7233429,121.912757 C35.9635153,124.016775 30.7415498,124.294007 27.9429636,123.518561 C27.339136,123.35115 26.9114808,122.810078 26.8523084,122.18865 C25.9216877,112.517668 25.5612739,103.911418 25.5518601,94.1212392 C25.5491705,91.9140963 25.5787567,89.6533821 26.3493429,87.5828463 C27.4198256,84.7087392 29.7894118,85.7801678 32.1912739,83.8609713 C37.9686532,79.2404356 44.3754118,75.4716856 50.9516187,72.1020428 C54.2558601,70.4091856 57.6085153,68.8140963 60.9746187,67.2484713 C62.1688256,66.6940071 62.7807222,65.1765963 64.060998,65.7538285 C65.1933429,66.2654356 66.1522049,68.3011499 66.6228946,69.3645428 C67.969067,72.4100785 68.0282394,76.0649892 66.5166532,79.0636499" id="Fill-23" fill="url(#linearGradient-13)"></path>
                    <path d="M57.7365953,56.25 C57.7365953,56.25 63.7009057,60.1848214 67.4260781,71.9383929 C56.4872505,80.9102679 33.2029057,75.0522321 32.3516298,72.2236607 C31.4990091,69.3950893 38.1236298,58.0004464 38.1236298,58.0004464 L57.7365953,56.25 Z" id="Fill-25" fill="url(#linearGradient-14)"></path>
                    <polygon id="Fill-29" fill="#ECEFF1" points="37.994069 82.6258929 6.72413793 82.6258929 19.0831034 70.9821429 50.3530345 70.9821429"></polygon>
                    <g id="Group-33" transform="translate(0.000000, 61.607143)">
                        <mask id="mask-16" fill="white">
                            <use xlink:href="#path-15"></use>
                        </mask>
                        <g id="Clip-32"></g>
                        <polygon id="Fill-31" fill="#D5DEE2" mask="url(#mask-16)" points="37.6246448 21.2663839 6.54298966 21.2663839 -0.00094137931 0.449866071 31.0807138 0.449866071"></polygon>
                    </g>
                    <path d="M62.307458,26.3495586 C64.062458,27.4183086 65.1423545,29.2892908 66.0568373,31.1254515 C68.9630097,36.9714336 70.9278028,43.2473265 72.3156648,49.6223265 C72.556389,50.7245586 72.7809752,51.8482193 72.681458,52.9705408 C72.5146993,54.8575943 71.4374924,56.5692015 70.0630786,57.8776836 C68.6886648,59.1848265 67.0237683,60.1410765 65.3776993,61.0866122 C62.6073545,62.6736658 59.8370097,64.2620586 57.0666648,65.8504515 C54.9700786,67.0517908 52.8654235,68.2571479 50.6195614,69.1531301 C50.1824924,69.3272372 49.7225614,69.4933086 49.2532166,69.4544693 C48.6709062,69.4062551 48.1652511,69.0540229 47.6918717,68.7138443 C46.7491476,68.0361658 45.7055614,67.1736658 45.724389,66.0151836 C45.7364924,65.3013443 46.1641476,64.6665229 46.5931476,64.0959872 C50.5805614,58.7857193 56.2395959,54.7397372 62.5670097,52.6745586 C62.931458,52.5553622 63.3389407,52.4093801 63.4976304,52.0611658 C63.5904235,51.8549158 63.5756304,51.6192015 63.5500786,51.3955408 C63.0645959,47.2022372 59.5545959,44.0736658 57.6678028,40.2928622 C56.4534235,37.8607193 55.9195269,35.1513443 55.5510442,32.4607193 C54.9929407,28.3825943 57.4095959,23.3683086 62.307458,26.3495586" id="Fill-34" fill="url(#linearGradient-17)"></path>
                    <path d="M47.8698562,64.2857143 C47.8698562,64.2857143 44.6678218,65.5982143 43.2557528,67.6620536 C41.8436838,69.7258929 39.29927,73.0084821 40.8068218,73.7584821 C42.3143735,74.5084821 45.1385114,73.5776786 46.2695114,71.9330357 C47.3991666,70.2883929 49.377408,68.5058036 50.695339,67.5683036 C52.01327,66.6308036 50.0363735,64.8482143 47.8698562,64.2857143" id="Fill-36" fill="#FF9E80"></path>
                    <path d="M37.6551724,10.5904443 C37.6551724,10.5904443 37.7681379,16.9600872 41.5618966,19.31723 C41.9680345,19.5690158 42.4911724,19.6440158 42.9497586,19.5060693 C45.7456552,18.6649979 46.6103793,15.6114265 46.9613793,14.0069622 C48.0076552,12.9716943 48.1152414,9.81365861 45.2131034,10.9185693 C43.5334138,11.2038372 43.4419655,7.91990861 41.5645862,6.97705147 C41.5645862,6.97705147 38.6705172,5.19981933 37.6551724,10.5904443" id="Fill-38" fill="#F7C0B0"></path>
                </g>
            </g>
        </g>
    </g>
</svg>