<svg xmlns="http://www.w3.org/2000/svg" width="614" height="291" viewBox="0 0 614 291">
    <defs>
        <linearGradient id="a" x1="0%" y1="50%" y2="50%">
            <stop offset="0%" stop-color="#D2EAF0"/>
            <stop offset="100%" stop-color="#6ED0EA"/>
        </linearGradient>
    </defs>
    <g fill="none" fill-rule="evenodd">
        <path fill="url(#a)" d="M613.725 291V135.601c-116.279 11.496-176.425 60.884-237.387 85.372-78.987 31.73-201.297 38.56-248.048 43.789C97.122 268.248 54.359 277.104 0 291.33l613.725-.33z" opacity=".585"/>
        <g fill="#ECECEC">
            <path d="M6.5 133c2.646 0 4.994 1.262 6.5 3H0c1.507-1.738 3.855-3 6.5-3M38.185 129.92c2.744 0 4.832 2.941 7.313 2.42 5.42-1.143 7.647-7.424 13.594-7.424 4.59 0 7.249 5.127 11.484 4.78 6.71-.55 9.734-8.696 16.96-8.696 6.679 0 9.96 6.973 16.132 7.588 3.635.363 6.294-3.565 10.242-3.565 7.45 0 8.105 2.666 14.965 4.59 1.968.552 3.475 4.005 5.7 4.005 2.615 0 4.936.738 6.425 2.382H27c1.911-3.288 6.195-6.08 11.185-6.08"/>
        </g>
        <path fill="#C2C2C2" d="M197.932 41.155l3.607 8.217h7.428l1.007-8.217h-12.042M173.715 18.574l5.562 10.23 7.035-2.334c.008-.092.01-3.752.01-3.752 0-2.326-1.857-2.848-4.152-2.848l-8.455-1.296M173.715 42.88l5.562-10.23 7.035 2.333c.008.093.01 3.754.01 3.754 0 2.325-1.857 2.846-4.152 2.846l-8.455 1.296"/>
        <path fill="#FFF" d="M172.103 31.179s57.576-.115 57.677-.003c-6.762-24.152-54.476-10.7-57.677.003"/>
        <path fill="#C2C2C2" d="M172.103 31.179s57.576.115 57.677.001c-6.762 24.152-54.476 10.7-57.677-.001M206.37 23.19c20.842 0 23.309 7.874 23.41 7.986h-57.671c.204-.077 13.381-7.986 34.26-7.986"/>
        <path fill="#FFF" d="M206.37 39.169c20.842 0 23.309-7.874 23.41-7.986l-57.671-.001c.204.079 13.381 7.987 34.26 7.987"/>
        <g transform="matrix(-1 0 0 1 451 39)">
            <path fill="#E9D6B8" d="M75.017 33.108c1.086-.326 1.97-.055 2.987.399.953.426 1.685.048 1.685.048s.343.052-1.778-.872c-.596-.26-1.258-.509-1.898-.534-.597-.023-1.672.059-2.105.292-.975.524-.787 1.236 1.109.667M43.23 45.835c6.171.458 23.317-9.315 23.317-9.315s5.362-5.422-19.377 3.28c-7.426 2.61-5.464 5.92-3.94 6.035"/>
            <path fill="#E9D6B8" d="M76.228 33.223l-.257-.496-1.864-.468s-3.414.586-4.62 1.27c-1.209.688-6.468 1.446-7.07 1.713-.6.268-.81 3.33-.81 3.33s5.099-2.063 7.186-2.71c2.09-.648 5.391-.535 6.221-.759 1.414-.38 2.154-.494 2.154-.494s-.308-.728-2.562-.263c-.596.123-.415-.609-.415-.609l2.037-.514"/>
            <path fill="#E9D6B8" d="M73.813 33.818s-.023-1.181.44-1.267c1.113-.205 2.835-.505 3.392-.484.616.02 3.505.612 3.505.612s-.95.448-2.128.29c-1.612-.214-5.209.85-5.209.85"/>
            <path fill="#FFC40E" d="M54.726 35.841l-10.268 2.556s-23.166-1.438-25.209.631c-2.42 2.457-4.64 7.405-4.64 7.405l28.1 1.272 11.98-1.195.037-10.669"/>
            <path fill="#E9D6B8" d="M7.59 174.59l-4.133 15.292.36 1.116 9.76 2.53 5.194.154-10.074-5.045 4.876-14.995-5.982.948"/>
            <path fill="#599FCA" d="M3.656 193.528l2.047.154 1.105-1.419 7.83 2.213 6.653.316s-.012-.518-.277-.746c-.983-.875-5.865-2.328-5.865-2.328s.198 1.494-.432 1.655c-.63.155-6.65-1.655-8.067-2.213-2.439-.949-3.002-1.716-3.149-1.574-.394.356.155 3.942.155 3.942"/>
            <path fill="#E9D6B8" d="M44.895 170.628l2.835 15.432 9.76 2.523 5.196.155-10.078-5.046-2.282-13.145-5.431.081"/>
            <path fill="#599FCA" d="M47.571 188.583l2.046.155 1.103-1.42 8.66 2.57 5.508.43s-.412-.874-.747-1.143c-1.005-.82-5-2.327-5-2.327s.08 1.258-.55 1.419c-.629.155-6.612-1.5-8.029-2.052-2.439-.948-2.999-1.715-3.149-1.58-.394.356.158 3.948.158 3.948"/>
            <path fill="#37A0B3" d="M41.658 78.61l12.249 50.901-2.578 44.413-7.524-.484c-3.48-44.205.293-36.892-1.4-43.62-1.08-4.271-19.028-42.193-15.346-51.27 3.68-9.082 14.6.06 14.6.06"/>
            <path fill="#37A0B3" d="M20.925 86.268l-2.583 41.353s-4.989 10.11-5.77 14.127C10.811 150.789 5.46 177.9 5.46 177.9l8.001 1.595s14.63-46.715 16.03-50.879c1.4-4.157 13.766-38.93 10.34-48.224-3.424-9.296-18.906 5.876-18.906 5.876"/>
            <path fill="#9B9B9B" d="M21.908 32.964c.877 5.816-3.22 11.26-9.143 12.156-5.928.895-11.445-3.093-12.32-8.91s3.221-11.26 9.147-12.157c5.926-.895 11.44 3.091 12.316 8.91"/>
            <path fill="#9B9B9B" d="M22.54 49.074c.915 6.074-3.363 11.76-9.555 12.697-6.188.932-11.948-3.23-12.862-9.306-.915-6.078 3.364-11.761 9.552-12.698 6.19-.936 11.95 3.23 12.864 9.307M29.096 23.838c.672 4.468-2.396 8.64-6.853 9.313l-2.595-3.54c-4.456.675-8.615-2.398-9.29-6.869l-.455-3.032c-.671-4.466 2.396-8.64 6.854-9.312l2.016-.306c4.457-.673 8.617 2.405 9.29 6.872l1.033 6.874"/>
            <path fill="#E9D6B8" d="M24.08 12.432a16 16 0 0 1 .15 2.308c-.033 5.318-2.59 9.742-5.959 10.746.249 2.368.093 4.555-.2 6.44-.335 2.144-2.403 4.674-2.403 4.674-.035 3.715 13.083 7.18 12.702 6.636-.38-.541-4.057-4.352-5.64-8.125-1.104-2.625-.551-5.015.253-6.728 1.583-2.559 4.379-2.95 4.379-2.95a.942.942 0 0 0 .636-.4c.085-.56.089-1.14 0-1.73l-1.004-6.672a5.778 5.778 0 0 0-2.915-4.199"/>
            <path fill="#BAE0E7" d="M37.612 84.99l5.724-4.165s-5.765-9.771-7.782-16.05c-2.02-6.28-2.221-8.404-2.17-10.446.05-2.042.63-4.524-.987-6.554-1.617-2.028-4.175-5.412-5.02-5.585-1.356-.274-2.843-.648-4.053-1.542-.664-.493 14.288 44.342 14.288 44.342"/>
            <path fill="#BAE0E7" d="M40.025 87.358S34.9 72.335 32.48 64.72c-2.42-7.613-8.074-21.922-8.668-23.747-.593-1.825-2.06-4.157-2.06-4.157s-3.285-1.738-5.863-.869c-2.573.869-5.3 4.036-4.084 13.066.798 5.889 10.14 20.811 10.353 22.215.21 1.406-3.609 14.11-3.093 17.548l.588 3.902s12.845-8.808 20.373-5.321"/>
            <path fill="#BAE0E7" d="M15.937 33.622l2.47 1.073 3.564 1.727-.1 3.532-6.854-4.513.92-1.819"/>
            <circle cx="59" cy="33" r="33" fill="#FFF"/>
            <path fill="#E9D6B8" d="M61.796 61.057c4.981.683 7.414-1.295 9.476-1.73 2.067-.434 4.19-1.242 4.176-1.224-1.363 1.79-2.981 1.627-3.87 2.143-.883.52-.633.23 1.122.595 1 .209 2.984-1.17 4.374-1.89 1.205-.621 1.909-.594 1.909-.594s-1.502 1.461-3.32 2.555c-2.19 1.316-4.813 2.316-5.423 2.44-1.112.238-4.452-.117-6.79-.733-2.63-.694-5.238-2.056-1.654-1.562"/>
            <path fill="#E9D6B8" d="M31.759 56.79s.386-1.947 10.808-.217c10.42 1.734 25.337 6.627 25.337 6.627L43.52 61.254S34.227 60.1 31.759 56.79"/>
            <path fill="#BAE0E7" d="M40.025 53.908s-9.72-1.56-10.236 3.764c-.292 3.026 1.67 4.53 4.613 4.95 5.479.788 11.747 1.413 11.747 1.413l4.554-7.446-10.678-2.681"/>
            <path fill="#BAE0E7" d="M34.849 52.272L17.861 39.466s-2.63-.849-4.03.665c-2.022 2.178-2.216 3.836-1.265 5.314 1.88 2.915.535 1.821 10.18 9.395 8.811 6.93 12.368 9.89 15.821 5.871 3.225-3.744-3.718-8.439-3.718-8.439"/>
            <path fill="#E9D6B8" d="M71.862 62.688s3.893-.592 4.6-1c.494-.281 2.585-2.004 2.585-2.004s-1.447.1-2.327.741c-.88.65-4.858 2.263-4.858 2.263"/>
        </g>
        <path fill="#ECECEC" d="M584.562 7.136c-2.07 0-3.645 2.353-5.516 1.935-4.088-.913-5.769-5.938-10.256-5.938-3.462 0-5.467 4.101-8.663 3.824C555.065 6.517 552.785 0 547.334 0c-5.04 0-7.514 5.578-12.17 6.07-2.743.291-4.748-2.851-7.728-2.851-5.619 0-6.113 2.132-11.288 3.67-1.486.443-2.622 3.205-4.3 3.205-1.972 0-3.724.59-4.848 1.906h86c-1.441-2.63-4.674-4.864-8.438-4.864"/>
    </g>
</svg>
