<svg xmlns="http://www.w3.org/2000/svg" xmlns:xlink="http://www.w3.org/1999/xlink" width="13" height="17" viewBox="0 0 13 17">
    <defs>
        <path id="a" d="M12.711 15.983h-1.155V.363c0-.218-.145-.363-.362-.363H1.806c-.217 0-.362.145-.362.363v15.62H.361c-.217 0-.361.145-.361.363s.144.363.361.363h1.445c.216 0 .36-.145.36-.363V.726h7.295L5.994 2.252a.4.4 0 0 0-.216.363V14.53c0 .145.072.29.216.29l4.984 1.817H12.639c.217 0 .361-.146.361-.363 0-.218-.144-.291-.289-.291zM6.5 8.718h.578c.216 0 .36-.145.36-.363s-.216-.364-.432-.364H6.5V2.833L10.833.872v14.966L6.5 14.312V8.718z"/>
    </defs>
    <use fill="#FFF" fill-rule="nonzero" xlink:href="#a"/>
</svg>
