<svg xmlns="http://www.w3.org/2000/svg" xmlns:xlink="http://www.w3.org/1999/xlink" width="35" height="35" viewBox="0 0 35 35">
    <defs>
        <path id="a" d="M23.7 9.756c0-.102-.1-.305-.2-.305a.3.3 0 0 0-.4 0c-.8.203-1.6-.101-1.9-.914-.3-.712 0-1.626.7-2.033.1-.203.2-.305.3-.406 0-.102 0-.305-.1-.407-.9-1.423-2.1-2.744-3.6-3.658-.1-.102-.3-.102-.4-.102-.1 0-.2.102-.3.203-.4.712-1.2 1.016-2 .712-.7-.305-1.1-1.118-.9-1.931V.508c-.1-.101-.2-.203-.3-.203-1.7-.407-3.4-.407-5.1 0-.1 0-.3.102-.3.203 0 .102-.2.407-.1.508.2.813-.1 1.626-.9 1.931-.7.305-1.6 0-2-.711l-.3-.305c-.1 0-.3 0-.4.102-1.4.914-2.7 2.134-3.6 3.658-.1.102-.1.305 0 .407 0 .101.1.203.2.304.7.407 1.1 1.22.7 2.033-.3.813-1.1 1.118-1.9.915H.5c-.1.101-.2.203-.2.406-.4 1.728-.4 3.455 0 5.183 0 .102.1.305.2.305s.3.102.4 0c.8-.203 1.6.102 1.9.915.3.71 0 1.626-.7 2.032l-.3.305c0 .102 0 .305.1.406.9 1.423 2.1 2.744 3.6 3.659.1.102.3.102.4.102.1 0 .2-.102.3-.204.4-.711 1.2-1.016 2-.711.7.305 1.1 1.118.9 1.93v.407c.1.102.2.204.3.204.8.203 1.7.304 2.6.304.8 0 1.7-.101 2.5-.304.1 0 .3-.102.3-.204.1-.101.1-.305 0-.406-.2-.813.1-1.626.9-1.931.7-.305 1.6 0 2 .711.1.102.2.204.3.204.1 0 .3 0 .4-.102 1.4-.915 2.7-2.134 3.6-3.659.1-.101.1-.304.1-.406 0-.102-.1-.203-.2-.305-.7-.406-1-1.22-.7-2.032.3-.712 1.1-1.118 1.9-.915h.4c.1-.102.2-.203.2-.305.4-1.728.4-3.557 0-5.183zm-.9 4.37c-1.1-.102-2.2.508-2.6 1.626-.4 1.118-.1 2.236.7 2.947a10.79 10.79 0 0 1-2.6 2.642c-.7-.914-1.9-1.219-3-.71-1.1.507-1.7 1.523-1.6 2.641-1.2.204-2.5.204-3.7 0 .1-1.118-.5-2.235-1.6-2.642-1.1-.406-2.2-.102-2.9.711-1-.71-1.9-1.626-2.6-2.642.9-.711 1.2-1.93.7-3.049-.4-1.117-1.5-1.727-2.6-1.626-.2-1.22-.2-2.54 0-3.76 1.1.102 2.2-.508 2.6-1.626.6-.914.3-2.032-.6-2.845.7-1.017 1.6-1.931 2.6-2.643.7.915 1.9 1.22 3 .712 1.1-.407 1.7-1.525 1.6-2.642 1.2-.204 2.5-.204 3.7 0-.1 1.117.5 2.235 1.6 2.642 1.1.406 2.2.101 2.9-.712 1 .712 1.9 1.626 2.6 2.643-.9.711-1.2 1.93-.7 3.048.4 1.118 1.5 1.728 2.6 1.626.2 1.22.2 2.44-.1 3.659zm-8.5-7.419c-1.5-.61-3.1-.61-4.6 0-1.5.61-2.6 1.728-3.2 3.252-.6 1.525-.6 3.15 0 4.675s1.8 2.642 3.2 3.252c.7.305 1.5.508 2.3.508.8 0 1.6-.203 2.3-.508 1.5-.61 2.6-1.83 3.2-3.252.6-1.423.6-3.15 0-4.675-.6-1.524-1.7-2.642-3.2-3.252zm2.3 7.52a5.137 5.137 0 0 1-2.7 2.745c-1.2.508-2.6.508-3.8 0a5.137 5.137 0 0 1-2.7-2.744c-.5-1.22-.5-2.643 0-3.862.5-1.22 1.5-2.236 2.7-2.744.6-.305 1.3-.407 1.9-.407.6 0 1.3.102 1.9.407 1.2.508 2.2 1.524 2.7 2.744.5 1.22.5 2.642 0 3.862z"/>
    </defs>
    <use fill="#007AB3" fill-rule="nonzero" transform="translate(6 5)" xlink:href="#a"/>
</svg>
