<svg xmlns="http://www.w3.org/2000/svg" width="50" height="50" viewBox="0 0 50 50">
    <g fill="none" fill-rule="evenodd">
        <path fill="#9B9B9B" d="M47.417 42.658l-.202-.203-4.891 4.892.119.118 1.297 1.295c.831.833 2.6.412 3.952-.938 1.35-1.352 1.77-3.12.94-3.952l-1.213-1.212h-.002"/>
        <path fill="#37A0B3" fill-opacity=".502" d="M46.018 41.279l-4.891 4.888 1.197 1.18 4.891-4.892-.14-.14-.003.003-1.054-1.039"/>
        <path fill="#9B9B9B" d="M20.262 33.277c-7.401 0-13.403-6-13.403-13.402 0-7.403 6.002-13.403 13.403-13.403 7.403 0 13.403 6 13.403 13.403 0 7.402-6 13.402-13.403 13.402zM20.002.812C9.474.812.941 9.347.941 19.875c0 10.526 8.533 19.06 19.06 19.06 3.902 0 7.524-1.175 10.547-3.187l10.578 10.42 4.891-4.889-10.508-10.35a18.95 18.95 0 0 0 3.553-11.054C39.063 9.347 30.53.812 20.001.812z"/>
        <path fill="#37A0B3" fill-opacity=".502" d="M22.565 11.581l-9.362 11.777a.91.91 0 0 0 .146 1.273c.167.131.366.196.564.196.265 0 .531-.116.71-.342l9.36-11.777a.906.906 0 0 0-1.418-1.127M26.492 15.507l-9.363 11.777a.907.907 0 0 0 1.418 1.127l9.363-11.776a.906.906 0 0 0-1.418-1.127"/>
    </g>
</svg>
