<?xml version="1.0" encoding="utf-8"?>
<!-- Generator: Adobe Illustrator 22.0.1, SVG Export Plug-In . SVG Version: 6.00 Build 0)  -->
<svg version="1.1" id="圖層_1" xmlns="http://www.w3.org/2000/svg" xmlns:xlink="http://www.w3.org/1999/xlink" x="0px" y="0px"
	 viewBox="0 0 40 40" style="enable-background:new 0 0 40 40;" xml:space="preserve">
<style type="text/css">
	.st0{fill:#007AB3;}
	.st1{fill:none;stroke:#007AB3;}
</style>
<g>
	<path class="st0" d="M27,12h-4c0-0.5-0.5-1-1-1h-4c-0.6,0-1,0.5-1,1h-4c-0.6,0-1,0.5-1,1c0,0.6,0.4,1,1,1h14c0.5,0,1-0.4,1-1
		C28,12.4,27.5,12,27,12z"/>
	<path class="st0" d="M20,26.6c0.4,0,0.6-0.3,0.6-0.7v-7c0-0.4-0.3-0.6-0.6-0.6c-0.4,0-0.7,0.3-0.7,0.6v7
		C19.3,26.4,19.6,26.6,20,26.6z"/>
	<path class="st0" d="M23,26.6c0.4,0,0.6-0.3,0.6-0.7v-7c0-0.4-0.3-0.6-0.6-0.6c-0.4,0-0.7,0.3-0.7,0.6v7
		C22.3,26.4,22.6,26.6,23,26.6z"/>
	<path class="st0" d="M17,26.6c0.4,0,0.6-0.3,0.6-0.7v-7c0-0.4-0.3-0.6-0.6-0.6c-0.4,0-0.7,0.3-0.7,0.6v7
		C16.3,26.4,16.6,26.6,17,26.6z"/>
	<path class="st0" d="M13,20v7c0,1.6,1.3,3,3,3h8c1.6,0,3-1.4,3-3V15H13V20z M14.6,20L14.6,20v-3.4h10.8V27c0,0.8-0.6,1.4-1.4,1.4
		h-8c-0.8,0-1.4-0.6-1.4-1.4V20z"/>
</g>
<path class="st1" d="M20,39.5c7.3,0,14.1-4.1,17.4-10.7c1.4-2.7,2.1-5.8,2.1-8.8C39.5,9.2,30.8,0.5,20,0.5S0.5,9.2,0.5,20
	S9.2,39.5,20,39.5z"/>
</svg>
