<svg xmlns="http://www.w3.org/2000/svg" xmlns:xlink="http://www.w3.org/1999/xlink" width="42" height="42" viewBox="0 0 42 42">
    <defs>
        <path id="a" d="M19.205 4.997a.8.8 0 1 1 0 1.601.8.8 0 0 1 0-1.601zm-2.7 0a.8.8 0 1 1 0 1.6.8.8 0 0 1 0-1.6zm-2.7 0a.8.8 0 1 1 0 1.6.8.8 0 0 1 0-1.6zm7.606 3.542a.428.428 0 0 1-.422.423h-7.745a.797.797 0 0 0-.565.234l-1.08 1.078V3.018c0-.23.194-.423.422-.423h8.968c.23 0 .422.193.422.423v5.52zM20.99.995h-8.968a2.024 2.024 0 0 0-2.02 2.023v9.188a.8.8 0 0 0 1.364.565l2.21-2.21h7.414a2.024 2.024 0 0 0 2.022-2.022V3.018A2.024 2.024 0 0 0 20.99.995zm-3.81 18.072c-.19.754-1.242 1.964-1.627 2.083-1.107.331-4.34-.882-8.081-4.624-3.541-3.54-4.961-6.968-4.624-8.08.12-.387 1.33-1.44 2.085-1.629.068-.017.11-.02.119-.03.86.873 1.904 2.45 2.115 3.515.014.072-.09.182-.31.39-.064.06-.126.118-.185.178-.038.04-.11.103-.191.176-.46.416-.713.645-.755 1.02-.035.314-.101.903 2.6 3.605 2.703 2.702 3.289 2.641 3.608 2.601.375-.042.605-.297 1.023-.76.072-.08.134-.15.173-.188.058-.057.116-.119.177-.184.205-.219.302-.324.388-.309 1.08.214 2.68 1.28 3.505 2.08 0 0 .008.046-.02.156m-3.176-3.807c-.947-.187-1.546.447-1.865.786l-.13.135c-.054.053-.141.15-.24.258l-.082.092c-1.024-.707-3.513-3.195-4.22-4.22l.086-.077c.112-.102.21-.192.264-.245l.135-.13c.34-.319.973-.912.786-1.866-.286-1.445-1.545-3.328-2.585-4.367-.228-.23-.746-.576-1.61-.36-1.136.284-2.905 1.653-3.226 2.716-.71 2.345 1.99 6.643 5.024 9.675 3.197 3.198 6.577 5.143 8.802 5.143.315 0 .608-.039.873-.119 1.06-.32 2.43-2.089 2.717-3.224v-.002c.218-.87-.133-1.382-.36-1.61-1.04-1.039-2.921-2.299-4.37-2.585"/>
    </defs>
    <g fill="none" fill-rule="evenodd">
        <g transform="translate(9 9)">
            <mask id="b" fill="#fff">
                <use xlink:href="#a"/>
            </mask>
            <g fill="#007AB3" mask="url(#b)">
                <path d="M0 0h24v24H0z"/>
            </g>
        </g>
        <path stroke="#007AB3" d="M21 41c7.784 0 14.53-4.447 17.834-10.939A19.916 19.916 0 0 0 41 21C41 9.954 32.046 1 21 1S1 9.954 1 21s8.954 20 20 20z"/>
    </g>
</svg>
