<?xml version="1.0" encoding="UTF-8"?>
<svg width="40px" height="40px" viewBox="0 0 40 40" version="1.1" xmlns="http://www.w3.org/2000/svg" xmlns:xlink="http://www.w3.org/1999/xlink">
    <!-- Generator: sketchtool 53.2 (72643) - https://sketchapp.com -->
    <title>61C86484-0787-498F-A8BD-46A8B860FBB5</title>
    <desc>Created with sketchtool.</desc>
    <defs>
        <path d="M4.44444444,7.27272727 L0.404040404,7.27272727 C0.161616162,7.27272727 0,7.43434343 0,7.67676768 L0,16.5656566 C0,16.8080808 0.161616162,16.969697 0.404040404,16.969697 L4.44444444,16.969697 C4.68686869,16.969697 4.84848485,16.8080808 4.84848485,16.5656566 L4.84848485,7.67676768 C4.84848485,7.43434343 4.68686869,7.27272727 4.44444444,7.27272727 Z M4.04040404,16.1616162 L0.808080808,16.1616162 L0.808080808,8.08080808 L4.04040404,8.08080808 L4.04040404,16.1616162 Z M11.7171717,1.61616162 L7.67676768,1.61616162 C7.43434343,1.61616162 7.27272727,1.77777778 7.27272727,2.02020202 L7.27272727,16.5656566 C7.27272727,16.8080808 7.43434343,16.969697 7.67676768,16.969697 L11.7171717,16.969697 C11.959596,16.969697 12.1212121,16.8080808 12.1212121,16.5656566 L12.1212121,2.02020202 C12.1212121,1.77777778 11.959596,1.61616162 11.7171717,1.61616162 Z M11.3131313,16.1616162 L8.08080808,16.1616162 L8.08080808,2.42424242 L11.3131313,2.42424242 L11.3131313,16.1616162 Z M18.989899,8.88888889 L14.9494949,8.88888889 C14.7070707,8.88888889 14.5454545,9.05050505 14.5454545,9.29292929 L14.5454545,16.5656566 C14.5454545,16.8080808 14.7070707,16.969697 14.9494949,16.969697 L18.989899,16.969697 C19.2323232,16.969697 19.3939394,16.8080808 19.3939394,16.5656566 L19.3939394,9.29292929 C19.3939394,9.05050505 19.2323232,8.88888889 18.989899,8.88888889 Z M18.5858586,16.1616162 L15.3535354,16.1616162 L15.3535354,9.6969697 L18.5858586,9.6969697 L18.5858586,16.1616162 Z" id="path-1"></path>
    </defs>
    <g id="Guidline" stroke="none" stroke-width="1" fill="none" fill-rule="evenodd">
        <g id="C28" transform="translate(-625.000000, -364.000000)">
            <g id="客戶/男-copy" transform="translate(625.000000, 364.000000)">
                <g id="Group-2">
                    <circle id="Oval" fill="#ECECEC" cx="20" cy="20" r="20"></circle>
                    <g id="Atom-/-Product-Icon-/-[Assets]-/-Icons-/-Stock-Data-Graph" transform="translate(10.000000, 10.000000)">
                        <mask id="mask-2" fill="white">
                            <use xlink:href="#path-1"></use>
                        </mask>
                        <use id="Shape" fill="#000000" fill-rule="nonzero" xlink:href="#path-1"></use>
                        <g id="Atom-/-Product-Icon-/-[Assets]-/-Icon-Color-/-Dark-Blue" mask="url(#mask-2)" fill="#006192" fill-rule="evenodd">
                            <rect id="Dark-Action" x="0" y="0" width="65.0666667" height="65.0666667"></rect>
                        </g>
                    </g>
                </g>
            </g>
        </g>
    </g>
</svg>