<svg xmlns="http://www.w3.org/2000/svg" xmlns:xlink="http://www.w3.org/1999/xlink" width="30" height="30" viewBox="0 0 30 30">
    <defs>
        <path id="a" d="M7.511 13.606a6.1 6.1 0 0 1 6.095-6.094 6.1 6.1 0 0 1 6.093 6.094 6.1 6.1 0 0 1-6.093 6.094 6.102 6.102 0 0 1-6.095-6.094m15.212 7.782l-3.118-3.12a7.568 7.568 0 0 0 1.605-4.662 7.605 7.605 0 1 0-7.604 7.605 7.57 7.57 0 0 0 4.663-1.606l.33.33 1.944 1.944.845.844a.941.941 0 0 0 1.335 0 .943.943 0 0 0 0-1.335"/>
    </defs>
    <use fill="#007AB3" fill-rule="evenodd" stroke="#007AB3" xlink:href="#a"/>
</svg>
