<?xml version="1.0" encoding="UTF-8"?>
<svg width="40px" height="40px" viewBox="0 0 40 40" version="1.1" xmlns="http://www.w3.org/2000/svg" xmlns:xlink="http://www.w3.org/1999/xlink">
    <!-- Generator: sketchtool 53.2 (72643) - https://sketchapp.com -->
    <title>C2D2F5B8-30C8-43ED-9699-BAF45C8E2ED7</title>
    <desc>Created with sketchtool.</desc>
    <defs>
        <path d="M20.5128205,8.11965812 C20.5128205,8.11965812 20.5128205,8.11965812 20.5128205,8.11965812 C20.5128205,8.11965812 20.5128205,8.11965812 20.5128205,8.11965812 C20.5128205,8.03418803 20.5128205,8.03418803 20.5128205,7.94871795 C20.5128205,7.94871795 20.5128205,7.86324786 20.4273504,7.86324786 C20.4273504,7.86324786 20.4273504,7.86324786 20.4273504,7.77777778 L15.042735,1.79487179 C14.957265,1.79487179 14.7863248,1.70940171 14.7008547,1.70940171 L5.81196581,1.70940171 C5.72649573,1.70940171 5.55555556,1.79487179 5.47008547,1.88034188 L0.0854700855,7.86324786 C0.0854700855,7.86324786 0.0854700855,7.86324786 0.0854700855,7.94871795 C0.0854700855,7.94871795 0.0854700855,8.03418803 0,8.03418803 C0,8.03418803 0,8.11965812 0,8.11965812 C0,8.11965812 0,8.11965812 0,8.11965812 C0,8.11965812 0,8.11965812 0,8.11965812 C0,8.20512821 0,8.20512821 0,8.29059829 C0,8.29059829 0,8.29059829 0,8.37606838 C0,8.37606838 0,8.46153846 0.0854700855,8.46153846 L9.91452991,18.7179487 C10,18.8034188 10.0854701,18.8888889 10.2564103,18.8888889 C10.4273504,18.8888889 10.5128205,18.8034188 10.5982906,18.7179487 L20.4273504,8.46153846 C20.4273504,8.46153846 20.4273504,8.37606838 20.5128205,8.37606838 C20.5128205,8.37606838 20.5128205,8.37606838 20.5128205,8.29059829 C20.5128205,8.20512821 20.5128205,8.20512821 20.5128205,8.11965812 Z M5.2991453,8.54700855 L9.05982906,16.4957265 L1.45299145,8.54700855 L5.2991453,8.54700855 Z M6.23931624,8.54700855 L9.82905983,8.54700855 L9.82905983,16.1538462 L6.23931624,8.54700855 Z M10.6837607,8.54700855 L14.2735043,8.54700855 L10.6837607,16.1538462 L10.6837607,8.54700855 Z M15.2136752,8.54700855 L19.0598291,8.54700855 L11.4529915,16.4957265 L15.2136752,8.54700855 Z M19.1452991,7.69230769 L15.2991453,7.69230769 L13.4188034,2.56410256 L14.5299145,2.56410256 L19.1452991,7.69230769 Z M12.4786325,2.56410256 L14.3589744,7.69230769 L10.6837607,7.69230769 L10.6837607,2.56410256 L12.4786325,2.56410256 Z M9.82905983,7.69230769 L6.15384615,7.69230769 L8.03418803,2.56410256 L9.82905983,2.56410256 L9.82905983,7.69230769 Z M5.98290598,2.56410256 L7.09401709,2.56410256 L5.21367521,7.69230769 L1.36752137,7.69230769 L5.98290598,2.56410256 Z" id="path-1"></path>
    </defs>
    <g id="Guidline" stroke="none" stroke-width="1" fill="none" fill-rule="evenodd">
        <g id="C28" transform="translate(-494.000000, -364.000000)">
            <g id="客戶/Goal" transform="translate(494.000000, 364.000000)">
                <g id="Group-2" stroke-width="1" fill-rule="evenodd" fill="#ECECEC">
                    <circle id="Oval" cx="20" cy="20" r="20"></circle>
                </g>
                <g id="Atom-/-Product-Icon-/-[Assets]-/-Icons-/-Expensive-Objects-Jewelery" transform="translate(10.000000, 10.000000)">
                    <mask id="mask-2" fill="white">
                        <use xlink:href="#path-1"></use>
                    </mask>
                    <use id="Shape" fill="#000000" fill-rule="nonzero" xlink:href="#path-1"></use>
                    <g id="Atom-/-Product-Icon-/-[Assets]-/-Icon-Color-/-Dark-Blue" mask="url(#mask-2)" fill="#007AB3" fill-rule="evenodd">
                        <rect id="Dark-Action" x="0" y="0" width="68.3333333" height="68.3333333"></rect>
                    </g>
                </g>
            </g>
        </g>
    </g>
</svg>