<?xml version="1.0" encoding="UTF-8"?>
<svg width="40px" height="40px" viewBox="0 0 40 40" version="1.1" xmlns="http://www.w3.org/2000/svg" xmlns:xlink="http://www.w3.org/1999/xlink">
    <!-- Generator: sketchtool 53.2 (72643) - https://sketchapp.com -->
    <title>A0804700-A090-43E2-B1A7-D4CEF442296E</title>
    <desc>Created with sketchtool.</desc>
    <defs>
        <path d="M4.44444444,8.08080808 C5.97979798,8.08080808 7.27272727,6.78787879 7.27272727,5.25252525 C7.27272727,3.71717172 5.97979798,2.42424242 4.44444444,2.42424242 C2.90909091,2.42424242 1.61616162,3.71717172 1.61616162,5.25252525 C1.61616162,6.78787879 2.90909091,8.08080808 4.44444444,8.08080808 Z M4.44444444,3.23232323 C5.57575758,3.23232323 6.46464646,4.12121212 6.46464646,5.25252525 C6.46464646,6.38383838 5.57575758,7.27272727 4.44444444,7.27272727 C3.31313131,7.27272727 2.42424242,6.38383838 2.42424242,5.25252525 C2.42424242,4.12121212 3.31313131,3.23232323 4.44444444,3.23232323 Z M5.57575758,1.77777778 C5.41414141,1.77777778 5.33333333,1.6969697 5.25252525,1.53535354 C5.17171717,1.29292929 5.25252525,1.05050505 5.41414141,0.96969697 C8.08080808,-0.323232323 11.2323232,-0.323232323 13.8989899,0.96969697 C14.0606061,1.13131313 14.1414141,1.37373737 14.0606061,1.53535354 C13.8989899,1.6969697 13.6565657,1.77777778 13.4949495,1.6969697 C11.0707071,0.484848485 8.16161616,0.484848485 5.73737374,1.6969697 C5.65656566,1.77777778 5.65656566,1.77777778 5.57575758,1.77777778 Z M16,16 C16.1616162,15.8383838 16.4040404,15.8383838 16.5656566,16 C16.7272727,16.1616162 16.7272727,16.4040404 16.5656566,16.5656566 C14.7070707,18.4242424 12.2828283,19.3939394 9.6969697,19.3939394 C7.11111111,19.3939394 4.76767677,18.4242424 2.90909091,16.6464646 C2.74747475,16.4848485 2.74747475,16.2424242 2.90909091,16.0808081 C3.07070707,15.9191919 3.31313131,15.9191919 3.47474747,16.0808081 C5.17171717,17.6969697 7.35353535,18.5858586 9.6969697,18.5858586 C12.040404,18.5858586 14.3030303,17.6969697 16,16 Z M8.08080808,11.2323232 C8.08080808,10.3434343 7.43434343,9.6969697 6.62626263,9.6969697 L2.34343434,9.6969697 C1.45454545,9.6969697 0.808080808,10.4242424 0.808080808,11.2323232 L0.808080808,14.9494949 C0.808080808,15.1919192 0.646464646,15.3535354 0.404040404,15.3535354 C0.161616162,15.3535354 0,15.1919192 0,14.9494949 L0,11.2323232 C0,9.93939394 1.05050505,8.88888889 2.34343434,8.88888889 L6.54545455,8.88888889 C7.83838384,8.88888889 8.88888889,9.93939394 8.88888889,11.2323232 L8.88888889,14.9494949 C8.88888889,15.1919192 8.72727273,15.3535354 8.48484848,15.3535354 C8.24242424,15.3535354 8.08080808,15.1919192 8.08080808,14.9494949 L8.08080808,11.2323232 Z M12.1212121,5.25252525 C12.1212121,6.78787879 13.4141414,8.08080808 14.9494949,8.08080808 C16.4848485,8.08080808 17.7777778,6.78787879 17.7777778,5.25252525 C17.7777778,3.71717172 16.4848485,2.42424242 14.9494949,2.42424242 C13.4141414,2.42424242 12.1212121,3.71717172 12.1212121,5.25252525 Z M14.9494949,3.23232323 C16.0808081,3.23232323 16.969697,4.12121212 16.969697,5.25252525 C16.969697,6.38383838 16.0808081,7.27272727 14.9494949,7.27272727 C13.8181818,7.27272727 12.9292929,6.38383838 12.9292929,5.25252525 C12.9292929,4.12121212 13.8181818,3.23232323 14.9494949,3.23232323 Z M17.0505051,8.88888889 C18.3434343,8.88888889 19.3939394,9.93939394 19.3939394,11.2323232 L19.3939394,14.9494949 C19.3939394,15.1919192 19.2323232,15.3535354 18.989899,15.3535354 C18.7474747,15.3535354 18.5858586,15.1919192 18.5858586,14.9494949 L18.5858586,11.2323232 C18.5858586,10.3434343 17.8585859,9.6969697 17.0505051,9.6969697 L12.7676768,9.6969697 C11.8787879,9.6969697 11.2323232,10.4242424 11.2323232,11.2323232 L11.2323232,14.9494949 C11.2323232,15.1919192 11.0707071,15.3535354 10.8282828,15.3535354 C10.5858586,15.3535354 10.4242424,15.1919192 10.4242424,14.9494949 L10.4242424,11.2323232 C10.4242424,9.93939394 11.4747475,8.88888889 12.7676768,8.88888889 L17.0505051,8.88888889 Z" id="path-1"></path>
    </defs>
    <g id="Guidline" stroke="none" stroke-width="1" fill="none" fill-rule="evenodd">
        <g id="C28" transform="translate(-563.000000, -364.000000)">
            <g id="客戶/男-copy" transform="translate(563.000000, 364.000000)">
                <g id="Group-2">
                    <circle id="Oval" fill="#ECECEC" cx="20" cy="20" r="20"></circle>
                    <g id="Atom-/-Product-Icon-/-[Assets]-/-Icons-/-People-Connect" transform="translate(10.000000, 10.000000)">
                        <mask id="mask-2" fill="white">
                            <use xlink:href="#path-1"></use>
                        </mask>
                        <use id="Shape" fill="#000000" fill-rule="nonzero" xlink:href="#path-1"></use>
                        <g id="Atom-/-Product-Icon-/-[Assets]-/-Icon-Color-/-Dark-Blue" mask="url(#mask-2)" fill="#007AB3" fill-rule="evenodd">
                            <rect id="Dark-Action" x="0" y="0" width="19.0666667" height="19.0666667"></rect>
                        </g>
                    </g>
                </g>
            </g>
        </g>
    </g>
</svg>