<svg xmlns="http://www.w3.org/2000/svg" xmlns:xlink="http://www.w3.org/1999/xlink" width="423" height="125" viewBox="0 0 423 125">
    <defs>
        <path id="a" d="M.258.085h59.604v15.73H.258z"/>
        <path id="c" d="M.3.31h150.561V20.51H.301z"/>
    </defs>
    <g fill="none" fill-rule="evenodd">
        <path fill="#DDEAF1" d="M370 45c-15.953 2.206-58 8-93 22.09C235.414 83.83 251.54 80 186 93c-32.18 6.383-94.18 17.05-186 32h419.99a4 4 0 0 0 4-4.01L423.787 43C412 40.794 385.953 42.794 370 45z"/>
        <path fill="#FFFFFE" d="M157.858 60.581c.828-.757 1.706-.623 2.161-.472.4-1.035 1.26-2.215 3.108-2.215 3.292 0 3.556 3.258 3.556 3.258 2.318-.706 2.766 1.357 2.766 1.438h-12.46c0-1.33.87-2.009.87-2.009M220.613 66.555c.603 0 1.168.164 1.657.45.937-1.643 2.665-2.75 4.647-2.75 1.851 0 3.484.963 4.455 2.428.512-1.764 2.098-3.052 3.978-3.052 2.133 0 3.888 1.658 4.124 3.79.171-.027.346-.046.525-.046 1.301 0 2.429.758 2.995 1.867h-25.672c.351-1.54 1.69-2.687 3.29-2.687"/>
        <path fill="#DDEAF1" d="M205.977 2.144c0 .986-.794 1.784-1.774 1.784s-1.773-.798-1.773-1.784c0-.984.794-1.783 1.773-1.783.98 0 1.774.799 1.774 1.783"/>
        <path fill="#6D93BF" d="M165.212 39.405a1.19 1.19 0 0 1-1.187 1.193 1.19 1.19 0 0 1-1.186-1.193 1.19 1.19 0 0 1 1.186-1.193 1.19 1.19 0 0 1 1.187 1.193"/>
        <path fill="#DDEAF1" d="M212.65 33.132l-.71-.383-.105-.105-.381-.715a.255.255 0 0 0-.451 0l-.381.715-.105.105-.711.383a.259.259 0 0 0 0 .454l.711.383.105.106.38.715a.255.255 0 0 0 .452 0l.381-.715.105-.106.71-.383a.258.258 0 0 0 0-.454"/>
        <path fill="#AAC8DF" d="M170.755 9.211l-.897-.483a.327.327 0 0 1-.132-.132l-.48-.902a.322.322 0 0 0-.568 0l-.48.902a.32.32 0 0 1-.133.132l-.895.483a.325.325 0 0 0 0 .572l.895.483a.32.32 0 0 1 .132.132l.48.901a.322.322 0 0 0 .57 0l.48-.9a.327.327 0 0 1 .131-.133l.897-.483a.325.325 0 0 0 0-.572M232.917 27.309l-1.083-.584a.39.39 0 0 1-.16-.16l-.58-1.09a.389.389 0 0 0-.688 0l-.58 1.09a.394.394 0 0 1-.16.16l-1.084.584a.393.393 0 0 0 0 .69l1.084.585a.39.39 0 0 1 .16.16l.58 1.09c.147.276.54.276.687 0l.581-1.09a.387.387 0 0 1 .16-.16l1.083-.584a.393.393 0 0 0 0-.691"/>
        <path fill="#6D93BF" d="M148.457 23.113l-.992-.535a.358.358 0 0 1-.147-.146l-.531-.998a.356.356 0 0 0-.63 0l-.532.998a.36.36 0 0 1-.145.146l-.993.535a.36.36 0 0 0 0 .633l.993.535a.36.36 0 0 1 .145.146l.533.998a.356.356 0 0 0 .629 0l.531-.998a.358.358 0 0 1 .147-.146l.992-.535a.36.36 0 0 0 0-.633M214.708 16.893l-.726-.391-.107-.108-.39-.73a.26.26 0 0 0-.46 0l-.389.73-.107.108-.726.391a.264.264 0 0 0 0 .463l.726.392.107.107.39.73a.26.26 0 0 0 .46 0l.39-.73.106-.107.726-.392a.264.264 0 0 0 0-.463"/>
        <path fill="#FFFFFE" d="M184.165 118.447h10.34V69.616h-10.34z"/>
        <path fill="#DDEAF1" d="M193.285 72.405c0-2.1-1.693-3.803-3.78-3.803-2.089 0-3.782 1.703-3.782 3.803 0 0-.488 8.99 3.781 13.775 4.27-4.785 3.781-13.775 3.781-13.775"/>
        <path fill="#6D93BF" d="M176.3 51.816s-14.16 6.895-8.55 27.228c0 0 2.997-10.221 12.603-12.868l-4.054-14.36M202.837 51.816s14.159 6.895 8.548 27.228c0 0-2.996-10.221-12.602-12.868l4.054-14.36"/>
        <path fill="#34446D" d="M194.163 70.417h-9.624a.814.814 0 0 1-.793-.637l-.528-2.343a.817.817 0 0 1 .793-.998h10.68c.522 0 .909.487.793.998l-.529 2.343a.814.814 0 0 1-.792.637"/>
        <path fill="#AAC8DF" d="M175.462 46.324s1.478 13.637 6.043 22.278c0 0 7.25-3.51 15.845 0 0 0 5.236-7.29 6.31-23.359.62-9.259-.12-19.83-3.17-28.937h-21.298c-2.834 7.419-4.853 17.382-3.73 30.018"/>
        <path fill="#34446D" d="M187.857 1.529c-2.143 2.437-5.816 7.322-8.665 14.777h21.298c-1.95-5.829-4.846-11.059-8.945-14.958-1.055-1.003-2.727-.913-3.688.18"/>
        <path fill="#6D93BF" d="M189.19 45.664s-6.534 14.927 0 32.675c0 0 7.259-14.81 0-32.675"/>
        <path fill="#34446D" d="M198.017 31.813c0 4.564-3.68 8.264-8.218 8.264s-8.217-3.7-8.217-8.264c0-4.564 3.68-8.264 8.217-8.264 4.539 0 8.218 3.7 8.218 8.264"/>
        <path fill="#F0C171" d="M195.504 31.813c0 3.168-2.554 5.737-5.705 5.737-3.15 0-5.705-2.569-5.705-5.737s2.555-5.737 5.705-5.737c3.151 0 5.705 2.569 5.705 5.737"/>
        <g transform="translate(162.858 108.526)">
            <mask id="b" fill="#fff">
                <use xlink:href="#a"/>
            </mask>
            <path fill="#FFFFFE" d="M24.317 12.011c0 6.587-5.386 11.926-12.03 11.926-6.643 0-12.03-5.339-12.03-11.926C.258 5.425 5.645.085 12.288.085c6.644 0 12.03 5.34 12.03 11.926M59.862 12.011c0 5.901-4.825 10.684-10.777 10.684-5.952 0-10.776-4.783-10.776-10.684 0-5.9 4.824-10.684 10.776-10.684s10.777 4.784 10.777 10.684" mask="url(#b)"/>
        </g>
        <path fill="#FFFFFE" d="M202.594 111.28c0 4.613-3.772 8.354-8.427 8.354-4.654 0-8.426-3.74-8.426-8.355 0-4.613 3.772-8.354 8.426-8.354 4.655 0 8.427 3.74 8.427 8.354M184.683 106.212c0 3.214-2.629 5.82-5.871 5.82-3.243 0-5.87-2.606-5.87-5.82 0-3.215 2.627-5.82 5.87-5.82 3.242 0 5.87 2.605 5.87 5.82"/>
        <path fill="#FFFFFE" d="M197.79 101.404c0 2.196-1.796 3.977-4.01 3.977-2.216 0-4.012-1.78-4.012-3.977 0-2.196 1.796-3.976 4.011-3.976s4.011 1.78 4.011 3.976"/>
        <g transform="translate(107.858 103.83)">
            <mask id="d" fill="#fff">
                <use xlink:href="#c"/>
            </mask>
            <path fill="#FFFFFE" d="M85.897 7.358c0 3.892-3.183 7.047-7.108 7.047-3.927 0-7.11-3.155-7.11-7.047S74.863.31 78.79.31c3.925 0 7.108 3.156 7.108 7.048M64.412 21.506c.374 8.915-6.612 16.443-15.604 16.814-8.992.372-16.585-6.554-16.96-15.468-.375-8.915 6.612-16.443 15.604-16.815 8.992-.371 16.585 6.555 16.96 15.47" mask="url(#d)"/>
        </g>
    </g>
</svg>
