<svg xmlns="http://www.w3.org/2000/svg" xmlns:xlink="http://www.w3.org/1999/xlink" width="35" height="35" viewBox="0 0 35 35">
    <defs>
        <path id="a" d="M5.73 10.417c1.978 0 3.645-1.667 3.645-3.646 0-1.98-1.667-3.646-3.646-3.646-1.979 0-3.646 1.667-3.646 3.646 0 1.979 1.667 3.646 3.646 3.646zm0-6.25A2.579 2.579 0 0 1 8.332 6.77 2.579 2.579 0 0 1 5.73 9.375a2.579 2.579 0 0 1-2.604-2.604 2.579 2.579 0 0 1 2.604-2.604zm1.457-1.875c-.208 0-.312-.104-.416-.313-.104-.312 0-.625.208-.729a12.588 12.588 0 0 1 10.938 0c.208.208.312.52.208.73-.208.208-.52.312-.73.208a11.253 11.253 0 0 0-10 0c-.103.104-.103.104-.207.104zm13.438 18.333a.503.503 0 0 1 .73 0 .503.503 0 0 1 0 .73C18.957 23.75 15.832 25 12.5 25s-6.354-1.25-8.75-3.542a.503.503 0 0 1 0-.729.503.503 0 0 1 .73 0c2.187 2.084 5 3.23 8.02 3.23 3.02 0 5.938-1.146 8.125-3.334zm-10.208-6.146c0-1.146-.834-1.979-1.875-1.979H3.02c-1.146 0-1.98.938-1.98 1.98v4.79c0 .313-.208.522-.52.522-.313 0-.521-.209-.521-.521v-4.792a3.023 3.023 0 0 1 3.02-3.02h5.417a3.023 3.023 0 0 1 3.021 3.02v4.792c0 .312-.208.52-.52.52-.313 0-.521-.208-.521-.52v-4.792zm5.208-7.708c0 1.979 1.667 3.646 3.646 3.646 1.979 0 3.646-1.667 3.646-3.646 0-1.98-1.667-3.646-3.646-3.646-1.98 0-3.646 1.667-3.646 3.646zm3.646-2.604a2.579 2.579 0 0 1 2.604 2.604 2.579 2.579 0 0 1-2.604 2.604 2.579 2.579 0 0 1-2.604-2.604 2.579 2.579 0 0 1 2.604-2.604zm2.708 7.291A3.023 3.023 0 0 1 25 14.48v4.792c0 .312-.208.52-.52.52-.313 0-.522-.208-.522-.52v-4.792c0-1.146-.937-1.979-1.979-1.979h-5.52c-1.146 0-1.98.938-1.98 1.98v4.79c0 .313-.208.522-.52.522-.313 0-.521-.209-.521-.521v-4.792a3.023 3.023 0 0 1 3.02-3.02h5.521z"/>
    </defs>
    <g fill="none" fill-rule="evenodd">
        <path d="M0 0h35v35H0z"/>
        <use fill="#FFF" fill-rule="nonzero" transform="translate(5 5)" xlink:href="#a"/>
    </g>
</svg>
