<svg xmlns="http://www.w3.org/2000/svg" xmlns:xlink="http://www.w3.org/1999/xlink" width="355" height="217" viewBox="0 0 355 217">
    <defs>
        <path id="a" d="M0 0h355v265H0z"/>
        <path id="c" d="M.445.735L.366.509z"/>
    </defs>
    <g fill="none" fill-rule="evenodd" transform="translate(0 -48)">
        <mask id="b" fill="#fff">
            <use xlink:href="#a"/>
        </mask>
        <path fill="#ECECEC" d="M520 264.798V161c-52.096 2.014-90.155 5.303-114.178 9.869-75.385 14.328-127.193 36.254-186.073 40.331-109.214 7.563-234.543 38.232-259.5 42.47-16.638 2.824-48.054 6.534-94.249 11.128h654z" mask="url(#b)" opacity=".585"/>
        <g mask="url(#b)">
            <path fill="#E0CBAF" d="M256.196 153.548l-3.85-2.277-4.842 1.337.062 2.62 8.155 1.344.475-3.024"/>
            <path fill="#37A0B3" d="M258.866 128.046c-.272-.059-5.46 1.243-5.46 1.243l-13.4 10.195h-18.37l-.865 5.206 22.261 4.339 15.834-20.983"/>
            <path fill="#648990" d="M231.528 179.142l-3.575 33.27 2.139 43.548 4.808.464 6.834-39.332 10.377-38.99-20.583 1.04"/>
            <path fill="#2F3789" d="M268.721 256.786l-3.661 4.052 1.298 1.933 7.404-2.652-.51-3.927-4.53.594"/>
            <path fill="#648990" d="M251.095 194.13l7.604 31.705 8.684 31.458 6.402-1.15-4.558-33.219-.13-31.345-9.663-3.065-8.34 5.616"/>
            <path fill="#37A0B3" d="M259.99 127.661s-9.075 3.201-18.217 18.7c-9.31 15.783-14.22 38.532-14.22 38.532s42.374 18.69 43.312 11.059c0 0 16.437-59.39-2.833-65.814-.876-.292-7.467-2.726-8.042-2.477"/>
            <path fill="#BAE0E7" d="M262.063 128.044c-5.387 7.328-10.668 16.122-16.136 23.389-3.24 4.306-4.523 9.333-6.1 14.393l-4.701 15.09-1.986 6.376 18.009 6.618c.483-6.45.808-12.914 1.41-19.354.556-5.94.82-12.7 3.312-18.201 1.213-2.677 2.467-5.343 3.694-8.016 2.251-4.906 4.001-10.065 6.295-14.95.16-.342.525-3.454.501-3.843l-4.298-1.502"/>
            <path fill="#F5C7B5" d="M261.757 129.231l4.459.73a22.73 22.73 0 0 0 .689-3.544c1.32-.103 2.884-.369 3.43-1.579.173-.38.212-.807.25-1.223l.462-5.17c.053-.596.105-1.21-.075-1.78-.314-1.002-1.265-1.658-2.215-2.099-2.424-1.122-5.34-1.311-7.754-.168-.643.305-1.259.712-1.663 1.299-.622.905-.648 2.08-.652 3.179l-.012 3.044c-.004 1.168.078 2.518 1.017 3.207.498.366 1.171.478 1.59.934.736.805.265 2.098.474 3.17"/>
            <path fill="#9B9B9B" d="M256.68 116.03l2.164 5.979.069-5.233-2.232-.746"/>
            <path fill="#9B9B9B" d="M252.141 108.921c.27-1.137.731-2.238 1.229-3.209.854-1.667 3.145-1.909 4.98-1.555 3.962.765 8.185-.006 11.623 2.372 1.966 1.36 4.833 2.323 6.507 3.947.7.679 1.165 1.57 1.465 2.5 1.04 3.215.045 7-2.44 9.282-.559.512-1.18.95-1.818 1.356-1.32.841-2.913 1.89-4.433 1.927.303-1.275 2.512-4.958 1.82-6.255-1.1-2.057-4.728-2.413-6.742-2.518-1.041-.054-2.093.137-3.14.33-1.163.213-2.32.426-3.45.302-1.544-.17-3.243-1.407-4.3-2.515-1.657-1.735-1.789-3.909-1.3-5.964"/>
            <path fill="#2F3789" d="M229.998 255.792l-4.44 2.632.566 1.978 7.603-.76.411-3.356-4.14-.494"/>
            <path fill="#272F6E" d="M250.608 194.059l-.264-.089c.02-.062.038-.126.056-.189l.249.092a7.768 7.768 0 0 1-.04.186"/>
            <path fill="#E8E8E8" d="M250.834 193.68l-.248-.091c.156-.545.257-1.111.298-1.693l.089-.007a7.29 7.29 0 0 1-.139 1.79m-.397-8.684l-.54-6.893.54 6.893"/>
            <path fill="#D9C2C2" d="M248.378 154.839l-.06-.38-.813-5.19.873 5.57"/>
            <path fill="#C6B1B1" d="M247.91 154.459l-.406-5.19.406 5.19M200.822 195.749l5.415-.427-5.417.427"/>
            <path fill="#E8E8E8" d="M251.294 191.561l-.997-6.651.997 6.651"/>
            <path fill="#D3D3D3" d="M250.94 191.668l-.09-1.152.09 1.134V191.668"/>
            <path fill="#D9C2C2" d="M217.778 187.513"/>
            <path fill="#C6B1B1" d="M217.978 187.477l32.56-2.567-32.56 2.567"/>
            <path fill="#D9C2C2" d="M228.95 179.904"/>
            <path fill="#C6B1B1" d="M228.75 179.766h.001l21.109-1.664-21.11 1.664"/>
            <path fill="#E5E5E5" d="M278.227 115.965l1.206-4.34-1.206 4.34M280.222 108.38l.99-3.562-.99 3.562"/>
            <path fill="#D8D4D4" d="M211.712 117.837c.377 1.09.036 2.273-.376 3.318-2.74 6.956-10.96 15.731-18.573 13.42.72-.329 2.692-.8 4.156-1.516 3.475-1.7 4.938-6.033 6.07-9.878.693-2.358-.503-8.298 1.658-9.689 2.06-1.327 6.314 2.17 7.065 4.345"/>
            <path fill="#FFF" d="M191.74 126.158c.765-3.865 1.887-6.498 3.469-9.53 1.581-3.032 4.112-5.662 7.342-6.504.384-.1.788-.174 1.18-.082.45.104.833.412 1.198.711 2.022 1.653 5.603 3.641 6.58 6.423-5.736.92-11.13 4.34-14.833 8.905-2.766 3.408-3.616 8.576-3.98 8.663-3.462.831-1.315-6.768-.955-8.586"/>
            <path fill="#D8D4D4" d="M167.286 133.79c.388 1.086 1.395 1.799 2.371 2.361 6.497 3.741 18.42 5.506 22.927-1.023-.77.19-2.606 1.045-4.199 1.392-3.783.825-7.639-1.655-10.93-3.962-2.018-1.413-4.802-6.801-7.362-6.55-2.443.241-3.581 5.614-2.807 7.781"/>
            <path fill="#FFF" d="M188.445 128.23c-3.018-2.549-5.543-3.912-8.677-5.303-3.135-1.39-6.76-1.877-9.815-.533-.362.16-.725.352-.975.668-.285.36-.392.838-.491 1.3-.547 2.546-2.103 6.322-1.126 9.103 5.062-2.838 11.422-3.507 17.176-2.234 4.296.95 8.196 4.465 8.535 4.307 3.228-1.496-3.208-6.109-4.627-7.308"/>
            <path fill="#D5E8F0" d="M244.66 177.572l-64.285 22.373-18.955-53.973 64.285-22.372 18.955 53.972"/>
            <path fill="#D5E8F0" d="M234.86 136.03l-73.073 25.43L157 147.833l73.074-25.432 4.786 13.63"/>
            <g transform="translate(231.74 141.6)">
                <mask id="d" fill="#fff">
                    <use xlink:href="#c"/>
                </mask>
                <path fill="#E5E5E5" d="M.366.735h.079V.509H.366z" mask="url(#d)"/>
            </g>
            <path fill="#A9C6D1" d="M168.654 158.62L230.2 137.2l1.644 4.68.063.18-63.254 16.56"/>
            <path fill="#C06578" d="M168.653 158.98L205.949 146l-37.295 12.98h-.001"/>
            <path fill="#FFF" d="M215.955 187.769L208 190.538l-19.193-54.648c-.194-.554.083-1.155.62-1.341l6.013-2.093c.536-.187 1.129.11 1.323.665l19.193 54.648"/>
            <path fill="#37A0B3" d="M271.165 132.049s-3.964 1.382-4.251 2.1c-.287.72-13.687 21.761-13.687 21.761l-27.668 6.68 1.3 6.336 25.503-2.82 9.294-.651 14.913-21.692-.495-7.632-4.909-4.082"/>
            <path fill="#F5C7B5" d="M225.853 163.685l-9.072.76 1.642 1.945 8.3 1.525-.87-4.23"/>
        </g>
        <path fill="#ECECEC" d="M63.736 88.704c-3.01 0-5.299 3.53-8.019 2.903-5.941-1.37-8.384-8.907-14.905-8.907-5.032 0-7.948 6.152-12.593 5.735C20.862 87.775 17.548 78 9.626 78c-7.327 0-10.923 8.368-17.69 9.106-3.986.436-6.902-4.278-11.233-4.278-8.166 0-8.885 3.198-16.406 5.507-2.16.663-3.81 4.806-6.251 4.806-2.866 0-5.412.886-7.046 2.859H76c-2.095-3.946-6.793-7.296-12.264-7.296M373.819 53.352c-1.517 0-2.67 1.765-4.041 1.452-2.995-.686-4.226-4.454-7.513-4.454-2.536 0-4.005 3.076-6.347 2.868-3.708-.33-5.378-5.218-9.37-5.218-3.693 0-5.506 4.184-8.916 4.553-2.01.218-3.479-2.139-5.661-2.139-4.116 0-4.478 1.6-8.27 2.753-1.088.332-1.92 2.404-3.15 2.404-1.445 0-2.727.442-3.551 1.429h63c-1.056-1.973-3.424-3.648-6.181-3.648" mask="url(#b)"/>
    </g>
</svg>
