<?xml version="1.0" encoding="utf-8"?>
<!-- Generator: Adobe Illustrator 22.0.1, SVG Export Plug-In . SVG Version: 6.00 Build 0)  -->
<svg version="1.1" id="圖層_1" xmlns="http://www.w3.org/2000/svg" xmlns:xlink="http://www.w3.org/1999/xlink" x="0px" y="0px"
	 viewBox="0 0 40 40" style="enable-background:new 0 0 40 40;" xml:space="preserve">
<style type="text/css">
	.st0{fill:#C2C2C2;}
	.st1{fill:none;stroke:#C2C2C2;}
</style>
<g>
	<path id="a_1_" class="st0" d="M27.2,13c0.4,0,0.8,0.4,0.8,0.8c0,0.4-0.4,0.8-0.8,0.8s-0.8-0.4-0.8-0.8C26.4,13.4,26.8,13,27.2,13z
		 M24.5,13c0.4,0,0.8,0.4,0.8,0.8s-0.4,0.8-0.8,0.8c0,0,0,0,0,0c-0.4,0-0.8-0.4-0.8-0.8C23.7,13.4,24.1,13,24.5,13z M21.8,13
		c0.4,0,0.8,0.4,0.8,0.8c0,0.4-0.4,0.8-0.8,0.8c0,0,0,0,0,0c-0.4,0-0.8-0.4-0.8-0.8C21,13.4,21.4,13,21.8,13z M29.4,16.5
		c0,0.2-0.2,0.4-0.4,0.4h-7.7c-0.2,0-0.4,0.1-0.6,0.2l-1.1,1.1V11c0-0.2,0.2-0.4,0.4-0.4h9c0.2,0,0.4,0.2,0.4,0.4V16.5L29.4,16.5z
		 M29,9h-9c-1.1,0-2,0.9-2,2v9.2c0,0.4,0.4,0.8,0.8,0.8c0.2,0,0.4-0.1,0.6-0.2l2.2-2.2H29c1.1,0,2-0.9,2-2V11C31,9.9,30.1,9,29,9z
		 M25.2,27.1c-0.2,0.8-1.2,2-1.6,2.1c-1.1,0.3-4.3-0.9-8.1-4.6c-3.5-3.5-5-7-4.6-8.1c0.1-0.4,1.3-1.4,2.1-1.6c0.1,0,0.1,0,0.1,0
		c0.9,0.9,1.9,2.5,2.1,3.5c0,0.1-0.1,0.2-0.3,0.4c-0.1,0.1-0.1,0.1-0.2,0.2c0,0-0.1,0.1-0.2,0.2c-0.5,0.4-0.7,0.6-0.8,1
		c0,0.3-0.1,0.9,2.6,3.6c2.7,2.7,3.3,2.6,3.6,2.6c0.4,0,0.6-0.3,1-0.8c0.1-0.1,0.1-0.1,0.2-0.2c0.1-0.1,0.1-0.1,0.2-0.2
		c0.2-0.2,0.3-0.3,0.4-0.3c1.1,0.2,2.7,1.3,3.5,2.1C25.2,26.9,25.2,27,25.2,27.1 M22,23.3c-0.9-0.2-1.5,0.4-1.9,0.8L20,24.2
		c-0.1,0.1-0.1,0.1-0.2,0.3l-0.1,0.1c-1-0.7-3.5-3.2-4.2-4.2l0.1-0.1c0.1-0.1,0.2-0.2,0.3-0.2l0.1-0.1c0.3-0.3,1-0.9,0.8-1.9
		c-0.3-1.4-1.5-3.3-2.6-4.4c-0.2-0.2-0.7-0.6-1.6-0.4c-1.1,0.3-2.9,1.7-3.2,2.7c-0.7,2.3,2,6.6,5,9.7c3.2,3.2,6.6,5.1,8.8,5.1
		c0.3,0,0.6,0,0.9-0.1c1.1-0.3,2.4-2.1,2.7-3.2v0c0.2-0.9-0.1-1.4-0.4-1.6C25.3,24.8,23.5,23.5,22,23.3"/>
</g>
<path class="st1" d="M20,39.5c7.3,0,14.1-4.1,17.4-10.7c1.4-2.7,2.1-5.8,2.1-8.8C39.5,9.2,30.8,0.5,20,0.5S0.5,9.2,0.5,20
	S9.2,39.5,20,39.5z"/>
</svg>
