<?xml version="1.0" encoding="UTF-8"?>
<svg width="60px" height="60px" viewBox="0 0 60 60" version="1.1" xmlns="http://www.w3.org/2000/svg" xmlns:xlink="http://www.w3.org/1999/xlink">
    <!-- Generator: sketchtool 53.2 (72643) - https://sketchapp.com -->
    <title>1166D59B-AD3E-4710-8C86-9B1338DA10A2</title>
    <desc>Created with sketchtool.</desc>
    <defs>
        <circle id="path-1" cx="30" cy="30" r="30"></circle>
    </defs>
    <g id="Guidline" stroke="none" stroke-width="1" fill="none" fill-rule="evenodd">
        <g id="C28" transform="translate(-249.000000, -354.000000)">
            <g id="Group-10" transform="translate(249.000000, 354.000000)">
                <g id="Group">
                    <g id="44776106_xl">
                        <mask id="mask-2" fill="white">
                            <use xlink:href="#path-1"></use>
                        </mask>
                        <use id="Mask" fill="#E5E5EE" xlink:href="#path-1"></use>
                        <g id="Group-12" mask="url(#mask-2)" fill-rule="nonzero">
                            <g transform="translate(11.642857, 9.428571)" id="Shape">
                                <path d="M18.6010286,0.472112316 C1.31992381,0.472112316 3.23601905,21.5672425 3.31500953,36.8543186 C3.31794285,37.4316537 3.61923809,37.9522017 4.1120381,38.2502286 C6.02708572,39.4091052 11.2861333,42.1182685 18.6012381,42.1182685 C25.9163428,42.1182685 31.1753905,39.4091052 33.0904381,38.2502286 C33.5830286,37.9522017 33.8843238,37.4316537 33.8874667,36.8543186 C33.9660381,21.5674528 35.8821334,0.472112316 18.6010286,0.472112316 Z" fill="#694B4B"></path>
                                <path d="M17.487619,0.51564906 C1.41546667,1.42024587 3.23790476,21.9075442 3.31500953,36.8543186 C3.31794285,37.4316537 3.61923809,37.9522017 4.1120381,38.2502286 C6.02708572,39.4091052 11.2861333,42.1182685 18.6012381,42.1182685 L22.9685524,11.4315939" fill="#5A4146"></path>
                                <path d="M18.6010286,0.472112316 C8.77499049,0.472112316 8.0925714,12.3904539 8.0925714,12.3904539 C13.7562096,11.4313836 17.2364,13.8288491 22.9683429,11.4313836 L18.6010286,42.1180582 C25.9163428,42.1180582 31.1751809,39.4088949 33.0902286,38.2500183 C33.582819,37.9519914 33.8841143,37.4314433 33.8872571,36.8541083 C33.9660381,21.5674528 35.8821334,0.472112316 18.6010286,0.472112316 Z" fill="#694B4B"></path>
                                <path d="M33.8870476,36.8543186 C33.9547238,23.7184204 35.3675428,6.30645674 24.8023047,1.66295796 C24.6181333,2.62392118 24.2841524,5.30658388 25.1517905,7.04784334 C27.3354476,11.4318042 29.5191048,11.4318042 31.7023429,14.7193542 C33.886,26.7748261 27.5300952,39.5702123 25.4191429,41.312313 C29.1593524,40.4194943 31.840419,39.0065481 33.0902286,38.2502286 C33.5826096,37.9519914 33.8841143,37.4316537 33.8870476,36.8543186 Z" fill="#785550"></path>
                                <path d="M35.1456571,40.179306 L25.4036381,36.1047294 C24.5900572,35.7644277 24.0599619,34.9664644 24.0599619,34.0814276 L24.0599619,31.4330474 L13.1420952,31.4330474 L13.1420952,34.0814276 C13.1420952,34.9664644 12.612,35.7644277 11.798419,36.1047294 L2.0564,40.179306 C0.835923808,40.6897586 0.0407809525,41.8869139 0.0407809525,43.2142588 L0.0407809525,47.5982197 C0.0407809525,48.8088356 1.01841905,49.7902001 2.2244381,49.7902001 L34.9778286,49.7902001 C36.1838476,49.7902001 37.1614857,48.8088356 37.1614857,47.5982197 L37.1614857,43.2142588 C37.1612762,41.8867035 36.3663429,40.6897586 35.1456571,40.179306 Z" fill="#FFE4C3"></path>
                                <path d="M35.1456571,40.179306 L25.7263047,36.2395461 L18.6010286,39.3264485 L11.4757524,36.2395461 L2.05619048,40.179306 C0.835714288,40.6897586 0.0405714283,41.8869139 0.0405714283,43.2142588 L0.0405714283,47.5982197 C0.0405714283,48.8088356 1.01820953,49.7902001 2.22422857,49.7902001 L34.977619,49.7902001 C36.1836381,49.7902001 37.1612762,48.8088356 37.1612762,47.5982197 L37.1612762,43.2142588 C37.1612762,41.8867035 36.3663429,40.6897586 35.1456571,40.179306 Z" fill="#EFF2FA"></path>
                                <path d="M24.0597524,31.4326268 L13.1418857,31.4326268 L13.1418857,34.0810069 C13.1418857,34.9660438 12.6117905,35.7640071 11.7982095,36.1043088 L10.2764381,36.7407445 C21.9205143,39.7210135 24.0597524,31.4326268 24.0597524,31.4326268 Z" fill="#FFCC96"></path>
                                <path d="M5.36205714,44.4187754 L0.97965714,40.919641 C0.392361904,41.5224251 0.0405714283,42.3374246 0.0405714283,43.2140485 L0.0405714283,47.5980094 C0.0405714283,48.8086253 1.01820953,49.7899898 2.22422857,49.7899898 L6.59154285,49.7899898 L6.59154285,46.9863917 C6.59133334,45.9873601 6.13897143,45.0428021 5.36205714,44.4187754 Z" fill="#E4EAF6"></path>
                                <path d="M37.1612762,47.5977991 L37.1612762,43.2138382 C37.1612762,42.3439445 36.8151429,41.5344135 36.2362286,40.9331017 L31.8397904,44.4185651 C31.0628762,45.0423814 30.6107238,45.9871498 30.6107238,46.9859711 L30.6107238,49.7895692 L34.9780381,49.7895692 C36.1836381,49.7897795 37.1612762,48.808415 37.1612762,47.5977991 Z" fill="#E4EAF6"></path>
                                <path d="M18.7646667,47.5977991 L18.4371809,47.5977991 C17.9246857,47.5977991 17.5092,47.1807297 17.5092,46.666281 L17.5092,39.3289724 L19.6928572,39.3289724 L19.6928572,46.666281 C19.6928572,47.1807297 19.2771619,47.5977991 18.7646667,47.5977991 Z" fill="#E4EAF6"></path>
                                <path d="M18.6010286,39.3264485 L12.3521905,34.6221666 C11.9509524,34.3201436 11.379581,34.4183641 11.1015429,34.8371161 L9.86681907,36.6963664 L13.6979619,42.0802002 C13.9892,42.4892774 14.5630857,42.5694102 14.9542666,42.2553988 L18.6010286,39.3264485 Z" fill="#E4EAF6"></path>
                                <path d="M18.6010286,39.3264485 L24.8498667,34.6221666 C25.2511047,34.3201436 25.8224762,34.4183641 26.1005143,34.8371161 L27.3352381,36.6963664 L23.5040952,42.0802002 C23.2128571,42.4892774 22.6389714,42.5694102 22.2477905,42.2553988 L18.6010286,39.3264485 Z" fill="#E4EAF6"></path>
                                <path d="M24.0597524,10.3356037 C18.600819,15.8153445 7.88765714,11.4315939 7.88765714,20.1990951 L8.56567621,26.6572559 C8.69662857,28.1019606 9.53074288,29.3880823 10.7937524,30.0926625 L17.0101143,33.5591969 C17.9992762,34.1108727 19.2021524,34.1108727 20.1913143,33.5591969 L26.4076762,30.0926625 C27.6708953,29.3880823 28.5052191,28.1019606 28.6357524,26.6572559 L29.4183238,18.9870069 C29.4740572,18.4418511 29.4857905,17.8933302 29.4675619,17.3462815 C29.0594095,14.5565647 25.151581,12.5275841 24.0597524,10.3356037 Z" fill="#FFE4C3"></path>
                                <path d="M7.88765714,20.1990951 L8.56567621,26.6572559 C8.69662857,28.1019606 9.53074288,29.3880823 10.7937524,30.0926625 L17.0101143,33.5591969 C17.6965143,33.9419838 18.4839048,34.0410456 19.2331619,33.8927683 C19.2331619,33.8927683 16.0991048,32.9393768 14.2337143,27.8708163 C13.6623429,26.3182161 12.8690857,18.0986049 13.5512952,17.0938945 C14.9,15.1082405 22.4219048,14.9019141 24.6445333,11.218327 C24.5347429,11.0816174 24.4333333,10.9446975 24.3409333,10.8075673 C24.3336,10.7966305 24.3243809,10.7854834 24.3170476,10.7743363 C24.2204572,10.6285829 24.1330857,10.4826191 24.0597524,10.335814 C18.6010286,15.8153445 7.88765714,11.4315939 7.88765714,20.1990951 Z" fill="#FFD8A8"></path>
                                <path d="M26.5711047,47.5977991 L23.7324762,47.5977991 C22.7074857,47.5977991 21.8765143,48.4319378 21.8765143,49.4608352 L21.8765143,49.7895692 L28.4270667,49.7895692 L28.4270667,49.4608352 C28.4270667,48.4321481 27.5960952,47.5977991 26.5711047,47.5977991 Z" fill="#E4EAF6"></path>
                            </g>
                        </g>
                    </g>
                    <circle id="Oval" fill="#694B4B" cx="25.2" cy="30" r="1.2"></circle>
                    <circle id="Oval-Copy" fill="#694B4B" cx="34.8" cy="30" r="1.2"></circle>
                    <path d="M30,39.526281 C31.9882251,39.526281 33.6,38.3046807 33.6,36.7977604 C33.6,35.29084 31.9882251,36.3814883 30,36.3814883 C28.0117749,36.3814883 26.4,35.29084 26.4,36.7977604 C26.4,38.3046807 28.0117749,39.526281 30,39.526281 Z" id="Oval-Copy-2" fill="#FF8D8D"></path>
                </g>
            </g>
        </g>
    </g>
</svg>