<?xml version="1.0" encoding="utf-8"?>
<!-- Generator: Adobe Illustrator 22.0.0, SVG Export Plug-In . SVG Version: 6.00 Build 0)  -->
<svg version="1.1" id="图层_1" xmlns="http://www.w3.org/2000/svg" xmlns:xlink="http://www.w3.org/1999/xlink" x="0px" y="0px"
	 viewBox="0 0 24 24" style="enable-background:new 0 0 24 24;" xml:space="preserve">
<style type="text/css">
	.st0{fill:#224D9B;}
</style>
<path class="st0" d="M18.9,11H7.4l2.5-2.5c0.4-0.4,0.4-1,0-1.4s-1-0.4-1.4,0l-4.1,4.1c0,0,0,0,0,0c-0.1,0.1-0.1,0.2-0.2,0.3
	c0,0,0,0,0,0.1c0,0.1-0.1,0.2-0.1,0.4c0,0,0,0,0,0s0,0,0,0c0,0.1,0,0.3,0.1,0.4c0,0,0,0,0,0.1c0,0.1,0.1,0.2,0.2,0.3c0,0,0,0,0,0
	l4.1,4.1c0.4,0.4,1,0.4,1.4,0s0.4-1,0-1.4L7.4,13h11.5c0.5,0,1-0.4,1-1C19.9,11.5,19.4,11,18.9,11z"/>
</svg>
