<?xml version="1.0" encoding="UTF-8"?>
<svg width="24px" height="24px" viewBox="0 0 24 24" version="1.1" xmlns="http://www.w3.org/2000/svg" xmlns:xlink="http://www.w3.org/1999/xlink">
    <!-- Generator: sketchtool 54.1 (76490) - https://sketchapp.com -->
    <title>DC54B761-5C58-4CB9-9719-992113334CDA</title>
    <desc>Created with sketchtool.</desc>
    <g id="Symbols" stroke="none" stroke-width="1" fill="none" fill-rule="evenodd">
        <g id="Atom/refresh" fill="#007AB3">
            <g id="refresh" transform="translate(12.000000, 12.000000) rotate(-330.000000) translate(-12.000000, -12.000000) translate(3.000000, 3.000000)">
                <path d="M17.9634146,8.88979592 C17.9597561,8.47836735 17.6231707,8.1477551 17.2170732,8.1477551 C17.2134146,8.1477551 17.2097561,8.1477551 17.2060976,8.1477551 C16.7926829,8.15142857 16.4634146,8.49306122 16.4670732,8.90816327 C16.5073171,12.2216327 14.3304878,15.2118367 11.1695122,16.1742857 C8.21341463,17.0742857 4.99390244,16.0236735 3.11341463,13.6138776 L5.68170732,13.9628571 C6.09146341,14.0179592 6.46829268,13.7314286 6.52317073,13.32 C6.57804878,12.9085714 6.29268293,12.5302041 5.88292683,12.475102 L1.60609756,11.8946939 C1.25853659,11.8579592 0.845121951,12.0306122 0.764634146,12.537551 L0.190243902,16.8244898 C0.135365854,17.2359184 0.420731707,17.6142857 0.830487805,17.6693878 C0.863414634,17.6730612 0.896341463,17.6767347 0.932926829,17.6767347 C1.30243902,17.6767347 1.62073171,17.404898 1.67195122,17.0265306 L1.99756098,14.6130612 C3.71341463,16.7693878 6.33292683,17.9963265 9.03292683,17.9963265 C9.89268293,17.9963265 10.7597561,17.8714286 11.6085366,17.6142857 C15.3987805,16.4571429 18.0109756,12.8681633 17.9634146,8.88979592 Z" id="Path"></path>
                <path d="M0.782926829,9.84857143 C0.786585366,9.84857143 0.790243902,9.84857143 0.793902439,9.84857143 C1.20731707,9.84489796 1.53658537,9.50326531 1.53292683,9.09183673 C1.49268293,5.77469388 3.6695122,2.78816327 6.8304878,1.82571429 C9.75365854,0.936734694 12.9402439,1.95428571 14.8280488,4.31265306 L12.3109756,3.97102041 C11.9012195,3.9122449 11.5243902,4.20244898 11.4695122,4.61387755 C11.4146341,5.02530612 11.7,5.40367347 12.1097561,5.45877551 L16.3865854,6.04285714 C16.9865854,6.09061224 17.2097561,5.6277551 17.2280488,5.4 L17.8060976,1.11306122 C17.8609756,0.701632653 17.5756098,0.323265306 17.1658537,0.268163265 C16.7560976,0.216734694 16.3792683,0.499591837 16.3243902,0.911020408 L15.9914634,3.37591837 C13.7268293,0.547346939 9.90731707,-0.675918367 6.39512195,0.393061224 C2.60121951,1.54285714 -0.0109756098,5.13183673 0.0365853659,9.11020408 C0.043902439,9.52163265 0.376829268,9.84857143 0.782926829,9.84857143 Z" id="Path"></path>
            </g>
        </g>
    </g>
</svg>