<svg xmlns="http://www.w3.org/2000/svg" xmlns:xlink="http://www.w3.org/1999/xlink" width="89" height="90" viewBox="0 0 89 90">
    <defs>
        <path id="a" d="M0 .188h89.991v88.8H0z"/>
    </defs>
    <g fill="none" fill-rule="evenodd" transform="translate(0 1)">
        <mask id="b" fill="#fff">
            <use xlink:href="#a"/>
        </mask>
        <path fill="#6DC1E8" d="M82.443 23.64L66.989 7.692l3.542-3.83 15.833 15.89-3.921 3.89zm-6.502 9.084a3.955 3.955 0 0 1-.992 4.076l-7.93 8.64a4.895 4.895 0 0 1-2.519 1.363V44.68a7.533 7.533 0 0 0-6-7.375V32.15a5.444 5.444 0 0 0-4.784-5.514 5.319 5.319 0 0 0-2.738.5 5.412 5.412 0 0 0-4.762-5.015c-.064-.006-.127.006-.19.003l6.026-7.054a6.11 6.11 0 0 1 5.78-1.606l4.318 1.083a1.494 1.494 0 0 0 1.424-.395l2.784-2.793 12.924 13.337c-1.385 1.612-4.229 5.358-3.342 8.028zM61.5 67.464a6.245 6.245 0 0 1-2.54 4.975l-2.975 2.743c-.31.285-.485.687-.485 1.108v2.173H36v-.313a6.936 6.936 0 0 0-3.667-6.132A4.297 4.297 0 0 1 30 68.271v-14.56a4.507 4.507 0 0 1 3-4.238v9.421h3v-28.3a2.397 2.397 0 0 1 2.013-2.461 2.256 2.256 0 0 1 2.487 2.246v22.494h3V27.37a2.253 2.253 0 0 1 2.455-2.25A2.456 2.456 0 0 1 48 27.635v25.238h3V31.884a2.253 2.253 0 0 1 2.455-2.249A2.456 2.456 0 0 1 55.5 32.15v20.723h3V40.441a4.507 4.507 0 0 1 3 4.238v22.785zM33 85.99h25.5v-4.515H33v4.515zm-5.867-33.667L16.43 41.272a6.158 6.158 0 0 1-1.601-5.8l1.08-4.334a1.506 1.506 0 0 0-.395-1.43L11.36 25.54 24 12.854l1.94 1.946c.541.543 1.403.59 2 .109l1.232-.995a4.871 4.871 0 0 1 4.776 1.262l8.269 8.298-.015.01a5.282 5.282 0 0 0-1.447 2.266 5.26 5.26 0 0 0-3.041-.613A5.427 5.427 0 0 0 33 30.594v15.742a7.533 7.533 0 0 0-5.867 5.986zM7.5 25.155L3.62 21.262 21 3.822l3.879 3.893-17.38 17.44zm82.052-6.462l-18-18.064a1.471 1.471 0 0 0-1.089-.44c-.407.006-.794.18-1.07.48l-5.573 6.02a1.51 1.51 0 0 0 .024 2.075l.422.436-2.212 2.22-3.495-.876a9.137 9.137 0 0 0-8.706 2.482l-6.376 7.456-7.408-7.434a7.849 7.849 0 0 0-8.086-1.917 1.52 1.52 0 0 0-.467.256l-.408.329-.987-.99 1.94-1.947a1.509 1.509 0 0 0 0-2.128l-6-6.022a1.496 1.496 0 0 0-2.12 0h-.002L.44 20.198a1.508 1.508 0 0 0 0 2.128l6 6.022a1.496 1.496 0 0 0 2.121 0l.678-.68 3.554 3.567-.873 3.507a9.173 9.173 0 0 0 2.375 8.644L27 56.504V68.27a7.301 7.301 0 0 0 3.923 6.404A3.933 3.933 0 0 1 33 78.15v.313h-1.5c-.828 0-1.5.673-1.5 1.503v7.529c0 .83.67 1.504 1.498 1.505H60c.828 0 1.5-.673 1.5-1.504V79.968c0-.83-.67-1.505-1.498-1.505H58.5V76.95l2.377-2.2a9.176 9.176 0 0 0 3.623-7.286V49.831a7.887 7.887 0 0 0 4.683-2.306l7.93-8.64a6.927 6.927 0 0 0 1.672-7.114c-.24-.726 1.052-3.102 2.591-4.923.275.273.645.43 1.032.435h.014c.395 0 .774-.156 1.055-.435l6.069-6.021a1.509 1.509 0 0 0 .012-2.128l-.006-.007z" mask="url(#b)"/>
    </g>
</svg>
