<?xml version="1.0" encoding="utf-8"?>
<!-- Generator: Adobe Illustrator 22.0.1, SVG Export Plug-In . SVG Version: 6.00 Build 0)  -->
<svg version="1.1" id="圖層_1" xmlns="http://www.w3.org/2000/svg" xmlns:xlink="http://www.w3.org/1999/xlink" x="0px" y="0px"
	 viewBox="0 0 15 14" style="enable-background:new 0 0 15 14;" xml:space="preserve">
<style type="text/css">
	.st0{fill:#C2C2C2;}
</style>
<title>00DFD71E-7C15-4053-88A4-2C63EA60167F</title>
<desc>Created with sketchtool.</desc>
<g>
	<path id="path-1_1_" class="st0" d="M11.4,8.6l-1.2,1.2L9.9,9.5c-0.2-0.2-0.4-0.2-0.6,0c-0.2,0.2-0.2,0.4,0,0.6l0.6,0.6
		c0.1,0.1,0.2,0.1,0.3,0.1s0.2,0,0.3-0.1L12,9.2c0.2-0.2,0.2-0.4,0-0.6S11.6,8.5,11.4,8.6 M10.7,12.3c-1.4,0-2.6-1.2-2.6-2.6
		c0-1.4,1.2-2.6,2.6-2.6s2.6,1.2,2.6,2.6C13.3,11.1,12.1,12.3,10.7,12.3 M10.7,6C8.6,6,7,7.6,7,9.7s1.6,3.7,3.7,3.7
		c2,0,3.7-1.6,3.7-3.7S12.7,6,10.7,6 M1.4,1.6V1.1h11.2v0.5L7,4.1L1.4,1.6z M12.6,2.8v2.6C13,5.5,13.3,5.7,13.7,6V0.7
		C13.7,0.3,13.4,0,13,0H1C0.6,0,0.3,0.3,0.3,0.7v2.9v1.3V10c0,0.4,0.3,0.7,0.7,0.7h5C6,10.3,5.9,10,5.9,9.7c0,0,0,0,0-0.1H1.4V4.9
		V3.5V2.8l5.4,2.4c0.1,0,0.1,0,0.2,0c0.1,0,0.1,0,0.2,0L12.6,2.8z"/>
</g>
</svg>
