<?xml version="1.0" encoding="UTF-8"?>
<svg width="50px" height="50px" viewBox="0 0 50 50" version="1.1" xmlns="http://www.w3.org/2000/svg" xmlns:xlink="http://www.w3.org/1999/xlink">
    <!-- Generator: sketchtool 53 (72520) - https://sketchapp.com -->
    <title>B551C7A3-0551-41A3-A657-60E1B06B2083</title>
    <desc>Created with sketchtool.</desc>
    <g id="Guidline" stroke="none" stroke-width="1" fill="none" fill-rule="evenodd">
        <g id="C23" transform="translate(-627.000000, -615.000000)">
            <g id="Group-7" transform="translate(627.000000, 615.000000)">
                <path d="M17.6800354,47.9912952 L17.6800354,23.3747366 L0.536170085,3.44582671 C-0.381466583,2.31808514 -0.278246955,0 2.09309836,0 L47.8240326,0 C50.050922,0 50.5663758,2.04879303 49.3804455,3.44582671 L32.6488144,22.8472758 L32.6488144,38.0783188 C32.6488144,38.6992945 32.4430194,39.2272726 31.9169988,39.6410408 L21.2163063,49.5540173 C19.9789594,50.4745514 17.6800354,49.9778743 17.6800354,47.9912952 Z M6.6703283,4.18036557 L21.3295773,21.1814674 C21.6391073,21.5952356 21.8450311,22.0190926 21.8450311,22.5364646 L21.8450311,43.2935577 L28.4945143,37.2406936 L28.4945143,22.1226964 C28.4945143,21.6053244 28.7004381,21.1814674 29.0099681,20.7670525 L43.2469316,4.18036557 L6.6703283,4.18036557 Z" id="Fill-1" fill="#9B9B9B"></path>
                <path d="M26.223936,5.89711764 C26.5722367,5.46850934 27.2020459,5.40340717 27.6306542,5.75170787 C28.0592625,6.10000856 28.1243647,6.72981774 27.776064,7.15842603 L22.776064,13.3112747 C22.4277633,13.739883 21.7979541,13.8049852 21.3693458,13.4566845 C20.9407375,13.1083838 20.8756353,12.4785746 21.223936,12.0499663 L26.223936,5.89711764 Z" id="Path-3" fill="#96CAD4" fill-rule="nonzero"></path>
                <path d="M34.2461807,5.87069001 C34.609077,5.45436713 35.2407589,5.41105631 35.6570818,5.77395258 C36.0734047,6.13684885 36.1167155,6.76853078 35.7538193,7.18485366 L25.7538193,18.6570818 C25.390923,19.0734047 24.7592411,19.1167155 24.3429182,18.7538193 C23.9265953,18.390923 23.8832845,17.7592411 24.2461807,17.3429182 L34.2461807,5.87069001 Z" id="Path-3-Copy" fill="#96CAD4" fill-rule="nonzero"></path>
            </g>
        </g>
    </g>
</svg>