<svg xmlns="http://www.w3.org/2000/svg" xmlns:xlink="http://www.w3.org/1999/xlink" width="30" height="30" viewBox="0 0 30 30">
    <defs>
        <path id="a" d="M0 .022h19.949V20H0z"/>
    </defs>
    <g fill="none" fill-rule="evenodd">
        <path d="M0 0h30v30H0z"/>
        <g transform="translate(5 6)">
            <mask id="b" fill="#fff">
                <use xlink:href="#a"/>
            </mask>
            <path fill="#717171" d="M7.054 19.197V9.362L.214 1.399C-.152.949-.111.022.835.022h18.246c.888 0 1.094.819.62 1.377l-6.675 7.752v6.086c0 .248-.082.459-.292.624l-4.27 3.96c-.493.369-1.41.17-1.41-.624zM2.66 1.693L8.51 8.485c.124.166.206.335.206.542v8.293l2.653-2.418v-6.04c0-.207.082-.377.205-.542l5.68-6.627H2.662z" mask="url(#b)"/>
        </g>
    </g>
</svg>
