<?xml version="1.0" encoding="utf-8"?>
<!-- Generator: Adobe Illustrator 22.0.1, SVG Export Plug-In . SVG Version: 6.00 Build 0)  -->
<svg version="1.1" id="圖層_1" xmlns="http://www.w3.org/2000/svg" xmlns:xlink="http://www.w3.org/1999/xlink" x="0px" y="0px"
	 viewBox="0 0 18 20" style="enable-background:new 0 0 18 20;" xml:space="preserve">
<style type="text/css">
	.st0{fill:#767676;}
</style>
<g>
	<path id="path-1_2_" class="st0" d="M17.2,14.9l-3.1-3.3c-0.2-0.2-0.5-0.4-0.9-0.4c-0.3,0-0.7,0.2-0.8,0.4l-1.1,1.2L6.4,7.6
		l1.2-1.2c0.5-0.5,0.5-1.3,0-1.8L4.5,1.2C4.2,1,4,0.8,3.7,0.8l0,0C3.3,0.8,3,1,2.8,1.2L1.4,2.7c-0.9,1-1.2,2.7-0.6,4
		c0.1,0.2,1.3,3.5,4.6,7c3.5,3.8,6.4,5.1,6.7,5.2c0.4,0.2,0.8,0.3,1.3,0.3c0.9,0,1.8-0.3,2.4-1l1.3-1.5
		C17.6,16.2,17.6,15.4,17.2,14.9z M16.5,16.2l-1.3,1.5c-0.7,0.8-1.9,0.9-2.7,0.5l0,0c0,0-2.9-1.2-6.4-5C2.8,9.7,1.6,6.4,1.6,6.4
		C1.2,5.4,1.3,4,2,3.2l1.3-1.5c0.1,0,0.2-0.1,0.3-0.1c0.1,0,0.2,0.1,0.2,0.1L7,5.1c0.2,0.2,0.2,0.5,0,0.7L5.8,7
		c-0.3,0.3-0.3,0.8,0,1.2l4.9,5.2c0.2,0.2,0.3,0.2,0.6,0.2l0,0c0.2,0,0.4-0.1,0.6-0.2l1.2-1.2c0.1-0.1,0.2-0.1,0.2-0.1
		s0.2,0,0.2,0.1l3.1,3.3C16.7,15.7,16.7,15.9,16.5,16.2z"/>
</g>
</svg>
