<?xml version="1.0" encoding="UTF-8"?>
<svg width="100%" height="100%" viewBox="0 0 230 178" version="1.1" xmlns="http://www.w3.org/2000/svg" xmlns:xlink="http://www.w3.org/1999/xlink">
    <defs>
        <linearGradient x1="100%" y1="90.4358216%" x2="-42.5256062%" y2="12.4741422%" id="linearGradient-1">
            <stop stop-color="#0381E1" offset="0%"></stop>
            <stop stop-color="#003781" offset="100%"></stop>
        </linearGradient>
    </defs>
    <g id="Guidline" stroke="none" stroke-width="1" fill="none" fill-rule="evenodd">
        <g id="C25" transform="translate(-706.000000, -356.000000)">
            <g id="Group-42" transform="translate(810.419390, 442.620400) rotate(-15.000000) translate(-810.419390, -442.620400) translate(678.419390, 338.620400)">
                <g id="Group-6" transform="translate(94.225170, 104.043562) scale(-1, 1) rotate(-32.000000) translate(-94.225170, -104.043562) translate(39.225170, 16.043562)" fill="#EAEAE4">
                    <path d="M7.72067981,0.00149057783 C7.72067981,0.00149057783 6.18067981,0.0494905778 4.64267981,0.181490578 C3.11067981,0.301490578 1.58067981,0.505490578 1.58067981,0.505490578 L1.56067981,0.509490578 L1.55467981,0.509490578 C0.570679809,0.645490578 -0.117320191,1.55149058 0.0166798089,2.53349058 C0.152679809,3.51749058 1.05867981,4.20349058 2.04267981,4.07149058 C2.04267981,4.07149058 3.48667981,3.87149058 4.94467981,3.74949058 C6.39467981,3.61949058 7.85267981,3.56749058 7.85267981,3.56749058 C8.83867981,3.52949058 9.60867981,2.69949058 9.57067981,1.71549058 C9.53267981,0.731490578 8.70467981,-0.0385094222 7.72067981,0.00149057783" id="Fill-555"></path>
                    <path d="M24.0446136,0.970613573 C24.0446136,0.970613573 22.5386136,0.666613573 21.0186136,0.428613573 C19.5066136,0.186613573 17.9786136,0.0126135731 17.9786136,0.0126135731 L17.9606136,0.0106135731 L17.9546136,0.0106135731 C16.9846136,-0.0953864269 16.1146136,0.604613573 16.0106136,1.57261357 C15.9046136,2.54061357 16.6046136,3.40861357 17.5726136,3.51461357 C17.5726136,3.51461357 19.0266136,3.67461357 20.4786136,3.90061357 C21.9246136,4.12061357 23.3606136,4.40461357 23.3606136,4.40461357 C24.3106136,4.59461357 25.2306136,3.97861357 25.4206136,3.03061357 C25.6086136,2.08061357 24.9926136,1.15861357 24.0446136,0.970613573" id="Fill-556"></path>
                    <path d="M37.9497354,6.17173543 L32.3177354,4.10573543 L32.3057354,4.10173543 C31.4097354,3.77973543 30.4217354,4.24773543 30.1017354,5.14373543 C29.7797354,6.03973543 30.2477354,7.02573543 31.1437354,7.34773543 L36.7917354,9.37173543 C37.6717354,9.68373543 38.6417354,9.23373543 38.9637354,8.35373543 C39.2857354,7.47173543 38.8337354,6.49373543 37.9497354,6.17173543" id="Fill-557"></path>
                    <path d="M53.7223199,13.1054338 L48.4683199,10.2054338 L48.4583199,10.2014338 C47.6503199,9.76343381 46.6383199,10.0634338 46.2023199,10.8714338 C45.7623199,11.6814338 46.0643199,12.6914338 46.8723199,13.1294338 L52.1483199,15.9874338 C52.9403199,16.4174338 53.9343199,16.1274338 54.3703199,15.3354338 C54.8083199,14.5414338 54.5183199,13.5414338 53.7223199,13.1054338" id="Fill-558"></path>
                    <path d="M62.5708922,18.3227618 L62.5628922,18.3147618 C61.8488922,17.7867618 60.8428922,17.9387618 60.3148922,18.6527618 C59.7868922,19.3647618 59.9388922,20.3727618 60.6508922,20.9007618 L65.4768922,24.4667618 C66.1748922,24.9827618 67.1628922,24.8407618 67.6868922,24.1427618 C68.2108922,23.4427618 68.0688922,22.4507618 67.3688922,21.9247618 L62.5708922,18.3227618" id="Fill-559"></path>
                    <path d="M74.6351502,28.4469139 L74.6271502,28.4389139 C74.0131502,27.8409139 73.0351502,27.8569139 72.4371502,28.4689139 C71.8431502,29.0829139 71.8551502,30.0609139 72.4691502,30.6569139 L76.7711502,34.8409139 C77.3711502,35.4229139 78.3311502,35.4149139 78.9211502,34.8169139 C79.5131502,34.2189139 79.5051502,33.2509139 78.9051502,32.6609139 L74.6351502,28.4469139" id="Fill-560"></path>
                    <path d="M84.6688237,40.5784427 L84.6628237,40.5724427 C84.1548237,39.9224427 83.2208237,39.8104427 82.5708237,40.3164427 C81.9248237,40.8224427 81.8088237,41.7584427 82.3168237,42.4064427 L86.0128237,47.1324427 C86.5088237,47.7664427 87.4248237,47.8824427 88.0648237,47.3904427 C88.7068237,46.8964427 88.8248237,45.9744427 88.3308237,45.3324427 L84.6688237,40.5784427" id="Fill-561"></path>
                    <path d="M94.6747847,52.724714 L94.6707847,52.718714 C94.2767847,52.032714 93.4027847,51.796714 92.7167847,52.190714 C92.0327847,52.584714 91.7967847,53.458714 92.1907847,54.142714 L95.1787847,59.344714 C95.5647847,60.014714 96.4187847,60.248714 97.0947847,59.870714 C97.7707847,59.486714 98.0107847,58.628714 97.6267847,57.950714 L94.6747847,52.724714" id="Fill-562"></path>
                    <path d="M102.655937,68.8880154 L102.651937,68.8800154 C102.379937,68.1720154 101.585937,67.8220154 100.877937,68.0900154 C100.171937,68.3640154 99.8199371,69.1580154 100.091937,69.8640154 L102.251937,75.4620154 C102.517937,76.1540154 103.291937,76.5000154 103.985937,76.2400154 C104.685937,75.9780154 105.035937,75.2000154 104.773937,74.5000154 L102.655937,68.8880154" id="Fill-563"></path>
                    <path d="M106.597004,83.0390975 L106.595004,83.0310975 C106.439004,82.3210975 105.739004,81.8750975 105.031004,82.0310975 C104.323004,82.1830975 103.875004,82.8870975 104.031004,83.5930975 L104.039004,83.6290975 C104.039004,83.6290975 104.357004,85.0750975 104.675004,86.5190975 C104.945004,87.9730975 105.213004,89.4250975 105.213004,89.4250975 L105.219004,89.4490975 C105.345004,90.1330975 105.999004,90.5970975 106.691004,90.4850975 C107.395004,90.3750975 107.875004,89.7110975 107.763004,89.0070975 C107.763004,89.0070975 107.523004,87.5030975 107.229004,86.0110975 C106.913004,84.5270975 106.597004,83.0390975 106.597004,83.0390975" id="Fill-564"></path>
                    <path d="M108.507922,99.2041159 L108.507922,99.1861159 C108.469922,98.4941159 107.877922,97.9621159 107.185922,98.0021159 C106.493922,98.0401159 105.963922,98.6301159 106.001922,99.3221159 C106.001922,99.3221159 106.083922,100.798116 106.107922,102.278116 C106.137922,103.756116 106.109922,105.236116 106.109922,105.236116 C106.097922,105.912116 106.635922,106.474116 107.313922,106.490116 C107.993922,106.506116 108.557922,105.966116 108.573922,105.286116 C108.573922,105.286116 108.613922,103.768116 108.593922,102.244116 C108.581922,100.724116 108.507922,99.2041159 108.507922,99.2041159" id="Fill-565"></path>
                    <path d="M108.381083,114.009966 C107.727083,113.925966 107.125083,114.381966 107.037083,115.037966 C107.037083,115.037966 106.839083,116.503966 106.583083,117.959966 C106.333083,119.417966 106.025083,120.865966 106.025083,120.865966 C105.893083,121.495966 106.295083,122.119966 106.925083,122.257966 C107.557083,122.393966 108.183083,121.991966 108.319083,121.357966 C108.319083,121.357966 108.647083,119.873966 108.915083,118.373966 C109.189083,116.881966 109.403083,115.373966 109.403083,115.373966 L109.405083,115.365966 L109.407083,115.357966 C109.495083,114.701966 109.037083,114.099966 108.381083,114.009966" id="Fill-566"></path>
                    <path d="M103.601784,130.059573 C103.005784,129.859573 102.363784,130.179573 102.163784,130.773573 C102.163784,130.773573 101.693784,132.179573 101.169784,133.567573 C100.653784,134.957573 100.083784,136.325573 100.083784,136.325573 C99.8517839,136.891573 100.117784,137.543573 100.681784,137.781573 C101.249784,138.019573 101.903784,137.749573 102.141784,137.183573 C102.141784,137.183573 102.735784,135.785573 103.277784,134.367573 C103.823784,132.949573 104.315784,131.511573 104.315784,131.511573 L104.321784,131.495573 C104.519784,130.899573 104.197784,130.257573 103.601784,130.059573" id="Fill-567"></path>
                    <path d="M98.6558607,144.148964 C98.1418607,143.846964 97.4818607,144.018964 97.1798607,144.530964 L94.1458607,149.706964 C93.8518607,150.206964 94.0158607,150.850964 94.5158607,151.148964 C95.0158607,151.448964 95.6658607,151.284964 95.9638607,150.780964 L99.0378607,145.628964 L99.0418607,145.620964 C99.3418607,145.108964 99.1698607,144.448964 98.6558607,144.148964" id="Fill-568"></path>
                    <path d="M87.8849402,158.39661 L84.2109402,163.14261 C83.8729402,163.58061 83.9489402,164.20861 84.3829402,164.54861 C84.8189402,164.88861 85.4469402,164.81461 85.7909402,164.37661 L89.4949402,159.65861 L89.5029402,159.65061 C89.8489402,159.20061 89.7669402,158.56061 89.3189402,158.21261 C88.8729402,157.86861 88.2309402,157.95061 87.8849402,158.39661" id="Fill-569"></path>
                    <path d="M77.3028513,170.221228 L77.2908513,170.227228 C77.2908513,170.227228 77.0088513,170.463228 76.5828513,170.813228 C76.1568513,171.153228 75.5808513,171.595228 74.9848513,172.005228 C73.8008513,172.841228 72.5268513,173.473228 72.5268513,173.473228 C72.0608513,173.705228 71.8668513,174.271228 72.0968513,174.743228 C72.3268513,175.213228 72.8968513,175.407228 73.3668513,175.177228 C73.3668513,175.177228 74.7928513,174.477228 76.0688513,173.587228 C76.7148513,173.149228 77.3308513,172.685228 77.7848513,172.325228 C78.2328513,171.963228 78.5288513,171.721228 78.5288513,171.721228 L78.5348513,171.717228 C78.9488513,171.377228 79.0068513,170.767228 78.6668513,170.353228 C78.3268513,169.939228 77.7168513,169.881228 77.3028513,170.221228" id="Fill-570"></path>
                    <path d="M62.817783,172.797033 C62.689783,172.691033 62.559783,172.581033 62.365783,172.401033 C61.993783,172.055033 61.533783,171.543033 61.127783,170.975033 C60.299783,169.851033 59.713783,168.531033 59.713783,168.531033 C59.513783,168.085033 58.989783,167.879033 58.537783,168.073033 C58.085783,168.273033 57.877783,168.801033 58.073783,169.253033 L58.087783,169.281033 C58.087783,169.281033 58.713783,170.725033 59.655783,172.035033 C60.119783,172.691033 60.661783,173.301033 61.109783,173.725033 C61.323783,173.929033 61.551783,174.125033 61.677783,174.225033 L61.879783,174.391033 L61.883783,174.393033 C62.279783,174.707033 62.855783,174.641033 63.169783,174.241033 C63.483783,173.847033 63.417783,173.273033 63.019783,172.957033 L62.817783,172.797033" id="Fill-571"></path>
                    <path d="M57.686032,152.836008 C57.678032,152.372008 57.298032,151.998008 56.834032,152.000008 C56.368032,152.004008 55.996032,152.388008 56.000032,152.852008 C56.000032,152.852008 56.006032,154.380008 56.096032,155.912008 C56.176032,157.434008 56.354032,158.962008 56.354032,158.962008 L56.356032,158.978008 C56.412032,159.450008 56.842032,159.786008 57.316032,159.728008 C57.788032,159.668008 58.124032,159.240008 58.068032,158.766008 C58.068032,158.766008 57.886032,157.294008 57.798032,155.806008 C57.700032,154.326008 57.686032,152.836008 57.686032,152.836008" id="Fill-572"></path>
                    <path d="M57.9784307,138.017296 C57.5524307,137.927296 57.1324307,138.197296 57.0424307,138.623296 C57.0424307,138.623296 56.7204307,140.107296 56.4664307,141.599296 C56.2044307,143.091296 56.0084307,144.595296 56.0084307,144.595296 L56.0064307,144.611296 C55.9504307,145.053296 56.2664307,145.459296 56.7104307,145.513296 C57.1524307,145.569296 57.5564307,145.251296 57.6104307,144.811296 C57.6104307,144.811296 57.7944307,143.333296 58.0404307,141.869296 C58.2804307,140.405296 58.5864307,138.951296 58.5864307,138.951296 C58.6724307,138.525296 58.4024307,138.107296 57.9784307,138.017296" id="Fill-573"></path>
                    <path d="M63.552731,122.087101 C63.192731,121.895101 62.748731,122.031101 62.558731,122.391101 C62.558731,122.391101 61.836731,123.739101 61.218731,125.133101 C60.590731,126.515101 60.052731,127.941101 60.052731,127.941101 L60.048731,127.949101 L60.046731,127.957101 C59.902731,128.347101 60.102731,128.781101 60.492731,128.927101 C60.884731,129.071101 61.318731,128.871101 61.464731,128.481101 C61.464731,128.481101 61.976731,127.091101 62.578731,125.739101 C63.170731,124.383101 63.858731,123.079101 63.858731,123.079101 C64.044731,122.723101 63.910731,122.277101 63.552731,122.087101" id="Fill-574"></path>
                    <path d="M75.5356768,110.041681 C75.5356768,110.041681 74.0436768,110.581681 72.7236768,111.435681 C72.0596768,111.849681 71.4336768,112.319681 70.9816768,112.685681 C70.5396768,113.061681 70.2456768,113.311681 70.2456768,113.311681 L70.2436768,113.315681 C69.9496768,113.569681 69.9176768,114.011681 70.1696768,114.307681 C70.4236768,114.599681 70.8676768,114.631681 71.1616768,114.377681 L71.1756768,114.365681 C71.1756768,114.365681 71.4516768,114.127681 71.8656768,113.767681 C72.2836768,113.425681 72.8576768,112.991681 73.4636768,112.603681 C74.6676768,111.815681 76.0116768,111.323681 76.0116768,111.323681 C76.3616768,111.189681 76.5476768,110.791681 76.4156768,110.443681 C76.2836768,110.089681 75.8896768,109.913681 75.5356768,110.041681" id="Fill-575"></path>
                    <path d="M90.2899357,114.972192 C90.2899357,114.972192 89.0439357,114.078192 87.6899357,113.344192 C87.0159357,112.972192 86.3179357,112.636192 85.7839357,112.410192 C85.2499357,112.192192 84.8919357,112.046192 84.8919357,112.046192 L84.8879357,112.046192 C84.5559357,111.914192 84.1779357,112.074192 84.0459357,112.410192 C83.9139357,112.742192 84.0759357,113.116192 84.4099357,113.250192 L84.4299357,113.258192 C84.4299357,113.258192 84.7679357,113.394192 85.2759357,113.594192 C85.7779357,113.808192 86.4359357,114.116192 87.0779357,114.464192 C88.3679357,115.152192 89.5719357,116.004192 89.5719357,116.004192 C89.8539357,116.198192 90.2439357,116.136192 90.4439357,115.856192 C90.6479357,115.570192 90.5819357,115.180192 90.2999357,114.976192 L90.2899357,114.972192" id="Fill-576"></path>
                    <path d="M99.0231755,122.486391 C98.0631755,121.314391 97.0411755,120.198391 97.0411755,120.198391 L97.0331755,120.190391 C96.8111755,119.948391 96.4331755,119.936391 96.1911755,120.158391 C95.9491755,120.380391 95.9351755,120.760391 96.1591755,120.998391 C96.1591755,120.998391 97.1691755,122.092391 98.1191755,123.236391 C99.0731755,124.372391 99.9671755,125.560391 99.9671755,125.560391 C100.159176,125.814391 100.521176,125.870391 100.773176,125.678391 C101.029176,125.486391 101.081176,125.122391 100.891176,124.870391 C100.891176,124.870391 99.9891755,123.654391 99.0231755,122.486391" id="Fill-577"></path>
                    <path d="M107.035661,134.301992 L107.031661,134.293992 C106.889661,134.023992 106.559661,133.921992 106.291661,134.063992 C106.025661,134.203992 105.921661,134.535992 106.063661,134.801992 C106.063661,134.801992 106.755661,136.117992 107.375661,137.469992 C108.003661,138.817992 108.559661,140.199992 108.559661,140.199992 C108.667661,140.469992 108.975661,140.601992 109.243661,140.493992 C109.515661,140.383992 109.647661,140.079992 109.537661,139.805992 C109.537661,139.805992 108.983661,138.399992 108.353661,137.023992 C107.731661,135.645992 107.035661,134.301992 107.035661,134.301992" id="Fill-578"></path>
                </g>
                <g id="Group-7" transform="translate(214.494241, 72.211947) rotate(-18.000000) translate(-214.494241, -72.211947) translate(175.494241, 33.211947)">
                    <path d="M39.572,9.05409712 L25.376,23.2340971 L13.264,20.0700971 L10.718,34.6680971 L13.264,35.3600971 L2,43.3000971 L14.012,55.8980971 L77.532,77.4800971 L45.398,10.1320971 C44.912,9.05409712 43.922,8.27809712 42.766,8.06609712 C41.596,7.83609712 40.408,8.21609712 39.572,9.05409712 Z" id="Fill-546" fill="#003A83"></path>
                    <path d="M44.2591726,2.13391686 C43.7731726,1.05391686 42.7831726,0.277916862 41.6271726,0.065916862 C40.4571726,-0.164083138 39.2691726,0.217916862 38.4331726,1.05391686 L1.04917259,38.4219169 C0.211172594,39.2579169 -0.152827406,40.4599169 0.0591725942,41.6179169 C0.273172594,42.7879169 1.04917259,43.7779169 2.12917259,44.2499169 L76.3931726,77.4799169 C76.6991726,77.6179169 77.0631726,77.5379169 77.3071726,77.3119169 C77.5351726,77.0699169 77.6111726,76.7019169 77.4731726,76.3979169 L44.2591726,2.13391686" id="Fill-547" fill="url(#linearGradient-1)"></path>
                    <polyline id="Fill-548" fill="#003A83" points="26.112 16 14 20.836 14 28.126 63.602 63.09 64.18 63.074 64.196 62.512 26.112 16"></polyline>
                </g>
            </g>
        </g>
    </g>
</svg>