<?xml version="1.0" encoding="UTF-8"?>
<svg width="60px" height="60px" viewBox="0 0 60 60" version="1.1" xmlns="http://www.w3.org/2000/svg" xmlns:xlink="http://www.w3.org/1999/xlink">
    <!-- Generator: sketchtool 53 (72520) - https://sketchapp.com -->
    <title>4112EA71-0D89-4DC4-8ADB-1DF2111B3DDD</title>
    <desc>Created with sketchtool.</desc>
    <g id="Guidline" stroke="none" stroke-width="1" fill="none" fill-rule="evenodd">
        <g id="C23" transform="translate(-385.000000, -446.000000)">
            <g id="Customer/icon/man" transform="translate(385.000000, 446.000000)">
                <g id="Group-2">
                    <circle id="Oval" fill="#ECECEC" cx="30" cy="30" r="30"></circle>
                    <g id="icon/man-grey" transform="translate(15.000000, 15.000000)" fill="#767676">
                        <path d="M28.5,28.5 C28.5,29.3284271 27.8284271,30 27,30 C26.1715729,30 25.5,29.3284271 25.5,28.5 L25.5,25.5 C25.5,23.0147186 23.4852814,21 21,21 L9,21 C6.51471863,21 4.5,23.0147186 4.5,25.5 L4.5,28.5 C4.5,29.3284271 3.82842712,30 3,30 C2.17157288,30 1.5,29.3284271 1.5,28.5 L1.5,25.5 C1.5,21.3578644 4.85786438,18 9,18 L21,18 C25.1421356,18 28.5,21.3578644 28.5,25.5 L28.5,28.5 Z" id="Shape"></path>
                        <path d="M15,15 C10.8578644,15 7.5,11.6421356 7.5,7.5 C7.5,3.35786438 10.8578644,0 15,0 C19.1421356,0 22.5,3.35786438 22.5,7.5 C22.5,11.6421356 19.1421356,15 15,15 Z M15,12 C17.4852814,12 19.5,9.98528137 19.5,7.5 C19.5,5.01471863 17.4852814,3 15,3 C12.5147186,3 10.5,5.01471863 10.5,7.5 C10.5,9.98528137 12.5147186,12 15,12 Z" id="Oval"></path>
                    </g>
                </g>
            </g>
        </g>
    </g>
</svg>