<svg xmlns="http://www.w3.org/2000/svg" width="283" height="392" viewBox="0 0 283 392">
    <defs>
        <linearGradient id="a" x1="50%" x2="-139.749%" y1="12.094%" y2="91.438%">
            <stop offset="0%" stop-color="#57748D"/>
            <stop offset="100%" stop-color="#082844"/>
        </linearGradient>
        <linearGradient id="b" x1="-34.913%" y1="100%" y2="94.404%">
            <stop offset="0%" stop-color="#008CA7"/>
            <stop offset="100%" stop-color="#62AFBC"/>
        </linearGradient>
        <linearGradient id="c" x1="50%" x2="50%" y1="100%" y2="0%">
            <stop offset="0%" stop-color="#444"/>
            <stop offset="100%" stop-color="#A6A6A6"/>
        </linearGradient>
        <linearGradient id="d" x1="50%" x2="50%" y1="0%" y2="100%">
            <stop offset="0%" stop-color="#C0E9F5"/>
            <stop offset="100%" stop-color="#8CCEE8"/>
        </linearGradient>
        <linearGradient id="e" x1="50%" x2="50%" y1="0%" y2="100%">
            <stop offset="0%" stop-color="#9CD6E7"/>
            <stop offset="100%" stop-color="#63ADCB"/>
        </linearGradient>
    </defs>
    <g fill="none" fill-rule="evenodd">
        <path fill="#005077" d="M120.15 391.58c41.828 0 55.32-20.294 55.32-27.535s-33.908-13.112-75.735-13.112S24 356.803 24 364.045c0 7.241 54.323 27.535 96.15 27.535z" opacity=".365"/>
        <path fill="#333" d="M134.78 339.986l-3.67 14.353a5.621 5.621 0 0 1-.718 1.513l-2.6 3.853c-1.65 2.447-.461 5.792 2.365 6.652 0 0 5.241 1.842 10.648 3.613 5.533 1.813 12.49.298 12.49-1.158 0-3.238-3.024-.669-8.091-4.05-1.697-1.134-3.45-2.319-5.008-3.543-4.36-3.414-.556-12.063 2.114-16.934.96-1.752-.06-6.124-2.015-6.538l-1.265-.272a3.648 3.648 0 0 0-4.25 2.51"/>
        <path fill="#F0ACA0" d="M138.054 217.033c1.054-2.653 1.821-5.426 2.345-6.434.221-.42 1.151-1.367 1.401-1.657.733-.86 2.008-2.075 2.176-3.192l.781-4.687c.34-2.27 1.7-3.829 3.975-3.49 2.464.369 3.267 2.635 2.617 5.034l-.493 3.288c-.522 1.922-.124 3.895.172 5.86.605 4.008-1.051 8.385-2.712 11.775-1.036 2.126-4.09 3.066-8.22 4.096-2.03.504-5.329.683-3.756-1.428 1.319-1.769 7.466-3.736 6.66-10.047-.042-.31-.2-1.098-.578-1.168-1.127-.204-1.712 2.278-2.438 3.42-1.02 1.604-2.33 2.117-3.04 1.827-.752-.31.358-1.304 1.11-3.197"/>
        <path fill="#139096" d="M125.18 70.688c6.499 20.44 23.183 58.701 47.482 72.282 16.618 9.289 56.606 22.675 56.606 22.675s1.335-1.635 2.18-3.135c.877-1.551 1.454-3.546 1.454-3.546s-49.788-25.489-56.462-32.875c-6.674-7.39-28.954-54.512-35.618-61.894-7.781-8.62-19.281-4.958-15.642 6.493"/>
        <path fill="#F0ACA0" d="M146.835 169.617L131.09 59.165l-42.486-5.821L66.505 168.82l80.33.797"/>
        <path fill="#333" d="M55.612 337.272l-4.297 14.242a6.542 6.542 0 0 1-.843 1.774l-3.044 4.514c-1.935 2.867-.544 6.783 2.768 7.794 0 0 6.142 2.154 12.476 4.234 6.482 2.125 14.632.346 14.632-1.36 0-3.792-3.542-.783-9.475-4.745-1.989-1.328-4.043-2.716-5.873-4.151-5.108-4.001-.648-14.133 2.479-19.84 1.124-2.053-.068-4.6-2.36-5.087l-1.481-.317a4.276 4.276 0 0 0-4.982 2.942"/>
        <path fill="url(#a)" d="M143.917 170.686l-47.077-3.945s-16.662 59.675-21.086 86.17c-3.202 19.193 25.922 93.393 25.922 93.393 2.882 1.257 5.678-.34 8.662-1.084 0 0-8.84-65.54-5.831-81.496 3.136-16.648 28.264-50.374 29.878-59.212 3.297-18.052 9.532-33.826 9.532-33.826" transform="matrix(-1 0 0 1 243.425 0)"/>
        <path fill="url(#a)" d="M36.542 171.282c-4.86 26.037-15.718 64.976 5.198 101.552a22466 22466 0 0 0 42.884 74.608c2.828.114 5.397-.908 7.78-2.719 0 0-3.668-16.58-8.967-35.946-6.065-22.147-13.746-48.203-11.557-61.788 4.1-25.46 8.813-59.368 7.383-75.833-1.427-16.467-40.165-13.566-42.721.126" transform="matrix(-1 0 0 1 145.769 0)"/>
        <path fill="#FFF" d="M146.185 171.19a4.124 4.124 0 0 0 2.277-4.386L131.09 59.164l-42.486-5.82-22.836 113.659a3.909 3.909 0 0 0 3.103 4.616c7.91 1.498 26.99 4.624 48.344 4.624 15.939-.003 24.897-3.095 28.97-5.053"/>
        <path fill="url(#b)" d="M37.708 81.843c5.18 13.99 13.418 41.619 8.691 65.896-6.664 34.204-15.232 48.031-4.125 56.002 11.105 7.97 32.399-5.331 33.015-9.764.615-4.435-4.144-58.898-9.536-82.497-5.394-23.596-20.505-57.518-20.505-57.518l-7.88.705s-2.132 20.506.34 27.176" transform="matrix(-1 0 0 1 135.857 0)"/>
        <path fill="#139096" d="M123.633 58.144s3.297 15.338.726 38.176c-2.57 22.835-8.526 92.381 12.294 102.884 6.592 3.325 21.649-13.815 21.649-16.864 0-5.465-5.026-23.754-9.789-40.38-3.824-13.356-7.689-57.985-9.06-75.029a8.362 8.362 0 0 0-7.218-7.609l-8.602-1.178"/>
        <path fill="url(#c)" d="M106.533 11.463c-.003.797-.01 1.691-.028 2.662.153 2.287.807 5.638 3.08 8.393 3.858 4.675-1.745 9.027-3.051 12.21-1.309 3.181.306 7.902-3.35 10.061-3.465 2.046-13.001 2.663-15.42-.497-10.904-1.575-23.742-7.397-23.282-24.42.054-1.917.013-4.309.952-6.097C68.916 7.154 77.364.245 86.291.245c11.335 0 20.243 1.425 20.243 10.454l-.001.754v.01z" transform="matrix(-1 0 0 1 199.39 0)"/>
        <path fill="#F0ACA0" d="M113.628 8.32c-9.48 0-13.017 6.737-13.197 19.2-.07 4.67 2.035 9.294 3.727 12.245 1.257 2.194 1.602 4.794.886 7.217l-2.083 7.033c-1.416 6.526 1.69 10.105 6.273 11.407 2.27.642 4.99.143 6.973-1.134 2.355-1.522 2.549-4.791 2.112-7.559l-.537-2.007c-.726-2.702.845-5.614 3.581-6.213 7.303-1.592 8.347-9.19 10.304-20.989 2.04-12.296-8.556-19.2-18.039-19.2"/>
        <path fill="url(#c)" d="M78.379 2.848l5.435 1.65c2 .606 4.133.62 6.138.039l10.854-3.143c6.577 0 17.44 3.705 16.067 13.178l-1.211 6.698c-.486 2.678-2.722 4.68-5.436 4.912a2.125 2.125 0 0 1-2.054 1.568 2.126 2.126 0 0 1-2.126-2.123c0-3.022-2.125-5.6-5.08-6.262-3.622-.811-7.491-1.005-11.541.08-7.543 2.024-15.501-2.644-16.254-10.406a15.236 15.236 0 0 1-.075-1.497c0-3.131 2.595-5.436 5.283-4.694" transform="matrix(-1 0 0 1 214.088 0)"/>
        <path fill="#F0ACA0" d="M105.656 27.75c0 2.889-1.076 5.232-3.865 5.232-2.785 0-4.577-3.974-4.577-6.863 0-2.89 1.792-3.6 4.577-3.6 2.79 0 3.865 2.343 3.865 5.231"/>
        <path fill="#E98C80" d="M128.87 36.387a2.168 2.168 0 0 1-2.124 2.632 2.172 2.172 0 0 1-2.17-2.045l-.008-9.219c0-.344.138-.674.379-.916.245-.242.575-.378.917-.378.49 0 .916.342 1.02.822l1.986 9.104"/>
        <path fill="#A0D8EB" d="M109.377 74.732c-.563 0-1.063.366-1.233.902-1.459 4.638-8.07 26.034-9.546 37.562-1.202 9.403 2.605 25.952 4.797 34.366a12.993 12.993 0 0 0 5.99 7.917l1.49.88a2.648 2.648 0 0 0 3.637-.955l1.216-2.1a6.05 6.05 0 0 0 .42-5.218c-2.566-6.67-8.868-24.382-8.33-36.143.19-4.134 4.206-29.313 5.237-35.72a1.282 1.282 0 0 0-1.274-1.486l-2.404-.005"/>
        <path fill="#475796" d="M110.832 71.616a1.286 1.286 0 0 0-1.212.928c-1.357 4.672-7.482 26.206-8.696 37.768-.99 9.427 3.188 25.887 5.572 34.25a12.984 12.984 0 0 0 6.166 7.78l1.513.842a2.646 2.646 0 0 0 3.612-1.032l1.168-2.128c.886-1.611 1-3.528.303-5.23-2.719-6.608-9.417-24.173-9.145-35.943.097-4.139 3.542-29.398 4.428-35.83a1.285 1.285 0 0 0-1.306-1.456l-2.403.05"/>
        <path fill="#475796" d="M114.364 72.256h-4.083c-.685 0-1.241-.558-1.241-1.241V66.94c0-.686.556-1.24 1.24-1.24l3.686-.396c.687 0 1.641.95 1.641 1.636v4.074c0 .683-.558 1.24-1.243 1.24"/>
        <path fill="#FFFFFE" d="M103.218 53.147l-6.883 1.202s1.372 11.087 6.859 19.395c.39.59 1.274.588 1.69.014l4.882-6.773a2.415 2.415 0 0 0 .116-2.647l-6.664-11.19M118.166 56.077l6.88 2.261s.219 6.853-5.081 14.744c-.4.591-1.29.567-1.678-.031l-3.993-6.195a2.456 2.456 0 0 1-.15-2.394l4.022-8.385"/>
        <path fill="#8CCEE8" d="M197.658 149.509c13.669 1.078 24.99-10.222 23.913-23.868-.849-10.734-9.56-19.43-20.312-20.276-13.669-1.075-24.992 10.225-23.913 23.869.846 10.734 9.559 19.431 20.312 20.275zM153.386 132.3v-9.725c0-2.252 1.83-4.08 4.085-4.08h3.03a4.52 4.52 0 0 0 4.28-3.03 36.785 36.785 0 0 1 1.672-4.027 4.513 4.513 0 0 0-.875-5.172l-2.144-2.14a4.075 4.075 0 0 1 0-5.77l6.89-6.876a4.09 4.09 0 0 1 5.78 0l2.144 2.14a4.53 4.53 0 0 0 5.18.872 36.63 36.63 0 0 1 4.036-1.67 4.513 4.513 0 0 0 3.035-4.27V85.53a4.085 4.085 0 0 1 4.087-4.082h9.743a4.084 4.084 0 0 1 4.087 4.082v3.023a4.513 4.513 0 0 0 3.036 4.27 36.762 36.762 0 0 1 4.036 1.67 4.53 4.53 0 0 0 5.18-.871l2.144-2.14a4.09 4.09 0 0 1 5.78 0l6.888 6.876a4.072 4.072 0 0 1 0 5.769l-2.142 2.14a4.51 4.51 0 0 0-.875 5.172 36.148 36.148 0 0 1 1.672 4.027 4.52 4.52 0 0 0 4.279 3.03h3.029a4.085 4.085 0 0 1 4.088 4.08v9.725c0 2.254-1.83 4.08-4.088 4.08h-3.03a4.523 4.523 0 0 0-4.278 3.03 36.044 36.044 0 0 1-1.672 4.029 4.51 4.51 0 0 0 .875 5.172l2.142 2.138a4.074 4.074 0 0 1 0 5.771l-6.889 6.876a4.09 4.09 0 0 1-5.78 0l-2.143-2.14a4.534 4.534 0 0 0-5.18-.873 36.762 36.762 0 0 1-4.036 1.67 4.517 4.517 0 0 0-3.036 4.272v3.023c0 2.254-1.829 4.08-4.087 4.08h-9.743a4.084 4.084 0 0 1-4.087-4.08v-3.023a4.517 4.517 0 0 0-3.035-4.273 36.63 36.63 0 0 1-4.036-1.67 4.533 4.533 0 0 0-5.18.874l-2.144 2.14a4.09 4.09 0 0 1-5.78 0l-6.89-6.876a4.077 4.077 0 0 1 0-5.77l2.144-2.14a4.513 4.513 0 0 0 .875-5.171 36.677 36.677 0 0 1-1.673-4.029 4.522 4.522 0 0 0-4.28-3.03h-3.029a4.082 4.082 0 0 1-4.085-4.08z"/>
        <path fill="url(#d)" d="M62.874 88.843c-17.714 1.395-32.387-13.252-30.99-30.935 1.1-13.91 12.389-25.179 26.325-26.274 17.714-1.395 32.388 13.249 30.99 30.931-1.099 13.91-12.39 25.183-26.325 26.278zm57.38-22.303V53.935a5.292 5.292 0 0 0-5.298-5.287h-3.925a5.86 5.86 0 0 1-5.546-3.926 47.16 47.16 0 0 0-2.17-5.22 5.85 5.85 0 0 1 1.135-6.702l2.777-2.773a5.28 5.28 0 0 0 0-7.479L98.3 13.635a5.305 5.305 0 0 0-7.492 0l-2.777 2.774a5.874 5.874 0 0 1-6.714 1.132 47.48 47.48 0 0 0-5.23-2.164 5.852 5.852 0 0 1-3.935-5.535V5.923A5.293 5.293 0 0 0 66.854.635H54.23a5.292 5.292 0 0 0-5.297 5.288v3.919a5.852 5.852 0 0 1-3.934 5.535 47.348 47.348 0 0 0-5.23 2.164 5.874 5.874 0 0 1-6.715-1.132l-2.777-2.774a5.305 5.305 0 0 0-7.492 0l-8.928 8.913a5.282 5.282 0 0 0 0 7.479l2.778 2.773a5.85 5.85 0 0 1 1.134 6.702 47.141 47.141 0 0 0-2.167 5.22c-.816 2.355-3.05 3.926-5.546 3.926H6.13A5.292 5.292 0 0 0 .83 53.935V66.54a5.292 5.292 0 0 0 5.299 5.287h3.925c2.497 0 4.73 1.57 5.546 3.927a47.167 47.167 0 0 0 2.167 5.22 5.85 5.85 0 0 1-1.134 6.703l-2.778 2.773a5.282 5.282 0 0 0 0 7.479l8.928 8.91a5.305 5.305 0 0 0 7.492 0l2.777-2.771a5.872 5.872 0 0 1 6.714-1.133c1.69.82 3.436 1.544 5.231 2.164a5.852 5.852 0 0 1 3.934 5.536v3.918a5.292 5.292 0 0 0 5.297 5.288h12.625a5.292 5.292 0 0 0 5.298-5.288v-3.918a5.852 5.852 0 0 1 3.934-5.536 47.49 47.49 0 0 0 5.231-2.164 5.871 5.871 0 0 1 6.714 1.133l2.777 2.772a5.305 5.305 0 0 0 7.492 0l8.927-8.911a5.28 5.28 0 0 0 0-7.479l-2.777-2.773a5.85 5.85 0 0 1-1.135-6.702 47.186 47.186 0 0 0 2.17-5.221 5.86 5.86 0 0 1 5.546-3.927h3.925a5.292 5.292 0 0 0 5.297-5.287z" transform="matrix(-1 0 0 1 260 67.2)"/>
        <path fill="url(#e)" d="M98.875 60.238h-2.44c0 9.901-4.014 18.842-10.513 25.333-6.503 6.488-15.46 10.494-25.38 10.494-9.92 0-18.876-4.006-25.38-10.494-6.5-6.491-10.51-15.432-10.512-25.333.002-9.902 4.013-18.843 10.513-25.334 6.503-6.486 15.46-10.492 25.38-10.494 9.919.002 18.876 4.008 25.379 10.494 6.5 6.491 10.512 15.432 10.512 25.334h4.882c-.002-22.48-18.255-40.697-40.774-40.699-22.52.002-40.77 18.22-40.772 40.699.002 22.477 18.252 40.698 40.772 40.7 22.519-.002 40.772-18.223 40.774-40.7h-2.441" transform="matrix(-1 0 0 1 260 67.2)"/>
        <path fill="#F0ACA0" d="M173.286 77.506c-1.685-1.49-1.966-4.09-.64-5.93l1.597-2.224c1.853-2.57 3.224-5.543 3.146-8.758-.055-2.19 1.316-8.356 3.489-7.973 1.88.33-.118 7.916 1.782 7.73.879-.085 4.014-5.482 6.334-8.706 1.26-1.75 3.625-2.616 4.037-1.046.257.98 1.21 1.153 2.398 2.022 1.114.816.517 6.345.493 7.793-.029 1.811.63 2.36-2.079 5.57-2.057 2.442-11.036 8.536-11.036 8.536l-3.963 2.846a4.058 4.058 0 0 1-5.558.14"/>
        <path fill="url(#b)" d="M57.85 70.494s34.303 32.875 42.353 35.621c8.05 2.743 31.061-44.883 35.183-49.796 6.825-8.137 21.561.253 19.017 15.319-3.21 19.006-48.62 55.619-54.2 56.142-5.581.524-48.2-50.147-48.2-50.147.431-2.321 2.449-4.706 5.848-7.14" transform="matrix(-1 0 0 1 230.697 0)"/>
    </g>
</svg>
