<svg xmlns="http://www.w3.org/2000/svg" width="130" height="32" viewBox="0 0 130 32">
    <path fill="#003781" fill-rule="evenodd" d="M5.107 25.376l1.514-5.03h5.981l1.417 5.03h5.542L14.055 6.19c-.317-1.133-1.008-1.657-2.208-1.657h-7.84v1.812h.66c.818 0 1.261.317 1.261.94 0 .407-.092.75-.417 1.684L0 25.376h5.107zm6.74-8.44H7.408l2.363-7.653 2.076 7.654zm14.096 8.44h-4.94V7.509c0-.82-.345-1.163-1.162-1.163h-.316V4.534h4.847c.98 0 1.571.594 1.571 1.597v19.245zm8.405 0h-4.944V7.509c0-.82-.346-1.163-1.169-1.163h-.308V4.534h4.846c.974 0 1.575.594 1.575 1.597v19.245zm8.527 0h-4.916V12.719c0-.813-.345-1.186-1.164-1.186h-.281V9.755h4.783c.977 0 1.578.592 1.578 1.591v14.03zm.092-18.94c0 1.414-1.042 2.251-2.832 2.251-1.762 0-2.839-.837-2.839-2.251 0-1.398 1.077-2.243 2.839-2.243 1.79 0 2.832.845 2.832 2.243zm4.081 7.79l-1.094-3.002c1.471-.721 2.104-.972 3.338-1.25a16.9 16.9 0 0 1 3.772-.443c4.002 0 5.389 1.381 5.389 5.348v7.44c0 .997.313 1.375 1.162 1.375h.222v1.682h-4.501c-.98 0-1.48-.497-1.48-1.465v-.217c-1.01.781-1.42 1.037-2.11 1.341-.79.31-1.672.496-2.648.496-2.675 0-3.964-1.436-3.964-4.404 0-2.341.937-3.863 2.924-4.654a11.398 11.398 0 0 1 1.86-.59c1.136-.25 1.765-.377 3.779-.693v-.348c0-1.367-.473-1.836-1.8-1.836-1.413 0-3.209.439-4.849 1.22zm6.649 3.647v3.037c-.822.844-1.825 1.35-2.673 1.35-.887 0-1.197-.433-1.197-1.603 0-1.156.247-1.682 1.13-2.023.66-.284 1.51-.533 2.74-.76zm13.309 7.503h-4.91V12.719c0-.813-.35-1.186-1.168-1.186h-.284V9.755h4.664c1.006 0 1.518.497 1.518 1.47v.623c1.817-1.687 3.17-2.279 5.092-2.279 1.295 0 2.302.37 2.965 1.094.79.838.97 1.62.97 4.092v10.62h-4.91v-9.897c0-1.571-.249-1.98-1.291-1.98-.977 0-1.824.409-2.646 1.316v10.562zm23.422-3.28v3.28H78.055V22.16l6.613-9.22h-3.532c-.782 0-1.16.345-1.16 1.062v.278h-1.824v-2.838c0-1.16.535-1.69 1.7-1.69h10.262v3.224l-6.55 9.12h6.864zM130 16.002C130 25.163 123.103 32 113.88 32c-9.23 0-16.124-6.837-16.124-15.998C97.756 6.852 104.65 0 113.879 0 123.103 0 130 6.852 130 16.002zm-2.74 0c0 7.782-5.636 13.439-13.38 13.439-7.746 0-13.384-5.657-13.384-13.439 0-7.783 5.638-13.44 13.383-13.44 7.745 0 13.382 5.692 13.382 13.44zm-17.758 8.976V9.346h-2.74c-1.356 0-1.887.498-1.887 1.879v13.753h4.627zm8.758 0h4.626V11.225c0-1.38-.537-1.879-1.893-1.879h-2.733v15.632zm-2.054 0V7.318c0-1.406-.503-1.88-1.881-1.88h-4.164V7.41h.249c.95 0 1.135.212 1.135 1.348v16.22h4.66z"/>
</svg>
