<svg xmlns="http://www.w3.org/2000/svg" xmlns:xlink="http://www.w3.org/1999/xlink" width="90" height="90" viewBox="0 0 90 90">
    <defs>
        <path id="a" d="M.013.087h89.9v69.697H.013z"/>
    </defs>
    <g fill="none" fill-rule="evenodd">
        <g transform="translate(0 10)">
            <mask id="b" fill="#fff">
                <use xlink:href="#a"/>
            </mask>
            <path fill="#7FE4E0" d="M37.932 59.381c-.972 0-1.756.777-1.756 1.734s.784 1.734 1.756 1.734c.969 0 1.756-.777 1.756-1.734s-.787-1.734-1.756-1.734z" mask="url(#b)"/>
            <path fill="#7FE4E0" d="M88.157 66.316H84.02L63.334 36.543a5.289 5.289 0 0 0-4.332-2.26h-.012a5.286 5.286 0 0 0-4.33 2.241l-2.604 3.714-9.794-14.096a5.29 5.29 0 0 0-2.592-1.957v-6.76h19.335c.71 0 1.35-.423 1.622-1.071a1.718 1.718 0 0 0-.38-1.89l-5.783-5.709 5.783-5.709c.501-.496.652-1.24.38-1.89a1.757 1.757 0 0 0-1.622-1.07H37.932c-.97 0-1.756.777-1.756 1.734v22.356a5.253 5.253 0 0 0-2.589 1.946l-7.862 11.211-.02.03L5.401 66.316H1.756c-.97 0-1.756.776-1.756 1.734 0 .957.786 1.734 1.756 1.734h86.4c.97 0 1.757-.777 1.757-1.734 0-.958-.787-1.734-1.756-1.734zm-17.983 0L60.109 51.83l6.653-4.223 12.999 18.71h-9.587zM57.548 38.498a1.747 1.747 0 0 1 1.447-.747 1.74 1.74 0 0 1 1.444.753l4.336 6.241-6.653 4.224-3.94-5.672 3.366-4.799zM39.67 3.554h15.096L50.739 7.53a1.717 1.717 0 0 0 0 2.451l4.027 3.976H39.67V3.554zm-3.195 24.54a1.741 1.741 0 0 1 1.443-.746l.014.001h.004c.58.005 1.1.278 1.43.753l6.608 9.512-8.19 4.209-8.038-4.132 6.729-9.596zM9.674 66.317L27.73 40.565l9.242 4.75a1.775 1.775 0 0 0 1.622 0l9.38-4.82 17.939 25.821H9.674z" mask="url(#b)"/>
        </g>
        <path fill="#7FE4E0" d="M44.956 69.381c-.97 0-1.756.776-1.756 1.734 0 .957.787 1.734 1.756 1.734h7.025c.97 0 1.756-.777 1.756-1.734 0-.958-.786-1.734-1.756-1.734h-7.025z"/>
    </g>
</svg>
