<?xml version="1.0" encoding="utf-8"?>
<!-- Generator: Adobe Illustrator 22.0.1, SVG Export Plug-In . SVG Version: 6.00 Build 0)  -->
<svg version="1.1" id="圖層_1" xmlns="http://www.w3.org/2000/svg" xmlns:xlink="http://www.w3.org/1999/xlink" x="0px" y="0px"
	 viewBox="0 0 20 14" style="enable-background:new 0 0 20 14;" xml:space="preserve">
<style type="text/css">
	.st0{fill:#767676;}
</style>
<g>
	<path id="path-1_2_" class="st0" d="M17.9,0.3H2.1c-0.7,0-1.2,0.6-1.2,1.3v10.8c0,0.7,0.6,1.2,1.2,1.2h15.8c0.7,0,1.2-0.6,1.2-1.2
		V1.6C19.2,0.9,18.6,0.3,17.9,0.3z M2.1,1.2h15.8c0.2,0,0.4,0.2,0.4,0.4V3L10,7.7L1.7,3V1.6C1.7,1.3,1.8,1.2,2.1,1.2z M17.9,12.8
		H2.1c-0.2,0-0.4-0.2-0.4-0.4V4l8.2,4.7c0.1,0,0.2,0.1,0.2,0.1s0.2,0,0.2-0.1L18.3,4v8.4C18.3,12.7,18.2,12.8,17.9,12.8z"/>
</g>
</svg>
