<svg xmlns="http://www.w3.org/2000/svg" width="99" height="120" viewBox="0 0 99 120">
    <g fill="none" fill-rule="evenodd">
        <path fill="#95C5E0" d="M17.487 11.216a.438.438 0 1 0-.619.619.438.438 0 0 0 .62-.62"/>
        <path fill="#DAEDF4" d="M60.223 45.59c-.777 4.212 15.654 4.888 21.386 1.621l1.748-5.237-12.927.448s16.698-7.301 14.178-11.815c-4.78-8.561-21.941 7.527-24.385 14.983"/>
        <path fill="#EA9289" d="M91.157 38.42l-2.261 8.255-7.406.693 1.749-5.236a4.676 4.676 0 0 1 3.804-3.152l4.114-.56"/>
        <path fill="#BA475B" d="M66.815 35.37c-3.536 3.537-3.536 9.29 0 12.827 3.538 3.535 9.292 3.535 12.83 0l3.127-3.127c3.538-3.537 3.538-9.29 0-12.826-3.537-3.536-9.292-3.536-12.829 0l-3.128 3.127zM85.18 48.213L82.05 51.34c-4.66 4.66-12.244 4.66-16.905 0-4.66-4.66-4.66-12.24 0-16.9l3.127-3.128c4.661-4.66 12.245-4.66 16.906 0 4.66 4.66 4.66 12.242 0 16.901z"/>
        <path fill="#233053" d="M15.438 104.004l-2.41 2.246 5.306 13.729.47-14.36-3.366-1.615"/>
        <path fill="#233053" d="M52.847 48.11s-8.302 4.013-11.373 20.115c-3.07 16.103-26.647 35.967-26.647 35.967l3.83 1.825s39.084-23.564 42.846-50.981c.878.078-8.656-6.926-8.656-6.926"/>
        <path fill="#EA9289" d="M93.098 12.566l5.666 6.366-4.244 1.174-1.422-7.54"/>
        <path fill="#F3C1B8" d="M90.383 25.594l-5.13 6.844-7.85-3.714 4.041-6.402 8.939 3.272"/>
        <path fill="#EA9289" d="M90.383 25.594l-8.939-3.272.089 2.934 4.785 5.761 4.065-5.423"/>
        <path fill="#F3C1B8" d="M75.149 14.962l3.905 9.163c.685 1.748 6.194 3.378 9.053 4.117 1.7.439 3.527.212 5-.74 6.85-4.42.19-18.836-2.403-21.206-5.194-4.749-17.177-.708-15.555 8.666"/>
        <path fill="#E8B17A" d="M76.616 21.284c1.325 1.626 3.212 2.283 4.213 1.468l-4.802-5.89c-1.001.817-.738 2.796.589 4.422"/>
        <path fill="#2A2627" d="M71.113 7.289c-7.257 12.567-15.833 11.507-20.675 12.63-8.616 1.995-17.456 7.364-12.636 16.14 9.29 16.915 43.078-6.755 42.39-11.732-.51-3.684.3-14.942 6.286-16.758 5.696-1.729 4.95-1.834 4.95-1.834 1.916-3.866-13.722-9.863-20.315 1.554"/>
        <path fill="#F3C1B8" d="M78.933 17.107c1.398 2.462 3.76 3.76 5.275 2.899l-2.493-4.389s-4.181-.97-2.782 1.49"/>
        <path fill="#C3D3E3" d="M82.23 47.42L70.27 50.85l-8.852 6.373c-1.325 1.325-2.632 4.533-4.004 3.161l-7.08-7.079L73.28 30.536c4.028-4.026 5.482-3.383 9.653.786 2.086 2.085 3.808 9.017-.704 16.098"/>
        <path fill="#FBE785" d="M34.368 57.518c4.021 4.02 3.348 10.714-1.393 13.853L.167 91.71l20.345-32.8c3.14-4.739 9.835-5.412 13.856-1.392"/>
        <path fill="#E9B573" d="M34.368 57.518c2.585 2.584 2.152 6.888-.896 8.905L9.426 82.453l16.034-24.04c2.019-3.047 6.323-3.48 8.908-.895"/>
        <path fill="#D88460" d="M34.368 57.518a2.953 2.953 0 0 1-.458 4.551l-10.704 6.608 6.61-10.702a2.955 2.955 0 0 1 4.552-.457"/>
        <path fill="#DAEDF4" d="M44.426 52.422l-7.953 7.95-4.96-4.959 7.953-7.95 4.96 4.959"/>
        <path fill="#95C5E0" d="M30.292 50.475l11.12 11.118-.52-10.597-10.6-.52"/>
        <path fill="#DA4E66" d="M58.398 21.723L32.745 47.37 44.52 59.14l25.653-25.646c3.547-3.547 3.801-9.097.563-12.334-3.237-3.237-8.79-2.984-12.337.563M81.312 12.363c-.692.198-1.126.897-.939 1.568.958 3.437 4.657 5.423 8.198 4.412l7.756-2.216a.815.815 0 0 0 .576-.997l-1.688-5.906a.815.815 0 0 0-1.016-.542l-12.887 3.681"/>
        <path fill="#32ADC1" d="M82.732 13.035a.948.948 0 0 0-.649 1.169 4.74 4.74 0 0 0 5.843 3.245l8.898-2.541-1.558-5.453-12.534 3.58"/>
        <path fill="#7ECAD4" d="M88.352 17.328l2.99-.854 3.916-7.047-2.99.854-3.916 7.047"/>
        <path fill="#DA4E66" d="M78.272 14.2l.248 2.092 3.332-.968-.536-2.003-3.044.88"/>
        <path fill="#2A2627" d="M46.794 28.014s20.186 11.038 32.048-5.34c-3.192-6.838-11.038-8.04-16.365-5.03-5.326 3.011-15.683 10.37-15.683 10.37"/>
        <path fill="#FFFFFE" d="M85.254 32.438l-.495 4.162-7.831-8.35 1.813-1.813 6.513 6"/>
        <path fill="#233053" d="M10.661 97.147l-2.637 1.602 3.248 14.045 2.53-13.433-3.14-2.214"/>
        <path fill="#234B8E" d="M55.167 48.509s-8.169 1.074-14.599 16.154S10.42 96.992 10.42 96.992l3.155 2.727s27.839-6.213 48.077-42.607c.84.263-6.484-8.603-6.484-8.603"/>
        <path fill="#DA4E66" d="M75.521 28.515c-2.43 0-4.71.938-6.414 2.643l-3.128 3.127c-3.537 3.536-3.537 9.29 0 12.826 3.536 3.535 9.292 3.536 12.83 0l3.127-3.127c3.537-3.536 3.537-9.29 0-12.826a9.007 9.007 0 0 0-6.415-2.643zm-3.128 24.128a11.92 11.92 0 0 1-8.452-3.495c-4.66-4.66-4.66-12.241 0-16.9l3.128-3.127a11.87 11.87 0 0 1 8.452-3.488c3.202 0 6.203 1.239 8.453 3.488 4.66 4.659 4.66 12.24 0 16.9l-3.128 3.127a11.918 11.918 0 0 1-8.453 3.495z"/>
        <path fill="#D4E6F8" d="M57.011 44.828c-.777 4.212 15.654 4.888 21.386 1.621l1.748-5.237-12.927.448s16.698-7.302 14.178-11.815c-4.78-8.56-21.941 7.527-24.385 14.983"/>
        <path fill="#F3C1B8" d="M87.945 37.657l-2.261 8.256-7.405.693 1.748-5.236a4.676 4.676 0 0 1 3.804-3.152l4.114-.56"/>
    </g>
</svg>
