<?xml version="1.0" encoding="UTF-8"?>
<svg width="420px" height="310px" viewBox="0 0 420 310" version="1.1" xmlns="http://www.w3.org/2000/svg" xmlns:xlink="http://www.w3.org/1999/xlink">
    <!-- Generator: sketchtool 52.5 (67469) - http://www.bohemiancoding.com/sketch -->
    <title>A7A67E88-9503-4300-A8AC-F66093C5F521</title>
    <desc>Created with sketchtool.</desc>
    <defs>
        <linearGradient x1="85.7371692%" y1="71.5078522%" x2="7.6057715%" y2="-10.2098071%" id="linearGradient-1">
            <stop stop-color="#FCCAC7" offset="0%"></stop>
            <stop stop-color="#FFA49F" offset="100%"></stop>
        </linearGradient>
        <linearGradient x1="84.234321%" y1="60.9747404%" x2="28.0730748%" y2="24.4870493%" id="linearGradient-2">
            <stop stop-color="#B8215D" offset="0%"></stop>
            <stop stop-color="#182B54" offset="100%"></stop>
        </linearGradient>
        <linearGradient x1="100.000803%" y1="50.0007804%" x2="0.00352762477%" y2="50.0007804%" id="linearGradient-3">
            <stop stop-color="#FDDDDB" offset="0%"></stop>
            <stop stop-color="#FDBCB8" offset="100%"></stop>
        </linearGradient>
        <path d="M13.2717892,6.75012698 C8.31479457,11.8241962 4.3837944,17.9147792 0.678343428,24.1753478 C6.49513832,27.8113391 12.2288361,31.5850188 18.0642855,35.4453911 C23.5181666,28.8584502 27.9104403,23.4937056 28.8567294,22.3531025 C30.3236471,20.5818528 31.9211459,18.0150707 33.0675462,15.2630043 C35.5536749,9.28631169 35.9030218,2.43929293 28.1410771,1.01651371 C27.4627337,0.892424242 26.7742151,0.834629149 26.0806089,0.834629149 C21.3372925,0.834629149 16.3786021,3.57139683 13.2717892,6.75012698" id="path-4"></path>
        <path d="M6.08403256,0.694357661 C5.68268456,0.946697397 5.31828074,1.37686044 4.98746252,1.71726504 C4.28720263,2.43363892 3.66083107,3.21775501 3.11002713,4.05606487 C1.91102099,5.88679812 1.08481508,7.96309688 0.712014851,10.125767 C0.49034985,11.4145625 0.550803941,12.6610192 0.565917464,13.9582825 C0.587748108,16.1429688 0.611258032,18.3310423 0.633088676,20.5174221 C0.663315722,23.2914656 0.691863487,26.0621221 0.720411252,28.8361656 C0.750638298,31.759242 0.780865343,34.6857055 0.811092389,37.6104755 C0.839640154,40.2490346 0.866508639,42.8875937 0.895056404,45.5278464 C0.913528488,47.4449509 0.935359132,49.3654426 0.955510496,51.2859343 C0.962227617,52.0480341 0.972303299,52.810134 0.97902042,53.575621 C1.37197201,55.5350644 35.9231644,59.7774204 35.9231644,59.7774204 L38.994568,54.8610294 L12.4468256,46.7573675 C12.5845266,45.8462347 12.7239069,44.9334085 12.8616079,44.0222757 C13.2075396,41.7292019 13.5551506,39.4395152 13.9010824,37.1498284 C14.3578466,34.1420743 14.8129316,31.1360137 15.2680166,28.1316466 C15.6324204,25.723411 15.9582008,23.316869 16.3897758,20.9238754 C16.8314265,18.4733009 17.2075853,16.009178 17.5199315,13.5365873 C17.6744252,12.2935177 17.8138055,11.047061 17.936393,9.79721724 C17.9985263,9.1739889 18.0556219,8.54737345 18.1093588,7.92245156 C18.1513409,7.41099787 18.0522633,7.13664191 17.8994488,6.66583355 C17.3033043,4.8351003 16.3629073,3.23638412 14.851555,2.02041144 C14.3292989,1.59871618 13.7583436,1.23629535 13.1538027,0.945003841 C13.1185378,0.926374733 13.0799143,0.911132736 13.0463287,0.894197183 C11.9547965,0.386130602 10.7625075,0.110081093 9.56182208,0.0728228767 C9.42076253,0.0677422108 9.27130658,0.0643551003 9.11849207,0.0643551003 C8.11092389,0.0643551003 6.90184207,0.181210414 6.08403256,0.694357661" id="path-6"></path>
        <linearGradient x1="73.3530043%" y1="28.4155677%" x2="35.1104243%" y2="68.1500528%" id="linearGradient-8">
            <stop stop-color="#FDDDDB" offset="0%"></stop>
            <stop stop-color="#FDBCB8" offset="100%"></stop>
        </linearGradient>
        <path d="M0.514215985,4.81482094 L1.48798048,9.9353719 L2.58645516,10.7996143 C2.66503966,10.9055096 2.76583282,10.999449 2.90079317,11.0694766 C2.94179378,11.0916804 2.97937767,11.1173003 3.02037828,11.1395041 L6.40122026,13.795427 C7.43136059,14.9551515 8.24453935,16.3095868 8.81683954,17.821157 C9.21147041,18.8664463 10.7848688,18.1542149 10.3936547,17.1174656 C9.72739475,15.3582369 8.75875534,13.8193388 7.53898719,12.5058953 L8.12324588,11.8226997 C10.3868212,12.8492011 12.228432,14.4581267 13.6139109,16.6392287 C14.2101281,17.5803306 15.5460647,16.4820937 14.9566809,15.5563636 C13.5387431,13.3206061 11.604881,11.5869972 9.29688835,10.4477686 L9.79914582,9.8585124 C12.6076876,10.8235262 14.8422209,12.5930028 16.4583282,15.1396143 C17.0545455,16.0807163 18.3887736,14.9824793 17.8010982,14.0550413 C16.1576571,11.462314 13.8172056,9.54595041 11.0035387,8.4477135 L11.7347163,7.59371901 C13.8957901,8.42038567 15.6178157,9.84826446 16.890543,11.8534435 C17.4867602,12.7928375 18.81928,11.6963085 18.233313,10.7688705 C16.6547895,8.28203857 14.3092129,6.5262259 11.490421,5.69101928 L3.7942648,0.672947658 L0.514215985,4.81482094 Z" id="path-9"></path>
        <linearGradient x1="-3.67542058%" y1="42.5508284%" x2="100.653357%" y2="63.080428%" id="linearGradient-11">
            <stop stop-color="#FDDDDB" offset="0%"></stop>
            <stop stop-color="#FDBCB8" offset="100%"></stop>
        </linearGradient>
        <path d="M0.568308018,12.8390101 L41.8160367,61.9903377 L41.8160367,80.5799596 L57.4646839,123.135847 L63.8791664,124.8697 L51.6353232,59.3759596 C51.6353232,59.3759596 27.0686118,1.23919481 24.770159,0.348470418 L0.568308018,12.8390101 Z" id="path-12"></path>
        <linearGradient x1="66.1479925%" y1="87.8288791%" x2="34.6460915%" y2="15.6984498%" id="linearGradient-14">
            <stop stop-color="#B8215D" offset="0%"></stop>
            <stop stop-color="#182B54" offset="100%"></stop>
        </linearGradient>
        <polygon id="path-15" points="2.76584768 11.6836364 0.444388678 25.5580606 3.30288882 25.593697 12.973061 15.5815758 19.4278494 13.0683636 15.9842661 0.298666667"></polygon>
        <polygon id="path-17" points="0.653714619 13.2957576 7.04501897 15.9684848 16.4543916 26.2181818 19.3128917 26.2555152 17.3466005 12.3250909 4.42158156 0.61769697"></polygon>
        <path d="M10.3942953,0.728325541 C8.76174497,0.728325541 7.34228188,1.80363636 6.95637584,3.44408658 L5.90100671,7.88274978 L5.15100671,11.0468433 L2.54026846,22.0679203 L0.645973154,30.0485818 L40.216443,30.0485818 L40.3875839,29.3820952 L42.216443,21.6436364 L43.6879195,15.4150788 L46.4530201,3.75843463 C46.8255034,2.17123463 45.6644295,0.728325541 44.0838926,0.728325541 L10.3942953,0.728325541 Z" id="path-19"></path>
        <path d="M4.57472415,0.198004164 C1.93117507,0.854633356 0.55706973,5.82504557 0.631345694,7.8440111 C0.825476055,13.0378126 1.25931521,19.9476502 4.25061085,23.9686579 C12.5762712,35.155047 80.5725401,43.6556873 80.5725401,43.6556873 L66.2237743,60.5605043 L50.5363531,105.820533 L55.2545649,110.100469 L99.4099374,34.992582 C99.4099374,34.992582 39.9925424,3.25945316 22.3621295,4.46101689 C19.2746127,4.67086745 16.1347651,3.47099607 13.2025526,2.26943234 C10.4965442,1.16263983 7.96778523,0.0558473282 5.82222273,0.0558473282 C5.39007166,0.0558473282 4.97311341,0.0998482535 4.57472415,0.198004164" id="path-21"></path>
        <linearGradient x1="34.1179686%" y1="-5.92130627%" x2="94.0081747%" y2="105.187259%" id="linearGradient-23">
            <stop stop-color="#B8215D" offset="0%"></stop>
            <stop stop-color="#182B54" offset="100%"></stop>
        </linearGradient>
        <linearGradient x1="50%" y1="0%" x2="50%" y2="100%" id="linearGradient-24">
            <stop stop-color="#48C1E2" offset="0%"></stop>
            <stop stop-color="#238DC1" offset="100%"></stop>
        </linearGradient>
        <path d="M11.4822968,5.73038472 C10.0607905,9.49314756 7.3848173,12.174137 7.3848173,12.174137 C7.47000746,7.41667852 3.33744966,8.63744137 2.33187174,9.67400132 C1.3296346,10.7105613 1.13085757,12.4236482 1.82407159,13.6912991 C2.51728561,14.9572754 3.90538404,15.905083 5.33858315,15.7510224 L0.120268456,33.9000316 C2.91651007,35.5444611 5.84805369,36.9427286 8.72280388,38.4180264 C9.27236391,37.7733162 13.9862192,28.4643715 15.2089485,28.7976113 C17.6627591,29.4674401 20.0113348,31.8084914 22.336525,30.7719315 C24.1472334,29.9647879 24.5581506,27.6136891 24.6867711,25.630996 C24.8153915,23.648303 25.1194034,21.3122754 26.8666368,20.3745152 C28.0025056,19.7683202 29.8082028,19.5790935 29.8382699,18.2896733 C29.8599851,17.316747 28.7558538,16.7976298 28.0108576,16.1746891 C26.4791051,14.8936416 26.2636242,12.5860817 26.6695302,10.6285072 C27.0754362,8.67093281 27.7903654,7.79513175 28.0693214,5.81411331 C28.3499478,3.83476943 26.8048322,1.17052569 25.0559284,0.207646904 C25.0559284,0.207646904 24.847129,0.199274045 24.4813125,0.199274045 C22.1527815,0.199274045 13.4349888,0.550934124 11.4822968,5.73038472" id="path-25"></path>
        <linearGradient x1="0.000560389757%" y1="50.000478%" x2="99.9978823%" y2="50.000478%" id="linearGradient-27">
            <stop stop-color="#FDDDDB" offset="0%"></stop>
            <stop stop-color="#FDBCB8" offset="100%"></stop>
        </linearGradient>
        <path d="M0.811566968,4.90192837 L2.10870149,10.1300826 L3.29774146,10.9601653 C3.38524657,11.0626446 3.49334111,11.156584 3.63746717,11.2214876 C3.68207762,11.2419835 3.72154071,11.2641873 3.76443537,11.2863912 L7.41734462,13.8347107 C8.55147943,14.9756474 9.46942515,16.3283747 10.1471608,17.8553168 C10.6172863,18.910854 12.2061045,18.0876033 11.7411263,17.042314 C10.9518646,15.2608815 9.86062445,13.7288154 8.52402685,12.4426997 L9.09023636,11.7048485 C11.4957689,12.6357025 13.4929443,14.1933884 15.0508783,16.3676584 C15.7217508,17.3036364 17.0429063,16.0960882 16.3806128,15.1720661 C14.7866472,12.9465565 12.6865247,11.2641873 10.2295185,10.2206061 L10.7168019,9.58523416 C13.6816808,10.4221488 16.097508,12.1233058 17.9145258,14.6613774 C18.5853983,15.5973554 19.9065538,14.3898072 19.2459761,13.4657851 C17.3946425,10.8833058 14.8621418,9.0369697 11.8852524,8.06341598 L12.595588,7.13768595 C14.8810155,7.86870523 16.7460753,9.24705234 18.1770411,11.2453994 C18.8479136,12.1830854 20.1690692,10.9721212 19.5067756,10.0498072 C17.7326525,7.57322314 15.2018675,5.89426997 12.2352728,5.19057851 L3.97719288,0.442369146 L0.811566968,4.90192837 Z" id="path-28"></path>
        <linearGradient x1="0.00453853072%" y1="50.0021404%" x2="99.9988718%" y2="50.0021404%" id="linearGradient-30">
            <stop stop-color="#FDDDDB" offset="0%"></stop>
            <stop stop-color="#FDBCB8" offset="100%"></stop>
        </linearGradient>
        <path d="M7.49391058,0.810494822 C2.72552037,2.70502647 -0.415010871,10.1902839 1.27552321,15.0228592 L7.63958786,65.8560813 C8.15962189,67.8485478 56.905613,64.7669789 56.905613,64.7669789 L59.8259344,59.5359102 L18.5467511,53.5179862 L19.5529407,9.43213349 C18.4976274,4.60631224 14.6168523,0.290427311 10.1550619,0.28873878 C9.28438605,0.28873878 8.3916892,0.454214806 7.49391058,0.810494822" id="path-31"></path>
        <linearGradient x1="0.000341515767%" y1="50.001028%" x2="99.9988524%" y2="50.001028%" id="linearGradient-33">
            <stop stop-color="#FDDDDB" offset="0%"></stop>
            <stop stop-color="#FDBCB8" offset="100%"></stop>
        </linearGradient>
        <path d="M16.6904499,0.264243687 C13.8513,0.876885101 11.6533035,3.63545455 11.7181009,6.50174116 C9.11085757,4.73114015 5.15309968,5.32021843 3.19212528,7.77246717 C1.22944569,10.2230328 1.56195874,14.1580758 3.91001243,16.2535114 C1.55172757,16.7752664 -0.0989013174,19.390774 0.460402685,21.7117424 C1.02141188,24.0310278 3.69004226,25.6299545 6.03298036,25.0459255 C5.39694258,26.9393914 6.45245836,29.2300644 8.31453144,30.0009154 C10.1800149,30.7734495 12.5741089,29.9117121 13.4983246,28.1377449 L30.2689187,40.2559268 C31.8274671,39.9209937 33.443992,40.1448434 35.0383495,40.1869205 C36.6327069,40.2289975 38.3413125,40.0438586 39.5775789,39.052524 C40.8155506,38.0578232 41.2895948,36.0263447 40.1761024,34.8969975 C41.8949391,34.8364066 43.5012329,33.5841944 43.9599304,31.949923 C44.4186279,30.3122854 43.6870992,28.4221856 42.2445041,27.5032235 C44.2958538,26.9006806 45.7896048,24.8119773 45.6787671,22.703077 C45.5662242,20.5924937 43.8576187,18.6687323 41.7534079,18.2833068 C43.0271887,16.3595455 43.0118419,13.6851301 41.7175988,11.7748333 C40.4233557,9.86453662 37.9235396,8.82944192 35.6351678,9.25526136 C35.7579418,6.52698737 34.0783246,3.80544571 31.5665722,2.66095076 C29.0548198,1.51813889 25.8661049,2.02306313 23.8420383,3.88455051 C22.8564355,1.63258838 20.3958389,0.134646465 17.9267164,0.134646465 C17.512354,0.134646465 17.0979915,0.176723485 16.6904499,0.264243687" id="path-34"></path>
        <path d="M79.2311678,1.51546138 C73.0935302,1.98501709 67.0607517,2.4545728 64.0722685,2.25115516 L64.241396,7.9163363 C39.6654765,15.4004101 0.493852349,36.3151333 0.493852349,36.3151333 L45.3211007,112.544197 L50.1091007,108.202925 L36.2152752,56.6992755 L23.8402148,44.5450718 C23.8402148,44.5450718 88.6464966,36.4812577 97.0961074,25.1254682 C100.133638,21.0469446 100.573369,14.0324265 100.771248,8.76051948 C100.847356,6.71278195 99.453745,1.66632946 96.768,1.00183185 C95.9883221,0.808585099 94.7232483,0.730608339 93.1300671,0.730608339 C89.5699329,0.730608339 84.3641879,1.12388243 79.2311678,1.51546138" id="path-36"></path>
        <linearGradient x1="-6.56390913%" y1="103.619666%" x2="33.4467166%" y2="52.9406598%" id="linearGradient-38">
            <stop stop-color="#2D5075" offset="0%"></stop>
            <stop stop-color="#182B54" offset="100%"></stop>
        </linearGradient>
        <path d="M79.5558926,0.896732741 C73.4199463,1.3645933 67.3854765,1.83584416 64.3969933,1.63242652 L64.5661208,7.29760766 C39.9902013,14.7816815 0.818577181,35.6947095 0.818577181,35.6947095 L45.6441342,111.925468 L50.4355168,107.580807 L36.54,56.0805468 L24.1649396,43.9263431 C24.1649396,43.9263431 88.9695302,35.862529 97.4225235,24.5067396 C100.458362,20.428216 100.898094,13.4136979 101.095973,8.14009569 C101.172081,6.09405332 99.7784698,1.04760082 97.0927248,0.383103213 C96.313047,0.189856459 95.0496644,0.110184552 93.4547919,0.111879699 C89.8946577,0.111879699 84.6889128,0.503458647 79.5558926,0.896732741" id="path-39"></path>
        <linearGradient x1="87.6255117%" y1="-18.7038588%" x2="14.8790118%" y2="76.9322695%" id="linearGradient-41">
            <stop stop-color="#2D5075" offset="0%"></stop>
            <stop stop-color="#182B54" offset="100%"></stop>
        </linearGradient>
        <path d="M5.46967388,7.0729697 C-0.840185273,14.7975758 0.718222894,25.4273939 1.79894508,34.9864242 C4.13316949,55.6283636 5.68988373,93.0516364 6.80109651,100.005818 L58.7740089,104.691152 C62.4057775,98.9486061 48.0480953,40.766303 40.330587,22.9990303 C38.0946101,17.8504242 35.6977106,12.6610909 31.8575896,8.35927273 C28.0157746,4.05745455 22.4868135,0.688969697 16.3853067,0.398787879 L5.46967388,7.0729697 Z" id="path-42"></path>
        <linearGradient x1="59.3346064%" y1="24.602359%" x2="39.6071509%" y2="95.4390551%" id="linearGradient-44">
            <stop stop-color="#B8215D" offset="0%"></stop>
            <stop stop-color="#182B54" offset="100%"></stop>
        </linearGradient>
        <path d="M3.62925486,0.490649539 C2.10132507,1.31956258 1.61899845,3.32402503 1.86016176,5.03878656 C2.10132507,6.75187352 2.88215453,8.3443913 3.23293753,10.039058 C3.58540699,11.7337246 3.39146446,13.7298142 2.05241783,14.8350316 C1.40144553,15.3725692 0.433419377,15.8180053 0.453656858,16.6619895 C0.478953708,17.7772543 2.05410428,17.9430369 3.04405438,18.470527 C4.56861125,19.2843689 4.83001205,21.3039025 4.93963173,23.0203386 C5.04587851,24.7367747 5.40172087,26.7697049 6.98193082,27.4713505 C9.0090518,28.3722701 11.0648425,26.3527365 13.2100155,25.7766838 C15.194975,25.2458445 17.3485803,26.0328933 18.9338496,27.332361 C20.5191189,28.6301542 24.7335743,36.170751 25.8297711,37.8972345 C29.4303562,37.4551476 32.4676648,32.2840698 32.4727241,26.9488841 L21.8514197,14.5084901 C23.1044571,14.6441304 24.3187059,13.8269394 24.9258303,12.7317694 C25.5346412,11.6365995 25.3643091,10.1546034 24.489038,9.25703294 C23.6120805,8.35778788 20.0064361,7.29610935 20.0722079,11.4122069 C20.0722079,11.4122069 17.5813113,9.14148748 16.5053519,5.82918445 C14.9673034,1.08344796 9.92985717,0.262907773 6.63114782,0.262907773 C4.88735157,0.262907773 3.62925486,0.490649539 3.62925486,0.490649539" id="path-45"></path>
        <linearGradient x1="100.003642%" y1="49.9973396%" x2="-0.00198333843%" y2="49.9973396%" id="linearGradient-47">
            <stop stop-color="#FDDDDB" offset="0%"></stop>
            <stop stop-color="#FDBCB8" offset="100%"></stop>
        </linearGradient>
        <path d="M11.0369128,0.867874747 C6.12248322,3.0058936 2.83724832,8.91326195 1.88255034,13.9578909 C0.602348993,20.6903394 0.615771812,27.6846909 0.922818792,34.7081428 C7.69295302,35.6444889 14.4697987,36.8050788 21.1224832,38.391903 C22.1963087,28.4926532 23.0536913,20.0518438 23.2348993,18.3982599 C23.4832215,16.094198 23.4043624,13.0472215 22.8540268,10.0978168 C21.8825503,4.90426263 19.4412752,0.0102707071 14.7214765,0.0119824916 C13.6208054,0.0119824916 12.3959732,0.277309091 11.0369128,0.867874747" id="path-48"></path>
        <linearGradient x1="50.0001019%" y1="23.2692458%" x2="50.0001019%" y2="181.313627%" id="linearGradient-50">
            <stop stop-color="#B8215D" offset="0%"></stop>
            <stop stop-color="#182B54" offset="100%"></stop>
        </linearGradient>
        <linearGradient x1="100.000515%" y1="49.9984171%" x2="0.000516628586%" y2="49.9984171%" id="linearGradient-51">
            <stop stop-color="#FDDDDB" offset="0%"></stop>
            <stop stop-color="#FDBCB8" offset="100%"></stop>
        </linearGradient>
        <path d="M17.9249198,0.524283392 C15.2008556,0.734033741 11.0367914,1.22539336 9,3.46661469 C8.74588235,3.63169598 8.50909091,3.822025 8.30502674,4.02983322 C7.40983957,4.96011486 6.73411765,6.1856007 5.56171123,6.71580297 C5.25368984,6.85369441 4.93026738,6.93526399 4.60106952,7.00906503 C4.6742246,6.06713059 4.63572193,5.11936976 4.48171123,4.19103024 C4.44320856,3.9463215 4.38737968,3.69384423 4.23721925,3.49963094 C4.08513369,3.30541766 3.80791444,3.19083182 3.5884492,3.30347552 C3.41518717,3.39281364 3.32855615,3.58702692 3.25925134,3.76764528 C2.39294118,5.9253549 1.52470588,8.08112238 0.658395722,10.238832 L0.716149733,10.267964 C0.606417112,10.5689946 0.508235294,10.8758516 0.442780749,11.188535 C0.0847058824,12.8743063 0.309946524,14.6222259 0.535187166,16.3313028 L2.11957219,21.6100199 C2.66438503,22.649061 3.96385027,23.0918673 5.12085561,22.9714551 C6.2797861,22.8510428 7.33668449,22.2781136 8.35893048,21.7168372 C10.1743316,20.7224652 12.0224599,19.7028455 13.4451337,18.1938082 C14.3653476,17.2169154 15.0834225,15.9894874 15.3856684,14.6902005 C15.3991444,14.6863163 15.4126203,14.682432 15.4299465,14.6785477 C15.4472727,14.6804899 15.5011765,14.6746635 15.5897326,14.6688371 C15.5743316,14.6688371 16.0806417,14.7076797 15.8554011,14.6707792 C16.6331551,14.8028442 17.4070588,14.478508 17.6322995,13.6550437 C17.8248128,12.9519916 17.4012834,11.9945201 16.6235294,11.8643972 C16.1672727,11.7867119 15.7167914,11.7575799 15.2701604,11.7867119 C15.2412834,11.6973738 15.2104813,11.6080357 15.177754,11.5206397 C15.2143316,11.524524 15.2586096,11.5206397 15.2951872,11.5264661 C16.0671658,11.6682418 16.8468449,11.3264264 17.0682353,10.5087885 C17.2645989,9.7960257 16.8352941,8.86185979 16.0613904,8.72008409 C15.248984,8.57053986 14.4596791,8.5375236 13.6626738,8.63463024 C13.579893,8.49091241 13.5048128,8.34331031 13.4258824,8.19959248 C14.1574332,8.00926346 14.9063102,7.92769388 15.6763636,7.95488374 C17.5379679,8.01508986 17.5341176,5.10577483 15.6763636,5.04168444 C14.573262,5.00478392 13.5163636,5.16598094 12.4883422,5.46701154 C12.4479144,5.18734441 12.4094118,4.90573514 12.3535829,4.63189441 C12.8983957,4.44544965 13.464385,4.30950035 13.795508,4.20268304 C15.1334759,3.77347168 16.5253476,3.5443 17.9249198,3.43554056 C19.7229947,3.29570699 19.7807487,0.518456993 18.057754,0.518456993 C18.0134759,0.518456993 17.9691979,0.520399126 17.9249198,0.524283392" id="path-52"></path>
        <linearGradient x1="-0.000550311339%" y1="49.999627%" x2="99.9992118%" y2="49.999627%" id="linearGradient-54">
            <stop stop-color="#FDDDDB" offset="0%"></stop>
            <stop stop-color="#FDBCB8" offset="100%"></stop>
        </linearGradient>
    </defs>
    <g id="Guidline" stroke="none" stroke-width="1" fill="none" fill-rule="evenodd">
        <g id="C25" transform="translate(-614.000000, -601.000000)">
            <g id="Group-1072" transform="translate(614.000000, 601.000000)">
                <g id="Group-3" transform="translate(202.372650, 75.838957) rotate(28.000000) translate(-202.372650, -75.838957) translate(143.872650, 25.338957)">
                    <g id="Group-4" transform="translate(58.375754, 50.473882) rotate(-27.000000) translate(-58.375754, -50.473882) translate(8.875754, 19.473882)">
                        <path d="M16.3183356,20.0387329 C16.3183356,20.0387329 28.3163522,30.6069495 40.2513826,41.1240213 C52.0672499,51.5319843 63.8218334,61.8888025 63.8269404,61.8922121 C68.3857781,57.209055 79.6586024,43.7682065 88.2843048,33.3619484 C82.4265898,29.4885836 76.6710146,25.7055746 70.8320253,22.0589517 C67.1498871,28.2713378 63.6890517,34.6542065 59.66815,40.3807172 C59.66815,40.3807172 53.5891323,36.5567924 46.2878421,31.9605814 C35.2993068,25.0441021 21.5376771,16.3852907 21.5376771,16.3852907 L16.3183356,20.0387329 Z" id="Fill-1" fill="url(#linearGradient-1)"></path>
                        <path d="M77.1912523,12.4167937 C72.2342577,17.4908629 68.3032575,23.5814459 64.5978065,29.8420144 C70.4146014,33.4780058 76.1482992,37.2516854 81.9837486,41.1120577 C87.4376297,34.5251169 91.8299034,29.1603723 92.7761925,28.0197691 C94.2431102,26.2485195 95.8406089,23.6817374 96.9870093,20.929671 C99.473138,14.9529784 99.8224849,8.1059596 92.0605402,6.68318038 C91.3821968,6.55909091 90.6936782,6.50129582 90.000072,6.50129582 C85.2567556,6.50129582 80.2980651,9.23806349 77.1912523,12.4167937" id="Fill-7" fill="url(#linearGradient-2)"></path>
                        <path d="M11.6376876,7.58935585 C11.6117547,7.5859938 11.5944661,7.57422666 11.5702621,7.57086462 C8.43238291,7.35569396 5.425897,8.22310066 2.92942452,10.0890337 C2.0096715,10.7782522 2.9346111,12.3063 3.86819499,11.6103574 C5.85638291,10.1243351 8.08142452,9.35274659 10.5243024,9.31576414 L10.9392285,10.4000225 C7.75121244,10.4655823 4.73608224,11.491005 2.16526882,13.4107306 C1.2455158,14.0999491 2.17045539,15.627997 3.10403929,14.9320544 C5.62990237,13.0442681 8.4877064,12.1247498 11.6221279,12.1835855 L11.9073896,12.9282777 C9.20518291,13.2140512 6.65857351,14.2041724 4.44390506,15.8616589 C3.52415204,16.5475153 4.44909163,18.0772442 5.38094667,17.3813016 C7.54547821,15.7624787 9.95550774,14.8597705 12.5712715,14.6681342 L12.9032124,15.5338598 C11.2175749,16.3693271 9.6996366,17.5141023 8.39953459,18.9765903 C7.6388366,19.8372729 8.93893861,21.0778662 9.7082809,20.2104595 C10.8268527,18.953056 12.1217681,17.9343574 13.5670943,17.1778981 L17.8805977,15.8078662 C17.9272769,15.8011421 17.9739561,15.789375 18.024093,15.7843319 C18.1883346,15.7624787 18.3283722,15.707005 18.4442057,15.629678 L19.8376661,15.1875696 L22.6574353,10.5933399 L21.0374943,5.82428407 L11.6376876,7.58935585 Z" id="Fill-1017" fill="url(#linearGradient-3)" transform="translate(12.221573, 13.164704) rotate(61.000000) translate(-12.221573, -13.164704) "></path>
                    </g>
                </g>
                <g id="Group-9" transform="translate(218.926174, 55.424242)">
                    <mask id="mask-5" fill="white">
                        <use xlink:href="#path-4"></use>
                    </mask>
                    <g id="Clip-8"></g>
                </g>
                <g id="Group-12" transform="translate(39.463087, 78.909091)">
                    <mask id="mask-7" fill="white">
                        <use xlink:href="#path-6"></use>
                    </mask>
                    <g id="Clip-11"></g>
                    <path d="M6.08403256,0.694357661 C5.68268456,0.946697397 5.31828074,1.37686044 4.98746252,1.71726504 C4.28720263,2.43363892 3.66083107,3.21775501 3.11002713,4.05606487 C1.91102099,5.88679812 1.08481508,7.96309688 0.712014851,10.125767 C0.49034985,11.4145625 0.550803941,12.6610192 0.565917464,13.9582825 C0.587748108,16.1429688 0.611258032,18.3310423 0.633088676,20.5174221 C0.663315722,23.2914656 0.691863487,26.0621221 0.720411252,28.8361656 C0.750638298,31.759242 0.780865343,34.6857055 0.811092389,37.6104755 C0.839640154,40.2490346 0.866508639,42.8875937 0.895056404,45.5278464 C0.913528488,47.4449509 0.935359132,49.3654426 0.955510496,51.2859343 C0.962227617,52.0480341 0.972303299,52.810134 0.97902042,53.575621 C1.37197201,55.5350644 35.9231644,59.7774204 35.9231644,59.7774204 L38.994568,54.8610294 L12.4468256,46.7573675 C12.5845266,45.8462347 12.7239069,44.9334085 12.8616079,44.0222757 C13.2075396,41.7292019 13.5551506,39.4395152 13.9010824,37.1498284 C14.3578466,34.1420743 14.8129316,31.1360137 15.2680166,28.1316466 C15.6324204,25.723411 15.9582008,23.316869 16.3897758,20.9238754 C16.8314265,18.4733009 17.2075853,16.009178 17.5199315,13.5365873 C17.6744252,12.2935177 17.8138055,11.047061 17.936393,9.79721724 C17.9985263,9.1739889 18.0556219,8.54737345 18.1093588,7.92245156 C18.1513409,7.41099787 18.0522633,7.13664191 17.8994488,6.66583355 C17.3033043,4.8351003 16.3629073,3.23638412 14.851555,2.02041144 C14.3292989,1.59871618 13.7583436,1.23629535 13.1538027,0.945003841 C13.1185378,0.926374733 13.0799143,0.911132736 13.0463287,0.894197183 C11.9547965,0.386130602 10.7625075,0.110081093 9.56182208,0.0728228767 C9.42076253,0.0677422108 9.27130658,0.0643551003 9.11849207,0.0643551003 C8.11092389,0.0643551003 6.90184207,0.181210414 6.08403256,0.694357661" id="Fill-10" fill="url(#linearGradient-8)" mask="url(#mask-7)"></path>
                </g>
                <g id="Group-15" transform="translate(75.167785, 132.454545)">
                    <mask id="mask-10" fill="white">
                        <use xlink:href="#path-9"></use>
                    </mask>
                    <g id="Clip-14"></g>
                    <path d="M0.514215985,4.81482094 L1.48798048,9.9353719 L2.58645516,10.7996143 C2.66503966,10.9055096 2.76583282,10.999449 2.90079317,11.0694766 C2.94179378,11.0916804 2.97937767,11.1173003 3.02037828,11.1395041 L6.40122026,13.795427 C7.43136059,14.9551515 8.24453935,16.3095868 8.81683954,17.821157 C9.21147041,18.8664463 10.7848688,18.1542149 10.3936547,17.1174656 C9.72739475,15.3582369 8.75875534,13.8193388 7.53898719,12.5058953 L8.12324588,11.8226997 C10.3868212,12.8492011 12.228432,14.4581267 13.6139109,16.6392287 C14.2101281,17.5803306 15.5460647,16.4820937 14.9566809,15.5563636 C13.5387431,13.3206061 11.604881,11.5869972 9.29688835,10.4477686 L9.79914582,9.8585124 C12.6076876,10.8235262 14.8422209,12.5930028 16.4583282,15.1396143 C17.0545455,16.0807163 18.3887736,14.9824793 17.8010982,14.0550413 C16.1576571,11.462314 13.8172056,9.54595041 11.0035387,8.4477135 L11.7347163,7.59371901 C13.8957901,8.42038567 15.6178157,9.84826446 16.890543,11.8534435 C17.4867602,12.7928375 18.81928,11.6963085 18.233313,10.7688705 C16.6547895,8.28203857 14.3092129,6.5262259 11.490421,5.69101928 L3.7942648,0.672947658 L0.514215985,4.81482094 Z" id="Fill-13" fill="url(#linearGradient-11)" mask="url(#mask-10)"></path>
                </g>
                <g id="Group-18" transform="translate(33.825503, 164.393939)">
                    <mask id="mask-13" fill="white">
                        <use xlink:href="#path-12"></use>
                    </mask>
                    <g id="Clip-17"></g>
                    <path d="M0.568308018,12.8390101 L41.8160367,61.9903377 L41.8160367,80.5799596 L57.4646839,123.135847 L63.8791664,124.8697 L51.6353232,59.3759596 C51.6353232,59.3759596 27.0686118,1.23919481 24.770159,0.348470418 L0.568308018,12.8390101 Z" id="Fill-16" fill="url(#linearGradient-14)" mask="url(#mask-13)"></path>
                </g>
                <polygon id="Fill-19" fill="#192C55" points="106.124864 296.150183 99.0855858 290.14764 91.8580457 288.393939 87.3825503 294.969491 113.691275 303.424242 112.873192 300.684705"></polygon>
                <g id="Group-33" transform="translate(69.000000, 153.000000)">
                    <polygon id="Fill-24" fill="#192C55" points="11.7758763 145.662532 14.5375776 145.905803 24.7359288 5.06846326 21.9725373 4.82688109"></polygon>
                    <polygon id="Fill-26" fill="#192C55" points="113.548626 145.662532 110.785235 145.905803 100.588574 5.06846326 103.350275 4.82688109"></polygon>
                    <polygon id="Fill-28" fill="#0097A7" points="0.703380781 3.50747075 124.621629 3.50747075 124.621629 0.10335828 0.703380781 0.10335828"></polygon>
                    <polygon id="Fill-30" fill="#546E7A" points="12.0561028 6.90989383 113.268907 6.90989383 113.268907 3.50578136 12.0561028 3.50578136"></polygon>
                    <polygon id="Fill-31" fill="#546E7A" points="0.109969928 156.737638 3.50547663 156.999493 16.041302 5.08822908 12.6457953 4.82637427"></polygon>
                    <polygon id="Fill-32" fill="#546E7A" points="125.213857 156.737638 121.81835 156.999493 109.282525 5.08822908 112.678031 4.82637427"></polygon>
                </g>
                <g id="Group-36" transform="translate(134.362416, 126.818182)">
                    <mask id="mask-16" fill="white">
                        <use xlink:href="#path-15"></use>
                    </mask>
                    <g id="Clip-35"></g>
                </g>
                <g id="Group-39" transform="translate(171.006711, 126.818182)">
                    <mask id="mask-18" fill="white">
                        <use xlink:href="#path-17"></use>
                    </mask>
                    <g id="Clip-38"></g>
                </g>
                <g id="Group-64" transform="translate(88.530201, 121.848485)">
                    <path d="M49.6247392,2.23355455 C50.2498947,3.0807 50.5234002,4.18655455 50.2464971,5.31439091 L44.0034367,30.8369727 L20.8862759,30.8369727 L49.6247392,2.23355455 Z" id="Fill-58" fill="#D3C0BE"></path>
                    <path d="M2.15233804,30.8371418 L8.8268916,3.55263273 C9.23460166,1.88370545 10.7380325,0.708523636 12.4640052,0.708523636 L46.6097233,0.708523636 C47.8685281,0.708523636 48.9506586,1.31894182 49.625079,2.23372364 L20.8866156,30.8371418 L2.15233804,30.8371418 Z" id="Fill-62" fill="#D6D5CA"></path>
                    <path d="M0.388822121,30.8371418 L42.2402605,30.8371418 L48.8230793,3.92801455 C49.2239942,2.28783273 47.9770809,0.708523636 46.2816866,0.708523636 L10.7004892,0.708523636 C8.97451662,0.708523636 7.47108574,1.88370545 7.06337568,3.55263273 L0.388822121,30.8371418 Z" id="Fill-63" fill="#4D4D4F"></path>
                </g>
                <g id="Group-67" transform="translate(89.261745, 121.181818)">
                    <mask id="mask-20" fill="white">
                        <use xlink:href="#path-19"></use>
                    </mask>
                    <g id="Clip-66"></g>
                    <path d="M10.3942953,2.72832554 C8.76174497,2.72832554 7.34228188,3.80363636 6.95637584,5.44408658 L5.90100671,9.88274978 L5.15100671,13.0468433 L2.54026846,24.0679203 L0.645973154,32.0485818 L40.216443,32.0485818 L40.3875839,31.3820952 L42.216443,23.6436364 L43.6879195,17.4150788 L46.4530201,5.75843463 C46.8255034,4.17123463 45.6644295,2.72832554 44.0838926,2.72832554 L10.3942953,2.72832554 Z" id="Fill-65" fill="#888888" mask="url(#mask-20)"></path>
                </g>
                <g id="Group-959" transform="translate(0.000000, 19.000000)">
                    <polygon id="Fill-68" fill="#F9F9F9" points="102.78086 107 100.247329 117.504601 99 122.687637 125.072218 122.687637 128.854769 107"></polygon>
                    <polygon id="Fill-68-Copy" fill="#FFFFFF" points="107.374125 116 105.113144 125.374542 104 130 127.267434 130 130.643067 116"></polygon>
                    <path d="M49.850568,83.7664178 C53.5063575,80.6562585 56.6872154,77.0950331 59.8562423,73.5439441 C61.7593486,71.4136285 63.6607648,69.283313 65.5638711,67.1529974 C67.8895143,64.5462751 70.2371294,61.9125226 71.891784,58.8885219 C74.6213725,53.8946974 75.2974316,48.1693688 75.9278567,42.5876379 C76.6884231,35.8486778 77.4506798,29.1080283 78.2129364,22.3690682 C78.3633595,21.0344534 78.5087122,19.6457782 78.0202595,18.383807 C77.5318068,17.1235252 76.2118015,16.0372501 74.7954577,16.2230825 C77.293496,14.35969 77.533497,10.6650031 76.0106739,8.03631875 C74.4861607,5.405945 71.6230505,3.69290776 68.6855738,2.52723153 C59.4894803,-1.12184189 48.3987312,-0.218020462 40.0105282,4.85858399 C31.6206351,9.93687782 26.1715989,19.0460463 25.9214571,28.4120014 C25.8031467,32.8432604 26.6296289,37.7644414 23.7766596,41.2969472 C21.1772125,44.5135378 15.9445153,45.8971448 14.9354971,49.8215881 C14.0498597,53.2679352 17.0667733,56.6281237 16.9197305,60.1707658 C16.7507157,64.2337387 12.6673189,67.0398086 10.517451,70.5689356 C7.20476156,76.0104474 8.95237427,83.4099574 13.7608444,87.7550578 C18.5710048,92.1018475 25.818358,93.5597875 32.3930325,92.4650655 C38.9660169,91.3703435 44.9051959,87.9763673 49.850568,83.7664178" id="Fill-946" fill="#E2795A"></path>
                    <path d="M7.63574922,281.909584 L7.63574922,284.335542 C7.63574922,287.7802 19.9146722,290.567686 35.0668462,290.567686 C50.2139498,290.567686 62.4928727,287.7802 62.4928727,284.335542 L62.4928727,281.909584 C62.4928727,278.471684 50.2139498,275.677439 35.0668462,275.677439 C19.9146722,275.677439 7.63574922,278.471684 7.63574922,281.909584" id="Fill-948" fill="#39000D"></path>
                    <path d="M7.63574922,281.909584 C7.63574922,278.471684 19.9146722,275.677439 35.0668462,275.677439 C37.7964347,275.677439 40.4296848,275.768666 42.9175822,275.937605 L30.784012,288.067395 C17.6684659,287.599435 7.63574922,285.023122 7.63574922,281.909584" id="Fill-950" fill="#0097A7"></path>
                    <path d="M62.4920276,281.909584 C62.4920276,285.352552 50.2131047,288.141728 35.0660011,288.141728 C33.6090938,288.141728 32.1792289,288.116387 30.784857,288.067395 L42.9184273,275.937605 C54.2373463,276.706275 62.4920276,279.091688 62.4920276,281.909584" id="Fill-952" fill="#00838F"></path>
                    <polygon id="Fill-954" fill="#39000D" points="34.0091518 280.007166 36.8435294 280.007166 36.8435294 158.474438 34.0091518 158.474438"></polygon>
                    <path d="M13.3242793,240.415733 C13.3242793,242.774116 21.8865675,246.196812 35.3029598,246.196812 C48.7193522,246.196812 57.2833305,242.774116 57.2833305,240.415733 C57.2833305,238.057351 48.7193522,234.632966 35.3029598,234.632966 C21.8865675,234.632966 13.3242793,238.057351 13.3242793,240.415733 M10.7265223,240.415733 C10.7265223,234.913404 23.0899526,232.03638 35.3029598,232.03638 C47.515967,232.03638 59.8810875,234.913404 59.8810875,240.415733 C59.8810875,245.916374 47.515967,248.795087 35.3029598,248.795087 C23.0899526,248.795087 10.7265223,245.916374 10.7265223,240.415733" id="Fill-956" fill="#39000D"></path>
                    <path d="M70.1282839,157.418065 L70.1282839,166.074478 C70.1282839,169.517447 54.428502,172.306623 35.06448,172.306623 C15.6987678,172.306623 0.000676059075,169.517447 0.000676059075,166.074478 L0.000676059075,157.418065 L70.1282839,157.418065 Z" id="Fill-957" fill="#00838F"></path>
                    <path d="M0.000338029538,157.418065 C0.000338029538,160.861034 15.6984298,163.65021 35.064142,163.65021 C54.4298542,163.65021 70.1279459,160.861034 70.1279459,157.418065 C70.1279459,153.976786 54.4298542,151.185921 35.064142,151.185921 C15.6984298,151.185921 0.000338029538,153.976786 0.000338029538,157.418065" id="Fill-958" fill="#0097A7"></path>
                </g>
                <g id="Group-962" transform="translate(3.758389, 149.363636)">
                    <mask id="mask-22" fill="white">
                        <use xlink:href="#path-21"></use>
                    </mask>
                    <g id="Clip-961"></g>
                    <path d="M4.57472415,0.198004164 C1.93117507,0.854633356 0.55706973,5.82504557 0.631345694,7.8440111 C0.825476055,13.0378126 1.25931521,19.9476502 4.25061085,23.9686579 C12.5762712,35.155047 80.5725401,43.6556873 80.5725401,43.6556873 L66.2237743,60.5605043 L50.5363531,105.820533 L55.2545649,110.100469 L99.4099374,34.992582 C99.4099374,34.992582 39.9925424,3.25945316 22.3621295,4.46101689 C19.2746127,4.67086745 16.1347651,3.47099607 13.2025526,2.26943234 C10.4965442,1.16263983 7.96778523,0.0558473282 5.82222273,0.0558473282 C5.39007166,0.0558473282 4.97311341,0.0998482535 4.57472415,0.198004164" id="Fill-960" fill="url(#linearGradient-23)" mask="url(#mask-22)"></path>
                </g>
                <g id="Group-967" transform="translate(3.758389, 65.757576)">
                    <polygon id="Fill-963" fill="#192C55" points="58.1852408 203.265563 55.0149107 194.561417 49.5832145 189.570995 42.4406274 193.350493 61.18737 213.359403 61.8278922 210.519299"></polygon>
                    <path d="M52.8160677,12.6299316 C50.170728,8.60926054 49.0680783,1.23746813 43.8351648,0.616827631 C31.3305404,-0.867312685 24.393532,11.2638479 23.1634576,21.5381465 C22.3564336,28.2741197 21.8620252,35.0387638 21.238493,41.7916023 C20.8613154,45.8696151 21.172232,51.7623268 19.1079496,55.4693045 C15.4856861,61.970851 6.64919812,76.5171126 1.62526138,84.8384175 C-0.0754355061,87.6549111 -0.782218626,90.7547405 2.51723527,90.9672424 L46.7982172,93.8646891 C46.7982172,93.8646891 47.9076628,75.995977 46.8050131,66.0775347 C46.0268721,59.0801504 48.9627405,54.7373535 51.0066349,48.1244965 C51.9512777,45.0668301 52.2536994,43.4848714 54.5337545,40.9584599 C56.7390538,38.5130014 60.8523277,35.6526582 61.6559537,32.2425086 C63.3345636,25.0983968 56.7186658,18.5648063 52.8160677,12.6299316" id="Fill-965" fill="url(#linearGradient-24)"></path>
                </g>
                <g id="Group-970" transform="translate(38.523490, 34.757576)">
                    <mask id="mask-26" fill="white">
                        <use xlink:href="#path-25"></use>
                    </mask>
                    <g id="Clip-969"></g>
                    <path d="M11.4822968,5.73038472 C10.0607905,9.49314756 7.3848173,12.174137 7.3848173,12.174137 C7.47000746,7.41667852 3.33744966,8.63744137 2.33187174,9.67400132 C1.3296346,10.7105613 1.13085757,12.4236482 1.82407159,13.6912991 C2.51728561,14.9572754 3.90538404,15.905083 5.33858315,15.7510224 L0.120268456,33.9000316 C2.91651007,35.5444611 5.84805369,36.9427286 8.72280388,38.4180264 C9.27236391,37.7733162 13.9862192,28.4643715 15.2089485,28.7976113 C17.6627591,29.4674401 20.0113348,31.8084914 22.336525,30.7719315 C24.1472334,29.9647879 24.5581506,27.6136891 24.6867711,25.630996 C24.8153915,23.648303 25.1194034,21.3122754 26.8666368,20.3745152 C28.0025056,19.7683202 29.8082028,19.5790935 29.8382699,18.2896733 C29.8599851,17.316747 28.7558538,16.7976298 28.0108576,16.1746891 C26.4791051,14.8936416 26.2636242,12.5860817 26.6695302,10.6285072 C27.0754362,8.67093281 27.7903654,7.79513175 28.0693214,5.81411331 C28.3499478,3.83476943 26.8048322,1.17052569 25.0559284,0.207646904 C25.0559284,0.207646904 24.847129,0.199274045 24.4813125,0.199274045 C22.1527815,0.199274045 13.4349888,0.550934124 11.4822968,5.73038472" id="Fill-968" fill="url(#linearGradient-27)" mask="url(#mask-26)"></path>
                </g>
                <g id="Group-973" transform="translate(83.624161, 131.515152)">
                    <mask id="mask-29" fill="white">
                        <use xlink:href="#path-28"></use>
                    </mask>
                    <g id="Clip-972"></g>
                    <path d="M0.811566968,4.90192837 L2.10870149,10.1300826 L3.29774146,10.9601653 C3.38524657,11.0626446 3.49334111,11.156584 3.63746717,11.2214876 C3.68207762,11.2419835 3.72154071,11.2641873 3.76443537,11.2863912 L7.41734462,13.8347107 C8.55147943,14.9756474 9.46942515,16.3283747 10.1471608,17.8553168 C10.6172863,18.910854 12.2061045,18.0876033 11.7411263,17.042314 C10.9518646,15.2608815 9.86062445,13.7288154 8.52402685,12.4426997 L9.09023636,11.7048485 C11.4957689,12.6357025 13.4929443,14.1933884 15.0508783,16.3676584 C15.7217508,17.3036364 17.0429063,16.0960882 16.3806128,15.1720661 C14.7866472,12.9465565 12.6865247,11.2641873 10.2295185,10.2206061 L10.7168019,9.58523416 C13.6816808,10.4221488 16.097508,12.1233058 17.9145258,14.6613774 C18.5853983,15.5973554 19.9065538,14.3898072 19.2459761,13.4657851 C17.3946425,10.8833058 14.8621418,9.0369697 11.8852524,8.06341598 L12.595588,7.13768595 C14.8810155,7.86870523 16.7460753,9.24705234 18.1770411,11.2453994 C18.8479136,12.1830854 20.1690692,10.9721212 19.5067756,10.0498072 C17.7326525,7.57322314 15.2018675,5.89426997 12.2352728,5.19057851 L3.97719288,0.442369146 L0.811566968,4.90192837 Z" id="Fill-971" fill="url(#linearGradient-30)" mask="url(#mask-29)"></path>
                </g>
                <g id="Group-976" transform="translate(28.187919, 73.272727)">
                    <mask id="mask-32" fill="white">
                        <use xlink:href="#path-31"></use>
                    </mask>
                    <g id="Clip-975"></g>
                    <path d="M7.49391058,0.810494822 C2.72552037,2.70502647 -0.415010871,10.1902839 1.27552321,15.0228592 L7.63958786,65.8560813 C8.15962189,67.8485478 56.905613,64.7669789 56.905613,64.7669789 L59.8259344,59.5359102 L18.5467511,53.5179862 L19.5529407,9.43213349 C18.4976274,4.60631224 14.6168523,0.290427311 10.1550619,0.28873878 C9.28438605,0.28873878 8.3916892,0.454214806 7.49391058,0.810494822" id="Fill-974" fill="url(#linearGradient-33)" mask="url(#mask-32)"></path>
                </g>
                <g id="Group-979" transform="translate(203.892617, 0.000000)">
                    <mask id="mask-35" fill="white">
                        <use xlink:href="#path-34"></use>
                    </mask>
                    <g id="Clip-978"></g>
                    <path d="M16.6904499,0.264243687 C13.8513,0.876885101 11.6533035,3.63545455 11.7181009,6.50174116 C9.11085757,4.73114015 5.15309968,5.32021843 3.19212528,7.77246717 C1.22944569,10.2230328 1.56195874,14.1580758 3.91001243,16.2535114 C1.55172757,16.7752664 -0.0989013174,19.390774 0.460402685,21.7117424 C1.02141188,24.0310278 3.69004226,25.6299545 6.03298036,25.0459255 C5.39694258,26.9393914 6.45245836,29.2300644 8.31453144,30.0009154 C10.1800149,30.7734495 12.5741089,29.9117121 13.4983246,28.1377449 L30.2689187,40.2559268 C31.8274671,39.9209937 33.443992,40.1448434 35.0383495,40.1869205 C36.6327069,40.2289975 38.3413125,40.0438586 39.5775789,39.052524 C40.8155506,38.0578232 41.2895948,36.0263447 40.1761024,34.8969975 C41.8949391,34.8364066 43.5012329,33.5841944 43.9599304,31.949923 C44.4186279,30.3122854 43.6870992,28.4221856 42.2445041,27.5032235 C44.2958538,26.9006806 45.7896048,24.8119773 45.6787671,22.703077 C45.5662242,20.5924937 43.8576187,18.6687323 41.7534079,18.2833068 C43.0271887,16.3595455 43.0118419,13.6851301 41.7175988,11.7748333 C40.4233557,9.86453662 37.9235396,8.82944192 35.6351678,9.25526136 C35.7579418,6.52698737 34.0783246,3.80544571 31.5665722,2.66095076 C29.0548198,1.51813889 25.8661049,2.02306313 23.8420383,3.88455051 C22.8564355,1.63258838 20.3958389,0.134646465 17.9267164,0.134646465 C17.512354,0.134646465 17.0979915,0.176723485 16.6904499,0.264243687" id="Fill-977" fill="#9B9B9B" mask="url(#mask-35)"></path>
                </g>
                <g id="Group-994" transform="translate(219.000000, 168.000000)">
                    <path d="M9.85379195,132.962994 L9.85379195,135.417737 C9.85379195,138.905341 22.1925412,141.728721 37.4211287,141.728721 C52.6429683,141.728721 64.9834045,138.905341 64.9834045,135.417737 L64.9834045,132.962994 C64.9834045,129.482185 52.6429683,126.65201 37.4211287,126.65201 C22.1925412,126.65201 9.85379195,129.482185 9.85379195,132.962994" id="Fill-980" fill="#37474F"></path>
                    <path d="M9.85379195,132.962994 C9.85379195,129.482185 22.1925412,126.65201 37.4211287,126.65201 C40.1641977,126.65201 42.8111074,126.745443 45.3129347,126.915322 L33.1175808,139.195833 C19.9353295,138.723571 9.85379195,136.11254 9.85379195,132.962994" id="Fill-982" fill="#0097A7"></path>
                    <path d="M64.9837419,132.962994 C64.9837419,136.450598 52.6433057,139.273977 37.4214661,139.273977 C35.9571464,139.273977 34.5198188,139.246797 33.1179182,139.195833 L45.3115851,126.915322 C56.6887419,127.693365 64.9837419,130.109036 64.9837419,132.962994" id="Fill-984" fill="#00838F"></path>
                    <path d="M37.7824851,131.036912 C38.568629,131.036912 39.2080037,130.394772 39.2080037,129.60144 L39.2080037,7.98887269 L36.3586534,7.98887269 L36.3586534,129.60144 C36.3586534,130.394772 36.9963411,131.036912 37.7824851,131.036912" id="Fill-986" fill="#37474F"></path>
                    <path d="M15.5705433,90.9512099 C15.5705433,93.3380018 24.1759521,96.8052205 37.6601772,96.8052205 C51.1427154,96.8052205 59.7481242,93.3380018 59.7481242,90.9512099 C59.7481242,88.5644181 51.1427154,85.0971994 37.6601772,85.0971994 C24.1759521,85.0971994 15.5705433,88.5644181 15.5705433,90.9512099 M12.9607477,90.9512099 C12.9607477,85.3825952 25.3855342,82.4691802 37.6601772,82.4691802 C49.9331333,82.4691802 62.3579198,85.3825952 62.3579198,90.9512099 C62.3579198,96.5215235 49.9331333,99.4349385 37.6601772,99.4349385 C25.3855342,99.4349385 12.9607477,96.5215235 12.9607477,90.9512099" id="Fill-988" fill="#37474F"></path>
                    <path d="M74.1618887,6.92118679 L74.1618887,15.6852147 C74.1618887,19.17112 57.71191,21.9961982 37.4189356,21.9961982 C17.1259613,21.9961982 0.674295607,19.17112 0.674295607,15.6852147 L0.674295607,6.92118679 L74.1618887,6.92118679 Z" id="Fill-990" fill="#00838F"></path>
                    <path d="M0.674970409,6.92118679 C0.674970409,10.4070921 17.1249491,13.2321703 37.4179234,13.2321703 C57.7125848,13.2321703 74.1625635,10.4070921 74.1625635,6.92118679 C74.1625635,3.43698029 57.7125848,0.611902087 37.4179234,0.611902087 C17.1249491,0.611902087 0.674970409,3.43698029 0.674970409,6.92118679" id="Fill-992" fill="#0097A7"></path>
                </g>
                <g id="Group-997" transform="translate(168.187919, 138.090909)">
                    <mask id="mask-37" fill="white">
                        <use xlink:href="#path-36"></use>
                    </mask>
                    <g id="Clip-996"></g>
                    <path d="M79.2311678,1.51546138 C73.0935302,1.98501709 67.0607517,2.4545728 64.0722685,2.25115516 L64.241396,7.9163363 C39.6654765,15.4004101 0.493852349,36.3151333 0.493852349,36.3151333 L45.3211007,112.544197 L50.1091007,108.202925 L36.2152752,56.6992755 L23.8402148,44.5450718 C23.8402148,44.5450718 88.6464966,36.4812577 97.0961074,25.1254682 C100.133638,21.0469446 100.573369,14.0324265 100.771248,8.76051948 C100.847356,6.71278195 99.453745,1.66632946 96.768,1.00183185 C95.9883221,0.808585099 94.7232483,0.730608339 93.1300671,0.730608339 C89.5699329,0.730608339 84.3641879,1.12388243 79.2311678,1.51546138" id="Fill-995" fill="url(#linearGradient-38)" mask="url(#mask-37)"></path>
                </g>
                <polygon id="Fill-998" fill="#192C55" points="211.357711 260.181428 214.584864 251.24598 220.112495 246.121212 227.38255 250.001955 208.301216 270.545455 207.651007 267.628489"></polygon>
                <g id="Group-1002" transform="translate(183.221477, 141.848485)">
                    <mask id="mask-40" fill="white">
                        <use xlink:href="#path-39"></use>
                    </mask>
                    <g id="Clip-1001"></g>
                    <path d="M79.5558926,0.896732741 C73.4199463,1.3645933 67.3854765,1.83584416 64.3969933,1.63242652 L64.5661208,7.29760766 C39.9902013,14.7816815 0.818577181,35.6947095 0.818577181,35.6947095 L45.6441342,111.925468 L50.4355168,107.580807 L36.54,56.0805468 L24.1649396,43.9263431 C24.1649396,43.9263431 88.9695302,35.862529 97.4225235,24.5067396 C100.458362,20.428216 100.898094,13.4136979 101.095973,8.14009569 C101.172081,6.09405332 99.7784698,1.04760082 97.0927248,0.383103213 C96.313047,0.189856459 95.0496644,0.110184552 93.4547919,0.111879699 C89.8946577,0.111879699 84.6889128,0.503458647 79.5558926,0.896732741" id="Fill-1000" fill="url(#linearGradient-41)" mask="url(#mask-40)"></path>
                </g>
                <polygon id="Fill-1003" fill="#192C55" points="225.451671 264.877673 228.678824 255.941599 234.206455 250.818182 241.47651 254.699196 222.396882 275.242424 221.744966 272.325255"></polygon>
                <g id="Group-1007" transform="translate(224.563758, 46.969697)">
                    <mask id="mask-43" fill="white">
                        <use xlink:href="#path-42"></use>
                    </mask>
                    <g id="Clip-1006"></g>
                    <path d="M5.46967388,7.0729697 C-0.840185273,14.7975758 0.718222894,25.4273939 1.79894508,34.9864242 C4.13316949,55.6283636 5.68988373,93.0516364 6.80109651,100.005818 L58.7740089,104.691152 C62.4057775,98.9486061 48.0480953,40.766303 40.330587,22.9990303 C38.0946101,17.8504242 35.6977106,12.6610909 31.8575896,8.35927273 C28.0157746,4.05745455 22.4868135,0.688969697 16.3853067,0.398787879 L5.46967388,7.0729697 Z" id="Fill-1005" fill="url(#linearGradient-44)" mask="url(#mask-43)"></path>
                </g>
                <g id="Group-1010" transform="translate(212.348993, 21.606061)">
                    <mask id="mask-46" fill="white">
                        <use xlink:href="#path-45"></use>
                    </mask>
                    <g id="Clip-1009"></g>
                    <path d="M3.62925486,0.490649539 C2.10132507,1.31956258 1.61899845,3.32402503 1.86016176,5.03878656 C2.10132507,6.75187352 2.88215453,8.3443913 3.23293753,10.039058 C3.58540699,11.7337246 3.39146446,13.7298142 2.05241783,14.8350316 C1.40144553,15.3725692 0.433419377,15.8180053 0.453656858,16.6619895 C0.478953708,17.7772543 2.05410428,17.9430369 3.04405438,18.470527 C4.56861125,19.2843689 4.83001205,21.3039025 4.93963173,23.0203386 C5.04587851,24.7367747 5.40172087,26.7697049 6.98193082,27.4713505 C9.0090518,28.3722701 11.0648425,26.3527365 13.2100155,25.7766838 C15.194975,25.2458445 17.3485803,26.0328933 18.9338496,27.332361 C20.5191189,28.6301542 24.7335743,36.170751 25.8297711,37.8972345 C29.4303562,37.4551476 32.4676648,32.2840698 32.4727241,26.9488841 L21.8514197,14.5084901 C23.1044571,14.6441304 24.3187059,13.8269394 24.9258303,12.7317694 C25.5346412,11.6365995 25.3643091,10.1546034 24.489038,9.25703294 C23.6120805,8.35778788 20.0064361,7.29610935 20.0722079,11.4122069 C20.0722079,11.4122069 17.5813113,9.14148748 16.5053519,5.82918445 C14.9673034,1.08344796 9.92985717,0.262907773 6.63114782,0.262907773 C4.88735157,0.262907773 3.62925486,0.490649539 3.62925486,0.490649539" id="Fill-1008" fill="url(#linearGradient-47)" mask="url(#mask-46)"></path>
                </g>
                <g id="Group-1071" transform="translate(347.000000, 188.000000)">
                    <path d="M66.9766739,118.21045 C66.9766739,120.296687 53.8201083,121.991119 37.5921611,121.991119 C21.3642138,121.991119 8.20596343,120.296687 8.20596343,118.21045 C8.20596343,116.124213 21.3642138,114.429781 37.5921611,114.429781 C53.8201083,114.429781 66.9766739,116.124213 66.9766739,118.21045" id="Fill-1023" fill="#2E5175"></path>
                    <path d="M19.5244175,52.3414907 C24.2216265,75.6276313 32.6995159,87.9075976 40.0300597,87.0273072 L22.8299857,1.757867 C21.3658986,7.06674747 15.275364,31.2704933 19.5244175,52.3414907" id="Fill-1025" fill="#4F8CA4"></path>
                    <path d="M23.1342597,0.688967172 C23.1342597,0.688967172 23.0213784,1.06550758 22.8293117,1.75752778 L40.0293858,87.026968 C40.1978653,87.0083106 40.3680296,86.9896532 40.5348243,86.9540345 C47.9748799,85.4343039 51.2753937,70.6542449 46.4703578,46.8338241 C41.6653219,23.0117071 23.1342597,0.688967172 23.1342597,0.688967172" id="Fill-1027" fill="#7DADBB"></path>
                    <path d="M36.540175,67.7474209 C35.3675575,62.0128123 34.2067336,56.2748114 33.0425402,50.5385067 C30.7141532,39.0642012 28.3015265,27.608553 25.8366711,16.1630816 C25.8113992,16.0358721 25.6176478,16.074883 25.6412349,16.2020926 C27.1036371,23.975447 28.6031048,31.7420168 30.1227901,39.5068906 C27.5164119,37.4528796 24.6354122,35.3819074 21.6668031,33.9605522 C21.5134867,33.8876187 21.3534312,34.1284689 21.4814756,34.2421094 C24.0507882,36.5403628 27.2333664,38.4722525 30.2491497,40.1412424 C30.938231,43.6556195 31.620573,47.1716928 32.3248174,50.6843737 C33.4755325,56.4240707 34.631302,62.1620715 35.7735931,67.9051608 C36.9091451,73.6109352 37.7229012,79.5117643 39.3150326,85.1038981 C39.4295987,85.5024882 39.9923203,85.3871515 39.9417764,84.9749924 C39.2425864,79.2013729 37.7043684,73.4464108 36.540175,67.7474209" id="Fill-1029" fill="#2E5175"></path>
                    <path d="M34.8077001,60.619952 C30.4120694,57.1344091 25.603664,53.9049815 20.6722685,51.2386684 C20.5475936,51.1708232 20.4414515,51.3319554 20.5509632,51.4218502 C24.9145827,54.9531886 29.7448905,58.1486936 34.6459597,60.8658906 C34.8127545,60.9574815 34.955962,60.7369848 34.8077001,60.619952" id="Fill-1031" fill="#2E5175"></path>
                    <path d="M39.735389,39.1468026 C38.3824985,40.9616595 37.1054237,42.8341848 35.8098162,44.6897487 C34.6422532,46.3604348 33.3887656,48.0056789 32.5935422,49.8951654 C32.5312048,50.0461208 32.7468586,50.1885955 32.8580551,50.0715627 C34.2766526,48.5942353 35.2908993,46.7963396 36.3657987,45.0595046 C37.5569489,43.1343994 38.7700014,41.2211671 39.9038685,39.2587471 C39.9678908,39.1468026 39.8128896,39.0416427 39.735389,39.1468026" id="Fill-1033" fill="#2E5175"></path>
                    <path d="M43.8617894,61.0158283 C41.5991095,64.1960682 39.1308845,67.3135513 37.3163601,70.7804369 C37.2068484,70.9907567 37.4713613,71.167154 37.6196232,70.9839722 C40.0844786,67.9479032 41.973134,64.4437029 43.9982578,61.1074192 C44.0538561,61.0158283 43.922442,60.9293258 43.8617894,61.0158283" id="Fill-1035" fill="#2E5175"></path>
                    <path d="M38.945557,78.046649 C35.4058024,75.1343973 31.3252284,72.5817247 27.3204703,70.37167 C27.1856866,70.2970404 27.067751,70.4751338 27.1873714,70.570117 C30.7726156,73.419612 34.6981884,76.2080463 38.7450664,78.3536481 C38.9522962,78.4638965 39.1275149,78.1976044 38.945557,78.046649" id="Fill-1037" fill="#2E5175"></path>
                    <path d="M46.308449,51.5994348 C39.1345911,70.0210804 39.5507355,82.4689634 45.0718093,85.1912487 L71.3360815,17.7260636 C67.9294256,20.7723093 52.7999648,34.9281932 46.308449,51.5994348" id="Fill-1039" fill="#4F8CA4"></path>
                    <path d="M72.0295432,17.1186801 C72.0295432,17.1186801 71.7818783,17.329 71.3370923,17.7258939 L45.0711354,85.1910791 C45.197495,85.2538359 45.3238547,85.3165926 45.4586383,85.3691726 C51.3453127,87.6911717 60.2882055,78.8577374 67.6271733,60.0103636 C74.9644564,41.164686 72.0295432,17.1186801 72.0295432,17.1186801" id="Fill-1041" fill="#7DADBB"></path>
                    <path d="M51.2887035,70.1175901 C53.0442601,65.5719672 54.8099255,61.0331288 56.5722212,56.4908981 C60.0984976,47.4064369 63.5540125,38.2948375 66.9724619,29.1696692 C67.0095274,29.0695976 66.8562111,29.008537 66.815776,29.1086086 C64.347551,35.2112769 61.9079676,41.3241221 59.4852321,47.4454478 C58.5838667,44.8215379 57.5005434,42.0636338 56.0617283,39.719585 C55.9875973,39.5974638 55.7668891,39.6941431 55.8056394,39.8332256 C56.5705364,42.6063948 57.9267966,45.4083981 59.2881111,47.9475017 C58.1913094,50.7172786 57.0877686,53.4887517 56.0044453,56.2670093 C54.2320407,60.8041515 52.4630058,65.344686 50.6838621,69.8767399 C48.9131423,74.3867441 46.8324203,78.8831793 45.4357251,83.518697 C45.3363221,83.851138 45.7811081,84.0258392 45.9310548,83.7154478 C48.0336792,79.356399 49.5449405,74.6343788 51.2887035,70.1175901" id="Fill-1043" fill="#2E5175"></path>
                    <path d="M53.2794575,64.3451578 C51.769881,59.906391 49.8576385,55.4591435 47.6067521,51.3494255 C47.5494691,51.2442656 47.4028919,51.3087184 47.4382726,51.422359 C48.9040444,55.8780871 50.8482981,60.3117656 53.0553798,64.4435332 C53.1295108,64.5826157 53.3300014,64.4944171 53.2794575,64.3451578" id="Fill-1045" fill="#2E5175"></path>
                    <path d="M66.3679574,51.5695829 C64.6073464,52.2242883 62.875377,52.9502311 61.1349836,53.6575164 C59.5664393,54.2952605 57.9524055,54.8770324 56.5472863,55.8370408 C56.434405,55.9133666 56.5203296,56.1118136 56.6517436,56.0795871 C58.3078972,55.6945661 59.8258977,54.8973859 61.3556917,54.1714432 C63.0539653,53.3674785 64.7623476,52.5804752 66.4353492,51.7256267 C66.5313826,51.6747428 66.4707299,51.5339642 66.3679574,51.5695829" id="Fill-1047" fill="#2E5175"></path>
                    <path d="M59.4330035,68.7428784 C56.4222745,69.9369524 53.2952946,70.9936402 50.4698931,72.5930888 C50.298044,72.6897681 50.4058709,72.9340105 50.5911983,72.8729499 C53.6777431,71.8722344 56.5722212,70.2812664 59.4869169,68.8683918 C59.5677871,68.831077 59.5155584,68.7089558 59.4330035,68.7428784" id="Fill-1049" fill="#2E5175"></path>
                    <path d="M48.3468827,78.4160657 C47.1793196,74.7676944 45.4709373,71.1244116 43.663152,67.7559015 C43.6024994,67.6422609 43.4407591,67.7134983 43.4811942,67.8356195 C44.7094099,71.4585488 46.2038232,75.1985109 48.0672067,78.5381869 C48.1649248,78.7111919 48.4058505,78.6043359 48.3468827,78.4160657" id="Fill-1051" fill="#2E5175"></path>
                    <path d="M7.45117519,63.0018245 C15.0057968,79.0726368 23.3522722,86.4643624 28.5178542,84.5036385 L0.851832446,25.6581755 C0.733896783,29.7797664 0.614276325,48.4626157 7.45117519,63.0018245" id="Fill-1053" fill="#4F8CA4"></path>
                    <path d="M0.883001157,24.827412 C0.883001157,24.827412 0.866153205,25.1208422 0.850990049,25.6585147 L28.5170118,84.5039777 C28.6383171,84.4581822 28.7562527,84.4140829 28.8708188,84.3598068 C34.0060745,81.9122942 33.7735728,70.5821595 26.0454173,54.1415913 C18.3172617,37.7027193 0.883001157,24.827412 0.883001157,24.827412" id="Fill-1055" fill="#7DADBB"></path>
                    <path d="M22.551826,71.126447 C20.6800185,67.1710766 18.816635,63.212314 16.9515668,59.2552475 C13.2180606,51.3394184 9.42558667,43.4524234 5.5994168,35.5806936 C5.55729692,35.4941911 5.4241981,35.5569478 5.46294839,35.6468426 C7.9109558,41.0303527 10.3808655,46.4019899 12.8659384,51.7668426 C10.6066281,50.7440774 8.14514233,49.7603232 5.73757001,49.2616616 C5.61121037,49.2379158 5.53876417,49.4414512 5.65333025,49.5008157 C7.92611895,50.7067626 10.583041,51.5378653 13.0697987,52.2044436 C14.1969266,54.6332988 15.3173154,57.0655463 16.4545522,59.4910093 C18.3111965,63.4531641 20.1728952,67.4136229 22.0244851,71.3774739 C23.8625966,75.3192753 25.5052719,79.4578274 27.6567554,83.2351044 C27.8100717,83.5030926 28.1992594,83.3182146 28.0897477,83.0298729 C26.5532145,78.9591658 24.4135246,75.0563754 22.551826,71.126447" id="Fill-1057" fill="#2E5175"></path>
                    <path d="M20.0261495,66.2599167 C16.2117732,64.5230816 12.1446776,63.042362 8.08769081,61.9924588 C7.9866031,61.9670168 7.93605925,62.1044032 8.03377737,62.1485025 C11.8313057,63.9277407 15.9085101,65.3779301 19.9537033,66.4685404 C20.0884869,66.5058552 20.1541939,66.3192811 20.0261495,66.2599167" id="Fill-1059" fill="#2E5175"></path>
                    <path d="M19.7860662,49.7723657 C19.1256265,51.3361957 18.5308938,52.9237715 17.9193131,54.5062588 C17.3667003,55.9310063 16.7517501,57.3523615 16.5091396,58.8670038 C16.4906068,58.989125 16.6708799,59.055274 16.7332173,58.9484179 C17.5014839,57.6203497 17.9193131,56.1294533 18.389371,54.6758716 C18.9116575,53.0611578 19.4524767,51.4532285 19.927589,49.8232496 C19.9545457,49.7316587 19.8231317,49.682471 19.7860662,49.7723657" id="Fill-1061" fill="#2E5175"></path>
                    <path d="M26.6733404,64.9148872 C25.5950715,67.6337803 24.3584318,70.3424966 23.6558723,73.1902955 C23.6137524,73.3616044 23.8378301,73.4430185 23.9136459,73.2835825 C25.1637639,70.6325345 25.911813,67.7474209 26.7895913,64.9572904 C26.8131784,64.8809646 26.7036667,64.8419537 26.6733404,64.9148872" id="Fill-1063" fill="#2E5175"></path>
                    <path d="M26.1335321,78.1741978 C23.0436177,76.6968704 19.6234835,75.5791221 16.3212849,74.6937433 C16.2100884,74.6649091 16.156175,74.8158645 16.2623171,74.8633561 C19.372449,76.2864074 22.7218218,77.6042988 26.0408683,78.4320093 C26.2127174,78.4761086 26.2935876,78.2505236 26.1335321,78.1741978" id="Fill-1065" fill="#2E5175"></path>
                    <path d="M62.9818561,101.148251 L62.9818561,79.8940715 L11.9847906,79.8940715 L11.9847906,82.6672407 L47.4480444,118.367342 C56.1651747,117.529455 62.9818561,110.142817 62.9818561,101.148251" id="Fill-1067" fill="#EDEAE8"></path>
                    <path d="M11.985633,82.6663927 L11.985633,101.147403 C11.985633,110.703388 19.6800926,118.452996 29.1739134,118.452996 L45.794418,118.452996 C46.3520852,118.452996 46.904698,118.42077 47.4488868,118.36819 L11.985633,82.6663927 Z" id="Fill-1069" fill="#B3BCC3"></path>
                </g>
                <g id="Group-6" transform="translate(203.811382, 66.911475) rotate(36.000000) translate(-203.811382, -66.911475) translate(153.811382, 28.411475)">
                    <g id="Group-1013" transform="translate(75.597315, 0.242424)">
                        <mask id="mask-49" fill="white">
                            <use xlink:href="#path-48"></use>
                        </mask>
                        <g id="Clip-1012"></g>
                        <path d="M11.0369128,0.867874747 C6.12248322,3.0058936 2.83724832,8.91326195 1.88255034,13.9578909 C0.602348993,20.6903394 0.615771812,27.6846909 0.922818792,34.7081428 C7.69295302,35.6444889 14.4697987,36.8050788 21.1224832,38.391903 C22.1963087,28.4926532 23.0536913,20.0518438 23.2348993,18.3982599 C23.4832215,16.094198 23.4043624,13.0472215 22.8540268,10.0978168 C21.8825503,4.90426263 19.4412752,0.0102707071 14.7214765,0.0119824916 C13.6208054,0.0119824916 12.3959732,0.277309091 11.0369128,0.867874747" id="Fill-1011" fill="url(#linearGradient-50)" mask="url(#mask-49)"></path>
                    </g>
                    <g id="Group-5" transform="translate(0.496644, 33.060606)">
                        <path d="M77.3962953,23.4091199 C77.3962953,23.4091199 70.2658792,23.5682042 61.7012617,23.7591054 C48.8103624,24.0471318 33.8950067,24.3803715 33.8950067,24.3803715 L30.3365638,30.233 C30.3365638,30.233 46.060349,32.3931976 61.7046443,34.5433478 C77.1899597,36.6683794 92.5991678,38.7833636 92.6042416,38.7850382 C93.7357047,32.9324097 95.5352215,17.7708366 96.9558926,5.06586034 C90.2499866,3.51353228 83.4189262,2.3781726 76.5946309,1.46218182 C76.9295034,8.83867062 77.6060134,16.2486509 77.3962953,23.4091199" id="Fill-1014" fill="url(#linearGradient-51)"></path>
                        <g id="Group-3" transform="translate(19.154727, 21.497159) scale(-1, 1) rotate(35.000000) translate(-19.154727, -21.497159) translate(8.154727, 3.997159)">
                            <g id="Group-2">
                                <path d="M8.99835972,32.2263302 C8.42786987,31.9961439 1.95710826,29.2904791 2.18960241,28.7208655 L14.1073699,1.00682121 C14.3379103,0.437207573 19.9744282,3.43938355 20.5468718,3.66761915 C21.1173616,3.89975622 21.3928379,4.54739912 21.1642512,5.11701276 L10.4499829,31.6118498 C10.2194424,32.1814634 9.56884957,32.4565166 8.99835972,32.2263302" id="Fill-98" fill="#546E7A"></path>
                                <path d="M2.8911877,29.6375143 C2.32069785,29.407328 2.04522159,28.7577343 2.27576201,28.1881207 L12.9880766,1.6952344 C13.218617,1.12562077 13.8692099,0.848616874 14.4396997,1.07880321 C15.0101896,1.31094027 15.2876196,1.95858317 15.0570792,2.52819681 L4.34281085,29.0230338 C4.11227043,29.5926475 3.46363129,29.8677006 2.8911877,29.6375143" id="Fill-99" fill="#78909C"></path>
                                <g id="Group-155" transform="translate(0.000000, 12.000000)">
                                    <mask id="mask-53" fill="white">
                                        <use xlink:href="#path-52"></use>
                                    </mask>
                                    <g id="Clip-154"></g>
                                    <path d="M17.9249198,0.524283392 C15.2008556,0.734033741 11.0367914,1.22539336 9,3.46661469 C8.74588235,3.63169598 8.50909091,3.822025 8.30502674,4.02983322 C7.40983957,4.96011486 6.73411765,6.1856007 5.56171123,6.71580297 C5.25368984,6.85369441 4.93026738,6.93526399 4.60106952,7.00906503 C4.6742246,6.06713059 4.63572193,5.11936976 4.48171123,4.19103024 C4.44320856,3.9463215 4.38737968,3.69384423 4.23721925,3.49963094 C4.08513369,3.30541766 3.80791444,3.19083182 3.5884492,3.30347552 C3.41518717,3.39281364 3.32855615,3.58702692 3.25925134,3.76764528 C2.39294118,5.9253549 1.52470588,8.08112238 0.658395722,10.238832 L0.716149733,10.267964 C0.606417112,10.5689946 0.508235294,10.8758516 0.442780749,11.188535 C0.0847058824,12.8743063 0.309946524,14.6222259 0.535187166,16.3313028 L2.11957219,21.6100199 C2.66438503,22.649061 3.96385027,23.0918673 5.12085561,22.9714551 C6.2797861,22.8510428 7.33668449,22.2781136 8.35893048,21.7168372 C10.1743316,20.7224652 12.0224599,19.7028455 13.4451337,18.1938082 C14.3653476,17.2169154 15.0834225,15.9894874 15.3856684,14.6902005 C15.3991444,14.6863163 15.4126203,14.682432 15.4299465,14.6785477 C15.4472727,14.6804899 15.5011765,14.6746635 15.5897326,14.6688371 C15.5743316,14.6688371 16.0806417,14.7076797 15.8554011,14.6707792 C16.6331551,14.8028442 17.4070588,14.478508 17.6322995,13.6550437 C17.8248128,12.9519916 17.4012834,11.9945201 16.6235294,11.8643972 C16.1672727,11.7867119 15.7167914,11.7575799 15.2701604,11.7867119 C15.2412834,11.6973738 15.2104813,11.6080357 15.177754,11.5206397 C15.2143316,11.524524 15.2586096,11.5206397 15.2951872,11.5264661 C16.0671658,11.6682418 16.8468449,11.3264264 17.0682353,10.5087885 C17.2645989,9.7960257 16.8352941,8.86185979 16.0613904,8.72008409 C15.248984,8.57053986 14.4596791,8.5375236 13.6626738,8.63463024 C13.579893,8.49091241 13.5048128,8.34331031 13.4258824,8.19959248 C14.1574332,8.00926346 14.9063102,7.92769388 15.6763636,7.95488374 C17.5379679,8.01508986 17.5341176,5.10577483 15.6763636,5.04168444 C14.573262,5.00478392 13.5163636,5.16598094 12.4883422,5.46701154 C12.4479144,5.18734441 12.4094118,4.90573514 12.3535829,4.63189441 C12.8983957,4.44544965 13.464385,4.30950035 13.795508,4.20268304 C15.1334759,3.77347168 16.5253476,3.5443 17.9249198,3.43554056 C19.7229947,3.29570699 19.7807487,0.518456993 18.057754,0.518456993 C18.0134759,0.518456993 17.9691979,0.520399126 17.9249198,0.524283392" id="Fill-153" fill="url(#linearGradient-54)" mask="url(#mask-53)"></path>
                                </g>
                            </g>
                            <path d="M17.2884369,7.42414306 L15.9774825,6.86818454 C15.5965047,6.70627382 15.4167613,6.26540847 15.5789211,5.88306507 C15.7410809,5.50072167 16.1845781,5.32320509 16.5655559,5.48511582 L17.8765104,6.04107433 C18.2594419,6.20298506 18.4391853,6.6438504 18.2770255,7.02424307 L18.2750718,7.02424307 C18.112912,7.4085372 17.6713685,7.58605378 17.2884369,7.42414306" id="Fill-100" fill="#78909C"></path>
                            <path d="M16.1455035,6.82409801 L16.1083826,6.80849215 C15.922778,6.72851216 15.8368138,6.51393168 15.9149631,6.32861217 L16.1318273,5.81361902 C16.2119304,5.62829952 16.4287947,5.54246733 16.6124455,5.62049659 L16.6515202,5.63610244 C16.8371247,5.71608244 16.923089,5.93066292 16.8429859,6.11598243 L16.6261216,6.62902484 C16.5479723,6.81629508 16.3330618,6.90212727 16.1455035,6.82409801" id="Fill-101" fill="#CFD8DC"></path>
                            <path d="M18.2633494,6.984058 C18.1090045,7.34884482 17.6869983,7.51855847 17.3216504,7.36445067 C16.9563024,7.20839214 16.784374,6.78703411 16.9406725,6.42224729 C17.0950174,6.05746048 17.5170236,5.88774682 17.8843253,6.04380535 C18.2477195,6.19791315 18.4176942,6.61927119 18.2633494,6.984058" id="Fill-102" fill="#212121"></path>
                        </g>
                    </g>
                </g>
            </g>
        </g>
    </g>
</svg>