<?xml version="1.0" encoding="UTF-8"?>
<svg width="280px" height="94px" viewBox="0 0 280 94" version="1.1" xmlns="http://www.w3.org/2000/svg" xmlns:xlink="http://www.w3.org/1999/xlink">
    <!-- Generator: sketchtool 52.5 (67469) - http://www.bohemiancoding.com/sketch -->
    <title>5F58494C-888F-4413-84F5-771897780122</title>
    <desc>Created with sketchtool.</desc>
    <g id="Guidline" stroke="none" stroke-width="1" fill="none" fill-rule="evenodd">
        <g id="C25" transform="translate(-768.000000, -143.000000)">
            <g id="Group-4" transform="translate(768.000000, 143.000000)">
                <path d="M6.15901863,84.4981421 C7.67034783,84.4981421 8.8199441,86.3112621 10.1858758,85.9894814 C13.1702981,85.2856179 14.3968696,81.4141151 17.6715839,81.4141151 C20.1996894,81.4141151 21.6632236,84.5741532 23.9956211,84.3603085 C27.6904286,84.0207918 29.3557081,79 33.3342671,79 C37.012472,79 38.8196273,83.2981789 42.2176025,83.6772213 C44.2194596,83.9012009 45.6834969,81.4799915 47.8579193,81.4799915 C51.9602422,81.4799915 52.3209689,83.1228464 56.0982857,84.3086208 C57.1819752,84.6491509 58.0115963,86.777464 59.2366584,86.777464 C60.6770497,86.777464 61.9549379,87.2325176 62.775,88.246 L7.2475359e-13,88.246 C1.05249689,86.2190352 3.41155901,84.4981421 6.15901863,84.4981421" id="Fill-415-Copy" fill="#EAEAE4"></path>
                <g id="Group-11" transform="translate(137.000000, 73.000000)">
                    <polyline id="Fill-404" fill="#C7CFCE" points="16.5425479 15.3714878 18.8441507 20.6004878 23.5821781 20.6004878 24.224863 15.3714878 16.5425479 15.3714878"></polyline>
                    <path d="M1.09428767,1.00185366 L4.64223288,7.51134146 L9.13038356,6.0264878 C9.13545205,5.96758537 9.1369726,3.63863415 9.1369726,3.63863415 C9.1369726,2.15839024 7.9519589,1.8264878 6.48767123,1.8264878 L1.09428767,1.00185366" id="Fill-405" fill="#C7CFCE"></path>
                    <path d="M1.09428767,16.4686098 L4.64223288,9.95912195 L9.13038356,11.4439756 C9.13545205,11.502878 9.1369726,13.8323415 9.1369726,13.8323415 C9.1369726,15.3120732 7.9519589,15.6439756 6.48767123,15.6439756 L1.09428767,16.4686098" id="Fill-406" fill="#C7CFCE"></path>
                    <path d="M0.065890411,9.02282927 C0.065890411,9.02282927 36.7952329,8.95009756 36.8596027,9.02078049 C32.5458082,-6.34814634 2.10747945,2.21217073 0.065890411,9.02282927" id="Fill-407" fill="#EAEAE4"></path>
                    <path d="M0.065890411,9.02282927 C0.065890411,9.02282927 36.7952329,9.09607317 36.8596027,9.02385366 C32.5458082,24.3932927 2.10747945,15.8324634 0.065890411,9.02282927" id="Fill-408" fill="#C7CFCE"></path>
                    <path d="M21.9252877,3.93878049 C35.2214658,3.93878049 36.7952329,8.95009756 36.8596027,9.02078049 L0.0694383562,9.02129268 C0.19969863,8.97212195 8.60579452,3.93878049 21.9252877,3.93878049" id="Fill-409" fill="#C7CFCE"></path>
                    <path d="M21.9252877,14.1073902 C35.2214658,14.1073902 36.7952329,9.09709756 36.8596027,9.02539024 L0.0694383562,9.02487805 C0.19969863,9.07507317 8.60579452,14.1073902 21.9252877,14.1073902" id="Fill-410" fill="#EAEAE4"></path>
                </g>
                <path d="M133.033,14.9575 C135.896,14.9575 138.437,16.4105 140.066,18.4105 L126,18.4105 C127.631,16.4105 130.171,14.9575 133.033,14.9575" id="Fill-414" fill="#EAEAE4"></path>
                <path d="M167.242,10.85 C170.246,10.85 172.531,14.428 175.246,13.793 C181.178,12.404 183.616,4.764 190.125,4.764 C195.15,4.764 198.059,11 202.695,10.578 C210.039,9.908 213.349,5.68434189e-14 221.257,5.68434189e-14 C228.568,5.68434189e-14 232.16,8.482 238.914,9.23 C242.893,9.672 245.803,4.894 250.125,4.894 C258.279,4.894 258.996,8.136 266.504,10.476 C268.658,11.148 270.307,15.348 272.742,15.348 C275.605,15.348 278.145,16.246 279.775,18.246 L155,18.246 C157.092,14.246 161.781,10.85 167.242,10.85" id="Fill-415" fill="#EAEAE4"></path>
            </g>
        </g>
    </g>
</svg>