<svg xmlns="http://www.w3.org/2000/svg" xmlns:xlink="http://www.w3.org/1999/xlink" width="283" height="392" viewBox="0 0 283 392">
    <defs>
        <linearGradient id="a" x1="50%" x2="50%" y1="0%" y2="100%">
            <stop offset="0%" stop-color="#F9CCBC"/>
            <stop offset="100%" stop-color="#FAE0D7"/>
        </linearGradient>
        <linearGradient id="b" x1="50%" x2="50%" y1="0%" y2="100%">
            <stop offset="0%" stop-color="#D69580"/>
            <stop offset="100%" stop-color="#AD5C49"/>
        </linearGradient>
        <linearGradient id="c" x1="-34.913%" y1="100%" y2="94.404%">
            <stop offset="0%" stop-color="#008CA7"/>
            <stop offset="100%" stop-color="#62AFBC"/>
        </linearGradient>
        <linearGradient id="d" x1="29.745%" x2="35.341%" y1="29.745%" y2="164.659%">
            <stop offset="0%" stop-color="#008CA7"/>
            <stop offset="100%" stop-color="#62AFBC"/>
        </linearGradient>
        <linearGradient id="e" x1="50%" x2="-139.749%" y1="12.094%" y2="91.438%">
            <stop offset="0%" stop-color="#57748D"/>
            <stop offset="100%" stop-color="#082844"/>
        </linearGradient>
        <linearGradient id="f" x1="100%" x2="0%" y1="50%" y2="50%">
            <stop offset="0%" stop-color="#FFE25C"/>
            <stop offset="100%" stop-color="#FEC12F"/>
        </linearGradient>
        <path id="g" d="M0 1h33.047v44.161H0z"/>
    </defs>
    <g fill="none" fill-rule="evenodd">
        <path fill="url(#a)" d="M173.802 375.404c0 8.681-38.904 15.719-86.899 15.719C38.91 391.123 0 384.085 0 375.403c0-8.68 38.91-15.722 86.903-15.722 47.995 0 86.899 7.041 86.899 15.723" transform="translate(55)"/>
        <path fill="url(#b)" d="M39.931 52.735c-4.148 4.901-10.43 8.026-17.462 8.026-11.296 0-20.634-8.07-22.328-18.597 10.024-1.193 18.031-8.74 19.598-18.385a17.72 17.72 0 0 1-.007-.472v-6.345-.014a32.625 32.625 0 0 0-.008-.054h.009C19.77 7.585 27.372.05 36.748.05h4.253c9.396 0 17.015 7.573 17.015 16.911v20.882c0 9.34-7.62 16.912-17.015 16.912l-1.07-2.02z" transform="translate(108.138)"/>
        <path fill="#E9D6B8" d="M159.766 6.255a33.93 33.93 0 0 1-.405 4.782c-1.693 10.9-8.245 19.18-15.4 20.198-.224 4.94-1.21 9.382-2.38 13.159-1.338 4.298-6.312 8.843-6.312 8.843-1.214 7.614 24.399 18.789 23.793 17.564-.608-1.228-6.92-10.195-8.985-18.426-1.437-5.733.41-10.459 2.577-13.726 4.003-4.767 9.809-4.7 9.809-4.7.557 0 1.057-.242 1.414-.622.34-1.124.524-2.32.524-3.548V15.773c0-3.874-1.824-7.319-4.635-9.518"/>
        <path fill="url(#c)" d="M92.981 118.79c-2.875 7.032-18.384 7.032-21.266 0L55.25 68.04c-2.884-7.031.264-12.786 6.993-12.786h18.141l8.258 3.946 7.266-3.946h4.388c6.727 0 9.874 5.755 6.997 12.786L92.98 118.79z" transform="translate(55)"/>
        <path fill="url(#c)" d="M107.75 59.18l16.068 49.4s1.095 3.416-2.273 1.16c-4.73-3.167-15.361-14.68-24.806-37.598-6.926-16.814 6.745-13.902 11.01-12.962" transform="translate(55)"/>
        <path fill="#E9D6B8" d="M166.716 246.05c-.775-2.718-1.327-5.45-2.025-8.113-2.696-4.155-5.149-6.484-7.145-6.49-7.558-.048-11.578 25.29 3.891 73.624.861 2.686 14.394 51.294 14.413 49.34.33-39.303-6.335-98.54-9.134-108.36M120.69 245.848c.593-2.756 1.393-5.433 2.035-8.116-.406-4.918-1.45-8.106-3.178-9.034-6.556-3.5-21.895 17.124-31.038 67.049-.512 2.776-11.46 52.062-10.53 50.336 18.657-34.684 40.558-90.248 42.71-100.235"/>
        <path fill="url(#d)" d="M86.479 57.177l-4.69 5.376-4.687-7.098 2.818-4.37zM97.432 51.085l-8.87 6.594 4.806 4.874 6.656-8.655z" transform="translate(55)"/>
        <path fill="url(#c)" d="M87.645 119.894c.95-.26 1.903-.517 2.851-.776 4.81-20.684 4.268-41.687-1.26-61.15-.924-.208-1.838-.422-2.757-.628 5.609 19.89 6.123 41.382 1.166 62.554" transform="translate(55)"/>
        <path fill="url(#e)" d="M115.12 259.738c.342-1.66.521-3.564.533-5.585-.396-11.34.068-22.86-1.776-44.403-1.812-20.916-5.933-51.864-14.808-87.649-.858-3.652-1.907-6.792-3.108-9.356-8.06-1.118-16.26 4.354-24.617 6.714-3.06 5.684-5.734 12.487-7.6 20.704-9.077 37.055-13.623 58.479-16.025 76.453-2.431 17.421-2.726 31.397-3.959 40.688 23.064 38.307 46.833-32.993 71.36 2.434" transform="translate(55)"/>
        <path fill="#E9D6B8" d="M177.004 107.383s-3.381-1.022 1.494-19.382c4.87-18.358 16.119-44.214 16.119-44.214l-7.674 43.32s-3.65 16.45-9.94 20.276"/>
        <path fill="#E9D6B8" d="M190.154 58.358c2.06-8.797-.992-13.496-1.404-17.275-.4-3.775-1.454-7.716-1.426-7.688 2.908 2.755 2.339 5.619 3.093 7.296.758 1.681.298 1.183 1.241-1.896.537-1.754-1.543-5.55-2.565-8.17-.89-2.264-.712-3.519-.712-3.519s2.306 2.948 3.904 6.386c1.93 4.162 3.234 9.037 3.347 10.146.222 2.035-.97 7.96-2.45 12.034-1.667 4.593-4.507 9.023-3.028 2.686"/>
        <path fill="#E9D6B8" d="M194.616 43.787s.043-7.061-.45-8.424c-.344-.953-2.65-5.129-2.65-5.129s-.214 2.596.623 4.329c.838 1.732 2.477 9.224 2.477 9.224"/>
        <path fill="url(#c)" d="M135.448 66.964c.057 9.086-2.86 22.871-8.408 37.602a167.321 167.321 0 0 1-2.008 5.091c-1.048 2.536-5.43-.95-5.203-5.604.45-9.01 4-19.39 9.034-32.753a178.41 178.41 0 0 1 2.666-6.662 32.627 32.627 0 0 1 3.92 2.326" transform="translate(55)"/>
        <path fill="#E9D6B8" d="M198.942 353.81s-2.658-.015-9.393 1.445c-3.937.854-6.692 2.056-8.585 1.226-3.113-1.368-5.488-15.192-5.919-25.238-.047-1.126-6.776-3.757-6.466-2.511 4.046 16.216 4.27 26.476 4.664 28.74.656 3.83 2.392 7.293 4.237 7.416 3.645.243 20.401-7.544 21.753-8.248 1.355-.708.007-3.34-.291-2.83"/>
        <path fill="#163F59" d="M70.457 356.823c-1.675 9.778-.86 18.055 1.827 18.48 2.684.423 6.216-7.15 7.892-16.935 1.677-9.775.863-18.05-1.823-18.478-2.68-.429-6.223 7.153-7.896 16.933"/>
        <path fill="#E9D6B8" d="M72.937 351.58c-2.26 7-1.296 13.901 1.329 14.333 2.62.422 5.446-4.946 6.323-12.248 1.12-9.229.532-13.115 3.55-18.14 3.116-5.173 3.564-10.334 2.889-11.118-.668-.777-4.2 1.164-4.668 3.856-.669 3.848-2.367 7.261-3.03 8.316-1.858 2.975-4.043 7.729-6.393 15.001"/>
        <path fill="#163F59" d="M195.314 354.596c2.725 3.692-10.654 7.336-14.388 7.642-3.565.287-5.707.8-5.707.8-.135.062-.265.092-.399.143.025.107.035.212.077.316.958 2.25 1.224 5.665 4.848 4.148l22.733-9.498c18.576-7.763-7.227-3.634-7.164-3.55"/>
        <path fill="url(#f)" d="M111.427 170.864c28.702-11.711 44.9-38.432 32.08-69.64-12.823-31.211-43.174-38.942-71.877-27.23-22.393 9.132-23.743 27.952-36.861 48.807-2.594 4.126-18.098 7.38-18.098 7.38l16.032 39.022s13.344-8.515 18.101-7.382c24.03 5.698 38.227 18.178 60.623 9.043" transform="translate(55)"/>
        <g transform="translate(55 129.277)">
            <mask id="h" fill="#fff">
                <use xlink:href="#g"/>
            </mask>
            <path fill="#3D7AA8" d="M16.37 1l-5.428 2.217C1.944 6.89-2.366 17.143 1.315 26.123l3.337 8.126c3.684 8.976 13.967 13.272 22.964 9.599l5.431-2.216L16.369 1.001z" mask="url(#h)"/>
        </g>
        <path stroke="#FDF2CD" stroke-width="4.728" d="M139.395 100.085l10.704 2.898-5.591 9.596 10.7 2.904-5.589 9.59 10.708 2.921-5.592 9.592 10.708 2.922-5.58 9.62M135.228 111.553l-23.187 19.648-34.119 13.714M147.73 140.745l-30.525 1.952-34.073 13.686"/>
        <path fill="#34688F" d="M78.922 168.894l-10.377-25.376 4.212-1.73 10.375 25.379zM68.578 164.723l-7.327-18.098 4.134-1.71 7.328 18.098z"/>
        <path fill="url(#c)" d="M40.823 118.851s-4.992 2.138 5.136 15.476c4.32 5.685 9.797 11.686 14.662 16.694 6.525 6.724 3.057-3.873 3.057-3.873l-9.451-16.524s-6.3-11.78-13.404-11.773" transform="translate(55)"/>
        <path fill="url(#c)" d="M56.092 56.493c-10.03 12.256-17.541 64.213-17.541 64.213s1.909 11.765 6.591.7c2.897-6.837 6.596-24.258 14.575-46.773 7.052-19.895-1.151-21.16-3.625-18.14" transform="translate(55)"/>
        <path fill="#E9D6B8" d="M140.437 175.149l-4.756-.45-3.638-1.398-4.6-4.318s-4.294-5.164-5.21-7.694c-.913-2.525-7.22-10.348-7.77-11.502-.543-1.147 2.06-3.83 2.06-3.83s5.377 7.468 7.644 11.05c2.27 3.58 7.283 7.589 8.227 8.96 1.604 2.342 2.295 4.693 2.295 4.693s-3.134-3.172-3.861-4.102c-.721-.93-1.383.369-1.383.369s3.846 4.812 5.372 5.645c1.532.832 3.181 1.04 3.181 1.04l2.44 1.537z"/>
    </g>
</svg>
