<svg xmlns="http://www.w3.org/2000/svg" width="217" height="457" viewBox="0 0 217 457">
    <g fill="none" fill-rule="evenodd">
        <path d="M-19-108h250v565H-19z"/>
        <g fill="#B0BFDE">
            <path d="M93.473 456.512h-2.945l68.38-255.593h2.945l-68.38 255.593M133.695 456.512h-2.944l68.386-255.593h2.939l-68.381 255.593"/>
            <path d="M156.141 216.763l.786-2.944h41.21l-.786 2.944h-41.21M150.13 239.243l.787-2.948h41.204l-.787 2.948H150.13M144.113 261.717l.793-2.946h41.204l-.787 2.946h-41.21M138.102 284.195l.787-2.95h41.204l-.78 2.95h-41.21M132.086 306.67l.792-2.947h41.204l-.786 2.946h-41.21M126.075 329.145l.786-2.946h41.21l-.786 2.946h-41.21M120.064 351.621l.786-2.947h41.204l-.786 2.947h-41.204M114.047 374.098l.793-2.946h41.203l-.792 2.946h-41.204M108.036 396.576l.787-2.95h41.204l-.787 2.95h-41.204M102.02 419.05l.792-2.943h41.204l-.787 2.942h-41.21M96.009 441.53l.786-2.95h41.21l-.793 2.95H96.01"/>
        </g>
        <path fill="#E9D6B8" d="M126.726 352.702s-.069-.95.227-3.438c.17-1.451.396-3.147.412-3.846.04-1.497 2.14-1.608 2.305-.317.167 1.287-.696 7.183-2.046 7.55-.535.146-1.053.181-.898.05"/>
        <path fill="#3BB6D5" d="M126.754 351.249c2.713.717 2.463-4.27 2.467-5.597.008-1.27-.377-1.183-.144-2.071.194-.744 1.48-.11.99 2.555 0 0-.993 11.046-2.63 9.286-1.19-1.285-.713-4.182-.683-4.173"/>
        <path fill="#E9D6B8" d="M115.392 284.426c.82-.491 3.541 2.629 4.678 5.375 2.228 5.382 2.778 8.354 3.592 14.271 1.287 9.39 3.48 24.298 4.185 30.648.633 5.715 3.29 12.284-.58 11.507.163-7.841-3.27-19.699-5.27-25.928-6.824-21.271-9.119-34.37-6.605-35.873M132.25 288.077a312.798 312.798 0 0 0-1.825-4.148c-1.477-1.848-2.612-2.743-3.268-2.432-2.487 1.18-2.347 13.535 11.812 39.89.712 1.33 11.4 24.66 11.24 24.067-4.282-15.54-8.954-36.525-17.959-57.377"/>
        <path fill="#3BB6D5" d="M150.86 347.209c2.024 2.562 4.22 4.208 4.894 3.668.678-.537-.41-3.053-2.44-5.623-2.021-2.567-4.213-4.211-4.891-3.673-.68.541.411 3.059 2.437 5.628"/>
        <path fill="#E9D6B8" d="M150.065 345.594c1.21 2.094 3.09 3.385 3.772 2.85.674-.54-.008-2.408-1.584-4.233-1.995-2.308-2.703-2.94-3.225-4.792-.483-1.735-3.48-1.686 1.037 6.175"/>
        <path fill="#9B9B9B" d="M141.752 182.14l7.124-9.082c2.908-.87 5.813-.557 7.974 1.142 4.168 3.286 3.991 10.474-.393 16.06-4.385 5.59-11.315 7.458-15.481 4.178-2.915-2.297-3.698-6.507-2.408-10.738 1.231-.038 2.404-.562 3.184-1.56"/>
        <path fill="#9B9B9B" d="M156.518 198.265c-.734 1.68-3.25 2.206-5.611 1.169l-5.389-2.355c-2.361-1.037-3.68-3.236-2.94-4.92l6.725-15.348c.733-1.687 3.246-2.208 5.61-1.175l5.39 2.36c2.36 1.032 3.675 3.24 2.94 4.92l-6.725 15.349"/>
        <path fill="#E9D6B8" d="M139.747 196.85c-3.752-.426-5.025-1.7-3.289.595.322 1.996 15.514 8.23 17.293 6.913.295-.222-4.944-4.363-4.848-4.6 1.112-2.754 2.218-4.987 4.566-7.431.098-.241.03-.52-.151-.614-1.084-.584-2.165-1.197-3.256-1.785-.184-.09-2.552-.84-2.67.444-1.367 2.911-3.67 6.925-7.645 6.479"/>
        <path fill="#E9D6B8" d="M143.6 187.937c.01-.129.02-.257.033-.39.007-.035.006-.075.015-.116.014-.156.038-.323.066-.488l.016-.13.07-.372c.017-.066.029-.135.041-.203.025-.107.045-.211.074-.316.014-.073.034-.147.048-.22a11.8 11.8 0 0 1 .113-.41c.028-.102.06-.204.088-.315l.086-.28c.032-.09.063-.188.097-.281.03-.085.052-.164.085-.247.023-.069.047-.131.065-.202l.006-.002c.414-1.13 3.544-5.766 5.684-7.606.262-.223.681-.27 1.071.011 2.315 1.706 10.071 5.708 4.143 11.497l-.004.008a59.27 59.27 0 0 1-.68.784l-.058.062c-.22.238-.44.47-.66.689l-.047.047c-.227.225-.457.443-.69.646l-.023.019c-2.955 2.64-6.089 3.7-8.01 2.404-1.123-.755-1.66-2.195-1.648-4v-.045c0-.138.007-.278.014-.418 0-.044.005-.086.004-.126M181.565 217.52s.375.555.827.282c.744-.457 1.746-1.89 2.075-2.418.372-.586 1.668-3.64 1.668-3.64s-1.098.565-1.62 1.787c-.767 1.794-2.95 3.99-2.95 3.99"/>
        <path fill="#E9D6B8" d="M181.84 217.16c1.04-.7 1.497-2.07 1.65-3.82.149-1.659 1.06-2.221 1.06-2.221s.02 1.075-.476 3.623c-.137.716-.335 1.487-.718 2.099-1.161 1.847-4.184 2.11-1.515.32M117.92 183.01c-3.347-6.827-4.052-33.167-4.052-33.167s2.583-5.054 8.42 29.45c.292 1.724-3.54 5.411-4.368 3.718M112.387 146.99c.095-1.362-.782-2.674-2.183-3.97-1.326-1.224-1.204-2.392-1.204-2.392s.941.7 2.802 2.822c.522.599 1.03 1.226 1.503 1.856 1.56 2.07-1.161 5.189-.918 1.685"/>
        <path fill="#E9D6B8" d="M115.046 150.984c-1.508-.402-2.985-2.946-3.35-3.417-1.072-1.36-2.055-1.768-2.034-1.783 1.781-.922 3.342 1.465 4.516 1.844 1.166.376 1.737 3.59.868 3.356"/>
        <path fill="#E9D6B8" d="M115.657 161.235c-.086-3.59-.104-7.704-.95-9.609-1.198-2.71-3.01-3.576-3.066-5.64-.007-.225-.063-.444-.096-.667-.095-.597-.09-1.28-.163-1.527-.075-.271-.389-1.02-.145-.773 2.177 2.19 4.395 4.853 4.593 5.577.407 1.478 2.302 9.775 2.373 13.006.077 3.64-2.432 4.478-2.546-.367"/>
        <path fill="#E9D6B8" d="M111.939 146.002s.737-.032.746-.61c.014-.946-.723-2.706-1.018-3.318-.324-.684-2.386-3.65-2.386-3.65s-.124 1.34.703 2.54c1.207 1.742 1.955 5.038 1.955 5.038M119.52 166.871c-1.41 2.023-1.17 8.916-2.427 8.641-2.178-6.775-.928-25.536-.928-25.536l3.355 16.895M154.762 217.47c1.572 3.616-.12 12.175-.843 17.795-.406 3.167-1.908 4.87-1.908 4.87s-4.377 5.457-2.091-14.967c.575-5.112 4.25-9.054 4.842-7.698"/>
        <path fill="#E9D6B8" d="M149.905 238.571c3.512-6.013 23.405-15.72 23.405-15.72s8.402-1.536-15.344 15.886c-7.127 5.23-8.922 1.313-8.06-.166"/>
        <path fill="#E9D6B8" d="M182.506 215.955l.29.56-.754 2.027s-2.713 2.793-4.11 3.48c-1.4.684-5.445 5.08-6.071 5.465-.633.386-3.58-1.354-3.58-1.354s5.143-3.42 7.066-4.952c1.921-1.528 3.919-4.653 4.65-5.285 1.256-1.068 1.826-1.68 1.826-1.68s.478.746-1.387 2.541c-.49.473.295.77.295.77l1.775-1.572"/>
        <path fill="#BAE0E7" d="M135.094 190.875l21.104 15-12.311 18.646c-2.114 12.09.551 17.365.034 22.943-2.927 31.695-10.212 42.459-11.347 42.206-12.384-.716-14.565.295-24.694-3.475-1.743-57.924 20.074-56.803 16.715-76.44 1.771-5.19 10.499-18.88 10.499-18.88"/>
        <path fill="#BAE0E7" d="M118.348 183.452l15.037 16.074 7.312 4.92a3.214 3.214 0 0 0 1.916-.884l.356-.342c1.376-1.348 1.2-3.69-.387-5.24l-19.394-18.91-4.84 4.382M148.155 234.443l1.484-17.58 2.963-11.17a3.443 3.443 0 0 1 2.035-.285l.485.078a3.463 3.463 0 0 1 2.848 3.988l-3.179 23.562-6.636 1.407"/>
        <path fill="#E9D6B8" d="M181.293 218.376s1.468-1.344 1.682-2.32c.144-.678.309-3.992.309-3.992s-.832.91-.904 2.233c-.102 1.947-1.087 4.08-1.087 4.08M180.731 217.527s-.542-.164-.61-.408c-.098.156-.157.346-.215.482-.13.3-1.4 2.146-1.4 2.146s1.17-1.158 1.586-1.418c.259-.165.723-.665 1.119-1.082.048-.052.085-.173.156-.283l-.636.563"/>
        <path fill="#E9D6B8" d="M180.436 216.757c1.254-1.202 1.446-1.941 1.443-2.293a29.57 29.57 0 0 1-1.483 1.347c-.251.213-.663.737-1.167 1.386-.096.122.337.542-.133 1.823-.083.232 1.027-.81 1.532-1.546-.19-.099-.567-.354-.192-.717"/>
        <path fill="#9B9B9B" d="M159.698 178.02c.138-.044.277-.068.414-.108l.192.085c2.36 1.03 3.174 3.099 2.94 4.92-1.57 11.972 11.506 9.635 5.339 15.253-4.338 3.95-14.26 1.988-16.059 1.727-.247-.155-.524-.279-.727-.497-9.335-10.005 7.901-21.38 7.901-21.38"/>
    </g>
</svg>
