<svg xmlns="http://www.w3.org/2000/svg" xmlns:xlink="http://www.w3.org/1999/xlink" width="35" height="35" viewBox="0 0 35 35">
    <defs>
        <path id="a" d="M22.778 11.18v11.272a.551.551 0 0 1-.556.548h-6.666a.551.551 0 0 1-.556-.548v-7.119h-4.444v7.12A.551.551 0 0 1 10 23H3.333a.551.551 0 0 1-.555-.548V11.18l-1.83 1.804a.56.56 0 0 1-.785 0 .542.542 0 0 1 0-.775L12.385.161a.56.56 0 0 1 .786 0l12.222 12.047a.542.542 0 0 1 0 .775.558.558 0 0 1-.786 0l-1.83-1.804zm-18.89-1.096v11.82h5.556v-7.118c0-.303.25-.548.556-.548h5.556c.307 0 .555.245.555.548v7.119h5.556V10.084l-8.89-8.762-8.888 8.762z"/>
    </defs>
    <use fill="#FFF" fill-rule="evenodd" transform="translate(5 6)" xlink:href="#a"/>
</svg>
