<svg xmlns="http://www.w3.org/2000/svg" xmlns:xlink="http://www.w3.org/1999/xlink" width="35" height="35" viewBox="0 0 35 35">
    <defs>
        <path id="a" d="M26 8.088v-.215s0-.108-.108-.108v-.108L19.067.107c-.109 0-.325-.107-.434-.107H7.367c-.109 0-.325.108-.434.216L.108 7.765v.108s0 .107-.108.107v.432s0 .108.108.108l12.459 12.94c.108.109.216.216.433.216s.325-.107.433-.215L25.892 8.52s0-.108.108-.108v-.108-.216zm-19.283.54l4.766 10.029-9.641-10.03h4.875zm1.191 0h4.55v9.597l-4.55-9.598zm5.634 0h4.55l-4.55 9.597V8.627zm5.741 0h4.875l-9.641 10.029 4.766-10.03zm4.984-1.079h-4.875l-2.384-6.47h1.409l5.85 6.47zm-8.45-6.47l2.383 6.47h-4.658v-6.47h2.275zm-3.359 6.47H7.8l2.383-6.47h2.275v6.47zm-4.875-6.47h1.409l-2.384 6.47H1.733l5.85-6.47z"/>
    </defs>
    <g fill="none" fill-rule="evenodd">
        <path d="M0 0h35v35H0z"/>
        <use fill="#FFF" fill-rule="nonzero" transform="translate(5 7)" xlink:href="#a"/>
    </g>
</svg>
