<svg xmlns="http://www.w3.org/2000/svg" xmlns:xlink="http://www.w3.org/1999/xlink" width="40" height="40" viewBox="0 0 40 40">
    <defs>
        <path id="a" d="M9.167 16.667C12.333 16.667 15 14 15 10.833 15 7.667 12.333 5 9.167 5 6 5 3.333 7.667 3.333 10.833 3.333 14 6 16.667 9.167 16.667zm0-10a4.126 4.126 0 0 1 4.166 4.166A4.126 4.126 0 0 1 9.167 15 4.126 4.126 0 0 1 5 10.833a4.126 4.126 0 0 1 4.167-4.166zm2.333-3c-.333 0-.5-.167-.667-.5-.166-.5 0-1 .334-1.167a20.14 20.14 0 0 1 17.5 0c.333.333.5.833.333 1.167-.333.333-.833.5-1.167.333-5-2.5-11-2.5-16 0-.166.167-.166.167-.333.167zM33 33a.806.806 0 0 1 1.167 0 .806.806 0 0 1 0 1.167C30.333 38 25.333 40 20 40S9.833 38 6 34.333a.806.806 0 0 1 0-1.166.806.806 0 0 1 1.167 0c3.5 3.333 8 5.166 12.833 5.166S29.5 36.5 33 33zm-16.333-9.833c0-1.834-1.334-3.167-3-3.167H4.833C3 20 1.667 21.5 1.667 23.167v7.666c0 .5-.334.834-.834.834-.5 0-.833-.334-.833-.834v-7.666a4.837 4.837 0 0 1 4.833-4.834H13.5a4.837 4.837 0 0 1 4.833 4.834v7.666c0 .5-.333.834-.833.834-.5 0-.833-.334-.833-.834v-7.666zM25 10.833c0 3.167 2.667 5.834 5.833 5.834 3.167 0 5.834-2.667 5.834-5.834C36.667 7.667 34 5 30.833 5 27.667 5 25 7.667 25 10.833zm5.833-4.166A4.126 4.126 0 0 1 35 10.833 4.126 4.126 0 0 1 30.833 15a4.126 4.126 0 0 1-4.166-4.167 4.126 4.126 0 0 1 4.166-4.166zm4.334 11.666A4.837 4.837 0 0 1 40 23.167v7.666c0 .5-.333.834-.833.834-.5 0-.834-.334-.834-.834v-7.666c0-1.834-1.5-3.167-3.166-3.167h-8.834c-1.833 0-3.166 1.5-3.166 3.167v7.666c0 .5-.334.834-.834.834-.5 0-.833-.334-.833-.834v-7.666a4.837 4.837 0 0 1 4.833-4.834h8.834z"/>
    </defs>
    <g fill="none" fill-rule="evenodd">
        <mask id="b" fill="#fff">
            <use xlink:href="#a"/>
        </mask>
        <use fill="#000" fill-rule="nonzero" xlink:href="#a"/>
        <g fill="#006192" mask="url(#b)">
            <path d="M0 0h40v40H0z"/>
        </g>
    </g>
</svg>
