<svg xmlns="http://www.w3.org/2000/svg" width="40" height="40" viewBox="0 0 40 40">
    <g fill="#007AB3" fill-rule="evenodd">
        <path d="M34.876 18.598l-5.462 9.143-.5 8.033L4.674 22.253l6.933-4.422L17.07 8.69c2.86-4.786 9.177-6.348 14.045-3.631 4.86 2.71 6.618 8.76 3.761 13.54m-21.47 16.057c-1.514-.844-2.151-2.63-1.518-4.18l6.037 3.368c-1.08 1.298-3.005 1.656-4.52.812M32.98 1.898C26.336-1.808 17.733.334 13.833 6.86l-5.337 8.93-7.414 4.731c-1.52.97-1.484 2.98.397 4.149l7.147 3.986c-1.657 3.31-.38 7.318 2.916 9.156 3.297 1.838 7.52.902 9.65-2.146l6.49 3.62c1.864 1.04 4.435.703 4.585-1.716l.512-8.214 5.334-8.93c3.905-6.534 1.514-14.82-5.133-18.528"/>
        <path d="M25.315 25.502l1.995 1.135 1.851-3.099-1.993-1.138zM30.279 10.271c1.42 1.626 1.753 3.988.568 5.972L27.73 21.46l1.993 1.138 3.106-5.198c1.842-3.083 1.145-6.848-1.352-9.18l-1.197 2.05z"/>
    </g>
</svg>
