<svg xmlns="http://www.w3.org/2000/svg" xmlns:xlink="http://www.w3.org/1999/xlink" width="42" height="42" viewBox="0 0 42 42">
    <defs>
        <path id="a" d="M18.8 16.35a.65.65 0 1 1 0 1.3h-1.15v1.15a.65.65 0 1 1-1.3 0v-1.15H15.2a.65.65 0 0 1 0-1.3h1.15V15.2a.65.65 0 1 1 1.3 0v1.15h1.15zM2.6 20.4h7.613c.292.58.654 1.116 1.078 1.6H1.998c-.549 0-1-.45-1-1V4c0-.55.451-1 1-1h2V2a1 1 0 1 1 2 0v1H16V2a1 1 0 1 1 2 0v1h2c.55 0 1 .45 1 1v6.55a7.631 7.631 0 0 0-1.6-.755V8H2.6v12.4zM5.2 14h2c.55 0 1 .45 1 1v2c0 .55-.45 1-1 1h-2c-.55 0-1-.45-1-1v-2c0-.55.45-1 1-1zM17 21.4a4.404 4.404 0 0 1-4.4-4.4c0-2.426 1.973-4.4 4.4-4.4a4.404 4.404 0 0 1 4.399 4.4c0 2.426-1.972 4.4-4.4 4.4M17 11A6 6 0 1 0 17 23a6 6 0 0 0 0-12"/>
    </defs>
    <g fill="none" fill-rule="evenodd">
        <g transform="translate(9 9)">
            <mask id="b" fill="#fff">
                <use xlink:href="#a"/>
            </mask>
            <g fill="#007AB3" mask="url(#b)">
                <path d="M0 0h24v24H0z"/>
            </g>
        </g>
        <path stroke="#007AB3" d="M21 41c7.784 0 14.53-4.447 17.834-10.939A19.916 19.916 0 0 0 41 21C41 9.954 32.046 1 21 1S1 9.954 1 21s8.954 20 20 20z"/>
    </g>
</svg>
