<svg xmlns="http://www.w3.org/2000/svg" xmlns:xlink="http://www.w3.org/1999/xlink" width="42" height="42" viewBox="0 0 42 42">
    <defs>
        <path id="a" d="M8.96 18.65a.65.65 0 0 1-.65-.65v-7a.65.65 0 1 1 1.3 0v7a.65.65 0 0 1-.65.65zm3 0a.65.65 0 0 1-.65-.65v-7a.65.65 0 1 1 1.3 0v7a.65.65 0 0 1-.65.65zm3 0a.65.65 0 0 1-.65-.65v-7a.65.65 0 1 1 1.3 0v7a.65.65 0 0 1-.65.65zM6.56 12V8.6h10.8V19c0 .77-.628 1.398-1.4 1.398h-8c-.771 0-1.4-.628-1.4-1.399v-7zm-1.6 0V7h14v12c0 1.648-1.35 3-3 3h-8c-1.65 0-3-1.352-3-3v-7zm14-8c.55 0 1 .45 1 1s-.45 1-1 1h-14c-.55 0-1-.45-1-1s.45-1 1-1h4c0-.55.45-1 1-1h4c.55 0 1 .45 1 1h4z"/>
    </defs>
    <g fill="none" fill-rule="evenodd">
        <g transform="translate(9 9)">
            <mask id="b" fill="#fff">
                <use xlink:href="#a"/>
            </mask>
            <g fill="#007AB3" mask="url(#b)">
                <path d="M0 0h24v24H0z"/>
            </g>
        </g>
        <path stroke="#007AB3" d="M21 41c7.784 0 14.53-4.447 17.834-10.939A19.916 19.916 0 0 0 41 21C41 9.954 32.046 1 21 1S1 9.954 1 21s8.954 20 20 20z"/>
    </g>
</svg>
