<svg xmlns="http://www.w3.org/2000/svg" xmlns:xlink="http://www.w3.org/1999/xlink" width="150" height="85" viewBox="0 0 150 85">
    <defs>
        <path id="a" d="M.022 37.973V13.961C.022 6.265 6.256.005 13.92.005c7.663 0 13.897 6.26 13.897 13.956v24.012H.022"/>
    </defs>
    <g fill="none" fill-rule="evenodd">
        <path fill="#243E74" d="M64.588 82.267h9.83V50.185h-9.83z"/>
        <path fill="#3765B2" d="M101.213 29.035v26.83H33.47v-26.83c0-9.011 7.274-16.316 16.247-16.316h35.248c3.669 0 7.053 1.22 9.772 3.279a16.254 16.254 0 0 1 2.412 2.244c.571.647 1.088 1.339 1.549 2.07a16.305 16.305 0 0 1 2.516 8.722"/>
        <path fill="#3765B2" d="M65.964 29.035v18.373H33.47V29.035c0-9.01 7.274-16.316 16.247-16.316 8.973 0 16.248 7.305 16.248 16.316"/>
        <path fill="#762022" d="M35.819 53.276V29.263c0-7.695 6.234-13.955 13.897-13.955s13.898 6.26 13.898 13.955v24.013H35.819"/>
        <path fill="#3765B2" d="M8.736 57.073h92.477v-2.244H8.736z"/>
        <path fill="#9B9E9C" d="M103.905 43.65V28.24H74.213v5.757h21.21v9.653h8.482"/>
        <path fill="#F4F3F1" d="M103.905 44.225V29.639H74.213v4.933h21.21v9.653h8.482"/>
        <path fill="#F9CB3F" d="M82.293 33.573c0 3.183-2.147 5.763-4.797 5.763-2.649 0-4.797-2.58-4.797-5.763s2.148-5.763 4.797-5.763c2.65 0 4.797 2.58 4.797 5.763"/>
        <path fill="#FCF178" d="M80.417 33.573c0 1.938-1.307 3.509-2.92 3.509-1.614 0-2.922-1.571-2.922-3.51 0-1.937 1.308-3.509 2.921-3.509 1.614 0 2.921 1.572 2.921 3.51"/>
        <use fill="#243E74" transform="translate(35.797 15.303)" xlink:href="#a"/>
        <path fill="#243E74" d="M58.108 83.59h22.74v-2.15h-22.74z"/>
        <path fill="#6EA9D0" d="M32.977 6.57a2.228 2.228 0 0 1-2.224 2.232c-1.228 0-2.223-1-2.223-2.233s.995-2.232 2.223-2.232c1.228 0 2.224 1 2.224 2.232M51.132 72.054a2.228 2.228 0 0 1-2.223 2.232c-1.228 0-2.223-1-2.223-2.232 0-1.233.995-2.233 2.223-2.233 1.228 0 2.223 1 2.223 2.233M116.715 14.528a1.948 1.948 0 0 1-1.946 1.952 1.948 1.948 0 0 1-1.945-1.952c0-1.078.871-1.951 1.945-1.951 1.075 0 1.946.873 1.946 1.951"/>
        <path fill="#F9CB45" d="M65.095 4.682c0 .91-.734 1.647-1.64 1.647-.905 0-1.64-.737-1.64-1.647s.735-1.646 1.64-1.646c.906 0 1.64.737 1.64 1.646M17.291 40.549c0 .838-.677 1.517-1.513 1.517-.835 0-1.513-.68-1.513-1.517 0-.839.678-1.518 1.513-1.518.836 0 1.513.68 1.513 1.518"/>
        <path fill="#6EA9D0" d="M82.48 68.503c0 .617-.498 1.117-1.112 1.117-.614 0-1.112-.5-1.112-1.117 0-.616.498-1.116 1.112-1.116.614 0 1.111.5 1.111 1.116"/>
        <path fill="#F9CB45" d="M106.402 39.28c0 .616-.498 1.116-1.112 1.116-.614 0-1.111-.5-1.111-1.117 0-.616.497-1.116 1.111-1.116s1.112.5 1.112 1.116M100.72 75.676c0 .599-.483 1.084-1.08 1.084-.597 0-1.08-.485-1.08-1.084 0-.599.483-1.084 1.08-1.084.597 0 1.08.485 1.08 1.084"/>
        <path fill="#6EA9D0" d="M91.704 1.116c0 .617-.497 1.116-1.111 1.116s-1.112-.5-1.112-1.116C89.481.5 89.98 0 90.593 0c.614 0 1.111.5 1.111 1.116"/>
        <path fill="#F9CB45" d="M30.946 68.503c0 .617-.497 1.117-1.111 1.117s-1.112-.5-1.112-1.117c0-.616.498-1.116 1.112-1.116.614 0 1.111.5 1.111 1.116"/>
        <g>
            <path fill="#008E97" d="M131.724 76.714s-10.345-4.277-5.204-24.42c0 0 12.118 9.625 5.204 24.42"/>
            <path fill="#157F8B" d="M130.882 76.264s-5.118-.459-10.235-12.809c0 0 7.402 2.687 10.235 12.81"/>
            <path fill="#00B0AF" d="M131.928 76.86s-11.076-13.368 6.12-29.59c0 0 9.986 22.42-6.12 29.59"/>
            <path fill="#008E97" d="M131.523 78.665l-.065-.006a.332.332 0 0 1-.26-.39l5.092-25.71a.338.338 0 0 1 .388-.26.333.333 0 0 1 .26.39l-5.092 25.71a.331.331 0 0 1-.323.266"/>
            <path fill="#008E97" d="M135.407 60.834a.332.332 0 0 1-.099-.648l3.737-1.18a.333.333 0 0 1 .413.216.333.333 0 0 1-.216.416l-3.736 1.18-.099.016M133.187 70.323a.332.332 0 0 1-.099-.648l3.736-1.181a.329.329 0 0 1 .414.217.333.333 0 0 1-.216.415l-3.736 1.181-.099.016M133.91 66.366a.326.326 0 0 1-.245-.11l-3.498-3.922a.334.334 0 0 1 .025-.468.328.328 0 0 1 .465.025l3.498 3.921a.333.333 0 0 1-.245.554"/>
            <path fill="#130F1F" d="M134.698 75.733h-6.41a.428.428 0 0 0-.42.502l1.246 7.318a.428.428 0 0 0 .42.357h4.246c.215 0 .397-.16.423-.375l.919-7.318a.429.429 0 0 0-.424-.484"/>
        </g>
        <path fill="#B6CCD7" d="M149.668 84.042L.335 84.949c-.184 0-.334-.172-.335-.387 0-.215.147-.39.332-.391l149.333-.906c.184-.001.334.171.335.386 0 .214-.147.39-.332.39"/>
    </g>
</svg>
