<svg xmlns="http://www.w3.org/2000/svg" xmlns:xlink="http://www.w3.org/1999/xlink" width="421" height="123" viewBox="0 0 421 123">
    <defs>
        <path id="a" d="M.255.084h59.043V15.69H.255z"/>
        <path id="c" d="M.863 103.307h149.144v20.04H.863z"/>
    </defs>
    <g fill="none" fill-rule="evenodd">
        <path fill="#DDEAF1" d="M367.508 43.64c-15.803 2.188-57.454 7.936-92.124 21.913-41.195 16.606-25.22 12.807-90.144 25.703C153.362 97.588 91.615 108.169 0 123h420.789V41.656c-11.676-2.188-37.478-.204-53.28 1.984z"/>
        <g transform="translate(244.526 -1)">
            <path fill="#FFFFFE" d="M50.095 60.097c.82-.752 1.689-.618 2.14-.469.396-1.027 1.248-2.197 3.079-2.197 3.261 0 3.522 3.231 3.522 3.231 2.297-.7 2.74 1.347 2.74 1.427H49.234c0-1.319.86-1.992.86-1.992M112.258 66.023a3.25 3.25 0 0 1 1.643.445c.927-1.63 2.639-2.727 4.603-2.727 1.833 0 3.45.955 4.412 2.409.508-1.75 2.079-3.028 3.94-3.028 2.114 0 3.852 1.645 4.086 3.76a3.25 3.25 0 0 1 .52-.046c1.29 0 2.406.752 2.967 1.853H109c.348-1.528 1.673-2.666 3.26-2.666"/>
            <path fill="#DDEAF1" d="M97.76 2.127c0 .977-.786 1.77-1.756 1.77s-1.757-.793-1.757-1.77c0-.976.786-1.769 1.757-1.769.97 0 1.756.793 1.756 1.77"/>
            <path fill="#6D93BF" d="M57.379 39.09a1.18 1.18 0 0 1-1.175 1.183 1.18 1.18 0 0 1-1.176-1.183 1.18 1.18 0 0 1 1.176-1.183c.649 0 1.175.53 1.175 1.183"/>
            <path fill="#DDEAF1" d="M104.371 32.867l-.704-.38-.104-.104-.377-.71a.252.252 0 0 0-.447 0l-.377.71-.104.104-.705.38a.257.257 0 0 0 0 .45l.705.38.104.105.377.71c.096.179.351.179.447 0l.377-.71.104-.104.704-.38a.256.256 0 0 0 0-.45"/>
            <path fill="#AAC8DF" d="M62.87 9.137l-.889-.479a.324.324 0 0 1-.13-.131l-.476-.894a.319.319 0 0 0-.563 0l-.476.894a.318.318 0 0 1-.13.131l-.888.48a.322.322 0 0 0 0 .566l.888.48c.056.03.1.075.13.131l.476.894c.12.226.443.226.563 0l.476-.894a.324.324 0 0 1 .13-.131l.889-.48a.323.323 0 0 0 0-.567M124.447 27.09l-1.073-.58a.387.387 0 0 1-.158-.158l-.576-1.081a.385.385 0 0 0-.68 0l-.576 1.08a.39.39 0 0 1-.158.16l-1.073.58a.39.39 0 0 0 0 .685l1.073.58a.387.387 0 0 1 .158.158l.576 1.081a.385.385 0 0 0 .68 0l.576-1.08a.384.384 0 0 1 .158-.16l1.073-.58a.39.39 0 0 0 0-.684"/>
            <path fill="#6D93BF" d="M40.782 22.928l-.983-.53a.355.355 0 0 1-.145-.146l-.527-.99a.352.352 0 0 0-.623 0l-.527.99a.357.357 0 0 1-.145.146l-.982.53a.357.357 0 0 0 0 .628l.982.53a.357.357 0 0 1 .145.146l.527.99c.133.25.49.25.623 0l.527-.99a.355.355 0 0 1 .145-.146l.983-.53a.357.357 0 0 0 0-.628M106.41 16.758l-.72-.388-.106-.107-.386-.724a.257.257 0 0 0-.455 0l-.386.724-.106.107-.719.388a.262.262 0 0 0 0 .46l.719.388.106.106.386.724a.257.257 0 0 0 .455 0l.386-.724.106-.106.72-.388a.262.262 0 0 0 0-.46"/>
            <path fill="#FFFFFE" d="M76.154 117.5h10.242V69.06H76.154z"/>
            <path fill="#DDEAF1" d="M85.188 71.826c0-2.084-1.677-3.773-3.745-3.773-2.069 0-3.746 1.69-3.746 3.773 0 0-.484 8.918 3.746 13.665 4.229-4.747 3.745-13.665 3.745-13.665"/>
            <path fill="#6D93BF" d="M68.362 51.401s-14.026 6.84-8.468 27.01c0 0 2.968-10.139 12.484-12.764L68.362 51.4M94.65 51.401s14.025 6.84 8.467 27.01c0 0-2.967-10.139-12.483-12.764L94.65 51.4"/>
            <path fill="#34446D" d="M86.058 69.854h-9.534a.807.807 0 0 1-.785-.632l-.523-2.325a.81.81 0 0 1 .785-.99h10.58c.516 0 .9.483.785.99l-.524 2.325a.806.806 0 0 1-.784.632"/>
            <path fill="#AAC8DF" d="M67.533 45.953s1.463 13.528 5.985 22.1c0 0 7.183-3.482 15.696 0 0 0 5.188-7.232 6.252-23.172.613-9.185-.12-19.67-3.14-28.706H71.228c-2.808 7.36-4.808 17.244-3.695 29.778"/>
            <path fill="#34446D" d="M79.81 1.517c-2.122 2.417-5.76 7.263-8.582 14.658h21.098c-1.933-5.781-4.801-10.97-8.862-14.838-1.044-.995-2.701-.906-3.653.18"/>
            <path fill="#6D93BF" d="M81.131 45.299s-6.472 14.807 0 32.414c0 0 7.191-14.692 0-32.414"/>
            <path fill="#34446D" d="M89.875 31.558c0 4.528-3.644 8.198-8.14 8.198-4.495 0-8.14-3.67-8.14-8.198 0-4.527 3.645-8.197 8.14-8.197 4.496 0 8.14 3.67 8.14 8.197"/>
            <path fill="#F0C171" d="M87.386 31.558c0 3.143-2.53 5.691-5.651 5.691s-5.651-2.548-5.651-5.69c0-3.143 2.53-5.692 5.65-5.692 3.122 0 5.652 2.549 5.652 5.691"/>
            <g transform="translate(55.048 107.658)">
                <mask id="b" fill="#fff">
                    <use xlink:href="#a"/>
                </mask>
                <path fill="#FFFFFE" d="M24.088 11.915c0 6.534-5.335 11.83-11.916 11.83S.255 18.45.255 11.916 5.591.085 12.172.085c6.581 0 11.916 5.296 11.916 11.83M59.298 11.915c0 5.854-4.78 10.599-10.675 10.599-5.895 0-10.675-4.745-10.675-10.599 0-5.853 4.78-10.598 10.675-10.598 5.896 0 10.675 4.745 10.675 10.598" mask="url(#b)"/>
            </g>
            <path fill="#FFFFFE" d="M94.41 110.389c0 4.577-3.737 8.288-8.348 8.288-4.61 0-8.347-3.711-8.347-8.288s3.737-8.287 8.347-8.287c4.61 0 8.348 3.71 8.348 8.287M76.667 105.362c0 3.189-2.604 5.774-5.816 5.774-3.212 0-5.815-2.585-5.815-5.774s2.603-5.773 5.815-5.773 5.816 2.584 5.816 5.773"/>
            <path fill="#FFFFFE" d="M89.65 100.593c0 2.179-1.778 3.945-3.972 3.945-2.195 0-3.974-1.766-3.974-3.945s1.78-3.945 3.974-3.945 3.973 1.766 3.973 3.945"/>
            <mask id="d" fill="#fff">
                <use xlink:href="#c"/>
            </mask>
            <path fill="#FFFFFE" d="M85.654 110.299c0 3.86-3.153 6.99-7.042 6.99-3.89 0-7.042-3.13-7.042-6.99 0-3.861 3.153-6.992 7.042-6.992 3.89 0 7.042 3.13 7.042 6.992M64.371 124.334c.371 8.844-6.55 16.311-15.457 16.68-8.907.368-16.43-6.502-16.8-15.345-.371-8.844 6.549-16.312 15.456-16.68 8.908-.369 16.43 6.502 16.801 15.345" mask="url(#d)"/>
        </g>
    </g>
</svg>
