<?xml version="1.0" encoding="UTF-8"?>
<svg width="646px" height="327px" viewBox="0 0 646 327" version="1.1" xmlns="http://www.w3.org/2000/svg" xmlns:xlink="http://www.w3.org/1999/xlink">
    <!-- Generator: sketchtool 53.2 (72643) - https://sketchapp.com -->
    <title>A70B6278-DFED-4FB5-B526-ECE22680D5DE</title>
    <desc>Created with sketchtool.</desc>
    <defs>
        <path d="M8.083,0.573 C6.369,3.181 3.337,10.691 0.083,16.659 C1.855,18.054 4.527,19.798 6.513,20.889 C7.324,21.334 9.736,22.761 10.576,23.133 C15.533,16.769 18.818,8.017 17.32,6.032 C16.347,4.743 8.525,-0.097 8.083,0.573" id="path-1"></path>
        <linearGradient x1="-1.11022302e-14%" y1="50%" x2="100%" y2="50%" id="linearGradient-3">
            <stop stop-color="#D2EAF0" offset="0%"></stop>
            <stop stop-color="#6ED0EA" offset="100%"></stop>
        </linearGradient>
        <path d="M7.339,0.952 C6.818,0.099 6.403,0.003 6.403,0.003 L2.907,0.722 C2.907,0.722 3.054,1.919 3.062,2.765 C3.077,4.397 -0.159,8.37 0.995,9.71 C1.577,10.388 3.525,9.771 4.726,8.819 C5.928,7.866 6.89,6.925 7.196,6.022 C7.578,4.899 8.705,3.228 8.594,2.597 C8.403,1.499 7.339,0.952 7.339,0.952" id="path-4"></path>
        <linearGradient x1="-0.00277767521%" y1="50.0010606%" x2="100.004414%" y2="50.0010606%" id="linearGradient-6">
            <stop stop-color="#8FCEE6" offset="0%"></stop>
            <stop stop-color="#8380B0" offset="100%"></stop>
        </linearGradient>
        <path d="M10.854,1.866 L7.735,0.132 C7.735,0.132 7.066,1.134 6.521,1.78 C5.468,3.028 0.424,3.931 0.424,5.7 C0.424,6.593 2.303,7.396 3.835,7.456 C5.368,7.517 6.626,7.243 7.531,6.946 C8.434,6.651 10.498,5.812 10.825,5.261 C11.396,4.304 10.946,3.194 10.946,3.194 C11.107,2.208 10.854,1.866 10.854,1.866" id="path-7"></path>
        <linearGradient x1="0%" y1="50.0096661%" x2="99.994851%" y2="50.0096661%" id="linearGradient-9">
            <stop stop-color="#8FCEE6" offset="0%"></stop>
            <stop stop-color="#8380B0" offset="100%"></stop>
        </linearGradient>
        <polyline id="path-10" points="3.427 1.476 0.063 1.476 0.069 1.45 0.18 0.976 1.295 0.976 3.318 1.45 3.427 1.476"></polyline>
        <linearGradient x1="-2220.1843%" y1="6971.69%" x2="1924.28656%" y2="6971.69%" id="linearGradient-12">
            <stop stop-color="#B4DFEA" offset="0%"></stop>
            <stop stop-color="#AAB3D0" offset="100%"></stop>
        </linearGradient>
        <path d="M2.371,1.476 L0.576,1.476 C0.624,1.472 0.671,1.47 0.718,1.468 C0.983,1.457 1.242,1.451 1.494,1.45 C1.506,1.45 1.518,1.45 1.531,1.45 C1.544,1.45 1.557,1.45 1.571,1.45 C1.848,1.451 2.115,1.459 2.371,1.476" id="path-13"></path>
        <linearGradient x1="-182.172702%" y1="415.8%" x2="413.420613%" y2="415.8%" id="linearGradient-15">
            <stop stop-color="#B4DFEA" offset="0%"></stop>
            <stop stop-color="#AAB3D0" offset="100%"></stop>
        </linearGradient>
        <path d="M1.457,1.476 L0.281,1.476 C0.329,1.472 0.376,1.47 0.423,1.468 C0.572,1.462 0.718,1.459 0.862,1.459 C1.066,1.459 1.264,1.465 1.457,1.476" id="path-16"></path>
        <linearGradient x1="-277.882653%" y1="415.74%" x2="631.088435%" y2="415.74%" id="linearGradient-18">
            <stop stop-color="#B4DFEA" offset="0%"></stop>
            <stop stop-color="#AAB3D0" offset="100%"></stop>
        </linearGradient>
        <path d="M10.667,1.858 L7.548,0.124 C7.548,0.124 6.88,1.126 6.333,1.772 C5.283,3.019 0.238,3.921 0.238,5.69 C0.238,6.583 2.117,7.386 3.648,7.446 C5.181,7.509 6.525,7.423 7.345,6.939 C8.367,6.335 10.312,5.802 10.638,5.251 C11.208,4.296 10.759,3.187 10.759,3.187 C10.921,2.2 10.667,1.858 10.667,1.858" id="path-19"></path>
        <linearGradient x1="0%" y1="49.9993768%" x2="100.004542%" y2="49.9993768%" id="linearGradient-21">
            <stop stop-color="#61C4E4" offset="0%"></stop>
            <stop stop-color="#4B609D" offset="100%"></stop>
        </linearGradient>
        <path d="M11.373,1.858 L8.253,0.124 C8.253,0.124 7.585,1.126 7.041,1.772 C5.988,3.019 0.943,3.921 0.943,5.69 C0.943,6.583 2.822,7.386 4.355,7.446 C5.886,7.509 7.146,7.235 8.05,6.939 C8.953,6.644 11.017,5.802 11.345,5.251 C11.916,4.296 11.464,3.187 11.464,3.187 C11.626,2.2 11.373,1.858 11.373,1.858" id="path-22"></path>
        <linearGradient x1="0%" y1="49.9910734%" x2="100.001105%" y2="49.9910734%" id="linearGradient-24">
            <stop stop-color="#61C4E4" offset="0%"></stop>
            <stop stop-color="#4B609D" offset="100%"></stop>
        </linearGradient>
        <path d="M1.871,2.554 C1.871,2.554 -0.52,14.028 0.628,15.026 C3.226,17.282 12.976,15.2 20.394,14.288 C27.812,13.376 41.476,14.88 41.833,13.366 C42.798,9.276 40.98,0.243 40.98,0.243 L1.871,2.554" id="path-25"></path>
        <path d="M38.117,10.248 C36.376,5.46 34.369,2.923 29.546,1.765 C27.941,1.378 23.171,0.067 23.171,0.067 C23.171,0.067 19.791,3.001 17.556,3.163 C16.021,3.273 14.722,1.624 14.722,1.624 C14.722,1.624 9.205,3.3 8.203,3.882 C4.314,6.138 4.248,9.949 4.021,13.108 C1.75,44.616 0.33,49.228 1.316,50.97 C3.736,55.241 43.882,52.419 43.136,47.14 C40.652,29.554 38.654,11.726 38.117,10.248" id="path-27"></path>
        <path d="M19.222,1.142 C16.353,-0.085 8.089,2.133 1.296,2.326 C0.21,5.298 -0.127,10.636 0.984,14.651 C8.98,15.731 16.173,15.089 18.433,14.052 C24.244,11.384 22.933,2.727 19.222,1.142" id="path-29"></path>
        <linearGradient x1="-0.00191672729%" y1="50.0005382%" x2="99.9980964%" y2="50.0005382%" id="linearGradient-31">
            <stop stop-color="#8FCEE6" offset="0%"></stop>
            <stop stop-color="#BAE0E7" offset="100%"></stop>
        </linearGradient>
        <path d="M2.929,0.332 C2.525,0.087 2.14,0.017 1.796,0.042 C0.941,0.104 0.341,0.753 0.341,0.753 C2.371,1.421 4.037,3.288 4.037,3.288 C4.484,2.311 4.449,1.253 2.929,0.332" id="path-32"></path>
        <linearGradient x1="0%" y1="49.9810141%" x2="99.9855435%" y2="49.9810141%" id="linearGradient-34">
            <stop stop-color="#61C4E4" offset="0%"></stop>
            <stop stop-color="#4B609D" offset="100%"></stop>
        </linearGradient>
    </defs>
    <g id="Guidline" stroke="none" stroke-width="1" fill="none" fill-rule="evenodd">
        <g id="C28" transform="translate(-794.000000, -692.000000)">
            <g id="Group-14" transform="translate(786.000000, 692.000000)">
                <g id="Group-13" transform="translate(478.947548, 107.664142)">
                    <path d="M6.1079135,4.88240407 C6.1529135,4.44640407 6.3249135,3.98440407 5.7349135,4.00040407 C5.3539135,3.97940407 4.9129135,5.59140407 5.0149135,5.95740407 C5.5189135,6.76140407 5.9869135,6.46240407 6.3529135,7.28640407 C6.1399135,6.52540407 6.0789135,5.67740407 6.1079135,4.88240407" id="Fill-500" fill="#F5C7B5"></path>
                    <path d="M3.62434288,3.40263036 C3.31934288,3.10463036 2.68134288,2.26063036 2.35834288,2.10363036 C2.15334288,2.00563036 1.43134288,1.94963036 1.13234288,2.06263036 C0.737342876,2.21463036 0.735342876,2.59863036 0.735342876,2.59863036 C0.200342876,2.70963036 0.595342876,3.74563036 0.462342876,3.74863036 C-0.082657124,3.76263036 -0.334657124,4.40263036 0.792342876,5.58563036 C0.860342876,5.65663036 2.86634288,9.11363036 3.62234288,10.1596304 C4.49334288,9.72163036 6.78234288,7.80363036 6.76834288,7.76463036 C6.46634288,7.10763036 6.06934288,6.44163036 5.62834288,5.80963036 C5.11434288,5.05563036 3.72434288,3.51063036 3.62434288,3.40263036" id="Fill-501" fill="#F5C7B5"></path>
                    <path d="M31.6427553,2.06330892 C29.2137553,5.75830892 24.7257553,19.3053089 21.3367553,25.3813089 C17.1807553,32.8313089 23.8617553,33.0713089 25.8507553,31.2213089 C31.0827553,26.3493089 43.1237553,10.4973089 40.8797553,7.52230892 C39.9067553,6.23330892 32.0847553,1.39330892 31.6427553,2.06330892" id="Fill-502" fill="#F5C7B5"></path>
                    <g id="Group-505" transform="translate(24.000000, 0.000000)">
                        <mask id="mask-2" fill="white">
                            <use xlink:href="#path-1"></use>
                        </mask>
                        <g id="Clip-504"></g>
                        <path d="M8.083,0.573 C6.369,3.181 3.337,10.691 0.083,16.659 C1.855,18.054 4.527,19.798 6.513,20.889 C7.324,21.334 9.736,22.761 10.576,23.133 C15.533,16.769 18.818,8.017 17.32,6.032 C16.347,4.743 8.525,-0.097 8.083,0.573" id="Fill-503" fill="#9BD3E6" mask="url(#mask-2)"></path>
                    </g>
                    <path d="M25.23,26.982 C22.236,23.254 8.755,11.382 6.254,7 C5.029,8.095 3.937,8.924 3,9.387 C7.259,16.509 19.865,33.047 23.076,32.216 C26.017,31.455 26.183,29.189 25.664,27.781 C25.546,27.461 25.394,27.186 25.23,26.982" id="Fill-506" fill="#F5C7B5"></path>
                </g>
                <g id="Group-12" transform="translate(140.947548, 105.664142)">
                    <path d="M19.756,6.2445952 C19.188,7.0065952 19.636,7.3365952 19,7.9725952 C19.633,7.4995952 20.402,7.1375952 21.153,6.8765952 C21.576,6.7615952 22.071,6.7545952 21.841,6.2095952 C21.724,5.8465952 20.061,6.0195952 19.756,6.2445952" id="Fill-472" fill="#F5C7B5"></path>
                    <path d="M22.489,0.134603544 C22.207,-0.335396456 21.181,0.586603544 21.138,0.457603544 C20.96,-0.0763964559 20.177,0.00460354407 19.207,1.72560354 C19.149,1.82860354 15.929,5.58460354 15,6.86960354 C15.744,7.50560354 18.544,8.78360354 18.583,8.75060354 C19.217,8.11360354 19.835,7.37960354 20.402,6.61960354 C21.081,5.72360354 22.373,3.55660354 22.462,3.40460354 C22.7,2.94960354 23.443,1.88460354 23.519,1.48760354 C23.568,1.23360354 23.413,0.489603544 23.198,0.254603544 C22.914,-0.0583964559 22.489,0.134603544 22.489,0.134603544" id="Fill-473" fill="#F5C7B5"></path>
                    <path d="M1.62619121,31.2775068 C0.475191206,38.3335068 0.671191206,58.2405068 4.26719121,59.2145068 C5.82619121,59.6375068 14.9731912,58.6695068 14.9111912,57.8715068 C14.5691912,53.4625068 9.81419121,40.0055068 8.77119121,33.1275068 C7.49119121,24.6925068 2.06319121,28.5975068 1.62619121,31.2775068" id="Fill-474" fill="#F5C7B5"></path>
                    <path d="M2.22840563,32.97 C4.00040563,35.437 6.17240563,34.773 7.29840563,33.78 C7.55440563,33.554 7.75540563,33.313 7.88640563,33.088 C10.2804056,28.947 16.4764056,12.088 19.6574056,8.171 C18.1944056,7.425 17.0264056,6.707 16.2564056,6 C11.1554056,12.546 0.292405635,30.277 2.22840563,32.97" id="Fill-475" fill="#F5C7B5"></path>
                    <path d="M18.6896401,10.258 L13.8036401,7 C9.51064007,12.676 0.849640066,26.986 0.138640066,32.404 C-0.677359934,38.018 2.17464007,72.483 6.95664007,73.705 C8.55864007,74.113 13.8056401,60.148 15.0186401,59.046 C15.2956401,58.795 15.4366401,58.449 15.4036401,58.102 C15.1966401,55.861 9.60864007,37.295 9.06164007,34.012 C8.96664007,33.444 8.85164007,32.919 8.71064007,32.418 C9.53464007,30.586 10.5576401,28.084 11.6366401,25.442 C13.9926401,19.675 16.9256401,12.496 18.6896401,10.258" id="Fill-476" fill="#BAE0E7"></path>
                </g>
                <g id="Group-9" transform="translate(340.000000, 69.000000) rotate(-4.000000) translate(-340.000000, -69.000000) translate(104.000000, 17.000000)">
                    <rect id="Rectangle" fill="#FFFFFF" x="-9.09494702e-13" y="4.54747351e-13" width="472" height="104"></rect>
                    <circle id="Oval" fill="#ECECEC" cx="55" cy="35" r="20"></circle>
                    <rect id="Rectangle" fill="#ECECEC" x="84" y="17" width="93" height="12"></rect>
                    <rect id="Rectangle-Copy-4" fill="#ECECEC" x="407" y="17" width="37" height="12"></rect>
                    <rect id="Rectangle-Copy-2" fill="#ECECEC" x="84" y="39" width="75" height="12"></rect>
                    <rect id="Rectangle-Copy-3" fill="#ECECEC" x="35" y="68" width="409" height="12"></rect>
                    <circle id="Oval" fill="#ECECEC" transform="translate(176.000000, 45.000000) scale(-1, -1) translate(-176.000000, -45.000000) " cx="176" cy="45" r="6"></circle>
                </g>
                <path d="M654,327.798174 L654,224 C601.904036,226.013643 563.844839,229.303294 539.822409,233.868951 C464.436589,248.196637 412.628666,270.122658 353.748815,274.200008 C244.535332,281.762894 119.206093,312.431932 94.2492727,316.669091 C77.6113927,319.493864 46.1949684,323.203559 0,327.798174 L654,327.798174 Z" id="Path-2" fill="url(#linearGradient-3)" opacity="0.585491071"></path>
                <g id="Group-19" transform="translate(145.947548, 111.664142)">
                    <g id="Group-479" transform="translate(39.000000, 197.000000)">
                        <mask id="mask-5" fill="white">
                            <use xlink:href="#path-4"></use>
                        </mask>
                        <g id="Clip-478"></g>
                        <path d="M7.339,0.952 C6.818,0.099 6.403,0.003 6.403,0.003 L2.907,0.722 C2.907,0.722 3.054,1.919 3.062,2.765 C3.077,4.397 -0.159,8.37 0.995,9.71 C1.577,10.388 3.525,9.771 4.726,8.819 C5.928,7.866 6.89,6.925 7.196,6.022 C7.578,4.899 8.705,3.228 8.594,2.597 C8.403,1.499 7.339,0.952 7.339,0.952" id="Fill-477" fill="url(#linearGradient-6)" mask="url(#mask-5)"></path>
                    </g>
                    <path d="M42,198.101 C42,198.101 42.304,198.947 42.353,200.219 C42.353,200.219 43.541,200.631 44.86,200.355 C45.606,200.197 46.63,198.406 46.63,198.406 C46.11,197.551 45.726,197 45.726,197 L42,198.101" id="Fill-480" fill="#F5C7B5"></path>
                    <path d="M34.3345789,157.084 C36.8075789,139.166 40.8525789,116.568 39.8715789,103.318 C32.3445789,103.506 22.6295789,102.191 20.1845789,101 C19.8075789,103.078 20.0115789,130.221 20.7645789,156.504 C21.1255789,169.08 42.0055789,198.922 42.0055789,198.922 C42.0405789,199.09 44.6285789,199.639 46.2205789,198.02 C46.2205789,198.02 33.2385789,165.021 34.3345789,157.084" id="Fill-481" fill="#37A0B3"></path>
                    <path d="M7,141.886 C7.102,143.052 10.36,201.388 10.36,201.388 C11.791,202.562 14.061,202.328 14.1,202.212 C14.1,202.212 19.35,142.683 19.156,140 C17.621,141.181 7.962,142.836 7,141.886" id="Fill-482" fill="#F5C7B5"></path>
                    <g id="Group-485" transform="translate(3.000000, 199.000000)">
                        <mask id="mask-8" fill="white">
                            <use xlink:href="#path-7"></use>
                        </mask>
                        <g id="Clip-484"></g>
                        <path d="M10.854,1.866 L7.735,0.132 C7.735,0.132 7.066,1.134 6.521,1.78 C5.468,3.028 0.424,3.931 0.424,5.7 C0.424,6.593 2.303,7.396 3.835,7.456 C5.368,7.517 6.626,7.243 7.531,6.946 C8.434,6.651 10.498,5.812 10.825,5.261 C11.396,4.304 10.946,3.194 10.946,3.194 C11.107,2.208 10.854,1.866 10.854,1.866" id="Fill-483" fill="url(#linearGradient-9)" mask="url(#mask-8)"></path>
                    </g>
                    <path d="M10,200.834 C10,200.834 10.631,201.922 11.812,202.573 C12.48,202.94 14.425,202.248 14.425,202.248 C14.587,201.262 14.656,200.594 14.656,200.594 L11.113,199 C11.113,199 10.792,199.838 10,200.834" id="Fill-486" fill="#F5C7B5"></path>
                    <path d="M2.02621431,98 C1.46921431,102 9.97321431,200.547 9.97321431,200.547 C10.0142143,200.713 13.0472143,202.361 14.5732143,200.679 C14.5732143,200.679 16.1652143,177.963 19.2242143,156.527 C21.8662143,138.023 21.4732143,120.476 22.9372143,119.322 L22.9372143,99.711 C15.4242143,100.205 4.51821431,99.092 2.02621431,98" id="Fill-487" fill="#37A0B3"></path>
                    <path d="M2,99.533 C2,99.533 2.045,104.801 2.289,106.287 C2.973,110.447 7.448,112.699 10.899,112.43 L12.122,108.422 L13.822,112.572 C29.714,113.531 40.401,108.893 40.401,108.893 C42.196,103.139 39.828,94 39.828,94 L2,99.533" id="Fill-488" fill="#BAE0E7"></path>
                    <path d="M17.239,42 C16.746,42.422 11.56,45.819 10,45.698 C10.044,46.123 11.415,50.572 10.594,53.077 C11.19,55.308 17.46,54.865 18.908,50.907 C18.108,49.866 17.087,44.108 17.239,42" id="Fill-489" fill="#F5C7B5"></path>
                    <path d="M24.9224781,51.226 C23.2914781,50.959 18.4394781,50 18.4394781,50 C18.4394781,50 15.2814781,53.173 13.0654781,53.498 C11.5434781,53.72 10.1254781,52.17 10.1254781,52.17 C10.1254781,52.17 4.74647812,54.244 3.78847812,54.898 C0.0744781194,57.432 -0.457521881,61.328 0.292478119,64.406 C2.90447812,75.135 -1.01352188,100.591 2.31947812,101.888 C6.86447812,103.658 32.9164781,103.933 40.7004781,96.572 C40.7004781,96.572 37.4834781,70.543 33.7774781,60.182 C32.3604781,56.223 29.8144781,52.029 24.9224781,51.226" id="Fill-490" fill="#BAE0E7"></path>
                    <path d="M10.4194593,60.9326473 C11.8144593,54.8996473 10.3314593,53.0846473 9.81445934,50.5456473 C9.28345934,47.9356473 9.73445934,44.6806473 10.4234593,42.6066473 C10.3724593,42.5336473 6.45845934,38.4996473 5.14445934,40.6106473 C4.32745934,43.1786473 4.08645934,46.2466473 4.91345934,49.3936473 C6.12345934,53.9926473 4.94345934,57.5226473 4.18345934,59.0536473 C2.92045934,61.5996473 2.91145934,65.0476473 3.07145934,66.6786473 C4.00445934,76.2036473 9.71645934,80.7116473 11.3574593,79.7626473 C13.1584593,78.7196473 8.41745934,69.6046473 10.4194593,60.9326473" id="Fill-491" fill="#9B9B9B"></path>
                    <path d="M10.5103751,34.0000424 C7.65537511,34.0140424 5.44737511,35.3300424 5.01437511,38.0590424 C4.85937511,39.0370424 5.90737511,47.6780424 10.6313751,48.6540424 C12.6283751,49.0670424 16.1433751,45.4450424 16.1313751,43.1550424 L16.1163751,40.0000424 C16.1013751,36.9630424 13.5773751,33.9870424 10.5103751,34.0000424" id="Fill-492" fill="#F5C7B5"></path>
                    <path d="M24.6151536,45.233529 C26.1541536,39.919529 24.1531536,34.966529 21.1001536,31.750529 C18.0491536,28.534529 14.0441536,28.609529 11.8861536,29.612529 C9.1841536,30.868529 9.1491536,31.389529 9.1491536,31.389529 C9.1491536,31.389529 7.7391536,31.120529 6.2411536,32.009529 C3.0011536,33.933529 3.5231536,41.399529 6.2171536,43.616529 C4.1741536,35.651529 9.1631536,34.190529 9.1631536,34.190529 C9.1631536,34.190529 12.6911536,34.420529 14.4901536,36.386529 C16.1271536,38.175529 17.8791536,43.082529 17.0751536,46.909529 C16.4611536,49.831529 14.2891536,52.003529 16.9101536,58.752529 C20.6741536,68.452529 13.9771536,79.160529 16.8591536,80.209529 C19.4831536,81.164529 28.0341536,75.618529 28.7741536,64.729529 C28.9011536,62.864529 28.6301536,58.948529 26.4741536,56.151529 C25.1761536,54.470529 23.0771536,50.548529 24.6151536,45.233529" id="Fill-493" fill="#9B9B9B"></path>
                    <path d="M16.236,39.0057274 C15.936,39.0387274 15.393,39.2087274 15,39.5367274 C15.365,40.5467274 16.179,42.1387274 16.58,42.9267274 C17.293,42.6427274 18.063,41.4097274 17.98,40.6677274 C17.89,39.8827274 17.022,38.9167274 16.236,39.0057274" id="Fill-494" fill="#F5C7B5"></path>
                    <path d="M33.588,7.38371405 C33.096,8.19671405 33.573,8.48171405 33,9.17571405 C33.585,8.64471405 34.316,8.21071405 35.04,7.88071405 C35.45,7.72571405 35.941,7.67371405 35.661,7.15271405 C35.51,6.80171405 33.871,7.13171405 33.588,7.38371405" id="Fill-495" fill="#F5C7B5"></path>
                    <path d="M35.82,0.111843386 C35.495,-0.329156614 34.561,0.684843386 34.506,0.559843386 C34.279,0.0458433863 33.507,0.199843386 32.704,2.00484339 C32.655,2.11284339 29.805,6.15584339 29,7.52284339 C29.801,8.08684339 32.709,9.09384339 32.745,9.05784339 C33.316,8.36284339 33.862,7.57484339 34.355,6.76384339 C34.947,5.80984339 36.027,3.52984339 36.103,3.36984339 C36.296,2.89384339 36.935,1.76484339 36.974,1.36084339 C36.998,1.10384339 36.773,0.377843386 36.538,0.162843386 C36.226,-0.120156614 35.82,0.111843386 35.82,0.111843386" id="Fill-496" fill="#F5C7B5"></path>
                    <path d="M17.0684736,33.6187669 C16.5884736,40.7537669 18.6624736,60.5517669 22.3344736,61.1837669 C23.9254736,61.4577669 32.9414736,59.6317669 32.8034736,58.8417669 C32.0464736,54.4837669 26.0434736,41.5367669 24.3554736,34.7887669 C22.2854736,26.5107669 17.2504736,30.9107669 17.0684736,33.6187669" id="Fill-497" fill="#F5C7B5"></path>
                    <path d="M17.3310959,35.174 C19.3280959,37.463 21.4290959,36.596 22.4550959,35.501 C22.6880959,35.253 22.8660959,34.994 22.9750959,34.756 C24.9680959,30.408 29.5450959,13.039 32.3420959,8.84 C30.8150959,8.236 29.5850959,7.63 28.7520959,7 C24.2910959,13.998 15.1500959,32.676 17.3310959,35.174" id="Fill-498" fill="#F5C7B5"></path>
                    <path d="M25.0445069,36.338 C24.8965069,35.783 24.7325069,35.271 24.5445069,34.785 C25.1925069,32.884 25.9745069,30.295 26.7995069,27.565 C28.6005069,21.6 30.8425069,14.178 32.3875069,11.783 L27.2155069,9 C23.4785069,15.055 16.2055069,30.119 16.0095069,35.581 C15.7265069,41.246 21.8185069,75.287 26.6945069,76.054 C28.3285069,76.309 32.2345069,61.91 33.3375069,60.699 C33.5895069,60.422 33.6965069,60.067 33.6325069,59.723 C33.2145069,57.512 25.8995069,39.557 25.0445069,36.338" id="Fill-499" fill="#BAE0E7"></path>
                </g>
                <g id="Group-20" transform="translate(482.947548, 80.664142)">
                    <g id="Group-49" transform="translate(31.000000, 180.000000)">
                        <mask id="mask-11" fill="white">
                            <use xlink:href="#path-10"></use>
                        </mask>
                        <g id="Clip-48"></g>
                        <polyline id="Fill-47" fill="url(#linearGradient-12)" mask="url(#mask-11)" points="3.427 1.476 0.063 1.476 0.069 1.45 0.18 0.976 1.295 0.976 3.318 1.45 3.427 1.476"></polyline>
                    </g>
                    <g id="Group-58" transform="translate(45.000000, 180.000000)">
                        <mask id="mask-14" fill="white">
                            <use xlink:href="#path-13"></use>
                        </mask>
                        <g id="Clip-57"></g>
                        <path d="M2.371,1.476 L0.576,1.476 C0.624,1.472 0.671,1.47 0.718,1.468 C0.983,1.457 1.242,1.451 1.494,1.45 C1.506,1.45 1.518,1.45 1.531,1.45 C1.544,1.45 1.557,1.45 1.571,1.45 C1.848,1.451 2.115,1.459 2.371,1.476" id="Fill-56" fill="url(#linearGradient-15)" mask="url(#mask-14)"></path>
                    </g>
                    <g id="Group-61" transform="translate(29.000000, 180.000000)">
                        <mask id="mask-17" fill="white">
                            <use xlink:href="#path-16"></use>
                        </mask>
                        <g id="Clip-60"></g>
                        <path d="M1.457,1.476 L0.281,1.476 C0.329,1.472 0.376,1.47 0.423,1.468 C0.572,1.462 0.718,1.459 0.862,1.459 C1.066,1.459 1.264,1.465 1.457,1.476" id="Fill-59" fill="url(#linearGradient-18)" mask="url(#mask-17)"></path>
                    </g>
                    <path d="M45,115.886 C45.101,117.051 48.359,175.388 48.359,175.388 C49.791,176.56 52.06,176.328 52.099,176.213 C52.099,176.213 57.349,116.681 57.156,114 C55.621,115.181 45.961,116.834 45,115.886" id="Fill-513" fill="#F5C7B5"></path>
                    <g id="Group-516" transform="translate(42.000000, 174.000000)">
                        <mask id="mask-20" fill="white">
                            <use xlink:href="#path-19"></use>
                        </mask>
                        <g id="Clip-515"></g>
                        <path d="M10.667,1.858 L7.548,0.124 C7.548,0.124 6.88,1.126 6.333,1.772 C5.283,3.019 0.238,3.921 0.238,5.69 C0.238,6.583 2.117,7.386 3.648,7.446 C5.181,7.509 6.525,7.423 7.345,6.939 C8.367,6.335 10.312,5.802 10.638,5.251 C11.208,4.296 10.759,3.187 10.759,3.187 C10.921,2.2 10.667,1.858 10.667,1.858" id="Fill-514" fill="url(#linearGradient-21)" mask="url(#mask-20)"></path>
                    </g>
                    <path d="M48,175.833 C48,175.833 48.633,176.921 49.813,177.572 C50.481,177.939 52.426,177.248 52.426,177.248 C52.588,176.261 52.657,175.591 52.657,175.591 L49.114,174 C49.114,174 48.793,174.837 48,175.833" id="Fill-517" fill="#F5C7B5"></path>
                    <path d="M29,115.886 C29.103,117.051 32.359,175.388 32.359,175.388 C33.791,176.56 36.06,176.328 36.099,176.213 C36.099,176.213 41.351,116.681 41.156,114 C39.621,115.181 29.963,116.834 29,115.886" id="Fill-519" fill="#F5C7B5"></path>
                    <g id="Group-522" transform="translate(25.000000, 174.000000)">
                        <mask id="mask-23" fill="white">
                            <use xlink:href="#path-22"></use>
                        </mask>
                        <g id="Clip-521"></g>
                        <path d="M11.373,1.858 L8.253,0.124 C8.253,0.124 7.585,1.126 7.041,1.772 C5.988,3.019 0.943,3.921 0.943,5.69 C0.943,6.583 2.822,7.386 4.355,7.446 C5.886,7.509 7.146,7.235 8.05,6.939 C8.953,6.644 11.017,5.802 11.345,5.251 C11.916,4.296 11.464,3.187 11.464,3.187 C11.626,2.2 11.373,1.858 11.373,1.858" id="Fill-520" fill="url(#linearGradient-24)" mask="url(#mask-23)"></path>
                    </g>
                    <path d="M32,175.833 C32,175.833 32.63,176.921 33.812,177.572 C34.48,177.939 36.423,177.248 36.423,177.248 C36.587,176.261 36.656,175.591 36.656,175.591 L33.113,174 C33.113,174 32.791,174.837 32,175.833" id="Fill-523" fill="#F5C7B5"></path>
                    <path d="M40.0262143,72 C39.4692143,75.998 47.9732143,174.547 47.9732143,174.547 C48.0142143,174.711 51.0472143,176.361 52.5732143,174.68 C52.5732143,174.68 54.1662143,151.963 57.2252143,130.527 C59.8662143,112.023 60.9382143,73.711 60.9382143,73.711 C53.4242143,74.203 42.5182143,73.092 40.0262143,72" id="Fill-518" fill="#37A0B3"></path>
                    <path d="M24.0263989,72 C23.4673989,75.998 31.9713989,174.547 31.9713989,174.547 C32.0143989,174.711 35.0453989,176.361 36.5733989,174.68 C36.5733989,174.68 38.1643989,151.963 41.2233989,130.527 C43.8643989,112.023 43.4713989,94.475 44.9363989,93.322 L44.9363989,73.711 C37.4223989,74.203 26.5183989,73.092 24.0263989,72" id="Fill-524" fill="#37A0B3"></path>
                    <g id="Group-527" transform="translate(22.000000, 68.000000)">
                        <mask id="mask-26" fill="white">
                            <use xlink:href="#path-25"></use>
                        </mask>
                        <g id="Clip-526"></g>
                        <path d="M1.871,2.554 C1.871,2.554 -0.52,14.028 0.628,15.026 C3.226,17.282 12.976,15.2 20.394,14.288 C27.812,13.376 41.476,14.88 41.833,13.366 C42.798,9.276 40.98,0.243 40.98,0.243 L1.871,2.554" id="Fill-525" fill="#BAE0E7" mask="url(#mask-26)"></path>
                    </g>
                    <path d="M42.489,17 C41.965,17.383 36.547,20.391 35,20.157 C35.012,20.585 36.053,25.122 35.053,27.56 C35.483,29.829 41.77,29.845 43.502,26.003 C42.782,24.908 42.182,19.089 42.489,17" id="Fill-528" fill="#F5C7B5"></path>
                    <path d="M37.2841573,9.03178924 C34.4351573,8.83678924 31.6791573,9.49678924 31.0481573,12.1877892 C30.8211573,13.1507892 31.2351573,21.8467892 35.8741573,23.1647892 C37.8371573,23.7217892 41.6061573,20.3667892 41.7631573,18.0807892 L41.9781573,14.9337892 C42.1851573,11.9047892 40.3431573,9.24078924 37.2841573,9.03178924" id="Fill-529" fill="#F5C7B5"></path>
                    <g id="Group-532" transform="translate(21.000000, 26.000000)">
                        <mask id="mask-28" fill="white">
                            <use xlink:href="#path-27"></use>
                        </mask>
                        <g id="Clip-531"></g>
                        <path d="M38.117,10.248 C36.376,5.46 34.369,2.923 29.546,1.765 C27.941,1.378 23.171,0.067 23.171,0.067 C23.171,0.067 19.791,3.001 17.556,3.163 C16.021,3.273 14.722,1.624 14.722,1.624 C14.722,1.624 9.205,3.3 8.203,3.882 C4.314,6.138 4.248,9.949 4.021,13.108 C1.75,44.616 0.33,49.228 1.316,50.97 C3.736,55.241 43.882,52.419 43.136,47.14 C40.652,29.554 38.654,11.726 38.117,10.248" id="Fill-530" fill="#BAE0E7" mask="url(#mask-28)"></path>
                    </g>
                    <path d="M43.0841271,7.6205619 C38.9261271,3.8495619 32.4811271,7.8415619 32.4811271,7.8415619 C27.5771271,8.7775619 28.6411271,15.9565619 30.8931271,16.9995619 C29.8291271,11.7205619 33.4111271,10.0125619 33.4111271,10.0125619 C40.0591271,9.9155619 42.3721271,17.8435619 41.9261271,19.8965619 C41.9261271,19.8965619 49.3461271,13.2985619 43.0841271,7.6205619" id="Fill-533" fill="#9B9B9B"></path>
                    <path d="M41.271,14.0007297 C40.97,14.0117297 40.416,14.1427297 40,14.4397297 C40.291,15.4737297 40.986,17.1207297 41.328,17.9367297 C42.058,17.7047297 42.918,16.5327297 42.888,15.7867297 C42.857,14.9957297 42.062,13.9687297 41.271,14.0007297" id="Fill-534" fill="#F5C7B5"></path>
                    <path d="M6.70777994,12.0011177 C6.32677994,11.9851177 5.91077994,13.6051177 6.01677994,13.9691177 C6.53377994,14.7651177 6.99877994,14.4591177 7.37577994,15.2771177 C7.15077994,14.5191177 7.07677994,13.6721177 7.09477994,12.8771177 C7.13177994,12.4411177 7.29777994,11.9741177 6.70777994,12.0011177" id="Fill-535" fill="#F5C7B5"></path>
                    <path d="M3.65963609,10.8331896 C3.31363609,10.4521896 2.57363609,9.38618958 2.22763609,9.17718958 C2.00763609,9.04418958 1.25563609,8.93118958 0.95863609,9.05018958 C0.56763609,9.20818958 0.60263609,9.67418958 0.60263609,9.67418958 C0.0636360901,9.77618958 0.57163609,11.0581896 0.43463609,11.0531896 C-0.12536391,11.0351896 -0.32336391,11.7961896 0.95463609,13.3041896 C1.03263609,13.3941896 3.43663609,17.7161896 4.31963609,19.0351896 C5.17563609,18.5581896 7.34263609,16.3741896 7.32563609,16.3271896 C6.94863609,15.5111896 6.47563609,14.6771896 5.95863609,13.8801896 C5.35463609,12.9331896 3.77063609,10.9701896 3.65963609,10.8331896" id="Fill-536" fill="#F5C7B5"></path>
                    <path d="M51.8973405,31.0140205 C47.4813405,30.7730205 33.5163405,33.7170205 26.5613405,33.8460205 C18.0323405,34.0060205 21.1883405,39.8990205 23.7863405,40.6860205 C30.6303405,42.7540205 50.3893405,45.1780205 51.8313405,41.7410205 C52.4543405,40.2520205 52.6983405,31.0570205 51.8973405,31.0140205" id="Fill-537" fill="#F5C7B5"></path>
                    <g id="Group-540" transform="translate(33.000000, 30.000000)">
                        <mask id="mask-30" fill="white">
                            <use xlink:href="#path-29"></use>
                        </mask>
                        <g id="Clip-539"></g>
                        <path d="M19.222,1.142 C16.353,-0.085 8.089,2.133 1.296,2.326 C0.21,5.298 -0.127,10.636 0.984,14.651 C8.98,15.731 16.173,15.089 18.433,14.052 C24.244,11.384 22.933,2.727 19.222,1.142" id="Fill-538" fill="url(#linearGradient-31)" mask="url(#mask-30)"></path>
                    </g>
                    <path d="M26.5,35.683 C23.449,32.002 9.785,20.342 7.215,16 C6.008,17.113 4.93,17.959 4,18.435 C8.369,25.491 21.231,41.832 24.428,40.95 C27.356,40.144 27.486,37.876 26.945,36.474 C26.824,36.158 26.666,35.885 26.5,35.683" id="Fill-541" fill="#F5C7B5"></path>
                    <path d="M59.7263699,12.2118087 C58.3323699,-7.10219128 42.6383699,1.03680872 43.0063699,6.10980872 C43.0953699,7.35680872 43.7773699,8.08880872 44.7973699,6.77380872 C46.5153699,4.55280872 52.6933699,2.57480872 49.1033699,14.3388087 C48.1543699,17.4438087 44.1133699,21.4448087 52.8963699,27.0548087 C60.8413699,32.1298087 54.2873699,34.0738087 54.7263699,36.4188087 C55.8533699,42.4348087 71.4703699,29.3828087 63.2073699,20.3768087 C61.5353699,18.5528087 60.1463699,18.0348087 59.7263699,12.2118087" id="Fill-542" fill="#9B9B9B"></path>
                    <g id="Group-545" transform="translate(41.000000, 6.000000)">
                        <mask id="mask-33" fill="white">
                            <use xlink:href="#path-32"></use>
                        </mask>
                        <g id="Clip-544"></g>
                        <path d="M2.929,0.332 C2.525,0.087 2.14,0.017 1.796,0.042 C0.941,0.104 0.341,0.753 0.341,0.753 C2.371,1.421 4.037,3.288 4.037,3.288 C4.484,2.311 4.449,1.253 2.929,0.332" id="Fill-543" fill="url(#linearGradient-34)" mask="url(#mask-33)"></path>
                    </g>
                </g>
            </g>
        </g>
    </g>
</svg>